<svg version="1.1" xmlns="http://www.w3.org/2000/svg" xmlns:xlink="http://www.w3.org/1999/xlink" width="76.5" height="4.81006" viewBox="0,0,76.5,4.81006"><g transform="translate(-199.35833,-214.91429)"><g data-paper-data="{&quot;isPaintingLayer&quot;:true}" fill="#ff0000" fill-rule="nonzero" stroke="none" stroke-width="0.5" stroke-linecap="butt" stroke-linejoin="miter" stroke-miterlimit="10" stroke-dasharray="" stroke-dashoffset="0" style="mix-blend-mode: normal"><path d="M275.85833,217.56429c0,1.25 -1.25,1.25 -1.25,1.25h-1.6c-0.44362,-0.00064 -0.88725,-0.00128 -1.33087,-0.00191c-12.7881,1.41383 -25.96506,0.20191 -38.86913,0.20191c-4.33123,0 -9.05325,1.0521 -13.31226,0.59495c-6.41251,-0.6883 -12.32568,-2.19495 -18.88774,-2.19495c0,0 -1.25,0 -1.25,-1.25c0,-1.25 1.25,-1.25 1.25,-1.25c6.63845,0 12.63003,1.45649 19.11226,2.20505c4.14675,0.47886 8.85658,-0.60505 13.08774,-0.60505c12.85567,0 25.99371,1.2231 38.73087,-0.19809c0.48971,-0.00064 0.97942,-0.00128 1.46913,-0.00191h1.6c0,0 1.25,0 1.25,1.25z"/></g></g></svg>