<svg version="1.1" xmlns="http://www.w3.org/2000/svg" xmlns:xlink="http://www.w3.org/1999/xlink" width="121.47097" height="62.16667" viewBox="0,0,121.47097,62.16667"><g transform="translate(-224.74482,-178.13095)"><g data-paper-data="{&quot;isPaintingLayer&quot;:true}" fill-rule="nonzero" stroke="none" stroke-width="0.5" stroke-linecap="butt" stroke-linejoin="miter" stroke-miterlimit="10" stroke-dasharray="" stroke-dashoffset="0" style="mix-blend-mode: normal"><path d="M314.82391,204.80945c0.84858,-0.10067 1.77461,-0.26427 2.60693,-0.38346c4.17087,-0.59724 8.30647,-0.15332 12.43189,-1.17635c3.49465,-0.69816 6.64547,-1.83246 9.98552,-3.04369c0.64838,-0.23513 1.20466,-0.43092 1.85151,-0.67022c0.69618,-0.25754 2.20024,-1.55881 2.17877,-0.81683c-0.15203,5.25286 -0.45452,8.68748 -4.55274,12.19474c-0.05023,-0.32692 -0.21014,-0.6428 -0.28028,-0.96524l0.02975,0.10436c0,0 0.00022,-1.24816 -1.24978,-1.24816c-1.25,0 -1.15079,1.23752 -1.15079,1.23752l0.02983,0.43844c0.2033,0.89236 0.30881,1.81746 0.3038,2.73267c0,2.57808 0.40823,5.50854 -0.28631,8.00124c-0.74443,2.67174 -2.35287,4.81942 -4.33738,6.68118c-0.41994,-0.50138 -1.14082,-0.39827 -1.14082,-0.39827l-1.29353,0.19243c-1.5619,0.39048 -3.09315,0.8533 -4.626,1.31872c0.49599,-0.76539 0.97299,-1.57063 1.62631,-2.34173c1.01821,-1.20177 2.96719,-2.28051 2.72111,-4.21835c-0.27641,-2.17663 -2.48254,-0.73128 -3.42706,-1.1865c-0.73352,-0.35353 -0.94917,-1.33363 -1.28121,-2.07713c-1.04317,-2.3359 -2.07507,-5.55805 -2.05467,-8.13055c0,0 0.00056,-1.24669 -1.24944,-1.24669c-1.25,0 -1.15157,1.23253 -1.15157,1.23253c0.01016,1.61247 0.32139,3.64838 0.86679,5.60154c-0.07864,0.00155 -0.12678,0.00848 -0.12678,0.00848l-1.48246,0.25636c-5.47414,2.37655 -11.31947,1.14764 -17.04938,1.57429c0.07662,-1.97207 0.03652,-3.91486 0.03652,-5.73549l0.00739,-0.65913c0,0 0.02657,-1.23884 -1.22343,-1.23884c-1.25,0 -1.22325,1.24542 -1.22325,1.24542l0.00796,0.66192c0,4.22604 -0.18258,8.79265 -0.93383,13.09001c-1.26118,1.40727 -2.96277,2.46594 -4.50285,3.63329c-0.62437,-3.10462 -0.44966,-6.51019 -0.18835,-9.85257c0.00723,-0.02439 0.01391,-0.04963 0.02034,-0.07537c0.0553,-0.22122 0.05854,-0.41415 0.02953,-0.57851c0.16609,-2.07478 0.32982,-4.16127 0.32982,-6.0994c0,0 0.09686,-1.22601 -1.15314,-1.22601c-1.25,0 -1.24803,1.2411 -1.24803,1.2411c0,1.5702 -0.10369,3.16464 -0.22185,4.80562c-1.10766,-0.22033 -1.6554,-0.62093 -2.22799,-1.44985c0.18855,-0.26089 0.29926,-0.64243 0.09443,-1.15451c-0.46424,-1.1606 -1.52513,-0.70315 -1.52513,-0.70315l-0.76443,0.30701c-1.62666,0.54222 -3.24417,1.30255 -4.9754,1.27897c-4.0258,-0.40258 -8.034,-0.75263 -12.04131,-1.32504c-2.27598,-0.32511 -4.02272,-0.37571 -5.89541,-1.90036c-2.40725,-1.95987 -4.78977,-5.67686 -6.16995,-8.42851c-0.1988,-0.39634 -0.20383,-0.89405 -0.31848,-1.40255c2.0628,1.69595 4.02592,3.9119 6.33445,4.65376c5.56172,1.7873 12.31913,-2.21639 17.50376,-3.49834c0,0 0.3375,-0.08545 0.61175,-0.34262c3.19821,0.13163 6.40462,0.11183 9.48266,-0.30085c0.1008,0.05979 0.22625,0.11861 0.36787,0.15519c-0.00158,0.03026 0.0601,0.13938 0.0601,0.17125c0,1.25 1.18798,1.17156 1.18798,1.17156l0.34595,-0.0104c0.53309,0.06572 1.07449,0.12163 1.61389,0.17435c0.52696,2.44288 2.7332,4.73166 5.12342,5.3955c1.37105,0.38078 2.66712,-0.63521 4.03188,-0.64125c1.53702,-0.3074 3.29924,-0.23366 4.78803,0.32053c0.7007,0.26083 1.30131,1.10858 2.09979,1.06245c3.40594,-0.19676 3.15605,-4.30262 2.64331,-6.41652z" data-paper-data="{&quot;noHover&quot;:false,&quot;origItem&quot;:[&quot;Path&quot;,{&quot;applyMatrix&quot;:true,&quot;segments&quot;:[[[312.22911,211.21385],[3.40594,-0.19676],[-0.79848,0.04613]],[[310.03486,210.18323],[0.7007,0.26083],[-1.48878,-0.55419]],[[305.2576,209.87852],[1.53702,-0.3074],[-1.36476,0.00605]],[[301.26012,210.53424],[1.37105,0.38078],[-2.39023,-0.66384]],[[296.16227,205.13218],[0.52696,2.44288],[-0.53939,-0.05272]],[[294.55329,204.95463],[0.53309,0.06572],[0,0]],[294.20833,204.96429],[[292.95833,203.71429],[0,1.25],[0,-0.03187]],[[292.96073,203.6211],[-0.00158,0.03026],[-0.14162,-0.03657]],[[292.59341,203.46547],[0.1008,0.05979],[-3.07804,0.41268]],[[283.12258,203.75225],[3.19821,0.13163],[-0.27425,0.25717]],[[282.51151,204.09363],[0,0],[-5.18463,1.28195]],[[265.01277,207.57732],[5.56172,1.7873],[-2.30853,-0.74186]],[[258.58069,202.9023],[2.0628,1.69595],[0.11464,0.5085]],[[258.99631,204.32854],[-0.1988,-0.39634],[1.38018,2.75165]],[[265.16749,212.74761],[-2.40725,-1.95987],[1.8727,1.52465]],[[271.06291,214.64516],[-2.27598,-0.32511],[4.00731,0.57242]],[[283.10393,215.96584],[-4.0258,-0.40258],[1.73124,0.02358]],[[287.97972,214.6951],[-1.62666,0.54222],[0,0]],[288.7441,214.38703],[[290.36893,215.08338],[-0.46424,-1.1606],[0.20484,0.51209]],[[290.27373,216.23287],[0.18855,-0.26089],[0.57259,0.82891]],[[292.40675,217.71243],[-1.10766,-0.22033],[0.11816,-1.64097]],[[292.625,212.88095],[0,1.5702],[0,0]],[[293.875,211.63095],[-1.25,0],[1.25,0]],[[295.125,212.88095],[0,0],[0,1.93813]],[[294.7855,218.94093],[0.16609,-2.07478],[0.02902,0.16437]],[[294.75435,219.51746],[0.0553,-0.22122],[-0.00644,0.02573]],[[294.73384,219.59263],[0.00723,-0.02439],[-0.2613,3.34238]],[[294.90332,229.43169],[-0.62437,-3.10462],[1.54008,-1.16735]],[[299.39486,225.79528],[-1.26118,1.40727],[0.75125,-4.29737]],[[300.29167,212.71429],[0,4.22604],[0,0]],[300.29167,212.04762],[[301.54167,210.79762],[-1.25,0],[1.25,0]],[302.79167,212.04762],[[302.79167,212.71429],[0,0],[0,1.82063]],[[302.70007,218.43338],[0.07662,-1.97207],[5.72991,-0.42665]],[[319.71594,216.89869],[-5.47414,2.37655],[0,0]],[321.19822,216.64352],[[321.325,216.63509],[-0.07864,0.00155],[-0.5454,-1.95317]],[[320.45833,211.04762],[0.01016,1.61247],[0,0]],[[321.70833,209.79762],[-1.25,0],[1.25,0]],[[322.95833,211.04762],[0,0],[-0.02041,2.5725]],[[325.01228,219.19554],[-1.04317,-2.3359],[0.33204,0.7435]],[[326.29266,221.27593],[-0.73352,-0.35353],[0.94451,0.45522]],[[329.71963,222.46273],[-0.27641,-2.17663],[0.24609,1.93784]],[[326.99544,226.68892],[1.01821,-1.20177],[-0.65332,0.77109]],[[325.28186,228.98207],[0.49599,-0.76539],[1.53285,-0.46541]],[[329.90516,227.66827],[-1.5619,0.39048],[0,0]],[331.19822,227.47685],[[332.33898,227.87526],[-0.41994,-0.50138],[1.98451,-1.86176]],[[336.67302,221.20448],[-0.74443,2.67174],[0.69454,-2.4927]],[[336.95833,213.21429],[0,2.57808],[0.00501,-0.91521]],[[336.65477,210.48545],[0.2033,0.89236],[0,0]],[336.625,210.04762],[[337.875,208.79762],[-1.25,0],[1.25,0]],[339.125,210.04762],[[339.09523,209.94312],[0,0],[0.07014,0.32244]],[[339.27595,210.91764],[-0.05023,-0.32692],[4.09821,-3.50726]],[[343.83145,198.73573],[-0.15203,5.25286],[0.02147,-0.74198]],[[341.74686,199.51895],[0.69618,-0.25754],[-0.64685,0.23929]],[[339.80115,200.22273],[0.64838,-0.23513],[-3.34005,1.21123]],[[329.8159,203.26717],[3.49465,-0.69816],[-4.12542,1.02302]],[[317.38775,204.45134],[4.17087,-0.59724],[-0.83233,0.11918]],[[314.8654,204.78155],[0.84858,-0.10067],[0.51274,2.11391]]],&quot;closed&quot;:true}]}" fill="#b10000"/><path d="M279.95833,208.88095c0,-0.69036 0.55964,-1.25 1.25,-1.25c0.69036,0 1.25,0.55964 1.25,1.25c0,0.69036 -0.55964,1.25 -1.25,1.25c-0.69036,0 -1.25,-0.55964 -1.25,-1.25z" fill="#000000"/><path d="M309.82221,205.60456l-0.33653,0.52575c-2.50202,1.62966 -3.86505,0.45198 -6.23195,-0.09762c0,0 -0.45357,-0.11339 -0.37387,-0.55947c-1.90734,-0.01437 -3.80507,-0.09378 -5.67244,-0.24712c0.54856,1.96206 2.3785,3.76849 4.28246,4.33489c1.15,0.34211 2.46212,-0.68413 3.66919,-0.67761c1.6755,-0.3351 3.60541,-0.24818 5.22274,0.36196c0.37697,0.14221 1.38199,1.0035 1.80575,0.96937c2.65902,-0.2141 2.08397,-3.71183 1.70237,-5.2125l-0.17998,-0.09012c-1.26923,0.13624 -2.55221,0.25028 -3.84244,0.33933c0.03981,0.18291 -0.0453,0.35313 -0.0453,0.35313zM312.22911,211.21385c-0.79848,0.04613 -1.49355,-0.7698 -2.19425,-1.03063c-1.48878,-0.55419 -3.24023,-0.61211 -4.77726,-0.30471c-1.36476,0.00605 -2.62643,1.03651 -3.99748,0.65572c-2.39023,-0.66384 -4.5709,-2.95919 -5.09785,-5.40207c-0.53939,-0.05272 -1.07589,-0.11183 -1.60898,-0.17754l-0.34496,0.00965c0,0 -1.25,0 -1.25,-1.25c0,-0.03187 0.00081,-0.06292 0.0024,-0.09319c-0.14162,-0.03657 -0.26652,-0.09584 -0.36732,-0.15563c-3.07804,0.41268 -6.27262,0.41841 -9.47083,0.28678c-0.27425,0.25717 -0.61107,0.34138 -0.61107,0.34138c-5.18463,1.28195 -11.93702,5.27098 -17.49874,3.48369c-2.30853,-0.74186 -4.36928,-2.97906 -6.43208,-4.67502c0.11464,0.5085 0.21682,1.0299 0.41562,1.42624c1.38018,2.75165 3.76393,6.4592 6.17118,8.41907c1.8727,1.52465 3.61945,1.57244 5.89543,1.89755c4.00731,0.57242 8.01522,0.9181 12.04102,1.32068c1.73124,0.02358 3.24912,-0.72852 4.87578,-1.27074l0.76438,-0.30808c0,0 1.16059,-0.46424 1.62483,0.69636c0.20484,0.51209 0.09335,0.8886 -0.0952,1.14949c0.57259,0.82891 1.02536,1.25923 2.13302,1.47956c0.11816,-1.64097 0.21825,-3.26128 0.21825,-4.83148c0,0 0,-1.25 1.25,-1.25c1.25,0 1.25,1.25 1.25,1.25c0,1.93813 -0.17341,3.9852 -0.3395,6.05998c0.02902,0.16437 0.02415,0.35531 -0.03115,0.57653c-0.00644,0.02573 -0.01328,0.05078 -0.02051,0.07518c-0.2613,3.34238 -0.45489,6.73444 0.16949,9.83906c1.54008,-1.16735 3.23036,-2.22915 4.49154,-3.63641c0.75125,-4.29737 0.8968,-8.85495 0.8968,-13.08099v-0.66666c0,0 0,-1.25 1.25,-1.25c1.25,0 1.25,1.25 1.25,1.25v0.66666c0,1.82063 -0.01498,3.74702 -0.0916,5.7191c5.72991,-0.42665 11.54173,0.84186 17.01587,-1.53469l1.48229,-0.25517c0,0 0.04813,-0.00688 0.12677,-0.00842c-0.5454,-1.95317 -0.8565,-3.97501 -0.86666,-5.58747c0,0 0,-1.25 1.25,-1.25c1.25,0 1.25,1.25 1.25,1.25c-0.02041,2.5725 1.01078,5.81203 2.05395,8.14793c0.33204,0.7435 0.54685,1.72686 1.28038,2.08039c0.94451,0.45522 3.15056,-0.98984 3.42697,1.1868c0.24609,1.93784 -1.70597,3.02442 -2.72418,4.22619c-0.65332,0.77109 -1.21759,1.52776 -1.71358,2.29315c1.53285,-0.46541 3.0614,-0.92332 4.6233,-1.3138l1.29306,-0.19143c0,0 0.72082,-0.10297 1.14076,0.39841c1.98451,-1.86176 3.58961,-3.99904 4.33404,-6.67078c0.69454,-2.4927 0.28531,-5.41211 0.28531,-7.99019c0.00501,-0.91521 -0.10027,-1.83648 -0.30357,-2.72884l-0.02977,-0.43783c0,0 0,-1.25 1.25,-1.25c1.25,0 1.25,1.25 1.25,1.25l-0.02977,-0.1045c0.07014,0.32244 0.13049,0.64759 0.18072,0.97452c4.09821,-3.50726 4.40347,-6.92904 4.5555,-12.18191c0.02147,-0.74198 -1.38841,0.52568 -2.08459,0.78322c-0.64685,0.23929 -1.29733,0.46865 -1.94571,0.70378c-3.34005,1.21123 -6.4906,2.34627 -9.98525,3.04443c-4.12542,1.02302 -8.25728,0.58693 -12.42816,1.18418c-0.83233,0.11918 -1.67377,0.22954 -2.52235,0.3302c0.51274,2.11391 0.76966,6.23555 -2.63629,6.43231zM324.23418,231.91157c0,0 -0.2415,0.07245 -0.54011,0.04381c-0.43057,0.99332 -0.7998,2.04159 -1.14408,3.18538c-0.01403,0.03272 -0.02805,0.06545 -0.04208,0.09817c2.05696,-1.62688 4.45797,-3.14094 6.71244,-4.80615c-1.67269,0.45877 -3.31794,0.97817 -4.98618,1.47879zM295.67523,232.0079c0,0 -0.11316,0.0943 -0.29416,0.17931c0.33768,1.10547 0.69931,2.21177 0.97686,3.32254c0.55939,-1.90786 1.68102,-4.32893 2.09274,-5.62205c-0.92881,0.69828 -1.88135,1.3751 -2.77544,2.12019zM264.60362,221.73347c-1.18585,0.39528 -1.58114,-0.79057 -1.58114,-0.79057l-0.15122,-0.45638c-0.01219,-0.03251 -0.02432,-0.06497 -0.03641,-0.09738c-4.03404,-2.12045 -7.57777,-5.43366 -10.53932,-8.82088c-0.14376,-0.14361 -0.28752,-0.28723 -0.43127,-0.43084c-0.36018,0.01591 -0.81182,-0.10652 -1.10728,-0.69746c-0.55902,-1.11803 0.55902,-1.67705 0.55902,-1.67705l0.39412,0.01497c0.21803,-0.17671 0.43628,-0.24946 0.43628,-0.24946c2.31136,-0.74725 4.36131,-0.47047 6.36639,0.29891c-1.42218,-2.37873 -2.40532,-4.97426 -2.67257,-7.33787l-0.37222,0.04653l-0.16422,-1.31377c-0.00797,-0.05706 -0.0121,-0.11535 -0.0121,-0.17461c0,-0.69036 0.55965,-1.25 1.25,-1.25c0.23358,0 0.45219,0.06406 0.63923,0.17559l1.1476,0.65578l-0.00385,0.00675l0.02713,0.00688c2.29408,1.44569 4.87966,4.7955 7.38545,5.54197c3.38673,1.00889 7.43125,-0.40281 11.13559,-1.79155c-2.27198,-0.14115 -4.50754,-0.26208 -6.66449,-0.26208c0,0 -0.64637,0 -1.0095,-0.46479c-3.68727,-0.94055 -6.54008,-1.9994 -7.99424,-5.84631c0,0 -0.4389,-1.17041 0.73151,-1.60931c1.17041,-0.43891 1.60931,0.73151 1.60931,0.73151c1.15618,3.11183 3.59974,3.63464 6.63276,4.39289l-0.1365,-0.03732c0,0 0.32914,0 0.64963,0.16889c0.23633,-0.28623 0.5528,-0.41282 0.5528,-0.41282c3.43439,-1.35208 3.65994,-4.53335 6.28054,-6.92225c3.59321,-3.27552 11.44444,-4.87159 14.27945,0.31467c0.14346,0.26243 0.63073,2.64871 0.73681,3.15077c0.78643,1.35103 1.24507,2.67826 1.52992,4.13335c1.18057,-0.24373 2.3325,-0.56558 3.44642,-0.98395c0.96726,-0.53931 1.90995,-1.12389 2.83105,-1.73873l0.46769,-0.24463c0,0 1.11804,-0.55902 1.67705,0.55901c0.55901,1.11803 -0.55902,1.67705 -0.55902,1.67705l-0.19897,0.0887c-1.02916,0.68529 -2.08733,1.32887 -3.16896,1.92794c-0.65686,0.24603 -1.32375,0.46137 -1.99932,0.64924c6.70472,0.65485 13.89302,0.2487 20.46216,-0.68764c4.10131,-0.58458 8.19426,-0.1293 12.23851,-1.14916c3.39339,-0.6794 6.43607,-1.77885 9.68142,-2.95557c0.7776,-0.28195 4.30349,-1.59437 4.81143,-1.5738c3.1663,0.12817 2.36523,3.01631 2.36472,5.08225c-0.00129,5.23448 -1.46082,8.29642 -5.44977,11.62694c0,0 -0.58168,0.48473 -1.21687,0.24695c0.00358,2.82609 0.37729,5.89827 -0.38138,8.63591c-1.4455,5.21604 -5.7258,7.94811 -9.54139,11.26062c-1.7286,1.50068 -4.09176,4.24408 -6.50091,4.5984c-0.04422,0.0065 -0.08847,0.01258 -0.13275,0.01824l0.00301,0.01503l-2.42614,0.48523c-0.08709,0.01921 -0.17759,0.02934 -0.27046,0.02934c-0.69036,0 -1.25,-0.55964 -1.25,-1.25c0,-0.23358 0.06407,-0.4522 0.17559,-0.63923l0.62918,-1.10106c0.14563,-0.33984 0.29127,-0.67968 0.4369,-1.01951c0.94579,-3.16437 2.7974,-8.56007 6.07773,-10.4977c-0.40643,-0.02425 -0.80782,-0.11054 -1.15372,-0.30413c-0.61741,-0.34555 -1.02327,-0.9873 -1.44177,-1.55779c-0.60281,-0.82174 -1.13992,-1.86592 -1.59469,-3.01314c-0.26842,0.16516 -0.53578,0.20336 -0.53578,0.20336l-0.85104,0.07816c-5.93878,2.51776 -11.95933,1.20542 -18.13424,1.75553c-0.12068,1.76169 -0.30447,3.53914 -0.58325,5.29127c-0.00457,0.07826 -0.01756,0.15324 -0.03618,0.22399c-0.68951,4.20488 -1.93538,8.25345 -4.18002,11.57587l0.20065,0.11147l-0.82121,1.47817c-0.2099,0.39545 -0.62591,0.66477 -1.10482,0.66477c-0.52567,0 -0.97555,-0.32448 -1.16028,-0.78408l-0.48865,-1.14019l0.0543,-0.02327l-0.11186,-0.14219c-0.33717,-2.60342 -1.41659,-5.13462 -2.0115,-7.71252c0,0 -0.10178,-0.44104 0.08255,-0.85358c-0.54049,-3.02443 -0.40463,-6.23845 -0.18179,-9.43078c-2.10357,-0.37732 -3.05303,-1.24884 -4.2103,-2.88704c-1.6658,0.57333 -3.21887,1.12217 -5.03474,1.13877c-0.22299,-0.0223 -0.44757,-0.04314 -0.67358,-0.06275c-0.08222,0.6569 -0.75648,0.95657 -0.75648,0.95657c-2.05023,0.89829 -3.78551,2.37878 -6.02899,2.9015c-3.7132,0.86516 -7.19279,0.42677 -10.39827,-0.82215c-0.12473,0.11871 -0.29303,0.22243 -0.51847,0.29757zM259.65376,213.05205c0,0 -0.3214,-0.50506 -0.16984,-1.03855c-1.53328,-0.82939 -3.07687,-1.48933 -4.73542,-1.4469c1.96822,2.18338 4.21922,4.36948 6.71829,6.10898c-0.48508,-1.21932 -1.03893,-2.40919 -1.81303,-3.62353zM274.89632,219.83719c1.32633,-0.31612 2.47474,-1.00289 3.62869,-1.68228c-3.92405,-0.20953 -8.00773,-0.40641 -11.54137,-1.58681c-1.29138,-0.43138 -2.57459,-1.19505 -3.78676,-2.18914c0.62951,1.38657 1.12106,2.78964 1.66192,4.27276c3.06427,1.43384 6.42688,2.04602 10.03753,1.18545zM290.2091,197.49837c-0.21823,-0.94548 -0.15552,-1.9849 -0.59652,-2.84923c-2.51814,-4.93535 -9.75719,-0.60475 -11.91483,2.16241c-0.95309,1.22233 -1.14515,2.65711 -2.27219,3.78663c-0.07629,0.07646 -0.15162,0.14832 -0.22624,0.21606c5.37131,0.33285 11.09669,0.94642 16.39929,0.31384c-0.2663,-1.27725 -0.69862,-2.40066 -1.38951,-3.62971zM304.71082,205.46736c1.39012,0.5294 2.47044,1.02356 4.19888,-0.15453c-1.39578,0.08258 -2.79812,0.13526 -4.19888,0.15453z" fill="#000000"/><path d="M264.81,218.66267c-0.54086,-1.48313 -1.03032,-2.91497 -1.65984,-4.30154c1.21217,0.99408 2.59121,1.78494 3.88259,2.21632c3.53364,1.1804 7.61789,1.37344 11.54195,1.58297c-1.15395,0.67938 -2.3097,1.38722 -3.63603,1.70334c-3.61064,0.86057 -7.0644,0.23276 -10.12867,-1.20108z" data-paper-data="{&quot;noHover&quot;:false,&quot;origItem&quot;:[&quot;Path&quot;,{&quot;applyMatrix&quot;:true,&quot;segments&quot;:[[[274.89632,219.83719],[-3.61064,0.86057],[1.32633,-0.31612]],[[278.525,218.15491],[-1.15395,0.67938],[-3.92405,-0.20953]],[[266.98364,216.56811],[3.53364,1.1804],[-1.29138,-0.43138]],[[263.19688,214.37897],[1.21217,0.99408],[0.62951,1.38657]],[[264.85879,218.65173],[-0.54086,-1.48313],[3.06427,1.43384]]],&quot;closed&quot;:true}]}" fill="#b10000"/><path d="M329.26102,230.40367c-2.25447,1.66521 -4.73679,3.23749 -6.79375,4.86437c0.01403,-0.03272 0.02766,-0.06601 0.04168,-0.09873c0.34427,-1.14379 0.70822,-2.23941 1.13879,-3.23273c0.29861,0.02864 0.54295,-0.04968 0.54295,-0.04968c1.66824,-0.50062 3.39763,-1.02446 5.07032,-1.48323z" data-paper-data="{&quot;noHover&quot;:false,&quot;origItem&quot;:[&quot;Path&quot;,{&quot;applyMatrix&quot;:true,&quot;segments&quot;:[[[324.23418,231.91157],[1.66824,-0.50062],[0,0]],[[323.69407,231.95538],[0.29861,0.02864],[-0.43057,0.99332]],[[322.55,235.14076],[0.34427,-1.14379],[-0.01403,0.03272]],[[322.50792,235.23893],[0.01403,-0.03272],[2.05696,-1.62688]],[[329.22036,230.43278],[-2.25447,1.66521],[-1.67269,0.45877]]],&quot;closed&quot;:true}]}" fill="#ba8500"/><path d="M298.47464,229.84382c-0.41172,1.29311 -1.56705,3.80711 -2.12644,5.71498c-0.27755,-1.11077 -0.67688,-2.28193 -1.01456,-3.38739c0.181,-0.08501 0.29791,-0.18783 0.29791,-0.18783c0.8941,-0.74509 1.91428,-1.44147 2.84309,-2.13975z" data-paper-data="{&quot;noHover&quot;:false,&quot;origItem&quot;:[&quot;Path&quot;,{&quot;applyMatrix&quot;:true,&quot;segments&quot;:[[[295.67523,232.0079],[0.8941,-0.74509],[0,0]],[[295.38107,232.18721],[0.181,-0.08501],[0.33768,1.10547]],[[296.35793,235.50975],[-0.27755,-1.11077],[0.55939,-1.90786]],[[298.45067,229.8877],[-0.41172,1.29311],[-0.92881,0.69828]]],&quot;closed&quot;:true}]}" fill="#ba8500"/><path d="M261.50378,216.70922c-2.49907,-1.7395 -4.82406,-3.99288 -6.79228,-6.17626c1.65855,-0.04243 3.27166,0.61317 4.80495,1.44256c-0.15156,0.5335 0.18424,1.05928 0.18424,1.05928c0.77411,1.21434 1.31801,2.4551 1.80309,3.67442z" data-paper-data="{&quot;noHover&quot;:false,&quot;origItem&quot;:[&quot;Path&quot;,{&quot;applyMatrix&quot;:true,&quot;segments&quot;:[[[259.65376,213.05205],[0.77411,1.21434],[0,0]],[[259.48392,212.01349],[-0.15156,0.5335],[-1.53328,-0.82939]],[[254.7485,210.5666],[1.65855,-0.04243],[1.96822,2.18338]],[[261.46679,216.67558],[-2.49907,-1.7395],[-0.48508,-1.21932]]],&quot;closed&quot;:true}]}" fill="#ba8500"/><path d="M308.95897,205.30434c-1.72844,1.17808 -2.90778,0.6875 -4.29791,0.15811c1.40075,-0.01927 2.90213,-0.07553 4.29791,-0.15811z" data-paper-data="{&quot;noHover&quot;:false,&quot;origItem&quot;:[&quot;Path&quot;,{&quot;applyMatrix&quot;:true,&quot;segments&quot;:[[[304.71082,205.46736],[1.40075,-0.01927],[1.39012,0.5294]],[[308.9097,205.31283],[-1.72844,1.17808],[-1.39578,0.08258]]],&quot;closed&quot;:true}]}" fill="#ba8500"/><path d="M309.9112,205.22711c1.29023,-0.08905 2.57698,-0.1945 3.84621,-0.33074l0.18024,0.0909c0.38159,1.50066 0.9552,5.0323 -1.70382,5.2464c-0.42376,0.03412 -1.42801,-0.82916 -1.80498,-0.97138c-1.61733,-0.61014 -3.61368,-0.66792 -5.28918,-0.33282c-1.20707,-0.00652 -2.54499,0.995 -3.69499,0.65289c-1.90396,-0.5664 -3.73691,-2.40745 -4.28547,-4.36951c1.86737,0.15334 3.77308,0.21632 5.68041,0.23069c-0.0797,0.44608 0.37166,0.56273 0.37166,0.56273c2.3669,0.5496 3.81912,1.73593 6.32114,0.10627l0.24466,-0.48646c0,0 0.17392,-0.21607 0.13411,-0.39898z" data-paper-data="{&quot;noHover&quot;:false,&quot;origItem&quot;:[&quot;Path&quot;,{&quot;applyMatrix&quot;:true,&quot;segments&quot;:[[309.82221,205.60456],[[309.48568,206.13031],[0,0],[-2.50202,1.62966]],[[303.25373,206.03269],[2.3669,0.5496],[0,0]],[[302.87986,205.47322],[-0.0797,0.44608],[-1.90734,-0.01437]],[[297.20742,205.2261],[1.86737,0.15334],[0.54856,1.96206]],[[301.48988,209.56099],[-1.90396,-0.5664],[1.15,0.34211]],[[305.15906,208.88339],[-1.20707,-0.00652],[1.6755,-0.3351]],[[310.38181,209.24534],[-1.61733,-0.61014],[0.37697,0.14221]],[[312.18755,210.21472],[-0.42376,0.03412],[2.65902,-0.2141]],[[313.88993,205.00222],[0.38159,1.50066],[0,0]],[[313.70995,204.91211],[0,0],[-1.26923,0.13624]],[[309.86751,205.25143],[1.29023,-0.08905],[0.03981,0.18291]]],&quot;closed&quot;:true}]}" fill="#705100"/><path d="M291.64305,201.15098c-5.3026,0.63258 -11.11756,0.01763 -16.48887,-0.31522c0.07462,-0.06774 0.14971,-0.1401 0.226,-0.21656c1.12704,-1.12952 1.31447,-2.58612 2.26756,-3.80845c2.15765,-2.76716 9.49369,-7.11401 12.01183,-2.17866c0.44101,0.86433 0.3811,1.92516 0.59933,2.87064c0.69089,1.22905 1.11784,2.371 1.38414,3.64825z" data-paper-data="{&quot;noHover&quot;:false,&quot;origItem&quot;:[&quot;Path&quot;,{&quot;applyMatrix&quot;:true,&quot;segments&quot;:[[[290.2091,197.49837],[0.69089,1.22905],[-0.21823,-0.94548]],[[289.61258,194.64913],[0.44101,0.86433],[-2.51814,-4.93535]],[[277.69774,196.81154],[2.15765,-2.76716],[-0.95309,1.22233]],[[275.42555,200.59817],[1.12704,-1.12952],[-0.07629,0.07646]],[[275.19931,200.81423],[0.07462,-0.06774],[5.37131,0.33285]],[[291.59861,201.12808],[-5.3026,0.63258],[-0.2663,-1.27725]]],&quot;closed&quot;:true}]}" fill="#705100"/><path d="M247.06873,213.54322c-2.32765,-4.63257 -4.1913,-12.11441 -4.1913,-17.27967c-0.70378,-3.4641 -1.86479,-6.70538 -2.97537,-10.05367c-0.14796,-0.44609 -0.39018,-0.86648 -0.63861,-1.28333c-0.09384,1.06343 -0.22873,2.12073 -0.48935,3.16319c-0.8682,9.77582 -2.04762,19.2302 -2.14294,29.03137c2.7369,0.16988 5.47385,0.34317 8.24383,0.34317c0.74924,0 1.77826,-0.12825 2.91696,-0.26343c-0.26566,-1.21383 -0.48312,-2.42998 -0.72323,-3.65764zM240.84794,185.88535c1.14388,3.41613 2.32579,6.73563 3.02463,10.27967c0,5.12164 1.85534,12.45848 4.14204,17.05367c0.26514,1.29928 0.49117,2.5847 0.77534,3.86754c2.95119,-0.32122 6.27988,-0.4713 7.37461,1.4122c0.31948,0.54966 -0.41234,3.11704 -0.5579,3.9292c-0.33425,1.86493 -0.37807,3.95693 -0.48357,5.85579c-0.03857,0.69419 0.09477,3.2607 -0.13005,3.65656c-0.43161,0.75994 -1.22904,1.34439 -2.05608,1.62684c-0.91353,0.31199 -1.93002,0.05294 -2.89528,0.06415c-3.04164,0.03531 -6.05985,0.16724 -9.11002,0.16538c-3.65661,0.33251 -7.26648,1.08979 -10.9186,1.49364c-1.29905,0.14365 -3.9064,0.54277 -4.85526,-0.1918c-0.72337,-0.56001 -0.29929,-2.99232 -0.1898,-3.87226c0.50773,-4.0805 2.11233,-8.01054 2.43393,-12.09203c-0.30751,-0.15867 -0.61025,-0.47109 -0.61025,-1.08626c0,-0.89119 0.63537,-1.147 1.00014,-1.22043c0.18454,-0.20425 0.47121,-0.3629 0.91653,-0.3629c0.42791,0 0.70933,0.14648 0.89442,0.33916c1.51653,0.01941 3.02459,0.08535 4.52964,0.16854c0.10297,-9.88883 1.26109,-19.43457 2.17683,-29.29983c0.59512,-2.38048 0.52127,-4.84632 0.82543,-7.27959l-0.00965,-1.01162c0,0 0,-1.25 1.25,-1.25c1.25,0 1.25,1.25 1.25,1.25l-0.00965,1.32171c-0.09756,0.78044 -0.15708,1.56378 -0.21194,2.34657c0.18345,0.90517 1.16161,1.9912 1.44453,2.83612zM235.375,219.63095c-0.24162,0 -0.43654,-0.04671 -0.59378,-0.12206c-1.62635,-0.09466 -3.2552,-0.17408 -4.89344,-0.20125c-0.26921,3.17357 -1.25209,6.24184 -1.9599,9.34755c-0.21631,0.94913 -0.35786,1.91494 -0.4792,2.88081c-0.0526,0.41872 -0.04132,0.85081 -0.15943,1.25596c-0.06062,0.20793 -0.57718,0.50186 -0.3637,0.53844c0.93964,0.16105 1.86396,-0.41933 2.81141,-0.52514c3.70644,-0.41393 7.36932,-1.16898 11.0814,-1.50636c3.08079,-0.00178 6.15208,-0.20844 9.22331,-0.16795c0.91086,0.01201 2.43514,0.55777 2.7153,-0.30902c0.27474,-0.85001 -0.1796,-1.78484 -0.13005,-2.67678c0.111,-1.99819 0.1744,-4.17904 0.51643,-6.14421c0.14438,-0.82956 1.0503,-1.60823 0.77543,-2.40414c-0.28357,-0.82111 -1.74123,-0.05357 -2.60592,0.02977c-2.17113,0.20925 -4.25546,0.33771 -6.43786,0.33771c-3.04724,0 -6.05416,-0.20963 -9.06463,-0.39379c-0.12497,0.03834 -0.26911,0.06046 -0.43537,0.06046z" fill="#000000"/><path d="M235.78207,219.52927c3.01047,0.18416 6.07447,0.39413 9.12171,0.39413c2.1824,0 4.28059,-0.11367 6.45173,-0.32292c0.86469,-0.08334 2.32449,-0.847 2.60806,-0.02589c0.27486,0.79591 -0.62847,1.58081 -0.77285,2.41038c-0.34203,1.96518 -0.40338,4.16952 -0.51438,6.1677c-0.04955,0.89194 0.40229,1.83649 0.12755,2.6865c-0.28016,0.86679 -1.80671,0.32626 -2.71757,0.31425c-3.07123,-0.04049 -6.18324,0.19354 -9.26403,0.19532c-3.71208,0.33738 -7.42159,1.06862 -11.12803,1.48255c-0.94745,0.10581 -1.87341,0.68328 -2.81305,0.52223c-0.21348,-0.03659 0.3026,-0.33145 0.36322,-0.53939c0.11811,-0.40515 0.10528,-0.84068 0.15788,-1.2594c0.12134,-0.96587 0.26011,-1.94113 0.47643,-2.89025c0.70781,-3.10571 1.69814,-6.2109 1.96735,-9.38447c1.63824,0.02717 3.27679,0.09578 4.90314,0.19044c0.15724,0.07535 0.35393,0.12065 0.59555,0.12065c0.16625,0 0.31231,-0.02349 0.43728,-0.06183z" data-paper-data="{&quot;noHover&quot;:false,&quot;origItem&quot;:[&quot;Path&quot;,{&quot;applyMatrix&quot;:true,&quot;segments&quot;:[[[235.375,219.63095],[0.16625,0],[-0.24162,0]],[[234.78122,219.50889],[0.15724,0.07535],[-1.62635,-0.09466]],[[229.88778,219.30764],[1.63824,0.02717],[-0.26921,3.17357]],[[227.92788,228.65519],[0.70781,-3.10571],[-0.21631,0.94913]],[[227.44868,231.536],[0.12134,-0.96587],[-0.0526,0.41872]],[[227.28925,232.79196],[0.11811,-0.40515],[-0.06062,0.20793]],[[226.92555,233.3304],[-0.21348,-0.03659],[0.93964,0.16105]],[[229.73696,232.80526],[-0.94745,0.10581],[3.70644,-0.41393]],[[240.81836,231.2989],[-3.71208,0.33738],[3.08079,-0.00178]],[[250.04167,231.13095],[-3.07123,-0.04049],[0.91086,0.01201]],[[252.75697,230.82194],[-0.28016,0.86679],[0.27474,-0.85001]],[[252.62691,228.14516],[-0.04955,0.89194],[0.111,-1.99819]],[[253.14334,222.00095],[-0.34203,1.96518],[0.14438,-0.82956]],[[253.91877,219.59681],[0.27486,0.79591],[-0.28357,-0.82111]],[[251.31286,219.62657],[0.86469,-0.08334],[-2.17113,0.20925]],[[244.875,219.96429],[2.1824,0],[-3.04724,0]],[[235.81037,219.5705],[3.01047,0.18416],[-0.12497,0.03834]]],&quot;closed&quot;:true}]}" fill="#ffffff"/></g></g></svg>