<svg version="1.1" xmlns="http://www.w3.org/2000/svg" xmlns:xlink="http://www.w3.org/1999/xlink" width="85.97153" height="60.66827" viewBox="0,0,85.97153,60.66827"><g transform="translate(-235.4691,-191.84105)"><g data-paper-data="{&quot;isPaintingLayer&quot;:true}" fill-rule="nonzero" stroke="none" stroke-linecap="butt" stroke-linejoin="miter" stroke-miterlimit="10" stroke-dasharray="" stroke-dashoffset="0" style="mix-blend-mode: normal"><path d="M248.03874,241.3185l0.21325,-0.20804c1.63157,-1.38055 3.37583,-1.90718 5.30142,-2.76266c0.61748,-0.27432 1.47242,-0.12539 1.92865,-0.62377c0.43378,-0.47385 -0.78187,-1.04073 -1.01057,-1.64107c-0.80591,-2.11551 -1.94631,-4.21631 -2.2198,-6.45682c0,0 -0.03686,-0.33176 0.09895,-0.67144c-3.47141,-3.00941 -4.80084,-6.59727 -5.14902,-11.05861c-1.37138,1.61483 -3.08911,4.09339 -5.22449,3.78474c-0.67913,-0.09816 -0.8119,-1.10686 -1.23873,-1.64415c-1.00133,-1.26047 -1.88442,-2.48074 -2.68991,-3.78531c0.02488,0.34342 0.05438,0.67629 0.08801,0.99695c0.17897,0.32627 0.17897,0.66835 0.17897,0.66835c0,0.0745 0.00011,0.14945 0.00033,0.22486l0.11276,0.50399c0,0 0.10056,0.45247 -0.09633,0.86759c0.16034,7.52094 1.57717,18.31353 8.68202,21.83839c0.26089,0.11008 0.52191,0.21295 0.78309,0.30899c0.11064,-0.21122 0.24139,-0.34197 0.24139,-0.34197zM256.80232,235.17895c0.31993,0.83982 1.37695,2.64057 0.98943,3.50179c-0.85706,1.90471 -4.89622,2.58877 -7.09803,3.78185c3.29951,0.63681 6.64484,0.41344 10.10451,0.06743l0.55295,-0.0062c0,0 0.90124,-0.00001 1.17321,0.76524c1.41727,-0.03581 2.89093,-0.33088 4.59927,-1.06341c1.36219,-0.75439 2.40152,-1.61 3.29289,-2.55447c-0.29157,-0.36417 -0.29157,-0.83783 -0.29157,-0.83783v-0.66667c0,-2.66683 -0.25813,-5.03282 -1.09695,-7.58836c-0.19873,-0.60543 -0.16134,-1.42691 -0.68991,-1.78279c-0.36631,-0.24663 -4.04357,1.38761 -4.57079,1.65586c0,0 -0.27194,0.13598 -0.61464,0.13968c-0.25808,0.30807 -0.52327,0.57145 -0.79453,0.79414c-0.34504,0.17252 -1.47968,0.73984 -1.82471,0.91236c-1.76156,0.39874 -3.66238,-0.36405 -5.47612,-1.4122c0.44526,1.46033 1.22261,2.92237 1.74498,4.2936zM249.60119,215.05953c0.00414,5.73067 0.91198,9.87499 5.99944,13.23557c1.43429,0.89622 3.74024,2.47546 5.16428,1.25135c-0.01529,-0.06637 -0.03053,-0.13243 -0.04568,-0.19814c5.04426,-6.36742 9.51731,-13.30981 15.24896,-19.04199c5.97444,-6.62946 14.87037,-9.09437 23.63466,-8.485c0.11897,-2.53234 2.04904,-4.54039 3.30167,-6.6281l0.02132,-0.01621l-0.00639,-0.0048l0.32984,-0.43979c0.09098,-0.12409 0.23783,-0.20466 0.4035,-0.20466c0.24577,0 0.45013,0.17732 0.4921,0.41102l0.1943,0.9715l-0.06649,0.0133c0.75157,2.31608 1.24755,5.01218 2.43962,7.06801c2.04266,0.53382 4.02892,1.22933 5.91588,2.07121c0.45743,0.28582 1.01049,0.61705 1.58918,0.98472c1.50717,-0.60169 4.13005,-2.82593 5.52732,-2.74161c3.14893,0.19002 1.12135,5.23084 0.19696,6.4663c-0.35273,0.46909 -0.60793,0.89494 -0.82465,1.44125l-0.27043,0.42499c0,0 -0.07085,0.10628 -0.19466,0.17559c0.26078,4.77221 -5.99922,8.31533 -10.17261,8.76492c-1.51641,0.16336 -3.15262,-0.57792 -4.67344,-0.66422c-2.45427,-0.13926 -4.86191,-0.15832 -7.28699,-0.04654c0.08883,0.08218 0.16798,0.17406 0.23424,0.27888c3.60412,5.7019 -11.06683,10.7901 -10.46014,4.25754c-0.95434,1.01272 -1.84495,2.1421 -2.74773,3.34056c-0.44619,0.59232 -0.9242,1.16001 -1.42025,1.71395v0.2075c0,0 0,1.25 -1.25,1.25c-0.03704,0 -0.07297,-0.00109 -0.10784,-0.00322c-1.39617,1.45243 -2.83438,2.87523 -4.04358,4.48246c-2.53159,3.3649 -4.00835,6.17319 -7.36404,8.38897c0.457,0.10606 0.85445,0.25708 1.14803,0.47033c4.39661,3.19354 -2.2801,7.63466 -5.24286,8.14141c-3.19788,0.54697 -7.76011,-0.86024 -6.22382,-5.01c0.279,-0.75362 0.75471,-1.30699 1.32874,-1.75129c-0.40299,-0.04609 -0.80888,-0.10397 -1.2208,-0.17076c0.06896,-0.09762 0.13828,-0.19524 0.20772,-0.29294c-4.60411,0.37168 -8.96287,0.2757 -13.38269,-1.54691c-8.48831,-4.27041 -10.09869,-16.56682 -10.15671,-25.21102l-0.12761,-0.57784c-0.94244,-8.48685 0.85218,-22.33153 10.98795,-24.43062c0,0 0.21016,-0.04203 0.47384,-0.00427c0.60471,-0.15619 1.18575,-0.30766 1.75103,-0.45087c0.15401,-0.32654 0.47348,-0.67024 1.13573,-0.65483c0.31051,0.00723 0.54207,0.08982 0.71474,0.20987c2.51185,-0.55954 4.87425,-0.85446 7.88389,-0.52821c1.71242,0.18563 5.51749,0.48578 6.82137,1.5189c1.01097,0.80104 0.88137,3.51586 0.13587,5.25953c0.88943,-0.42932 1.91159,-0.58294 2.4715,-0.08109c1.83416,1.64399 -1.43937,6.38947 -2.61329,7.35513c-3.97463,3.26951 -8.99948,2.85092 -13.87582,2.52206c-2.40455,1.31499 -1.97707,3.84409 -1.97515,6.50808zM292.32445,216.11612l0.09027,-0.08301c1.46911,-1.76294 2.94502,-3.51079 4.2563,-5.39726c0.16476,-0.23702 1.32192,-1.68348 0.974,-2.31202c-0.25647,-0.46332 -3.06275,-1.33244 -3.80127,-1.69233c-0.74854,-0.36478 -1.63615,-0.39307 -2.46875,-0.3815c0,0 -1.25,0 -1.25,-1.25c0,-0.00584 0.00003,-0.01166 0.00008,-0.01745c-4.69448,1.08215 -9.02327,3.35051 -12.34327,7.04445c-1.33711,1.33698 -2.6052,2.7408 -3.82784,4.18827c2.13639,-0.62856 4.32592,-1.01182 6.58769,-0.79862c0.8551,0.0806 2.00813,-0.29983 2.55055,0.36612c1.07382,1.31837 0.30357,3.2656 0.00233,4.65812c-0.34809,1.60909 -0.60398,3.18673 -0.7652,4.77694c2.71593,-3.47263 5.57924,-6.16921 9.94071,-7.39075c-0.79202,-0.86455 0.05439,-1.71097 0.05439,-1.71097zM299.91298,210.00034c-0.51898,2.53991 -3.7445,5.47925 -5.45818,7.49141c3.17171,-0.23823 6.29622,-0.26706 9.48933,-0.07317c1.35713,0.08241 2.9936,0.82408 4.32656,0.66912c2.9615,-0.3443 9.58088,-3.37941 7.47769,-7.54621c-0.62169,-1.23166 -3.13387,-2.54615 -4.29324,-3.27097c-5.07058,-2.24349 -10.94757,-3.36241 -16.61462,-2.97844c2.90044,0.84501 5.68749,2.69829 5.07247,5.70826zM238.8978,212.64337c0.86461,1.72989 1.71497,3.41414 2.97389,4.88838c0.31816,0.37258 0.73598,0.68105 0.94942,1.12206c0.0942,0.19464 -0.3121,0.64242 -0.09587,0.64157c0.36759,-0.00144 2.87525,-3.39523 3.31349,-3.83402l0.28572,-0.28572c0,0 0.32446,-0.32447 0.77681,-0.38363c0.00009,-3.32468 -0.00584,-6.18435 2.6362,-8.02904c-0.21513,-0.27292 -0.43393,-0.55291 -0.65331,-0.83895c0.64759,0.02982 1.29532,0.07327 1.94293,0.11996c0.06491,-0.02407 0.20226,-0.06852 0.3742,-0.08741c-1.76092,-1.24038 -3.74447,-2.8025 -4.16891,-4.04552c-0.4942,-1.44732 0.26095,-4.06157 0.92056,-6.18605c-0.20188,0.05154 -0.40245,0.10309 -0.60164,0.15444c-0.72227,0.18618 -1.40828,0.34682 -2.06441,0.49967c0.00158,-0.00885 0.00316,-0.0177 0.00476,-0.02654c-5.35473,2.1975 -7.21554,9.40649 -7.49612,15.58929c0.60152,0.10002 0.90227,0.70153 0.90227,0.70153zM280.65546,219.89243c0.17365,-0.79307 1.06441,-1.63283 0.66899,-2.34188c-0.1403,-0.25158 -0.49894,0.317 -0.78278,0.36612c-0.43794,0.07577 -0.88889,0.00042 -1.33333,0c-2.38604,-0.00223 -4.50727,0.61077 -6.73949,1.42475c0,0 -0.53598,0.1949 -1.01552,-0.04064c-1.94914,2.49264 -3.81786,5.06152 -5.71488,7.5997c1.39511,-0.47886 2.85119,-0.78095 3.67341,-0.36265c2.75225,1.40022 3.1478,7.02892 3.20397,10.34127c0.64899,-0.92749 1.30609,-1.91055 2.07727,-2.94167c1.46346,-1.95675 3.27927,-3.63668 4.94007,-5.42856c0.0552,-2.92417 0.39022,-5.72966 1.0223,-8.61644zM250.36694,198.32281c-0.00784,0.02802 -0.94799,2.26018 -0.78417,2.73639c0.07433,0.21606 1.74447,1.32413 1.76241,1.33749c1.33596,0.99513 2.48372,2.17309 3.85007,3.12678c0,0 0.41605,0.29157 0.53178,0.76819c1.26531,0.00218 2.5279,-0.08028 3.78591,-0.32586c1.97583,-0.38571 3.98126,-1.24796 5.2105,-2.88762c0.0994,-0.13259 0.29126,-0.62492 0.52811,-1.14191c-0.0118,0.00392 -0.02339,0.00753 -0.03476,0.01084c-0.8659,0.25221 -1.78481,0.26086 -2.67721,0.39128c-0.30633,-1.42382 -0.33236,-3.0635 0.33879,-4.35603c0.43052,-0.82912 1.72915,-2.30471 0.86725,-2.66513c-4.04965,-1.69344 -8.54576,-1.19896 -12.71966,-0.28317c-0.22356,1.09704 -0.35945,2.21854 -0.65903,3.28875zM264.71752,246.08592c-0.15098,0.13252 -0.2835,0.19878 -0.2835,0.19878c-0.54528,0.27247 -1.09341,0.53932 -1.63586,0.8174c-0.30464,0.15616 -2.61649,1.83631 -1.42413,2.46534c2.37698,1.25396 7.31251,-0.13795 8.09068,-2.94138c0.11863,-0.4274 -0.87174,-0.16613 -1.31081,-0.2291c-1.22449,-0.17559 -2.22213,-0.29251 -3.43637,-0.31104zM319.14167,209.17222c0.82288,-1.0943 1.50082,-2.30105 1.23979,-3.73102c-0.02589,-0.1418 -0.24702,-1.19681 -0.59838,-1.13602c-1.43845,0.24889 -3.05351,1.61946 -4.57955,2.39423c1.17834,0.81672 2.30134,1.76076 2.79811,2.7591c0.15744,0.31638 0.2847,0.6292 0.38383,0.93801c0.20935,-0.4325 0.4533,-0.81947 0.7562,-1.2243zM303.45545,196.19465c-1.14358,1.74694 -2.81296,3.59425 -2.85749,5.70909c1.63106,0.15671 3.25353,0.4188 4.84762,0.77923c-0.99681,-1.99069 -2.01628,-4.80172 -1.99013,-6.48833zM292.19944,220.95266c-0.65042,0.23838 -1.2095,0.47994 -1.85614,1.00646c-0.36671,0.29859 -0.66058,0.68264 -0.93048,1.07096c-2.52718,3.63601 2.81795,1.41734 4.23129,0.45587c0.59838,-0.40706 1.67264,-1.75276 0.57672,-2.11115l-1.0125,0.04188c0,0 -0.64564,0 -1.00889,-0.46401z" fill="#000000" stroke-width="0.5"/><path d="M303.46207,196.14508c-0.02615,1.68661 1.01662,4.58725 2.01343,6.57794c-1.59409,-0.36043 -3.28154,-0.62692 -4.9126,-0.78363c0.04453,-2.11484 1.75559,-4.04736 2.89917,-5.7943z" data-paper-data="{&quot;noHover&quot;:false,&quot;origItem&quot;:[&quot;Path&quot;,{&quot;applyMatrix&quot;:true,&quot;segments&quot;:[[[303.45545,196.19465],[0,0],[-1.14358,1.74694]],[[300.59796,201.90374],[0.04453,-2.11484],[1.63106,0.15671]],[[305.44558,202.68297],[-1.59409,-0.36043],[-0.99681,-1.99069]],[[303.45545,196.19464],[-0.02615,1.68661],[0,0]]],&quot;closed&quot;:true,&quot;fillColor&quot;:[0,0,0],&quot;strokeWidth&quot;:0.5}]}" fill="#70ad68" stroke-width="0.25"/><path d="M318.39458,210.44568c-0.09913,-0.30881 -0.23123,-0.62098 -0.38867,-0.93736c-0.49677,-0.99834 -1.67257,-2.00425 -2.85091,-2.82097c1.52604,-0.77477 3.21671,-2.17531 4.65516,-2.4242c0.35136,-0.06079 0.58549,1.00637 0.61138,1.14817c0.26103,1.42997 -0.42766,2.70709 -1.25054,3.80139c-0.3029,0.40483 -0.56708,0.80048 -0.77643,1.23298z" data-paper-data="{&quot;noHover&quot;:false,&quot;origItem&quot;:[&quot;Path&quot;,{&quot;applyMatrix&quot;:true,&quot;segments&quot;:[[[319.14167,209.17222],[-0.3029,0.40483],[0.82288,-1.0943]],[[320.38146,205.4412],[0.26103,1.42997],[-0.02589,-0.1418]],[[319.78308,204.30518],[0.35136,-0.06079],[-1.43845,0.24889]],[[315.20353,206.69941],[1.52604,-0.77477],[1.17834,0.81672]],[[318.00164,209.45851],[-0.49677,-0.99834],[0.15744,0.31638]],[[318.38547,210.39652],[-0.09913,-0.30881],[0.20935,-0.4325]]],&quot;closed&quot;:true,&quot;fillColor&quot;:[0,0,0],&quot;strokeWidth&quot;:0.5}]}" fill="#70ad68" stroke-width="0.25"/><path d="M292.37384,216.12384c0,0 -0.84977,0.85819 -0.05775,1.72274c-4.36147,1.22154 -7.28718,3.94587 -10.00311,7.4185c0.16122,-1.59021 0.41066,-3.1706 0.75875,-4.77969c0.30124,-1.39252 1.04578,-3.37216 -0.02804,-4.69053c-0.54242,-0.66595 -1.69684,-0.29462 -2.55194,-0.37522c-2.26177,-0.2132 -4.45117,0.17175 -6.58756,0.80031c1.22264,-1.44747 2.4938,-2.8738 3.83091,-4.21078c3.32,-3.69394 7.71503,-5.9905 12.40951,-7.07265c-0.00005,0.00579 -0.00005,0.01162 -0.00005,0.01746c0,1.25 1.25698,1.25364 1.25698,1.25364c0.8326,-0.01157 1.72803,0.02277 2.47657,0.38755c0.73852,0.35989 3.55381,1.24045 3.81028,1.70377c0.34792,0.62854 -0.80638,2.08084 -0.97114,2.31786c-1.31128,1.88647 -2.78392,3.66038 -4.25303,5.42332l-0.09038,0.08372z" data-paper-data="{&quot;noHover&quot;:false,&quot;origItem&quot;:[&quot;Path&quot;,{&quot;applyMatrix&quot;:true,&quot;segments&quot;:[[292.32445,216.11612],[[292.41472,216.03311],[0,0],[1.46911,-1.76294]],[[296.67102,210.63585],[-1.31128,1.88647],[0.16476,-0.23702]],[[297.64502,208.32383],[0.34792,0.62854],[-0.25647,-0.46332]],[[293.84375,206.6315],[0.73852,0.35989],[-0.74854,-0.36478]],[[291.375,206.25],[0.8326,-0.01157],[0,0]],[[290.125,205],[0,1.25],[0,-0.00584]],[[290.12508,204.98255],[-0.00005,0.00579],[-4.69448,1.08215]],[[277.78181,212.027],[3.32,-3.69394],[-1.33711,1.33698]],[[273.95397,216.21527],[1.22264,-1.44747],[2.13639,-0.62856]],[[280.54166,215.41665],[-2.26177,-0.2132],[0.8551,0.0806]],[[283.09221,215.78277],[-0.54242,-0.66595],[1.07382,1.31837]],[[283.09454,220.44089],[0.30124,-1.39252],[-0.34809,1.60909]],[[282.32934,225.21783],[0.16122,-1.59021],[2.71593,-3.47263]],[[292.27005,217.82708],[-4.36147,1.22154],[-0.79202,-0.86455]],[292.32444,216.11611]],&quot;closed&quot;:true,&quot;fillColor&quot;:[0,0,0],&quot;strokeWidth&quot;:0.5}]}" fill="#70ad68" stroke-width="0.25"/><path d="M256.75355,235.16791c-0.52237,-1.37123 -1.28747,-2.85638 -1.73273,-4.31671c1.81374,1.04815 3.75078,1.7951 5.51234,1.39636c0.34503,-0.17252 1.49806,-0.73645 1.8431,-0.90897c0.27126,-0.22269 0.5399,-0.48458 0.79798,-0.79265c0.3427,-0.0037 0.61804,-0.13789 0.61804,-0.13789c0.52722,-0.26825 4.21615,-1.8932 4.58246,-1.64657c0.52857,0.35588 0.49661,1.18435 0.69534,1.78978c0.83882,2.55554 1.1037,4.95948 1.1037,7.62631l-0.00081,0.66983c0,0 -0.00108,0.47692 0.29049,0.84109c-0.89137,0.94447 -1.94123,1.81707 -3.30342,2.57146c-1.70834,0.73253 -3.20528,1.04155 -4.62255,1.07736c-0.27197,-0.76525 -1.18022,-0.76387 -1.18022,-0.76387l-0.55716,0.00654c-3.45967,0.34601 -6.84875,0.54673 -10.14826,-0.09008c2.20181,-1.19308 6.24677,-1.86984 7.10383,-3.77455c0.38752,-0.86122 -0.68218,-2.70764 -1.00211,-3.54746z" data-paper-data="{&quot;noHover&quot;:false,&quot;origItem&quot;:[&quot;Path&quot;,{&quot;applyMatrix&quot;:true,&quot;segments&quot;:[[[256.80232,235.17895],[0,0],[0.31993,0.83982]],[[257.79175,238.68074],[0.38752,-0.86122],[-0.85706,1.90471]],[[250.69372,242.46259],[2.20181,-1.19308],[3.29951,0.63681]],[[260.79823,242.53002],[-3.45967,0.34601],[0,0]],[261.35118,242.52382],[[262.52439,243.28906],[-0.27197,-0.76525],[1.41727,-0.03581]],[[267.12366,242.22565],[-1.70834,0.73253],[1.36219,-0.75439]],[[270.41655,239.67118],[-0.89137,0.94447],[-0.29157,-0.36417]],[270.12498,238.83335],[[270.12498,238.16668],[0,0],[0,-2.66683]],[[269.02803,230.57832],[0.83882,2.55554],[-0.19873,-0.60543]],[[268.33812,228.79553],[0.52857,0.35588],[-0.36631,-0.24663]],[[263.76733,230.45139],[0.52722,-0.26825],[0,0]],[[263.15269,230.59107],[0.3427,-0.0037],[-0.25808,0.30807]],[[262.35816,231.38521],[0.27126,-0.22269],[-0.34504,0.17252]],[[260.53345,232.29757],[0.34503,-0.17252],[-1.76156,0.39874]],[[255.05733,230.88537],[1.81374,1.04815],[0.44526,1.46033]],[[256.80231,235.17897],[-0.52237,-1.37123],[0,0]]],&quot;closed&quot;:true,&quot;fillColor&quot;:[0,0,0],&quot;strokeWidth&quot;:0.5}]}" fill="#70ad68" stroke-width="0.25"/><path d="M238.86034,212.67652c0,0 -0.30501,-0.60707 -0.90653,-0.70709c0.28058,-6.1828 2.18664,-13.46924 7.54137,-15.66674c-0.0016,0.00884 -0.00319,0.01769 -0.00477,0.02654c0.65613,-0.15285 1.35052,-0.31218 2.07279,-0.49836c0.19919,-0.05135 0.40191,-0.10232 0.60379,-0.15386c-0.65961,2.12448 -1.40821,4.74116 -0.91401,6.18848c0.42444,1.24302 2.43608,2.8394 4.197,4.07978c-0.17194,0.01889 -0.40671,0.08591 -0.47162,0.10998c-0.64761,-0.04669 -1.19961,-0.11843 -1.8472,-0.14825c0.21938,0.28604 0.44062,0.5757 0.65575,0.84862c-2.64204,1.84469 -2.6699,4.75918 -2.66999,8.08386c-0.45235,0.05916 -0.7821,0.38506 -0.7821,0.38506l-0.28778,0.28611c-0.43824,0.43879 -2.96247,3.83259 -3.33006,3.83403c-0.21623,0.00085 0.19002,-0.44694 0.09582,-0.64158c-0.21344,-0.44101 -0.63653,-0.75066 -0.95469,-1.12324c-1.25892,-1.47424 -2.13315,-3.17348 -2.99776,-4.90337z" data-paper-data="{&quot;noHover&quot;:false,&quot;origItem&quot;:[&quot;Path&quot;,{&quot;applyMatrix&quot;:true,&quot;segments&quot;:[[[238.8978,212.64337],[0,0],[0.86461,1.72989]],[[241.87169,217.53175],[-1.25892,-1.47424],[0.31816,0.37258]],[[242.82111,218.65381],[-0.21344,-0.44101],[0.0942,0.19464]],[[242.72524,219.29538],[-0.21623,0.00085],[0.36759,-0.00144]],[[246.03873,215.46136],[-0.43824,0.43879],[0,0]],[246.32445,215.17564],[[247.10126,214.79201],[-0.45235,0.05916],[0.00009,-3.32468]],[[249.73746,206.76297],[-2.64204,1.84469],[-0.21513,-0.27292]],[[249.08415,205.92402],[0.21938,0.28604],[0.64759,0.02982]],[[251.02708,206.04398],[-0.64761,-0.04669],[0.06491,-0.02407]],[[251.40128,205.95657],[-0.17194,0.01889],[-1.76092,-1.24038]],[[247.23237,201.91105],[0.42444,1.24302],[-0.4942,-1.44732]],[[248.15293,195.725],[-0.65961,2.12448],[-0.20188,0.05154]],[[247.55129,195.87944],[0.19919,-0.05135],[-0.72227,0.18618]],[[245.48688,196.37911],[0.65613,-0.15285],[0.00158,-0.00885]],[[245.49164,196.35257],[-0.0016,0.00884],[-5.35473,2.1975]],[[237.99552,211.94186],[0.28058,-6.1828],[0.60152,0.10002]],[238.89779,212.64339]],&quot;closed&quot;:true,&quot;fillColor&quot;:[0,0,0],&quot;strokeWidth&quot;:0.5}]}" fill="#70ad68" stroke-width="0.25"/><path d="M299.86411,209.98979c0.61502,-3.00997 -2.16495,-4.88015 -5.06539,-5.72516c5.66705,-0.38397 11.62808,0.73566 16.69866,2.97915c1.15937,0.72482 3.67921,2.06308 4.3009,3.29474c2.10319,4.1668 -4.54641,7.25084 -7.50791,7.59514c-1.33296,0.15496 -2.99974,-0.58381 -4.35687,-0.66622c-3.19311,-0.19389 -6.35019,-0.18873 -9.5219,0.0495c1.71368,-2.01216 4.93351,-4.98724 5.45249,-7.52715z" data-paper-data="{&quot;noHover&quot;:false,&quot;origItem&quot;:[&quot;Path&quot;,{&quot;applyMatrix&quot;:true,&quot;segments&quot;:[[[299.91298,210.00034],[0,0],[-0.51898,2.53991]],[[294.4548,217.49175],[1.71368,-2.01216],[3.17171,-0.23823]],[[303.94413,217.41858],[-3.19311,-0.19389],[1.35713,0.08241]],[[308.27069,218.0877],[-1.33296,0.15496],[2.9615,-0.3443]],[[315.74838,210.54149],[2.10319,4.1668],[-0.62169,-1.23166]],[[311.45514,207.27052],[1.15937,0.72482],[-5.07058,-2.24349]],[[294.84052,204.29208],[5.66705,-0.38397],[2.90044,0.84501]],[[299.91299,210.00034],[0.61502,-3.00997],[0,0]]],&quot;closed&quot;:true,&quot;fillColor&quot;:[0,0,0],&quot;strokeWidth&quot;:0.5}]}" fill="#a5ff99" stroke-width="0.25"/><path d="M264.70439,246.03767c1.21424,0.01853 2.2684,0.15883 3.49289,0.33442c0.43907,0.06297 1.43339,-0.18954 1.31476,0.23786c-0.77817,2.80343 -5.80764,4.22957 -8.18462,2.97561c-1.19236,-0.62903 1.1195,-2.34544 1.42414,-2.5016c0.54245,-0.27808 1.11618,-0.57217 1.66146,-0.84464c0,0 0.14038,-0.06912 0.29136,-0.20164z" data-paper-data="{&quot;noHover&quot;:false,&quot;origItem&quot;:[&quot;Path&quot;,{&quot;applyMatrix&quot;:true,&quot;segments&quot;:[[[264.71752,246.08592],[0,0],[-0.15098,0.13252]],[[264.43402,246.2847],[0,0],[-0.54528,0.27247]],[[262.79816,247.1021],[0.54245,-0.27808],[-0.30464,0.15616]],[[261.37403,249.56744],[-1.19236,-0.62903],[2.37698,1.25396]],[[269.46471,246.62606],[-0.77817,2.80343],[0.11863,-0.4274]],[[268.1539,246.39696],[0.43907,0.06297],[-1.22449,-0.17559]],[[264.71753,246.08592],[1.21424,0.01853],[0,0]]],&quot;closed&quot;:true,&quot;fillColor&quot;:[0,0,0],&quot;strokeWidth&quot;:0.5}]}" fill="#a5ff99" stroke-width="0.25"/><path d="M292.21089,220.904c0.36325,0.46401 1.03174,0.47631 1.03174,0.47631l1.02015,-0.0327c1.09592,0.35839 0.02816,1.7436 -0.57022,2.15066c-1.41334,0.96147 -6.85692,3.16855 -4.32974,-0.46746c0.2699,-0.38832 0.57385,-0.80321 0.94056,-1.1018c0.64664,-0.52652 1.25709,-0.78664 1.90751,-1.02502z" data-paper-data="{&quot;noHover&quot;:false,&quot;origItem&quot;:[&quot;Path&quot;,{&quot;applyMatrix&quot;:true,&quot;segments&quot;:[[[292.19944,220.95266],[0,0],[-0.65042,0.23838]],[[290.3433,221.95912],[0.64664,-0.52652],[-0.36671,0.29859]],[[289.41282,223.03008],[0.2699,-0.38832],[-2.52718,3.63601]],[[293.64411,223.48595],[-1.41334,0.96147],[0.59838,-0.40706]],[[294.22083,221.3748],[1.09592,0.35839],[0,0]],[293.20833,221.41668],[[292.19944,220.95267],[0.36325,0.46401],[0,0]]],&quot;closed&quot;:true,&quot;fillColor&quot;:[0,0,0],&quot;strokeWidth&quot;:0.5}]}" fill="#a5ff99" stroke-width="0.25"/><path d="M280.69029,219.85654c-0.63208,2.88678 -0.95308,5.73886 -1.00828,8.66303c-1.6608,1.79188 -3.51733,3.51044 -4.98079,5.46719c-0.77118,1.03112 -1.44135,2.0146 -2.09034,2.94209c-0.05617,-3.31235 -0.49618,-8.99845 -3.24843,-10.39867c-0.82222,-0.4183 -2.27886,-0.11037 -3.67397,0.36849c1.89702,-2.53818 3.80267,-5.15353 5.75181,-7.64617c0.47954,0.23554 1.02153,0.03941 1.02153,0.03941c2.23222,-0.81398 4.38643,-1.42021 6.77247,-1.41798c0.44444,0.00042 0.89947,0.07853 1.33741,0.00276c0.28384,-0.04912 0.64378,-0.61669 0.78408,-0.36511c0.39542,0.70905 -0.49185,1.5519 -0.6655,2.34497z" data-paper-data="{&quot;noHover&quot;:false,&quot;origItem&quot;:[&quot;Path&quot;,{&quot;applyMatrix&quot;:true,&quot;segments&quot;:[[[280.65546,219.89243],[0,0],[0.17365,-0.79307]],[[281.32445,217.55055],[0.39542,0.70905],[-0.1403,-0.25158]],[[280.54167,217.91667],[0.28384,-0.04912],[-0.43794,0.07577]],[[279.20834,217.91667],[0.44444,0.00042],[-2.38604,-0.00223]],[[272.46885,219.34142],[2.23222,-0.81398],[0,0]],[[271.45333,219.30078],[0.47954,0.23554],[-1.94914,2.49264]],[[265.73845,226.90048],[1.89702,-2.53818],[1.39511,-0.47886]],[[269.41186,226.53783],[-0.82222,-0.4183],[2.75225,1.40022]],[[272.61583,236.8791],[-0.05617,-3.31235],[0.64899,-0.92749]],[[274.6931,233.93743],[-0.77118,1.03112],[1.46346,-1.95675]],[[279.63317,228.50887],[-1.6608,1.79188],[0.0552,-2.92417]],[[280.65547,219.89243],[-0.63208,2.88678],[0,0]]],&quot;closed&quot;:true,&quot;fillColor&quot;:[0,0,0],&quot;strokeWidth&quot;:0.5}]}" fill="#a5ff99" stroke-width="0.25"/><path d="M248.04367,241.36827c0,0 -0.13182,0.13084 -0.24246,0.34206c-0.26118,-0.09604 -0.52525,-0.19877 -0.78614,-0.30885c-7.10485,-3.52486 -8.5559,-14.40465 -8.71624,-21.92559c0.19689,-0.41512 0.09819,-0.86918 0.09819,-0.86918l-0.11211,-0.50451c-0.00022,-0.07541 0.00006,-0.15067 0.00006,-0.22517c0,0 0.00073,-0.34263 -0.17824,-0.6689c-0.03363,-0.32066 -0.06175,-0.65452 -0.08663,-0.99794c0.80549,1.30457 1.68883,2.52467 2.69016,3.78514c0.42683,0.53729 0.56007,1.54568 1.2392,1.64384c2.13538,0.30865 3.88255,-2.17824 5.25393,-3.79307c0.34818,4.46134 1.72585,8.09916 5.19726,11.10857c-0.13581,0.33968 -0.09933,0.67756 -0.09933,0.67756c0.27349,2.24051 1.40087,4.36926 2.20678,6.48477c0.2287,0.60034 1.4429,1.16871 1.00912,1.64256c-0.45623,0.49838 -1.31717,0.35452 -1.93465,0.62884c-1.92559,0.85548 -3.69312,1.39114 -5.32469,2.77169l-0.2142,0.20814z" data-paper-data="{&quot;noHover&quot;:false,&quot;origItem&quot;:[&quot;Path&quot;,{&quot;applyMatrix&quot;:true,&quot;segments&quot;:[[248.03874,241.3185],[[248.25199,241.11046],[0,0],[1.63157,-1.38055]],[[253.55341,238.3478],[-1.92559,0.85548],[0.61748,-0.27432]],[[255.48206,237.72403],[-0.45623,0.49838],[0.43378,-0.47385]],[[254.47149,236.08296],[0.2287,0.60034],[-0.80591,-2.11551]],[[252.25169,229.62614],[0.27349,2.24051],[0,0]],[[252.35064,228.9547],[-0.13581,0.33968],[-3.47141,-3.00941]],[[247.20162,217.89609],[0.34818,4.46134],[-1.37138,1.61483]],[[241.97713,221.68083],[2.13538,0.30865],[-0.67913,-0.09816]],[[240.7384,220.03668],[0.42683,0.53729],[-1.00133,-1.26047]],[[238.04849,216.25137],[0.80549,1.30457],[0.02488,0.34342]],[[238.1365,217.24832],[-0.03363,-0.32066],[0.17897,0.32627]],[[238.31547,217.91667],[0,0],[0,0.0745]],[[238.3158,218.14153],[-0.00022,-0.07541],[0,0]],[238.42856,218.64552],[[238.33223,219.51311],[0.19689,-0.41512],[0.16034,7.52094]],[[247.01425,241.3515],[-7.10485,-3.52486],[0.26089,0.11008]],[[247.79734,241.66049],[-0.26118,-0.09604],[0.11064,-0.21122]],[248.03873,241.31852]],&quot;closed&quot;:true,&quot;fillColor&quot;:[0,0,0],&quot;strokeWidth&quot;:0.5}]}" fill="#a5ff99" stroke-width="0.25"/><path d="M250.31869,198.30965c0.29958,-1.07021 0.44497,-2.21017 0.66853,-3.30721c4.1739,-0.91579 8.74822,-1.40934 12.79787,0.2841c0.8619,0.36042 -0.43,1.8476 -0.86052,2.67672c-0.67115,1.29253 -0.64504,2.9702 -0.33871,4.39402c0.8924,-0.13042 1.71617,-0.16862 2.58207,-0.42083c0.01137,-0.00331 0.12069,0.01428 0.13249,0.01036c-0.23685,0.51699 -0.43096,1.01684 -0.53036,1.14943c-1.22924,1.63966 -3.26403,2.53077 -5.23986,2.91648c-1.25801,0.24558 -2.55125,0.32929 -3.81656,0.32711c-0.11573,-0.47662 -0.53772,-0.77025 -0.53772,-0.77025c-1.36635,-0.95369 -2.5419,-2.16103 -3.87786,-3.15616c-0.01794,-0.01336 -1.69069,-1.13298 -1.76502,-1.34904c-0.16382,-0.47621 0.77782,-2.72671 0.78566,-2.75473z" data-paper-data="{&quot;noHover&quot;:false,&quot;origItem&quot;:[&quot;Path&quot;,{&quot;applyMatrix&quot;:true,&quot;segments&quot;:[[[250.36694,198.32281],[0,0],[-0.00784,0.02802]],[[249.58277,201.0592],[-0.16382,-0.47621],[0.07433,0.21606]],[[251.34518,202.39669],[-0.01794,-0.01336],[1.33596,0.99513]],[[255.19525,205.52347],[-1.36635,-0.95369],[0,0]],[[255.72703,206.29166],[-0.11573,-0.47662],[1.26531,0.00218]],[[259.51294,205.9658],[-1.25801,0.24558],[1.97583,-0.38571]],[[264.72344,203.07818],[-1.22924,1.63966],[0.0994,-0.13259]],[[265.25155,201.93627],[-0.23685,0.51699],[-0.0118,0.00392]],[[265.21679,201.94711],[0.01137,-0.00331],[-0.8659,0.25221]],[[262.53958,202.33839],[0.8924,-0.13042],[-0.30633,-1.42382]],[[262.87837,197.98236],[-0.67115,1.29253],[0.43052,-0.82912]],[[263.74562,195.31723],[0.8619,0.36042],[-4.04965,-1.69344]],[[251.02596,195.03406],[4.1739,-0.91579],[-0.22356,1.09704]],[[250.36693,198.32281],[0.29958,-1.07021],[0,0]]],&quot;closed&quot;:true,&quot;fillColor&quot;:[0,0,0],&quot;strokeWidth&quot;:0.5}]}" fill="#a5ff99" stroke-width="0.25"/><path d="M303.45833,209.33334c0,-0.69036 0.55964,-1.25 1.25,-1.25c0.69036,0 1.25,0.55964 1.25,1.25c0,0.69036 -0.55964,1.25 -1.25,1.25c-0.69036,0 -1.25,-0.55964 -1.25,-1.25z" fill="#000000" stroke-width="0.5"/><path d="M313.20833,211.25c0.69036,0 1.25,0.55964 1.25,1.25c0,0.69036 -0.55964,1.25 -1.25,1.25c-0.08153,0 -0.16124,-0.0078 -0.23842,-0.02271c-0.03108,-0.47368 -0.48092,-1.0183 -1.00761,-1.3276c0.05109,-0.64345 0.58944,-1.1497 1.24603,-1.1497z" fill="#000000" stroke-width="0.5"/><path d="M310.673,214.22978c0.35355,0.35356 0,0.7071 0,0.7071l-0.16467,0.15756c-0.71368,0.53152 -1.98175,1.36123 -2.93579,0.95083c-0.50301,-0.21638 -1.03117,-1.35526 -0.96001,-2.09105c-2.04129,1.23928 -4.4969,0.96529 -4.00851,-2.00865c0,0 0.0822,-0.4932 0.5754,-0.411c0.4932,0.0822 0.411,0.57539 0.411,0.57539c-0.3728,2.20037 1.41634,1.8419 2.87347,0.74003l0.4404,-0.3303c0.08425,-0.06462 0.18966,-0.10303 0.30404,-0.10303c0.27614,0 0.5,0.22386 0.5,0.5v0.55555h-0.06526c0.23633,1.38584 0.31554,2.29661 2.26526,0.82223l0.05755,-0.06466c0,0 0.35356,-0.35356 0.70711,0z" fill="#000000" stroke-width="0.5"/><path d="M308.04167,211.58334c0,-0.27614 0.22386,-0.5 0.5,-0.5c0.27614,0 0.5,0.22386 0.5,0.5c0,0.27614 -0.22386,0.5 -0.5,0.5c-0.27614,0 -0.5,-0.22386 -0.5,-0.5z" fill="#000000" stroke-width="0.5"/></g></g></svg>