<svg version="1.1" xmlns="http://www.w3.org/2000/svg" xmlns:xlink="http://www.w3.org/1999/xlink" width="149.92018" height="111.18042" viewBox="0,0,149.92018,111.18042"><g transform="translate(-200.22329,-152.55415)"><g data-paper-data="{&quot;isPaintingLayer&quot;:true}" fill-rule="nonzero" stroke="none" stroke-width="0.5" stroke-linecap="butt" stroke-linejoin="miter" stroke-miterlimit="10" stroke-dasharray="" stroke-dashoffset="0" style="mix-blend-mode: normal"><g><path d="M204.34306,230.59476c-1.57512,-1.25764 -1.2581,-1.77692 -1.29305,-3.59475c-0.06001,-3.1225 1.04752,-6.04702 3.49491,-7.52716c0.05476,0.3305 0.23192,0.68361 0.62454,1.02014c1.3287,1.13889 2.46758,-0.18982 2.46758,-0.18982c3.44635,-4.16969 10.41016,-5.43484 14.87075,-8.50236c4.11919,-2.83274 7.23487,-6.25487 10.32869,-9.86321c3.20144,-1.57915 7.45621,-1.82823 9.72185,0.51866c-0.0004,4.21415 -0.03425,8.42746 -1.83318,12.36236c-2.53815,5.55182 -10.70505,10.61704 -16.345,12.27728c-4.72011,1.58414 -9.60873,4.03696 -14.64425,4.5269c-2.10603,0.20491 -4.25586,0.04915 -6.37205,-0.3541c-0.34145,-0.18077 -0.68175,-0.40321 -1.02079,-0.67392zM212.77836,220.15486c-0.87383,0.43514 -1.79726,0.77568 -2.73495,1.04706l-0.84023,0.21077c0,0 -0.46961,0.1174 -0.89742,-0.08615c-1.63424,0.69739 -2.63581,2.50509 -2.7589,4.36208c-0.04383,0.66117 -0.4085,2.49923 0.3101,2.91664c3.11999,1.81229 5.39379,0.13432 8.49032,-0.24589c1.90821,-0.2343 3.72042,-0.22305 5.6425,-0.57026c6.98432,-2.3465 11.67487,-6.04687 17.07475,-10.91888c0.6375,-0.57518 1.2035,-0.94291 1.71468,-1.32117c0.55056,-0.58146 1.04632,-1.09894 1.4227,-1.47961c-0.21784,-0.22497 -0.3519,-0.53155 -0.3519,-0.86944c0,-0.12924 0.01961,-0.2539 0.05603,-0.37116l0.39207,-1.37224l0.13749,0.03928l0.02378,-0.3884c0.66955,-0.5763 1.51315,-1.013 1.97732,-1.76465c0.38523,-0.62382 0.66902,-1.31871 0.84675,-2.03003c1.33547,-5.34465 -7.06274,-4.62981 -9.47095,-1.66828c-0.6677,1.85027 -1.49685,2.67103 -2.79751,3.40847c-0.40432,0.41701 -0.83367,0.833 -1.30326,1.24027c-4.25767,3.69266 -8.74516,7.00615 -14.20226,9.08713c-0.22383,0.08536 -0.75665,0.1947 -1.48664,0.32063c-0.40806,0.1626 -0.82258,0.31434 -1.24446,0.45381z" fill="#000000"/><path d="M214.07047,219.68589c0.72999,-0.12594 1.16776,-0.20422 1.39159,-0.28958c5.45709,-2.08099 10.02476,-5.44814 14.28243,-9.1408c0.46959,-0.40727 0.89959,-0.82268 1.30392,-1.2397c1.30066,-0.73743 2.12929,-1.55866 2.79699,-3.40893c2.40821,-2.96154 10.81857,-3.66041 9.4831,1.68424c-0.17774,0.71131 -0.46001,1.40967 -0.84524,2.03349c-0.46417,0.75164 -1.30685,1.19092 -1.9764,1.76722l-0.02346,0.38943l-0.13756,-0.03951l-0.39109,1.37587c-0.03641,0.11726 -0.05579,0.243 -0.05579,0.37224c0,0.33789 0.13457,0.64732 0.35241,0.87229c-0.37638,0.38068 -0.87169,0.9025 -1.42225,1.48396c-0.51118,0.37827 -1.07713,0.75082 -1.71463,1.32599c-5.39988,4.87201 -10.15851,8.6171 -17.14283,10.9636c-1.92208,0.34721 -3.74838,0.32761 -5.65658,0.56191c-3.09653,0.38021 -5.3799,2.04741 -8.49989,0.23512c-0.7186,-0.41741 -0.35701,-2.26086 -0.31318,-2.92203c0.12309,-1.85699 1.12171,-3.67214 2.75594,-4.36953c0.42781,0.20355 0.99271,0.05584 0.99271,0.05584l0.84017,-0.21097c0.9377,-0.27138 1.76613,-0.58068 2.63996,-1.01582c0.42189,-0.13947 0.93163,-0.32175 1.33969,-0.48435z" data-paper-data="{&quot;noHover&quot;:false,&quot;origItem&quot;:[&quot;Path&quot;,{&quot;applyMatrix&quot;:true,&quot;segments&quot;:[[[234.87835,161.75485],[0.42189,-0.13947],[-0.87383,0.43514]],[[232.1434,162.8019],[0.9377,-0.27138],[0,0]],[231.30317,163.01268],[[230.40575,162.92653],[0.42781,0.20355],[-1.63424,0.69739]],[[227.64686,167.28861],[0.12309,-1.85699],[-0.04383,0.66117]],[[227.95695,170.20525],[-0.7186,-0.41741],[3.11999,1.81229]],[[236.44727,169.95937],[-3.09653,0.38021],[1.90821,-0.2343]],[[242.08977,169.38911],[-1.92208,0.34721],[6.98432,-2.3465]],[[259.16452,158.47023],[-5.39988,4.87201],[0.6375,-0.57518]],[[260.8792,157.14905],[-0.51118,0.37827],[0.55056,-0.58146]],[[262.3019,155.66944],[-0.37638,0.38068],[-0.21784,-0.22497]],[[261.95,154.8],[0,0.33789],[0,-0.12924]],[[262.00603,154.42884],[-0.03641,0.11726],[0,0]],[262.3981,153.0566],[262.53558,153.09588],[[262.55937,152.70748],[0,0],[0.66955,-0.5763]],[[264.53669,150.94284],[-0.46417,0.75164],[0.38523,-0.62382]],[[265.38344,148.91281],[-0.17774,0.71131],[1.33547,-5.34465]],[[255.91249,147.24453],[2.40821,-2.96154],[-0.6677,1.85027]],[[253.11498,150.653],[1.30066,-0.73743],[-0.40432,0.41701]],[[251.81171,151.89327],[0.46959,-0.40727],[-4.25767,3.69266]],[[237.60946,160.98041],[5.45709,-2.08099],[-0.22383,0.08536]],[[236.12282,161.30104],[0.72999,-0.12594],[-0.40806,0.1626]]],&quot;closed&quot;:true}]}" fill="#ff5454"/></g><g><path d="M348.98345,179.30413c-3.73593,0.0203 -7.45894,-0.07594 -11.18201,-0.04174c0.13988,-1.16344 0.09071,-2.60538 0.09203,-3.42831c0,0 0,-0.79979 -0.54069,-1.318c0.24091,-1.36941 0.3012,-2.72524 -0.42923,-4.10951c-0.9919,-1.87978 -6.19623,-2.07919 -8.0216,-2.17817c-0.61488,-0.03334 -1.2284,-0.0557 -1.84077,-0.06919c-0.11282,1.78875 -0.84744,3.34193 -2.77997,4.22346c-1.59615,0.72809 -3.96737,0.62394 -5.7102,0.77516c-3.62598,0.31461 -7.22987,0.65936 -10.86079,0.73826c-1.61447,0.03508 -3.68961,0.44332 -5.2652,-0.02453c-2.78904,-0.82818 -3.12615,-3.30764 -4.06664,-5.49184c-1.75703,-4.08055 -2.93459,-8.76243 -0.93254,-12.8716c5.1148,-2.36842 10.90805,-2.26332 16.54574,-2.7472c2.031,-0.17432 5.06107,-0.50532 6.96219,0.38711c2.08357,0.97808 2.49629,2.65133 3.1986,4.36517c4.53436,-0.05509 9.06379,0.47301 13.27408,1.78779c2.61326,1.02027 5.62386,2.34308 7.57277,4.32829c4.06053,4.13616 5.54352,10.41486 3.98423,15.67486zM322.1836,159.61236c-0.12372,-0.14638 -0.18308,-0.26807 -0.18308,-0.26807c-0.16589,-0.34347 -0.29589,-0.74472 -0.42903,-1.16037c-0.30596,-0.19366 -0.61644,-0.36648 -0.92696,-0.51493c0.247,-0.01874 0.49423,-0.03589 0.74163,-0.05143c-0.3148,-0.9186 -0.7287,-1.81262 -1.6504,-2.22755c-1.85668,-0.83586 -5.07232,-0.17601 -7.01701,-0.00728c-4.56418,0.39601 -8.9198,0.63958 -13.27963,1.84968c-0.92018,3.27017 0.16071,7.13446 1.49715,10.22323c0.40415,0.93407 0.94214,3.79016 2.24221,4.00631c4.73897,0.7879 10.38311,-0.38085 15.13068,-0.79276c1.46293,-0.12693 3.38451,-0.02505 4.77106,-0.53606c1.17827,-0.43426 1.01607,-1.59023 1.06178,-2.50831c0.12192,-2.44853 -0.81626,-4.70583 -1.50555,-7.04777c-0.22114,-0.16684 -0.40118,-0.42969 -0.44464,-0.84278c-0.00441,-0.04189 -0.00712,-0.0825 -0.00823,-0.12188z" fill="#000000"/><path d="M322.05106,159.32446c-0.16589,-0.34347 -0.29878,-0.74993 -0.43191,-1.16559c-0.30596,-0.19366 -0.61901,-0.37013 -0.92954,-0.51859c0.24699,-0.01874 0.49522,-0.03455 0.74262,-0.05009c-0.3148,-0.9186 -0.73753,-1.82207 -1.65922,-2.237c-1.85668,-0.83586 -5.1027,-0.1888 -7.04739,-0.02007c-4.56418,0.39601 -8.9747,0.66474 -13.33453,1.87483c-0.92018,3.27017 0.1579,7.17811 1.49434,10.26688c0.40415,0.93407 0.955,3.80716 2.25508,4.02331c4.73897,0.7879 10.4565,-0.37878 15.20407,-0.7907c1.46293,-0.12693 3.39537,-0.03625 4.78194,-0.54727c1.17828,-0.43426 1.02143,-1.59999 1.06715,-2.51806c0.12192,-2.44853 -0.81495,-4.7368 -1.50424,-7.07875c-0.22114,-0.16684 -0.40274,-0.43393 -0.4462,-0.84702c-0.00441,-0.04189 -0.00734,-0.08303 -0.00845,-0.1224c-0.12372,-0.14638 -0.18371,-0.26947 -0.18371,-0.26947z" data-paper-data="{&quot;noHover&quot;:false,&quot;origItem&quot;:[&quot;Path&quot;,{&quot;applyMatrix&quot;:true,&quot;segments&quot;:[[[404.15592,339.10831],[-0.3128,-0.19583],[0.07859,-0.00548]],[[404.4,339.1],[-0.08416,0],[0.82994,0]],[[406.15472,339.74363],[-0.37037,-0.36811],[4.78173,0.80079]],[[420.44645,341.12513],[-4.85379,0.68617],[1.81993,-0.25728]],[[425.25691,338.72826],[-0.66104,2.21297],[0.77789,-2.60416]],[[425.5,330],[0,2.66917],[0,-8.66219]],[[424.46465,302.49226],[2.38727,8.41841],[-0.65492,-2.30948]],[[416.10103,299.2003],[1.92947,0.55304],[-6.38041,-1.82881]],[[395.48863,298.438],[6.35174,-2.28576],[-1.6561,8.11294]],[[394.1,322.8],[0,-8.32756],[0,3.54817]],[[395.32663,335.48567],[-1.98486,-3.19796],[0.98533,1.58753]],[[400.04663,338.04595],[-1.88326,-0.39443],[-0.01181,-0.45027]],[[400.02091,336.69527],[0.00535,0.45015],[0.34919,0.5332]],[[401.20624,338.27332],[-0.43842,-0.51636],[0.85054,0.16165]],[[403.59057,338.82829],[-0.71247,-0.23459],[0,0]]],&quot;closed&quot;:true}]}" fill="#b5b5b5"/></g><g><path d="M205.1686,221.43366c-0.38777,-0.4424 -0.85581,-0.86393 -1.04812,-1.41989c-0.04069,-0.11763 -0.05887,-0.7116 -0.06663,-1.36252c-0.11406,0.09973 -0.22809,0.1995 -0.3421,0.29933c-0.40383,0.33657 -0.80768,0.67314 -1.21151,1.0097l-0.11634,0.12361c0,0 -0.88389,0.88388 -1.76777,0c-0.88388,-0.88388 0,-1.76777 0,-1.76777l0.28366,-0.27639c0.39616,-0.33009 0.79233,-0.6602 1.18849,-0.9903c0.8394,-0.73393 1.68043,-1.46498 2.52221,-2.1944c-0.28567,-0.21034 -0.42851,-0.49601 -0.42851,-0.49601c-0.82145,-1.65079 -2.1356,-3.20286 -2.67511,-4.9863c-1.30435,-4.31179 1.17265,-9.39178 1.96439,-13.60224c0.22999,-1.22308 0.07231,-4.66088 1.67471,-5.1693c0.80447,-0.25525 2.60232,1.41652 3.23822,1.95269c4.70492,2.325 9.59395,2.0912 14.69259,2.8087l1.22872,0.20444c0,0 0.70008,0.11668 0.95727,0.70173c0.11793,-0.11735 0.23571,-0.23488 0.35334,-0.35262c0,0 0.88389,-0.88388 1.76777,0c0.88388,0.88388 0,1.76777 0,1.76777c-0.60921,0.60862 -1.22231,1.21203 -1.83891,1.81076c3.19955,1.43701 7.61889,3.88049 10.06823,6.76967c-2.4582,2.79477 -5.04011,5.42002 -8.30431,7.66344c-4.20645,2.89101 -9.74791,4.21339 -13.73239,7.3955c-2.78007,1.7395 -5.4404,3.49596 -8.4079,0.1104zM222.72324,197.83745c-5.49907,-0.7989 -10.62705,-0.63016 -15.70741,-3.1913c-0.20942,-0.17279 -0.53883,-0.42881 -0.81686,-0.69121c-0.01329,0.22996 -0.03925,0.45349 -0.06001,0.611c-0.25903,1.9652 -0.47197,4.30653 -1.0458,6.2068c-0.72701,2.40755 -2.0279,5.22773 -1.2,7.85458c0.51484,1.63354 1.76149,3.09337 2.52489,4.61369c0,0 0.00639,0.01278 0.01643,0.03628c5.78904,-5.00107 11.58285,-9.96782 17.09328,-15.3055z" fill="#000000"/><path d="M223.57125,197.9471c-5.51042,5.33768 -11.37746,10.3693 -17.1665,15.37038c-0.01004,-0.02351 -0.01655,-0.03637 -0.01655,-0.03637c-0.7634,-1.52033 -2.02462,-2.99729 -2.53946,-4.63083c-0.8279,-2.62685 0.46998,-5.4859 1.197,-7.89345c0.57383,-1.90026 0.80244,-4.26433 1.06146,-6.22953c0.02076,-0.1575 0.04813,-0.38214 0.06142,-0.6121c0.27803,0.2624 0.60827,0.5178 0.81769,0.69059c5.08036,2.56115 10.28013,2.40605 15.7792,3.20495z" data-paper-data="{&quot;noHover&quot;:false,&quot;origItem&quot;:[&quot;Path&quot;,{&quot;applyMatrix&quot;:true,&quot;segments&quot;:[[[480.04645,268.87487],[0,0],[-10.99814,-1.5978]],[[448.63163,262.49226],[10.16072,5.1223],[-0.41884,-0.34558]],[[446.99791,261.10984],[0.55605,0.5248],[-0.02658,0.45992]],[[446.87788,262.33183],[0.04152,-0.31501],[-0.51805,3.93041]],[[444.78628,274.74542],[1.14766,-3.80053],[-1.45403,4.8151]],[[442.38628,290.45458],[-1.6558,-5.2537],[1.02968,3.26708]],[[447.43607,299.68197],[-1.5268,-3.04065],[0,0]],[[447.46893,299.75453],[-0.02009,-0.04701],[11.57808,-10.00215]],[[481.65549,269.14352],[-11.02085,10.67537],[0,0]]],&quot;closed&quot;:true}]}" fill="#ff0000"/><path d="M212.37124,196.48461c-1.87158,1.81291 -3.86429,3.52188 -5.8305,5.22046c-0.00341,-0.00798 -0.00562,-0.01235 -0.00562,-0.01235c-0.25928,-0.51637 -0.68765,-1.01801 -0.86251,-1.57284c-0.28119,-0.89219 0.15963,-1.86325 0.40655,-2.68097c0.1949,-0.64541 0.27254,-1.44835 0.36052,-2.11582c0.00705,-0.0535 0.01635,-0.12979 0.02086,-0.2079c0.09443,0.08912 0.20659,0.17587 0.27772,0.23455c1.72552,0.86988 3.49159,0.8172 5.35931,1.08854z" data-paper-data="{&quot;noHover&quot;:false,&quot;origItem&quot;:[&quot;Path&quot;,{&quot;applyMatrix&quot;:true,&quot;segments&quot;:[[[480.04645,268.87487],[0,0],[-10.99814,-1.5978]],[[448.63163,262.49226],[10.16072,5.1223],[-0.41884,-0.34558]],[[446.99791,261.10984],[0.55605,0.5248],[-0.02658,0.45992]],[[446.87788,262.33183],[0.04152,-0.31501],[-0.51805,3.93041]],[[444.78628,274.74542],[1.14766,-3.80053],[-1.45403,4.8151]],[[442.38628,290.45458],[-1.6558,-5.2537],[1.02968,3.26708]],[[447.43607,299.68197],[-1.5268,-3.04065],[0,0]],[[447.46893,299.75453],[-0.02009,-0.04701],[11.57808,-10.00215]],[[481.65549,269.14352],[-11.02085,10.67537],[0,0]]],&quot;closed&quot;:true}]}" fill="#ffbbbb"/><path d="M220.26061,209.73577c0.46424,1.1606 -0.69636,1.62483 -0.69636,1.62483l-0.85718,0.3321c-1.61692,0.89721 -2.89288,1.78585 -4.66365,2.30921c0,0 -1.2019,0.3434 -1.54531,-0.8585c-0.3434,-1.2019 0.8585,-1.54531 0.8585,-1.54531c1.5591,-0.42556 2.70961,-1.29725 4.13635,-2.09079l1.14282,-0.4679c0,0 1.1606,-0.46424 1.62483,0.69636z" fill="#ffc3c3"/></g><path d="M337.0716,179.44096c0.37133,-0.5987 0.59339,-1.35918 0.82857,-2.12515c0.00326,-0.56875 -0.00732,-1.09396 -0.0067,-1.48173c0,0 0,-1.18623 -0.97664,-1.60541c-0.01389,-0.63496 -0.02336,-1.26707 -0.02336,-1.89459c0.01505,-4.93639 -2.69094,-6.36739 -7.24515,-7.27427l-0.75485,0.02427c0,0 -1.25,0 -1.25,-1.25c0,-1.25 1.25,-1.25 1.25,-1.25l1.24515,0.02427c5.68451,1.14146 9.2385,3.57031 9.25485,9.72573c0,0.70998 0.01342,1.42743 0.03219,2.14922c0.09917,-0.07867 0.20508,-0.15136 0.31848,-0.21734c2.79684,-1.62744 6.33015,-0.80835 8.62637,1.09767c0.02199,-0.00453 0.04447,-0.00872 0.06746,-0.01255c1.23299,-0.2055 1.43849,1.02749 1.43849,1.02749c0.09616,0.58642 0.16331,1.15697 0.20425,1.71469l0.06276,0.49081c0,0 0,0.09025 -0.02425,0.22225c0.13952,4.04095 -1.08509,7.45325 -2.55202,11.45769c-1.64225,4.48302 -3.17406,8.84878 -5.32164,13.15988c-2.34984,4.09999 -3.62532,9.23076 -7.23212,12.55776c-3.54053,3.26587 -8.1878,5.74924 -12.61812,7.66664c4.25964,5.44877 4.32928,14.67506 -0.01369,20.20131c-3.07008,4.07415 -7.37418,7.4426 -10.19461,11.67259c-0.79142,1.18694 -1.06949,3.19024 -2.32349,4.08366c-0.80875,0.57619 -2.27874,0.47605 -3.22006,0.47823c-2.96827,0.00688 -5.88273,-0.24637 -8.8531,-0.25426c-2.05411,-0.33707 -4.17829,-0.81166 -6.25,-1c-0.54611,-0.04965 -2.54274,0.10987 -2.87525,-0.09089c-2.41394,-1.45743 -2.33947,-2.1448 -1.36135,-4.26726c0.42782,-0.92835 1.50448,-1.73654 2.14539,-2.4566c2.36934,-2.66192 3.90936,-5.15627 6.59501,-7.59815c1.56874,-1.42636 3.47549,-2.80631 4.786,-4.49001c0.0136,-0.01748 0.02735,-0.0364 0.04113,-0.0566c-0.34271,0.21376 -0.72782,0.21376 -0.72782,0.21376l-0.00485,-0.02427c-2.37798,0.45098 -4.35021,2.00083 -6.73698,2.49732c-6.18031,1.36859 -13.03324,2.54752 -19.38134,2.02087c-4.44058,-0.3684 -8.90052,-1.25117 -13.37683,-1.24392c0,0 -0.39254,0 -0.73767,-0.21997c-0.64091,1.46185 -1.30985,2.90832 -2.14764,4.24292c1.33396,0.92798 2.86581,1.28613 3.74677,2.90507c1.03769,1.90696 0.15002,3.48254 -0.42273,5.20853c-1.10606,3.3331 -2.80361,6.56801 -6.33924,7.81359c-5.30241,1.30459 -11.2372,-0.51976 -16.41168,-1.73976c-2.90795,-0.68561 -5.80242,0.56547 -8.67419,0.01706c-2.02078,-0.3859 -5.82567,-0.43709 -7.13651,-2.42826c-0.40563,-0.61616 0.12704,-1.46991 0.19055,-2.20486c1.67071,-3.37945 4.18941,-6.7495 5.22499,-10.41805c0.69815,-2.47321 0.74436,-5.93541 3.5436,-7.10582c1.86193,-0.7785 4.1755,0.15782 6.25938,0.94301c0.49192,0.02019 0.97824,0.06197 1.46172,0.11931c0.18416,-0.25897 0.35544,-0.52898 0.51003,-0.81333c-7.77479,-0.97899 -18.06891,-1.35123 -21.93541,-9.01044c0,0 -0.17884,-0.35768 -0.1319,-0.76957c-0.09991,-0.13753 -0.17997,-0.31523 -0.22579,-0.5443c-0.24515,-1.22573 0.98058,-1.47087 0.98058,-1.47087c2.13784,-0.38928 4.01321,-1.82536 5.88274,-2.86398c2.40556,-1.33641 5.09056,-2.17517 7.5,-3.5c2.58876,-1.42343 4.02966,-4.08511 6.92429,-5.20385c3.21677,-3.35367 3.49937,-7.5078 4.02907,-11.8204c-0.09547,-0.10835 -0.18145,-0.24655 -0.25155,-0.42181c-0.35812,-0.8953 0.25067,-1.37621 0.5477,-1.54929c0.14932,-0.32523 0.46125,-0.66495 1.1129,-0.66495c0.25599,0 0.45956,0.05243 0.62143,0.1358c3.33671,-0.65747 6.9593,0.33991 10.17988,1.15106c5.58117,1.40569 11.17582,2.21314 16.94869,2.21314c8.3927,0.01109 16.83308,0.25 25.25,0.25l0.60934,0c0.14199,-0.00823 0.27283,0.0068 0.37623,0.02675c0.10288,0.01977 0.22916,0.05415 0.35725,0.11395c2.50026,0.97342 5.16121,0.61907 7.78624,0.36516c4.71463,-0.45603 9.93477,-1.40908 14.31499,-3.37543c2.32668,-1.04449 4.08027,-3.392 6.08398,-4.90086c4.71761,-3.12286 9.74153,-8.97607 10.22805,-14.85275c0.04445,-0.5369 0.07506,-1.07751 0.09504,-1.62074c0.09076,-0.11418 0.1773,-0.23545 0.2592,-0.36458c-0.71619,-0.64462 -0.18219,-1.53463 -0.18219,-1.53463zM235.32012,242.01478c-1.11006,-0.35274 -2.18392,-0.54442 -3.01289,-0.25117c-1.45406,0.51439 -1.60997,4.19478 -1.9564,5.39418c-1.08586,3.7594 -3.53348,7.14155 -5.27501,10.58195c-0.83589,0.79724 1.45047,0.81492 1.94083,0.85041c2.88713,0.20898 5.43378,0.24594 8.37683,0.24392c6.15056,-0.00423 12.46773,3.62539 18.65052,2.04985c2.66845,-0.81277 3.85851,-3.79146 4.66076,-6.18641c0.33756,-1.00772 1.22765,-2.10458 0.57727,-3.29147c-0.6231,-1.1371 -2.46408,-1.58662 -3.40781,-2.33672c-4.12133,-3.27574 -8.18879,-4.62786 -13.45609,-5.50574c-0.54384,-0.10877 -1.08371,-0.22071 -1.62309,-0.32324c-0.44786,0.45922 -1.1467,0.31945 -1.1467,0.31945c-0.59342,-0.12101 -1.33008,-0.40615 -2.12377,-0.72162c-0.12667,-0.00325 -0.25369,-0.00466 -0.38108,-0.0041l-1.14528,-0.31415c0,0 -0.42141,-0.14047 -0.67807,-0.50515z" fill="#000000"/><path d="M235.96965,242.47887l1.1485,0.31209c0.1274,-0.00056 0.25586,0.00004 0.38253,0.00328c0.79369,0.31547 1.53882,0.59698 2.13224,0.71799c0,0 0.70579,0.13806 1.15365,-0.32116c0.53938,0.10254 1.08907,0.21377 1.63291,0.32254c5.26729,0.87788 9.38265,2.2714 13.50399,5.54714c0.94373,0.7501 2.78545,1.20807 3.40855,2.34517c0.65038,1.18688 -0.24065,2.29353 -0.57821,3.30125c-0.80225,2.39494 -2.00226,5.39514 -4.67071,6.20791c-6.18278,1.57554 -12.57296,-2.04848 -18.72352,-2.04425c-2.94304,0.00202 -5.50105,-0.05042 -8.38818,-0.2594c-0.49036,-0.03549 -2.77841,-0.05721 -1.94252,-0.85445c1.74153,-3.4404 4.18907,-6.85681 5.27494,-10.61621c0.34643,-1.1994 0.51362,-4.89774 1.96768,-5.41213c0.82897,-0.29326 1.90909,-0.10699 3.01915,0.24575c0.25666,0.36468 0.67901,0.50448 0.67901,0.50448z" data-paper-data="{&quot;noHover&quot;:false,&quot;origItem&quot;:[&quot;Path&quot;,{&quot;applyMatrix&quot;:true,&quot;segments&quot;:[[[235.32012,242.01478],[0.25666,0.36468],[-1.11006,-0.35274]],[[232.30723,241.76361],[0.82897,-0.29326],[-1.45406,0.51439]],[[230.35083,247.1578],[0.34643,-1.1994],[-1.08586,3.7594]],[[225.07581,257.73975],[1.74153,-3.4404],[-0.83589,0.79724]],[[227.01664,258.59016],[-0.49036,-0.03549],[2.88713,0.20898]],[[235.39347,258.83408],[-2.94304,0.00202],[6.15056,-0.00423]],[[254.04399,260.88393],[-6.18278,1.57554],[2.66845,-0.81277]],[[258.70474,254.69752],[-0.80225,2.39494],[0.33756,-1.00772]],[[259.28201,251.40606],[0.65038,1.18688],[-0.6231,-1.1371]],[[255.8742,249.06934],[0.94373,0.7501],[-4.12133,-3.27574]],[[242.41812,243.5636],[5.26729,0.87788],[-0.54384,-0.10877]],[[240.79503,243.24035],[0.53938,0.10254],[-0.44786,0.45922]],[[239.64832,243.5598],[0,0],[-0.59342,-0.12101]],[[237.52455,242.83818],[0.79369,0.31547],[-0.12667,-0.00325]],[[237.14347,242.83408],[0.1274,-0.00056],[0,0]],[235.99819,242.51993]],&quot;closed&quot;:true}]}" fill="#ff5454"/></g></g></svg>