<svg version="1.1" xmlns="http://www.w3.org/2000/svg" xmlns:xlink="http://www.w3.org/1999/xlink" width="147.09479" height="173.89107" viewBox="0,0,147.09479,173.89107"><g transform="translate(-176.24654,-115.88321)"><g data-paper-data="{&quot;isPaintingLayer&quot;:true}" fill-rule="nonzero" stroke="none" stroke-width="0.5" stroke-linecap="butt" stroke-linejoin="miter" stroke-miterlimit="10" stroke-dasharray="" stroke-dashoffset="0" style="mix-blend-mode: normal"><path d="M237.26045,249.0561c0.8959,-1.83364 1.52379,-3.99791 2.55087,-5.84767c0.95586,-1.7215 2.95236,-2.72034 3.67731,-4.60271c0.3688,-0.95762 0.43513,-1.9856 0.51384,-3.00841c-0.00653,-0.01633 -0.01306,-0.03267 -0.01959,-0.04899l-0.04669,-0.63418c-2.22877,0.48755 -4.48638,0.88108 -6.63836,1.60274c-0.66227,0.22209 -1.63413,-0.09539 -2.04174,0.47187c-0.69482,0.96695 -0.2033,4.87428 -0.32822,5.97794c-0.42758,3.77748 -1.05245,7.64539 -1.96409,11.36822c1.66524,-1.59702 3.3417,-3.32421 4.29669,-5.27879zM241.97563,244.45973c-0.96174,1.8033 -1.5548,3.89441 -2.44913,5.65233c-1.43994,2.83036 -4.02628,5.19155 -6.29454,7.40935c0.78442,0.27592 1.57439,0.54816 2.37385,0.81573c0.13979,-0.19928 0.36786,-0.37407 0.7345,-0.46573c1.21268,-0.30317 1.51585,0.90951 1.51585,0.90951l0.28732,1.30317c0,2.07324 -0.18393,3.95897 -0.52619,6.00454c-0.76476,3.00441 -0.74144,6.54565 -0.1537,9.59956c0.44371,2.30551 1.87047,5.17325 0.15494,7.42807c-0.07575,0.09956 -0.15776,0.19183 -0.2455,0.27736c0.49878,1.60935 1.44551,3.77645 0.48712,4.98297c-0.91164,1.14767 -4.80416,0.78973 -6.05925,0.94756c-4.46288,0.56123 -8.98215,0.75405 -13.25557,-0.35675l-0.03989,0.35905l-2.23501,-0.24833c-0.6326,-0.06181 -1.12695,-0.59518 -1.12695,-1.24402c0,-0.69036 0.55964,-1.25 1.25,-1.25h1.1565c2.0542,-0.42424 3.93012,-1.44416 5.85085,-2.22941c-0.01566,-0.38668 0.04962,-0.81555 -0.0042,-1.18198c-0.35057,-2.38693 -0.43308,-4.72008 -0.73189,-7.10909c-1.20957,-4.9074 -1.31407,-10.99547 -1.01934,-16.04865c0.12554,-2.15241 -0.20951,-5.1323 2.59536,-5.92151c0.66717,-0.18772 1.24975,0.60476 1.90026,0.84391c1.25112,0.45996 2.48621,0.91813 3.72104,1.37055l0.07953,-0.31723c1.23185,-4.28428 1.99536,-8.86997 2.5023,-13.30647c0.24813,-2.17155 -0.39153,-5.65528 1.087,-7.50479c0.65186,-0.81541 1.96732,-0.69971 2.95826,-1.02813c2.4083,-0.79817 4.92851,-1.20404 7.40315,-1.77924c-0.01216,-0.87728 -0.11207,-1.75373 -0.23774,-2.62205c-1.21651,-9.78628 -4.45329,-19.23328 -6.15142,-28.92249c-0.456,0.00217 -0.91202,0.00421 -1.36806,0.00609c-0.70751,-0.10715 -1.41366,-0.2006 -2.11753,-0.24512c-2.43919,-0.15426 -4.91931,0.2456 -7.37406,0.2456c0,0 -0.06345,0 -0.16617,0.01208c-0.81512,-0.00169 -1.63037,-0.00419 -2.44578,-0.00758c-4.21265,-0.38686 -8.22897,-1.59477 -12.40628,-2.20086c-2.14896,-0.31179 -3.31704,0.17909 -5.00424,-1.66051c-0.62597,-0.68252 -0.90607,-1.72725 -1.00202,-2.89313c-0.24776,0 -0.49551,0 -0.74327,0c0.01146,0.4991 0.01776,0.99904 0.01776,1.5c0,0 0,1.25 -1.25,1.25c-0.11784,0 -0.22457,-0.01111 -0.32124,-0.03123c-0.26502,0.78123 -1.17876,0.78123 -1.17876,0.78123h-0.75c-0.6655,0 -1.33253,0.00623 -2.00064,0.01864c-0.01439,3.03585 -0.26891,6.03381 -0.50178,9.05903c-0.0833,1.0822 -0.02962,3.39957 -0.56027,4.58425c0.2058,0.25662 0.27537,0.5349 0.27537,0.5349l0.27031,1.09767c1.13194,6.79397 1.05732,14.00512 -1.88805,20.2157l0.65506,0.4898c3.44132,4.60052 5.09249,9.25366 4.74809,15.06913c-0.0953,1.60922 -0.23241,4.48931 -1.22274,5.89583c-0.73642,1.0459 -1.914,1.66892 -3.1636,2.10559l0.00843,0.01476l-1.73094,0.98911c-0.18704,0.11152 -0.40565,0.17559 -0.63923,0.17559c-0.69036,0 -1.25,-0.55964 -1.25,-1.25c0,-0.17413 0.03561,-0.33994 0.09993,-0.49056l0.45755,-1.14387c0.79283,-3.96707 1.08086,-9.57433 -0.45943,-13.38027c-1.26434,-3.12408 -4.17904,-1.79444 -4.8979,0.86418c-0.31015,1.14704 -0.6015,2.30106 -0.98112,3.42703c-0.28648,2.33011 0.2722,5.03527 -0.22145,7.30116c-0.22643,1.03932 -0.02487,2.52214 -0.95049,3.04624c-2.16057,1.22336 -3.94502,-2.95932 -4.44289,-4.12427c-2.25612,-5.27905 -1.34316,-10.70776 1.86984,-15.21388c-1.03314,-0.94001 -1.92028,-2.13776 -2.59694,-3.48658c-1.1641,-2.32047 -1.16433,-4.48806 -1.37285,-6.94609c-0.43754,-5.15792 -0.68183,-9.84522 1.73169,-14.58399c0.26412,-0.26616 0.53118,-0.50919 0.80143,-0.73089l-0.02037,-0.08272c-0.59077,-3.6029 -0.51306,-7.7784 -0.00444,-11.38228c0,0 0.04933,-0.3453 0.27827,-0.64503c-0.11,0.01779 -0.21993,0.03575 -0.32979,0.05387c-1.55233,0.25599 -5.49478,1.09662 -6.67772,-0.43957c-0.94827,-1.23145 -0.0343,-5.32163 -0.02724,-6.91566c1.16507,-5.82533 -0.03585,-11.92052 0.756,-17.8002c0.54192,-4.02389 3.28796,-8.04072 3.23792,-12.07662c0,0 0,-1.22511 1.21285,-1.24963c0.58085,-0.50107 1.34617,-0.11841 1.34617,-0.11841l0.72185,0.39195c4.56331,3.65094 9.33639,5.69778 14.8863,7.54775c1.7775,0.66656 4.30379,1.00736 5.23768,2.94998c0.1377,0.28644 0.23388,0.63498 0.29827,1.02642l0.15159,0.01608c0.90454,-0.29852 1.83519,-0.52412 2.77454,-0.68994c0.04166,-0.41665 0.08335,-0.83341 0.12497,-1.25031c1.68122,-2.93752 4.86406,-2.72561 8.05576,-3.09936c6.83029,-0.79982 13.72773,-0.43886 20.56442,-1.03733c0.0626,-0.65696 0.10642,-1.32426 0.12381,-2.03583c-1.41073,0.21872 -2.79765,0.51266 -4.14145,0.9484c-3.49061,0.0313 -7.04029,-0.18161 -10.52256,0.01372c-4.39915,0.24677 -8.79374,1.14406 -13.17898,0.16556c-5.71971,-1.27627 -8.48876,-5.0082 -5.75161,-10.48683c7.10061,-8.93796 19.82357,-9.17631 30.45292,-9.17631c0,0 0.07863,0 0.19646,0.01972c0.59028,-1.22719 1.52475,-2.36545 2.63759,-3.36459c-1.28941,-1.27192 -2.67977,-2.56499 -4.147,-3.57839c-2.23158,-1.54132 -5.06882,-2.6857 -5.132,-5.91449c-0.04549,-2.32461 0.28084,-2.17419 1.95158,-3.35232c3.88086,-2.73659 8.14656,-1.08182 11.4936,1.67979c2.25817,1.88485 4.00848,4.22403 5.63984,6.6669l0.07462,0.31755c3.77238,0.56141 8.10938,2.81318 9.93628,5.69909c1.18719,1.87536 1.58669,3.77929 1.40214,5.568c5.03607,1.56419 7.60015,4.79548 8.89689,8.76691c0,-6.61939 0,-13.23878 0,-19.85817v-0.8c0,0 0,-0.00155 0.00005,-0.00454c-1.22673,-3.23108 -4.01532,-5.33498 -4.00005,-8.99546c0.00796,-1.90857 0.36825,-4.35303 2.75448,-4.81457c3.72972,-0.72139 4.90786,3.11834 5.69742,5.87116c0.03571,0.12451 0.17992,0.51533 0.3259,0.97648c0.87345,-3.83421 1.4858,-7.97551 2.91233,-11.49912c0.23636,-0.58383 1.57617,-2.90925 2.28944,-3.09205c3.40167,-0.87181 3.96895,2.02076 4.11802,4.48043c0.10949,1.80665 0.0988,3.62566 0.01375,5.44367c3.2712,-1.09284 5.21431,0.23905 7.34878,2.80415c0.59841,-2.26297 1.27509,-4.50546 2.45592,-6.49609c1.82903,-3.08338 3.75353,-1.70596 4.37402,1.16851c0.52432,4.75905 -1.04508,8.4823 -2.02101,13.03394c-1.5372,7.16929 -2.96903,13.73249 -2.96903,21.12349c0,2.62048 -0.43624,4.92195 -0.79857,7.47765c1.8122,0.00021 3.72266,0.2524 4.62971,1.69494c0.39635,0.63035 0.13545,1.48356 0.16886,2.22741c0.08002,1.78114 -0.23813,3.48014 -0.6269,5.16781c0.13239,-0.02588 0.26478,-0.05176 0.39717,-0.07764l1.37317,-0.00608c0,0 0.22069,0 0.47661,0.09273c-0.07152,-0.47876 -0.13482,-0.95521 0.09385,-1.50649c0.7239,-1.74517 2.4607,-2.42532 3.86624,-3.45213c5.75157,-1.76697 11.2333,-4.03711 15.72964,-8.06553c1.83937,-1.64795 2.22615,-3.15097 3.45787,-5.11184c0.46103,-0.73396 0.85842,-1.88694 1.72305,-1.94738c0.93527,-0.06538 1.774,0.86946 2.26419,1.66866c0.7658,1.24854 0.43274,3.49015 0.6278,4.90845c0.31673,2.30296 0.51074,4.31835 0.51074,6.66353c0,7.91667 0,15.83333 0,23.75c0,1.55304 0.76294,6.71636 -0.70751,7.71668c-0.77358,0.52625 -1.86166,0.18888 -2.79249,0.28332c-0.66083,0 -1.33656,0.01862 -2.02117,0.04503c0.02117,0.12253 0.02117,0.20497 0.02117,0.20497c0,4.34171 0.29987,8.79446 -0.00608,13.12317c-0.06441,0.91132 0.16469,2.17942 -0.25842,2.9166c0.16838,0.68583 0.33676,1.37166 0.50514,2.0575c0.02477,6.35551 1.01176,12.66665 -0.06455,18.83078c0.33688,0.23864 0.48451,0.60772 0.48451,0.60772c2.25671,5.64177 2.23172,12.86684 0.54753,18.78507c-0.22223,0.7809 -1.87336,7.21745 -4.21075,5.57366c-1.54751,-1.0883 -0.99737,-5.92433 -0.99737,-7.64449c0,-2.62638 0.5312,-5.3759 -0.45155,-7.63776c-1.96612,1.70869 -4.40331,2.43267 -6.62971,0.96802l-0.15469,0.15063c-1.07735,2.16411 -0.48028,4.04953 -0.2715,6.38282c0.15255,1.70488 0.18052,3.14963 0.0342,4.63629h0.22325v2l-0.51941,0c-0.0729,0.37389 -0.15676,0.75751 -0.25224,1.15485l-1.03804,-0.59516l-0.3242,0.3242l-1.20297,-1.20297c-3.03638,-2.28263 -7.08671,-6.68941 -7.89309,-10.45788c-0.98252,-4.59167 2.8054,-9.08782 6.50654,-11.23109c-1.59506,-4.06428 -2.96627,-8.20022 -4.43764,-12.27882c-0.49721,-1.37825 -1.32053,-2.72475 -1.5664,-4.22674c-0.6375,-3.89437 -0.63133,-8.63505 3.22794,-9.99141c0.01764,-4.59662 0.51024,-9.16033 1.26652,-13.70048c0,0 0.00735,-0.04412 0.02763,-0.11429c-1.43687,0.01935 -2.87684,0.06979 -4.29463,0.06979h-0.20682c-0.20541,0.17329 -0.50259,0.28998 -0.93122,0.24235c-1.24235,-0.13804 -1.10432,-1.38039 -1.10432,-1.38039c0.07872,-0.70292 0.14125,-1.40707 0.1913,-2.11209c-1.36264,-0.00145 -2.65627,-0.0185 -4.00355,-0.20614c0.02985,1.1179 0.07791,2.49107 -0.22478,2.95308c-0.94639,1.44448 -4.49518,0.92216 -5.81405,0.91911c-2.70509,-0.00626 -5.22602,0.94652 -7.82661,1.58416c-5.22282,0.00475 -10.22509,0.22898 -15.41713,0.7521c-0.06025,-0.00008 -0.12048,-0.00013 -0.1807,-0.00015c0.04704,0.32096 -0.03022,0.59138 -0.03022,0.59138c-0.70536,2.46487 -1.64064,4.79742 -2.54706,7.13495c-0.87882,2.26639 -0.48553,4.67816 -1.21612,6.9082c-0.94645,2.88892 -3.2497,5.01748 -4.57578,7.68251c-1.17138,2.35414 -2.03491,4.8129 -3.2081,7.15929c-0.26875,0.81084 -0.55586,1.61605 -0.86634,2.41191c1.03222,0.77356 1.87482,1.72503 2.84538,2.72585c0.98053,1.01111 2.46065,1.22548 3.48609,2.2363c2.3581,2.3245 5.01437,5.17061 6.71004,8.01823c1.07865,1.81143 0.99057,3.87904 2.06671,5.63182c0.63664,2.1841 1.0723,4.47672 1.72269,6.62392c1.70462,-1.02501 4.12444,-2.24238 5.51206,-1.81676c1.53445,0.47066 2.35026,2.85253 2.79349,4.01379c1.73144,4.53635 1.51493,9.46413 2.30803,14.22108c0.42536,2.55301 0.77762,5.11303 1.23182,7.66098c0.11058,0.62032 0.48885,1.2812 0.53786,1.89525c1.1842,-0.10509 2.33844,-0.14183 3.58415,0.1955c1.23083,0.3333 6.39065,2.48558 5.32351,4.66866c-0.81656,1.67047 -6.21108,0.7851 -7.66033,0.7851c-3.42572,0 -6.85197,0.24871 -10.25,0.25c-1.14787,0.00043 -3.34418,0.1211 -4.19432,-0.681c-0.50708,-0.47843 -0.20379,-1.37933 -0.30568,-2.069v-0.60143c-0.23313,-0.08899 -0.49045,-0.25606 -0.63495,-0.56971c-0.00859,-0.00504 -0.01601,-0.01022 -0.02221,-0.01554c-3.54627,-3.04668 -2.26661,-9.21315 -2.83969,-13.2247c-0.00489,-2.47201 0.26196,-5.10132 -0.09313,-7.56288c-0.22254,-0.01648 -0.46811,-0.10776 -0.7235,-0.32666c-0.94907,-0.81349 -0.13558,-1.76256 -0.13558,-1.76256c0.5771,-0.67275 1.14962,-1.36135 1.75532,-2.01707c-8.33455,-4.39783 -11.99707,-12.63233 -15.27169,-20.90639c-0.85997,1.86359 -2.76698,2.85866 -3.7024,4.6126zM230.39347,259.58408c0,0 -0.96126,0 -1.19786,-0.84296c-0.22425,-0.0729 -0.44912,-0.14429 -0.67485,-0.2139c-1.1803,-0.36398 -2.96437,-1.75185 -3.97456,-1.95251c-0.43728,-0.08686 -0.13206,0.88324 -0.15464,1.32849c-0.07072,1.39428 -0.24873,2.7848 -0.24809,4.18087c0.002,4.3628 -0.09339,9.29618 0.97875,13.52048c0.23232,1.85956 0.19909,3.68291 0.50331,5.51848c0.13098,0.7903 -0.40656,1.69693 -0.02828,2.40307c0.01522,0.02842 0.03191,0.05315 0.04996,0.07447c0.31093,-0.07544 0.62504,-0.13734 0.94321,-0.18251c0.3191,-0.19796 0.65601,-0.43918 0.93363,-0.52815c1.33177,-0.42678 2.27756,-0.82663 3.7167,-1.04647c0.56336,-0.08606 2.25998,0.22722 3.4045,0.12136l-0.00177,-0.13073c0,0 0,-1.25 1.25,-1.25c0.02591,0 0.05128,0.00054 0.07612,0.00159c0.12159,-1.45486 -0.76842,-3.4051 -0.96182,-4.4295c-0.63956,-3.3876 -0.6585,-7.24031 0.16189,-10.57662c0.27119,-1.63396 0.42901,-3.14209 0.46557,-4.75945c-0.3436,0.04766 -0.63705,-0.05016 -0.63705,-0.05016c-1.3497,-0.4501 -2.6517,-0.93501 -3.95276,-1.39636zM262.45249,258.71604c0,0 0.00787,0.00393 0.02196,0.0118c-0.64765,-2.17222 -1.10826,-4.42629 -1.72769,-6.64624c-1.00723,-1.71383 -0.90223,-3.66576 -1.93329,-5.36818c-1.62622,-2.6851 -4.1016,-5.24986 -6.28996,-7.48177c-0.99658,-1.01641 -2.47353,-1.24792 -3.51391,-2.2637c-0.83319,-0.81348 -1.51932,-1.70686 -2.3887,-2.39524c-0.03487,0.20888 -0.06382,0.41545 -0.08891,0.62022c3.52034,8.90095 6.6676,18.94859 15.92052,23.5231zM266.14347,286.30488v0.52919c-0.53318,0.75175 3.71512,0.0873 4.6469,0.00426c2.49017,-0.22192 5.10336,-0.00426 7.6031,-0.00426c0.21294,0 1.27277,-0.09371 2.3934,-0.09765c-0.86666,-0.33425 -1.67027,-0.63409 -1.9965,-0.65661c-1.60118,-0.11053 -3.24361,-0.11739 -4.90186,-0.078c-0.91797,0.16688 -1.98585,0.16821 -3.07405,0.1119c-1.56383,0.06991 -3.12781,0.1494 -4.67099,0.19116zM227.64347,285.83408c-1.55603,-0.03416 -3.12142,0.55349 -4.69245,1.24849c0.02728,0.00317 0.05467,0.00629 0.08217,0.00935c3.75847,0.41841 7.05534,-0.27083 10.79115,-0.50592c0.70277,-0.04422 1.41632,0.36393 2.10245,0.2056c0.76875,-0.1774 -0.79198,-1.3853 -0.99436,-2.14785c-0.02247,-0.08468 -0.04225,-0.16991 -0.0599,-0.25557c-1.74967,0.2247 -3.79845,0.00948 -5.12958,0.39607c-0.20136,0.05848 -0.5414,0.17463 -0.93527,0.30905c-0.28227,0.7408 -1.16421,0.7408 -1.16421,0.7408zM262.38651,262.98018c0.00696,0.06462 0.00696,0.1039 0.00696,0.1039l-0.02427,0.50485c0.54942,2.81065 0.2775,5.79529 0.27113,8.65653c0.45744,3.20211 -0.61928,8.55185 1.66031,11.2753c0.44954,0.53707 1.39245,-0.18669 2.09284,-0.18669c1.41667,0 2.83333,0 4.25,0c0.66667,0 1.33336,-0.00644 2,0c0.70191,0.00678 2.05458,0.69674 2.10581,-0.00333c0.05889,-0.80453 -0.69057,-1.47773 -0.83533,-2.27132c-0.39461,-2.16329 -0.64185,-4.35089 -1.00347,-6.51985c-0.6824,-4.09578 -0.74505,-8.18337 -1.73182,-12.16098c-0.20205,-0.81444 -0.776,-3.85983 -1.66666,-4.10414c-0.65495,-0.17966 -1.20649,0.624 -1.81307,0.92944c-2.22308,1.1194 -3.74888,2.18771 -5.31241,3.7763zM246.48862,229.10572c1.20245,-2.40491 2.082,-4.9318 3.2919,-7.34071c1.27229,-2.53313 3.49515,-4.59481 4.42422,-7.31749c0.51413,-1.50667 0.32965,-3.3374 0.72605,-4.91661c0.76208,-3.03604 2.09723,-5.88179 2.9793,-8.93067c-1.77325,0.02086 -3.53577,0.06423 -5.29447,0.12659c-0.86769,0.00629 -1.73534,0.01268 -2.60295,0.01909c-0.00845,0.02924 -0.01679,0.05854 -0.02504,0.08788c-0.86387,0.03955 -1.72764,0.08326 -2.59213,0.13073c0.0144,-0.06674 0.02918,-0.13332 0.04433,-0.19973c-2.46818,0.01799 -4.93629,0.03524 -7.4048,0.04939c1.67797,9.59286 4.87976,18.91412 6.09739,28.60398c0.02457,0.17409 0.04811,0.34846 0.0703,0.52307c0.09724,-0.27786 0.19239,-0.55644 0.28591,-0.8355zM188.83445,177.45211c-0.41687,-0.20844 -0.60059,-0.49459 -0.66707,-0.77153c-2.41263,2.58644 -3.98702,6.79161 -3.53328,9.75077c0.58219,3.79685 3.32886,6.30375 6.42759,8.22477c1.45702,0.18577 3.90644,0.68916 5.32156,0.03683c2.17151,-1.001 4.54762,-4.06263 5.60457,-7.04928c-0.15804,-2.11272 -0.30878,-4.22397 -0.33893,-6.34787c-1.09324,-2.52208 -2.96408,-4.85734 -5.44012,-5.79023c-0.47311,0.84353 -1.4606,0.51437 -1.4606,0.51437c-0.34382,-0.11484 -1.05291,-0.42461 -1.79376,-0.70851c-0.95424,0.37654 -1.74903,1.04295 -2.66783,1.59453l0.22491,-0.01285c0,0 -0.55902,1.11803 -1.67705,0.55902zM193.00137,172.71711c0.16718,-0.04667 0.3398,-0.08911 0.51893,-0.12695c3.70503,0.03282 6.53749,1.74007 8.4029,4.25694c0.14213,-1.67627 0.21155,-3.38016 -0.18458,-4.53467c-0.22563,-0.65759 -3.4671,-1.43931 -3.76232,-1.55002c-5.54237,-1.84746 -10.36366,-3.9234 -14.94822,-7.43153c-0.52236,3.70753 -2.65466,7.19381 -3.1467,10.92658c-0.77065,5.84644 0.41532,11.90317 -0.744,17.6998c0.00665,1.23148 -0.798,4.18949 -0.52724,5.08434c0.07725,0.2553 4.87943,-0.59765 5.59834,-0.69375c1.39008,-0.18581 2.78676,-0.35642 4.18754,-0.50812c-3.13963,-2.20125 -5.62078,-5.0678 -6.24319,-9.10291c-0.76431,-4.955 2.9776,-12.62063 7.96412,-14.37176c0.70757,-0.24848 1.80994,-0.00118 2.88441,0.35207zM310.1567,172.05368c0.13985,0.18121 0.23677,0.43235 0.23677,0.7804c0,1.25 -1.25,1.25 -1.25,1.25c-5.52781,-0.04957 -7.02376,6.6902 -8.2981,11.0934c-0.4818,1.66476 -0.94651,3.92808 -0.09468,5.57647c1.46387,2.83275 4.0778,2.89965 6.88307,3.60345c6.61699,0.95149 10.61433,-5.49146 11.78302,-11.26361c0.26133,-1.29069 0.72522,-4.13492 0.28032,-5.39748c-0.84395,-2.395 -4.63084,-3.17021 -6.41604,-4.52252c-0.919,-0.3581 -2.02715,-0.84863 -3.12436,-1.12011zM304.61639,172.55567c-0.63568,-0.8266 0.14319,-1.60547 0.14319,-1.60547l0.35301,-0.3422c2.93383,-2.18335 6.21585,-0.90908 9.39328,0.38638c1.89885,1.4111 4.43167,2.13809 6.13759,3.78446c0,-2.48158 0,-4.96317 0,-7.44475c0,-2.2519 -0.18535,-4.12539 -0.48926,-6.33647c-0.0147,-0.10697 -0.1376,-1.50102 -0.19331,-2.69636c-0.16426,0.3232 -0.3451,0.63537 -0.47114,0.88336c-0.7049,1.38701 -2.1303,2.80751 -3.26264,3.83088c-4.61142,4.16763 -10.31636,6.69659 -16.27036,8.43447c-0.72919,0.56548 -2.2963,1.12917 -2.63376,2.04787c-0.26286,0.71562 0.18643,1.53563 0.05432,2.28647c-1.12873,6.4153 -0.56814,13.01643 -1.08687,19.54852c1.84952,-0.01132 3.73524,-0.09523 5.5986,-0.0739c-1.35999,-0.6601 -2.5223,-1.64828 -3.35281,-3.34472c-2.40177,-4.90593 1.01488,-12.7262 3.83746,-16.80304c0.41381,-0.59769 1.5058,-1.9082 2.24268,-2.55551zM311.75959,242.2002c0.5972,-0.5972 1.19441,-0.38739 1.51898,-0.18847c0.2883,-0.48106 0.52939,-0.96326 0.71005,-1.406c3.03206,-7.43018 1.37952,-15.10035 1.41421,-22.86892c-0.13966,-0.54721 -0.27932,-1.09443 -0.41898,-1.64164c-0.81843,-0.2247 -1.45868,-0.8455 -2.39429,-1.04859c-3.9999,-0.86827 -8.23931,-1.19147 -12.35857,-1.2146c-0.02847,0.00139 -0.05765,0.00211 -0.08753,0.00211c-0.03551,0 -0.07001,-0.00101 -0.10353,-0.00297c-0.01929,-0.00007 -0.03858,-0.00012 -0.05786,-0.00018c-2.75289,0.14245 -2.21665,5.1804 -1.86117,7.26676c0.22978,1.34858 0.99475,2.53313 1.4336,3.77326c2.26225,6.39282 4.34103,12.89308 7.40227,19.05596c1.55218,2.10363 3.36569,1.47142 4.80907,0.04732l-0.00627,-0.00627c0,0 -0.88388,-0.88388 0,-1.76777zM316.14347,253.58408c0,0.46622 0.06913,1.12409 0.11379,1.83033c0.29073,-1.13571 0.44616,-2.19524 0.65235,-3.53055c0.61402,-3.9765 0.83419,-7.81606 -0.12203,-11.60507c-0.14926,0.42873 -0.31199,0.85663 -0.48926,1.28365c-0.34686,0.83555 -0.79829,1.65073 -1.32845,2.3999c1.71591,2.82969 1.1736,6.12031 1.1736,9.62175zM297.62341,248.86105c0.61125,2.84647 3.64909,6.18901 6.13375,8.26949c-0.19013,-1.05999 0.00121,-2.21606 -0.10624,-3.41017c-0.28037,-3.11578 -0.73953,-5.18909 0.7285,-8.11718l0.41824,-0.42669c-0.78553,-1.56689 -1.50521,-3.15722 -2.1795,-4.76285c-2.75915,1.68383 -5.72576,5.04323 -4.99475,8.44739zM309.5937,212.35022c2.00007,0.37006 3.65715,0.0237 5.31499,1.14396c-0.00454,-0.01136 -0.00766,-0.02248 -0.00914,-0.03327c-0.15335,-1.11807 0.2454,-2.24829 0.24392,-3.37683c-0.00471,-3.58332 0,-7.16668 0,-10.75c0,0 0,-0.036 0.00611,-0.09578c-2.099,0.08918 -4.21357,0.13219 -6.17949,-0.1663c-1.74887,-0.26553 -3.38841,-1.12748 -5.17972,-1.24218c-0.39249,-0.02513 -0.78686,-0.04258 -1.18257,-0.0541c0.05755,0.28055 0.01866,0.51386 0.01866,0.51386c-0.72259,4.33309 -1.1992,8.68808 -1.23127,13.07359c2.79716,0.09813 5.38475,0.46643 8.1985,0.98705zM319.64347,196.58408c0.4025,0.09444 0.79714,0.33356 1.20751,0.28332c0.1501,-0.01838 -0.18115,-0.25664 -0.20143,-0.40649c-0.11743,-0.8677 -0.00608,-1.75122 -0.00608,-2.62683c0,-1.41667 0,-2.83333 0,-4.25c0,-0.64519 0,-1.29037 0,-1.93556c-1.84872,4.48688 -5.22275,8.27256 -9.85572,9.11084c2.88885,0.20448 6.03348,-0.17527 8.85572,-0.17527zM294.39347,176.58408l-1.12683,-0.00608c-0.37601,0.07727 -0.75202,0.15454 -1.12803,0.23181c0,0 -0.05279,0.01056 -0.13866,0.01634c-0.14519,0.66049 -0.27501,1.32491 -0.37009,1.99745c-0.91944,4.12948 -1.25498,8.74996 -1.6633,13.04693c1.35433,0.21764 2.63993,0.21422 4.00705,0.21361c0.18983,-5.20511 -0.05953,-10.43447 0.737,-15.54463c-0.18171,0.04458 -0.31715,0.04458 -0.31715,0.04458zM186.91064,238.31063c-2.30812,3.2311 -2.86586,5.81759 -2.52325,9.90028c0.12007,1.43081 0.83241,2.80376 1.49262,4.06324c0.00567,-0.16629 0.01358,-0.31771 0.01346,-0.44006c-0.0022,-2.2067 0.00281,-4.33078 0.28097,-6.52651c0.55294,-1.67621 0.73647,-3.86832 1.65572,-5.38065c0.24094,-0.39639 0.50599,-0.74692 0.78969,-1.05271c-0.58281,-0.1208 -1.14951,-0.31972 -1.6939,-0.58649c-0.00964,0.01498 -0.01531,0.02291 -0.01531,0.02291zM196.79542,240.59878c1.69318,3.80101 1.5065,9.31051 0.80985,13.62794c0.48954,-0.24517 1.03502,-0.41746 1.51286,-1.10759c0.66776,-0.96445 0.71879,-3.6028 0.77726,-4.60417c0.30072,-5.14998 -1.0959,-9.16302 -4.09796,-13.22442c-0.46142,0.74993 -0.97163,1.48126 -1.53398,2.19113c-0.08645,0.06317 -0.17295,0.12422 -0.2595,0.1832c1.14644,0.51446 2.15667,1.50885 2.79147,2.93392zM196.18728,212.41274c-1.24067,-0.05701 -2.61218,-0.76295 -3.66698,-0.83474c-2.30115,-0.15662 -4.53096,-0.31964 -6.43735,0.68629c-0.09474,0.31575 -0.33239,0.64399 -0.8863,0.78247c-0.10829,0.02707 -0.20933,0.04206 -0.30354,0.0469c-0.0793,0.07083 -0.15784,0.14456 -0.23557,0.22131c-2.02171,4.14887 -1.63569,8.4324 -1.26831,12.91601c0.17813,2.17394 0.09968,3.99032 1.12715,6.05391c1.44793,2.90804 4.72637,5.99678 8.00714,3.40161c5.05845,-6.22377 5.13364,-14.91955 3.88698,-22.39692zM192.76664,209.09016c1.19,0.08843 3.18178,2.04316 3.46876,0.8849c0.90557,-3.65485 0.67305,-8.45151 0.65873,-12.29739c-3.86783,0.15997 -7.75334,0.52381 -11.57074,1.0822c0.68089,0.38735 0.55752,1.25099 0.55752,1.25099c-0.44091,3.04564 -0.55257,6.59455 -0.13841,9.72781c2.1018,-0.85323 4.40974,-0.84277 7.02414,-0.6485zM201.39347,195.08408h0.75c0,0 0.10207,0 0.24788,0.02917c-0.00673,-0.75358 -0.02911,-1.50491 -0.06216,-2.25462c-0.54515,0.81546 -1.19334,1.56692 -1.94719,2.23065c0.33735,-0.00345 0.67451,-0.0052 1.01147,-0.0052zM204.14347,179.33408c0,0.88163 0.01967,1.76057 0.05263,2.63779c0.3362,1.54309 0.43025,3.15702 0.27125,4.74217c0.11171,1.62139 0.22959,3.24272 0.31298,4.87004c0.32093,0 0.6306,0 0.84947,0c0.0924,-1.39159 0.27987,-2.72487 0.3215,-3.64073c0.20762,-4.56771 0.61746,-9.10243 1.06387,-13.64311c-0.58411,0.12449 -1.16174,0.27931 -1.7264,0.46969l-0.84678,0.03893c-0.06431,1.67453 -0.29851,3.44808 -0.29851,4.52522zM217.27767,169.64759c-1.32246,0.06516 -7.18436,0.29959 -7.47537,1.49444c-0.45347,5.65087 -1.0959,11.2456 -1.35359,16.91462c-0.06555,1.44224 -1.03166,6.09704 0.13029,7.36614c0.79355,0.86674 2.51735,0.61711 3.39576,0.73949c4.1015,0.57138 8.04471,1.80089 12.17564,2.17914c14.73683,0.04715 29.43593,-0.20967 44.17194,-0.189c0.08159,-0.01031 0.16336,-0.01993 0.2453,-0.02893c-5.90127,-0.49046 -11.08764,-6.94892 -12.94596,-11.90632c-1.34741,-4.19118 -0.66106,-10.3265 2.50955,-13.51589c1.32065,-1.32847 3.03694,-2.30353 4.94206,-2.95078c-4.71108,0.21 -9.57859,-0.29616 -14.07134,-0.80203c0.26864,0.09016 0.53329,0.17906 0.79334,0.26568c0,0 1.18586,0.39529 0.79057,1.58114c-0.00344,0.01034 -0.00696,0.02057 -0.01052,0.03066c3.60333,2.90419 5.15601,7.44876 3.60701,12.37972c-0.61319,1.95198 -2.13877,3.73737 -3.14852,5.49697c-5.05247,6.2937 -12.9446,6.56947 -20.04594,4.07747c-2.85359,-1.00138 -6.24594,-2.34465 -8.02923,-4.88868c-1.88522,-2.68944 -1.21907,-6.10839 -0.73879,-9.10345c2.07228,-3.66826 5.76364,-7.39651 9.9108,-9.68178c-4.95452,0.27292 -9.97199,0.30087 -14.85298,0.54138zM286.02048,164.42914c0.34699,-2.33035 0.72952,-4.41902 0.72952,-6.82914c0,-7.57665 1.45771,-14.33035 3.03097,-21.67651c0.86727,-4.04963 2.32615,-7.41261 2.03627,-11.53788c-0.30269,0.66683 -0.7248,1.33581 -0.84883,1.65861c-1.39496,3.63038 -1.54238,9.01543 -3.97366,12.11273c-1.40828,1.79407 -4.4279,2.28866 -5.72138,-0.01547c-0.03329,-0.05929 -0.06412,-0.12141 -0.0926,-0.18612c-0.29653,0.59599 -0.64698,1.03762 -1.0687,1.18494c-3.96387,1.38465 -3.16204,-4.36547 -3.16016,-6.20943c0.3805,-3.45652 0.59583,-6.85314 0.59809,-10.33087c0.00071,-1.10168 -0.00846,-2.21029 -0.16371,-3.30097c-0.0504,-0.35412 -0.24751,-1.17742 -0.51586,-0.94093c-1.63596,1.44173 -1.34358,4.73133 -1.87407,6.60413c-0.79929,2.82178 -1.62144,5.74385 -2.48562,8.61113c-0.68081,0.55656 -1.1664,1.746 -2.04243,1.66968c-0.85488,-0.07447 -1.19638,-1.25132 -1.63328,-1.98989c-0.99904,-1.68885 -0.97126,-4.03386 -1.91299,-5.82031c-0.45999,-0.87258 -0.57544,-1.45084 -1.62652,-1.21828c-1.25292,0.27721 -0.95529,2.77782 -0.8576,3.61206c0.1429,1.22031 1.06385,1.88694 1.75908,2.81939c1.18172,1.58494 1.86097,3.12098 2.40491,5.01059c0,0 0.17144,0.60002 -0.1519,1.07329c0,9.01724 0,18.71214 0,27.67011c0,0 0,0.08511 -0.02221,0.21091c0.57844,-0.1249 1.14941,-0.26874 1.71151,-0.43342c2.0704,-0.27428 3.98353,-1.15749 6.10797,-1.41812c3.16378,-0.38814 6.33222,0.38159 9.47925,0.39056c0.02485,-0.31825 0.18683,-0.57985 0.29396,-0.72079zM248.32317,166.35609c5.15318,0.56283 10.96507,1.29434 16.407,0.8056c-0.13031,-6.49636 -1.10515,-13.03391 -8.29891,-15.24988c-1.6055,3.85706 -5.88387,6.71606 -10.23126,6.73819c-5.00915,-0.00834 -11.73541,-3.15383 -13.39636,-8.28777c-0.23123,-0.71473 -0.31526,-1.4212 -0.27579,-2.11223c-8.37231,0.00073 -18.5628,0.07021 -25.26613,5.43073c1.71228,0.01258 2.45882,1.33001 2.14418,3.24836c-0.28857,1.75941 -3.73193,3.29451 -5.38065,2.84252c0.45703,1.67024 2.28974,2.64338 4.87607,3.21524c3.13073,0.69223 6.08579,0.16354 9.22101,-0.03445c4.47486,-0.28259 8.98468,-0.23808 13.47744,-0.18627c5.60315,-1.92657 12.12401,-1.03065 17.80495,-2.952l1.38978,-0.24713c0,0 1.23299,-0.2055 1.43849,1.02749c0.2055,1.23299 -1.02749,1.43849 -1.02749,1.43849l-1.01021,0.15286c-3.68393,1.21299 -7.6617,1.36268 -11.54761,1.77866c-0.00998,0.78243 -0.05162,1.52069 -0.11495,2.24552c3.2452,0.39515 6.54894,-0.20799 9.79044,0.14605zM245.55171,170.44609c-2.26683,-0.69295 -4.67066,-1.23708 -6.83946,-1.00114c-0.19349,0.02105 -0.38788,0.04781 -0.58297,0.08006c-0.01055,0.07498 -0.02117,0.15029 -0.03184,0.22597c-1.01259,0.0194 -1.95499,0.32549 -2.7494,0.84046c-0.00925,-0.09476 -0.00678,-0.18638 0.00242,-0.27111c-4.37745,1.74754 -8.66016,5.66737 -10.77031,9.29168c-0.32256,2.21724 -0.9007,4.89251 0.46121,6.89655c1.37848,2.02841 4.52924,3.12891 6.77076,3.91133c5.92459,2.06802 12.85689,2.27552 17.15406,-3.12253c0.88826,-1.56152 2.315,-3.17453 2.85148,-4.90303c1.47726,-4.75965 -0.62859,-8.80226 -4.77667,-10.87629l-0.54416,-0.10536c0,0 -0.83055,-0.20764 -0.94512,-0.96659zM275.34842,172.3221c-4.9725,-1.94795 -13.50849,-1.42029 -16.49162,3.34551c-1.10955,1.77259 -1.20898,4.1093 -1.20679,6.1324c0.00141,1.30708 -0.10415,2.3486 0.32834,3.58283c1.63102,4.34771 4.37725,8.03208 8.98085,9.41988c1.63909,0.49412 3.62625,1.0006 5.2736,0.08339c4.56274,-2.54045 7.17233,-6.00677 9.19882,-10.73033c0.60525,-1.7755 1.63817,-6.9323 0.33596,-8.65111c-0.96981,-1.28007 -3.31379,-2.0401 -4.76285,-2.51882l-0.84986,-0.16013c0,0 -0.5102,-0.10204 -0.80644,-0.50362zM244.94326,140.61607c-0.287,0.18663 -0.58822,0.22428 -0.58822,0.22428c-3.1707,0.39157 -10.66182,4.49032 -9.15868,8.79742c1.41215,4.04637 7.03355,6.51953 11.00364,6.51223c5.07746,0.03027 10.9268,-5.43922 7.34903,-10.87327c-1.5352,-2.33173 -5.47189,-4.33897 -8.60577,-4.66066zM273.62272,197.76264c2.69903,-0.41249 5.3216,-1.69752 8.02455,-2.00327c0.10778,-0.01219 4.2744,-0.00974 4.35273,-0.00937c0.53013,0.00251 1.50449,0.64296 1.58594,0.11911c0.15315,-0.98493 -0.32879,-1.98942 -0.23089,-2.98137c0.46386,-4.69989 0.8046,-9.91846 1.81511,-14.51134c0.39272,-2.72221 1.39825,-5.27855 1.58225,-8.05408c0.05073,-0.76531 0.48067,-1.59526 0.16645,-2.29492c-0.37541,-0.83591 -4.44131,-0.3768 -5.11886,-0.37741c-3.05807,-0.00276 -6.17975,-0.80097 -9.24727,-0.40937c-2.06153,0.26317 -3.87187,1.07542 -5.89204,1.38188c-0.19452,0.05433 -0.38992,0.10646 -0.58617,0.15645c2.65511,0.09292 5.2296,0.67869 7.28449,1.703c0,0 0.04222,0.02111 0.10615,0.06333l0.33012,0.06885c1.97388,0.66306 4.77006,1.70276 6.03716,3.48118c1.83657,2.57771 0.82712,8.2305 -0.06404,10.9489c-2.2339,5.21728 -5.26328,9.37089 -10.40118,12.06967c-0.78557,0.41263 -1.57076,0.69327 -2.35002,0.85791c0.88047,-0.03669 1.75705,-0.0795 2.60552,-0.20917zM238.39977,133.16028c-1.79898,-1.51716 -3.97619,-2.84051 -6.42639,-2.52236c-2.11005,0.27399 -3.82831,1.81749 -2.34094,3.85741c0.74373,1.02001 2.49445,1.59383 3.48051,2.27793c1.67865,1.16459 3.2604,2.65028 4.72281,4.0973c1.18192,-0.77667 2.43929,-1.40635 3.63538,-1.84765c0.20922,-0.36062 0.56985,-0.54093 0.56985,-0.54093l0.75729,-0.30921c-1.27949,-1.83629 -2.67493,-3.57865 -4.3985,-5.01247zM285.58706,130.48508c-1.6,-1.99285 -2.63466,-3.10492 -5.29466,-1.93615c0,0 -0.16894,0.0724 -0.40502,0.0969c-0.12017,1.48191 -0.27494,2.95877 -0.43929,4.42329c0.00053,0.47729 0.00165,0.95458 0.00189,1.43187c0.30325,-1.0086 0.67274,-2.01867 0.99517,-2.97935l0.0671,-0.06552l-0.03028,-0.01514l0.58789,-1.17578c0.20043,-0.42281 0.63114,-0.7152 1.13014,-0.7152c0.66183,0 1.20353,0.51435 1.24716,1.16512l0.1909,2.48165l-0.14554,0.0112c0.09677,0.5253 0.1558,1.05474 0.15748,1.58861c0.00252,0.80071 -0.711,2.40862 0.08967,2.40046c1.69657,-0.01729 1.86753,-2.17129 2.27448,-3.39232c0.25653,-0.7697 0.48249,-1.55881 0.69705,-2.35689c-0.79288,-0.03944 -1.04437,-0.6068 -1.12414,-0.96275z" fill="#000000"/><path d="M228.77174,285.05851c0.39388,-0.13442 0.77938,-0.26489 0.98074,-0.32337c1.33113,-0.38658 3.4187,-0.13514 5.16837,-0.35984c0.01765,0.08567 0.03798,0.17321 0.06045,0.25789c0.20238,0.76256 1.76365,1.98863 0.9949,2.16603c-0.68613,0.15833 -1.3999,-0.24849 -2.10267,-0.20427c-3.73581,0.23509 -7.13092,0.92505 -10.88939,0.50664c-0.0275,-0.00306 -0.05493,-0.00636 -0.08221,-0.00953c1.57103,-0.695 3.13551,-1.29141 4.69154,-1.25725c0,0 0.89599,-0.0355 1.17827,-0.7763z" data-paper-data="{&quot;noHover&quot;:false,&quot;origItem&quot;:[&quot;Path&quot;,{&quot;applyMatrix&quot;:true,&quot;segments&quot;:[[[227.64347,285.83408],[0,0],[-1.55603,-0.03416]],[[222.95102,287.08257],[1.57103,-0.695],[0.02728,0.00317]],[[223.03319,287.09191],[-0.0275,-0.00306],[3.75847,0.41841]],[[233.82434,286.58599],[-3.73581,0.23509],[0.70277,-0.04422]],[[235.92679,286.79159],[-0.68613,0.15833],[0.76875,-0.1774]],[[234.93243,284.64374],[0.20238,0.76256],[-0.02247,-0.08468]],[[234.87254,284.38816],[0.01765,0.08567],[-1.74967,0.2247]],[[229.74295,284.78423],[1.33113,-0.38658],[-0.20136,0.05848]],[[228.80768,285.09328],[0.39388,-0.13442],[-0.28227,0.7408]]],&quot;closed&quot;:true}]}" fill="#c3c3c3"/><path d="M270.76524,286.10491c1.0882,0.05631 2.23572,0.0241 3.15368,-0.14278c1.65825,-0.03939 3.32004,0.00246 4.92122,0.11299c0.32623,0.02252 1.13004,0.32809 1.99671,0.66234c-1.12062,0.00394 -2.1805,0.09913 -2.39345,0.09913c-2.49974,0 -5.21264,-0.21541 -7.70281,0.00651c-0.93178,0.08304 -5.18027,0.74444 -4.6471,-0.00732l0.00001,-0.53282c1.54318,-0.04177 3.10791,-0.12816 4.67173,-0.19806z" data-paper-data="{&quot;noHover&quot;:false,&quot;origItem&quot;:[&quot;Path&quot;,{&quot;applyMatrix&quot;:true,&quot;segments&quot;:[[[266.14347,286.30488],[1.54318,-0.04177],[0,0]],[[266.14347,286.83408],[0,0],[-0.53318,0.75175]],[[270.79037,286.83834],[-0.93178,0.08304],[2.49017,-0.22192]],[[278.39347,286.83408],[-2.49974,0],[0.21294,0]],[[280.78687,286.73643],[-1.12062,0.00394],[-0.86666,-0.33425]],[[278.79037,286.07982],[0.32623,0.02252],[-1.60118,-0.11053]],[[273.88851,286.00182],[1.65825,-0.03939],[-0.91797,0.16688]],[[270.81446,286.11372],[1.0882,0.05631],[-1.56383,0.06991]]],&quot;closed&quot;:true}]}" fill="#c3c3c3"/><path d="M246.50341,235.1519c0.0251,-0.20476 0.05527,-0.41216 0.09014,-0.62104c0.86938,0.68837 1.55817,1.58014 2.39136,2.39362c1.04038,1.01578 2.52912,1.24247 3.5257,2.25888c2.18837,2.23192 4.72663,4.84571 6.35285,7.53081c1.03106,1.70241 0.91379,3.68643 1.92102,5.40026c0.61943,2.21995 1.06986,4.48294 1.71751,6.65516c-0.01409,-0.00787 -0.02199,-0.01178 -0.02199,-0.01178c-9.25292,-4.57452 -12.45624,-14.70495 -15.97658,-23.6059z" data-paper-data="{&quot;noHover&quot;:false,&quot;origItem&quot;:[&quot;Path&quot;,{&quot;applyMatrix&quot;:true,&quot;segments&quot;:[[[262.45249,258.71604],[-9.25292,-4.57452],[0,0]],[[262.47444,258.72785],[-0.01409,-0.00787],[-0.64765,-2.17222]],[[260.74675,252.08161],[0.61943,2.21995],[-1.00723,-1.71383]],[[258.81346,246.71343],[1.03106,1.70241],[-1.62622,-2.6851]],[[252.5235,239.23166],[2.18837,2.23192],[-0.99658,-1.01641]],[[249.00959,236.96796],[1.04038,1.01578],[-0.83319,-0.81348]],[[246.62088,234.57273],[0.86938,0.68837],[-0.03487,0.20888]],[[246.53197,235.19294],[0.0251,-0.20476],[3.52034,8.90095]]],&quot;closed&quot;:true}]}" fill="#c3c3c3"/><path d="M232.93905,254.37836c0.91165,-3.72282 1.51591,-7.65533 1.94349,-11.43282c0.12493,-1.10366 -0.34074,-5.03591 0.35408,-6.00286c0.40761,-0.56726 1.3917,-0.25319 2.05397,-0.47528c2.15198,-0.72166 4.4413,-1.10931 6.67008,-1.59686l0.04812,0.63502c0.00653,0.01633 0.01323,0.03276 0.01976,0.0491c-0.07871,1.02281 -0.13915,2.05501 -0.50795,3.01263c-0.72495,1.88236 -2.71922,2.88319 -3.67507,4.60468c-1.02707,1.84976 -1.70247,4.09871 -2.59837,5.93234c-0.95499,1.95458 -2.64285,3.67704 -4.3081,5.27406z" data-paper-data="{&quot;noHover&quot;:false,&quot;origItem&quot;:[&quot;Path&quot;,{&quot;applyMatrix&quot;:true,&quot;segments&quot;:[[[237.26045,249.0561],[-0.95499,1.95458],[0.8959,-1.83364]],[[239.81131,243.20843],[-1.02707,1.84976],[0.95586,-1.7215]],[[243.48862,238.60572],[-0.72495,1.88236],[0.3688,-0.95762]],[[244.00246,235.59731],[-0.07871,1.02281],[-0.00653,-0.01633]],[[243.98287,235.54832],[0.00653,0.01633],[0,0]],[[243.93618,234.91413],[0,0],[-2.22877,0.48755]],[[237.29782,236.51687],[2.15198,-0.72166],[-0.66227,0.22209]],[[235.25608,236.98874],[0.40761,-0.56726],[-0.69482,0.96695]],[[234.92785,242.96668],[0.12493,-1.10366],[-0.42758,3.77748]],[[232.96376,254.33489],[0.91165,-3.72282],[1.66524,-1.59702]]],&quot;closed&quot;:true}]}" fill="#c3c3c3"/><path d="M185.70826,209.77509c-0.41416,-3.13326 -0.30803,-6.74891 0.13288,-9.79455c0,0 0.12606,-0.86687 -0.55483,-1.25422c3.81741,-0.55839 7.77367,-0.92565 11.64149,-1.08562c0.01432,3.84588 0.24569,8.71748 -0.65988,12.37234c-0.28699,1.15826 -2.29592,-0.78687 -3.48593,-0.87529c-2.61441,-0.19427 -4.97194,-0.21588 -7.07374,0.63735z" data-paper-data="{&quot;noHover&quot;:false,&quot;origItem&quot;:[&quot;Path&quot;,{&quot;applyMatrix&quot;:true,&quot;segments&quot;:[[[192.76664,209.09016],[-2.61441,-0.19427],[1.19,0.08843]],[[196.2354,209.97506],[-0.28699,1.15826],[0.90557,-3.65485]],[[196.89413,197.67767],[0.01432,3.84588],[-3.86783,0.15997]],[[185.32339,198.75987],[3.81741,-0.55839],[0.68089,0.38735]],[[185.88091,200.01086],[0,0],[-0.44091,3.04564]],[[185.7425,209.73866],[-0.41416,-3.13326],[2.1018,-0.85323]]],&quot;closed&quot;:true}]}" fill="#c3c3c3"/><path d="M246.19343,229.99036c-0.02219,-0.1746 -0.04629,-0.34908 -0.07086,-0.52318c-1.21763,-9.68986 -4.43587,-19.10267 -6.11384,-28.69553c2.46851,-0.01414 4.95766,-0.03859 7.42584,-0.05658c-0.01515,0.06641 -0.03015,0.13302 -0.04456,0.19976c0.86449,-0.04747 1.73725,-0.09136 2.60112,-0.13091c0.00825,-0.02935 0.01666,-0.05864 0.02511,-0.08788c0.86762,-0.00641 1.74384,-0.01143 2.61153,-0.01772c1.7587,-0.06236 3.53509,-0.09993 5.30833,-0.12078c-0.88206,3.04887 -2.20722,5.90264 -2.9693,8.93868c-0.3964,1.57922 -0.19854,3.43686 -0.71267,4.94353c-0.92907,2.72268 -3.19516,4.84175 -4.46744,7.37488c-1.2099,2.40891 -2.10445,4.9354 -3.30691,7.34031c-0.09352,0.27907 -0.18911,0.55756 -0.28635,0.83542z" data-paper-data="{&quot;noHover&quot;:false,&quot;origItem&quot;:[&quot;Path&quot;,{&quot;applyMatrix&quot;:true,&quot;segments&quot;:[[[246.48862,229.10572],[-0.09352,0.27907],[1.20245,-2.40491]],[[249.78052,221.76501],[-1.2099,2.40891],[1.27229,-2.53313]],[[254.20474,214.44752],[-0.92907,2.72268],[0.51413,-1.50667]],[[254.93079,209.53091],[-0.3964,1.57922],[0.76208,-3.03604]],[[257.91009,200.60024],[-0.88206,3.04887],[-1.77325,0.02086]],[[252.61562,200.72683],[1.7587,-0.06236],[-0.86769,0.00629]],[[250.01266,200.74592],[0.86762,-0.00641],[-0.00845,0.02924]],[[249.98762,200.8338],[0.00825,-0.02935],[-0.86387,0.03955]],[[247.39549,200.96453],[0.86449,-0.04747],[0.0144,-0.06674]],[[247.43982,200.7648],[-0.01515,0.06641],[-2.46818,0.01799]],[[240.03502,200.81418],[2.46851,-0.01414],[1.67797,9.59286]],[[246.13241,229.41816],[-1.21763,-9.68986],[0.02457,0.17409]],[[246.20271,229.94123],[-0.02219,-0.1746],[0.09724,-0.27786]]],&quot;closed&quot;:true}]}" fill="#c3c3c3"/><path d="M301.35678,211.39517c0.03207,-4.38551 0.51663,-8.81215 1.23921,-13.14523c0,0 0.04012,-0.23423 -0.01743,-0.51478c0.39571,0.01152 0.79442,0.02618 1.18691,0.05131c1.79132,0.1147 3.46104,0.97028 5.20991,1.23582c1.96592,0.29849 4.11181,0.27114 6.21081,0.18197c-0.00611,0.05978 -0.00587,0.09604 -0.00587,0.09604c0,3.58332 0.00041,7.22765 0.00512,10.81097c0.00148,1.12854 -0.40693,2.26973 -0.25357,3.38781c0.00148,0.01079 0.00454,0.02196 0.00908,0.03332c-1.65784,-1.12026 -3.33753,-0.76304 -5.3376,-1.1331c-2.81375,-0.52062 -5.44941,-0.90598 -8.24657,-1.00411z" data-paper-data="{&quot;noHover&quot;:false,&quot;origItem&quot;:[&quot;Path&quot;,{&quot;applyMatrix&quot;:true,&quot;segments&quot;:[[[309.5937,212.35022],[-2.81375,-0.52062],[2.00007,0.37006]],[[314.90869,213.49418],[-1.65784,-1.12026],[-0.00454,-0.01136]],[[314.89955,213.46091],[0.00148,0.01079],[-0.15335,-1.11807]],[[315.14347,210.08408],[0.00148,1.12854],[-0.00471,-3.58332]],[[315.14347,199.33408],[0,3.58332],[0,0]],[[315.14958,199.2383],[-0.00611,0.05978],[-2.099,0.08918]],[[308.97009,199.072],[1.96592,0.29849],[-1.74887,-0.26553]],[[303.79037,197.82982],[1.79132,0.1147],[-0.39249,-0.02513]],[[302.6078,197.77572],[0.39571,0.01152],[0.05755,0.28055]],[[302.62646,198.28958],[0,0],[-0.72259,4.33309]],[[301.3952,211.36317],[0.03207,-4.38551],[2.79716,0.09813]]],&quot;closed&quot;:true}]}" fill="#c3c3c3"/><path d="M190.49567,176.84567l-0.22608,0.01326c0.9188,-0.55158 1.72898,-1.22094 2.68322,-1.59748c0.74085,0.2839 1.45952,0.59429 1.80334,0.70913c0,0 0.99406,0.33068 1.46717,-0.51285c2.47604,0.93289 4.37772,3.29502 5.47097,5.8171c0.03015,2.12391 0.18358,4.2698 0.34162,6.38252c-1.05695,2.98666 -3.46564,6.08213 -5.63714,7.08313c-1.41513,0.65234 -3.89141,0.15011 -5.34842,-0.03566c-3.09873,-1.92102 -5.88353,-4.46936 -6.46572,-8.26621c-0.45374,-2.95916 1.14434,-7.21442 3.55697,-9.80086c0.06648,0.27694 0.25104,0.5626 0.66791,0.77103c1.11803,0.55902 1.68616,-0.56311 1.68616,-0.56311z" data-paper-data="{&quot;noHover&quot;:false,&quot;origItem&quot;:[&quot;Path&quot;,{&quot;applyMatrix&quot;:true,&quot;segments&quot;:[[[188.83445,177.45211],[1.11803,0.55902],[-0.41687,-0.20844]],[[188.16738,176.68058],[0.06648,0.27694],[-2.41263,2.58644]],[[184.6341,186.43135],[-0.45374,-2.95916],[0.58219,3.79685]],[[191.06169,194.65612],[-3.09873,-1.92102],[1.45702,0.18577]],[[196.38326,194.69295],[-1.41513,0.65234],[2.17151,-1.001]],[[201.98783,187.64366],[-1.05695,2.98666],[-0.15804,-2.11272]],[[201.6489,181.29579],[0.03015,2.12391],[-1.09324,-2.52208]],[[196.20878,175.50556],[2.47604,0.93289],[-0.47311,0.84353]],[[194.74819,176.01993],[0,0],[-0.34382,-0.11484]],[[192.95442,175.31142],[0.74085,0.2839],[-0.95424,0.37654]],[[190.28659,176.90594],[0.9188,-0.55158],[0,0]],[190.5115,176.8931]],&quot;closed&quot;:true}]}" fill="#c3c3c3"/><path d="M313.2962,173.12613c1.78521,1.35231 5.60025,2.15016 6.4442,4.54517c0.4449,1.26255 -0.0123,4.13095 -0.27362,5.42164c-1.16869,5.77214 -5.22678,12.26478 -11.84377,11.31329c-2.80527,-0.7038 -5.44741,-0.7882 -6.91128,-3.62094c-0.85183,-1.64838 -0.3971,-3.93284 0.0847,-5.59759c1.27434,-4.40321 2.81415,-11.20292 8.34196,-11.15335c0,0 1.25658,-0.00024 1.25658,-1.25024c0,-0.34805 -0.09807,-0.59921 -0.23793,-0.78042c1.09722,0.27148 2.22015,0.76436 3.13915,1.12245z" data-paper-data="{&quot;noHover&quot;:false,&quot;origItem&quot;:[&quot;Path&quot;,{&quot;applyMatrix&quot;:true,&quot;segments&quot;:[[[310.1567,172.05368],[1.09722,0.27148],[0.13985,0.18121]],[[310.39347,172.83408],[0,-0.34805],[0,1.25]],[[309.14347,174.08408],[0,0],[-5.52781,-0.04957]],[[300.84537,185.17748],[1.27434,-4.40321],[-0.4818,1.66476]],[[300.75069,190.75395],[-0.85183,-1.64838],[1.46387,2.83275]],[[307.63376,194.35739],[-2.80527,-0.7038],[6.61699,0.95149]],[[319.41678,183.09379],[-1.16869,5.77214],[0.26133,-1.29069]],[[319.6971,177.69631],[0.4449,1.26255],[-0.84395,-2.395]],[[313.28106,173.17378],[1.78521,1.35231],[-0.919,-0.3581]]],&quot;closed&quot;:true}]}" fill="#c3c3c3"/><path d="M231.05,259.32378c1.30106,0.46135 2.6219,0.95187 3.9716,1.40197c0,0 0.29581,0.09915 0.63941,0.05149c-0.03656,1.61736 -0.18266,3.13527 -0.45385,4.76922c-0.82038,3.33631 -0.80736,7.26086 -0.1678,10.64846c0.1934,1.0244 1.07635,2.97945 0.95476,4.43431c-0.02484,-0.00105 -0.05045,-0.00146 -0.07636,-0.00146c-1.25,0 -1.25611,1.25287 -1.25611,1.25287l0.0016,0.1308c-1.14452,0.10586 -2.85415,-0.20432 -3.41751,-0.11826c-1.43914,0.21984 -2.39964,0.61899 -3.73141,1.04577c-0.27762,0.08896 -0.61741,0.32953 -0.9365,0.52749c-0.31816,0.04518 -0.63521,0.10622 -0.94614,0.18166c-0.01805,-0.02131 -0.03497,-0.04613 -0.0502,-0.07455c-0.37828,-0.70614 0.15638,-1.61383 0.0254,-2.40413c-0.30422,-1.83558 -0.28569,-3.66806 -0.51801,-5.52762c-1.07213,-4.2243 -0.97314,-9.23513 -0.97514,-13.59793c-0.00064,-1.39608 0.186,-2.79172 0.25672,-4.18601c0.02258,-0.44525 -0.28043,-1.41631 0.15684,-1.32945c1.0102,0.20066 2.80655,1.58526 3.98685,1.94924c0.22573,0.06961 0.4534,0.14071 0.67765,0.21361c0.2366,0.84296 1.20325,0.84284 1.20325,0.84284z" data-paper-data="{&quot;noHover&quot;:false,&quot;origItem&quot;:[&quot;Path&quot;,{&quot;applyMatrix&quot;:true,&quot;segments&quot;:[[230.39347,259.58408],[[229.19561,258.74112],[0.2366,0.84296],[-0.22425,-0.0729]],[[228.52076,258.52722],[0.22573,0.06961],[-1.1803,-0.36398]],[[224.5462,256.57471],[1.0102,0.20066],[-0.43728,-0.08686]],[[224.39156,257.9032],[0.02258,-0.44525],[-0.07072,1.39428]],[[224.14347,262.08408],[-0.00064,-1.39608],[0.002,4.3628]],[[225.12222,275.60455],[-1.07213,-4.2243],[0.23232,1.85956]],[[225.62553,281.12304],[-0.30422,-1.83558],[0.13098,0.7903]],[[225.59724,283.52611],[-0.37828,-0.70614],[0.01522,0.02842]],[[225.6472,283.60058],[-0.01805,-0.02131],[0.31093,-0.07544]],[[226.59041,283.41806],[-0.31816,0.04518],[0.3191,-0.19796]],[[227.52404,282.88992],[-0.27762,0.08896],[1.33177,-0.42678]],[[231.24074,281.84344],[-1.43914,0.21984],[0.56336,-0.08606]],[[234.64524,281.96481],[-1.14452,0.10586],[0,0]],[234.64347,281.83408],[[235.89347,280.58408],[-1.25,0],[0.02591,0]],[[235.96959,280.58567],[-0.02484,-0.00105],[0.12159,-1.45486]],[[235.00777,276.15617],[0.1934,1.0244],[-0.63956,-3.3876]],[[235.16966,265.57954],[-0.82038,3.33631],[0.27119,-1.63396]],[[235.63523,260.82009],[-0.03656,1.61736],[-0.3436,0.04766]],[[234.99819,260.76993],[0,0],[-1.3497,-0.4501]],[[231.04543,259.37357],[1.30106,0.46135],[0,0]]],&quot;closed&quot;:true}]}" fill="#a500ff"/><path d="M267.69527,259.15402c0.60658,-0.30544 1.16551,-1.10909 1.82045,-0.92943c0.89066,0.24431 1.47544,3.29173 1.67748,4.10617c0.98677,3.97761 1.07358,8.14469 1.75598,12.24047c0.36162,2.16896 0.59361,4.36908 0.98822,6.53236c0.14476,0.79359 0.89316,1.46733 0.83428,2.27186c-0.05124,0.70007 -1.41062,0.01288 -2.11253,0.0061c-0.66664,-0.00644 -1.34071,0.00183 -2.00738,0.00183c-1.41667,0 -2.85029,-0.00006 -4.26696,-0.00006c-0.70038,0 -1.65074,0.72185 -2.10028,0.18478c-2.27959,-2.72345 -1.23568,-8.1101 -1.69312,-11.31222c0.00638,-2.86125 0.29509,-5.89464 -0.25433,-8.70529l0.0256,-0.50593c0,0 0.00023,-0.03945 -0.00673,-0.10407c1.56353,-1.58859 3.11622,-2.66717 5.33931,-3.78657z" data-paper-data="{&quot;noHover&quot;:false,&quot;origItem&quot;:[&quot;Path&quot;,{&quot;applyMatrix&quot;:true,&quot;segments&quot;:[[[262.38651,262.98018],[1.56353,-1.58859],[0.00696,0.06462]],[262.39347,263.08408],[[262.3692,263.58893],[0,0],[0.54942,2.81065]],[[262.64033,272.24547],[0.00638,-2.86125],[0.45744,3.20211]],[[264.30063,283.52077],[-2.27959,-2.72345],[0.44954,0.53707]],[[266.39347,283.33408],[-0.70038,0],[1.41667,0]],[[270.64347,283.33408],[-1.41667,0],[0.66667,0]],[[272.64347,283.33408],[-0.66664,-0.00644],[0.70191,0.00678]],[[274.74928,283.33075],[-0.05124,0.70007],[0.05889,-0.80453]],[[273.91395,281.05943],[0.14476,0.79359],[-0.39461,-2.16329]],[[272.91048,274.53958],[0.36162,2.16896],[-0.6824,-4.09578]],[[271.17866,262.37859],[0.98677,3.97761],[-0.20205,-0.81444]],[[269.512,258.27445],[0.89066,0.24431],[-0.65495,-0.17966]],[[267.69892,259.20389],[0.60658,-0.30544],[-2.22308,1.1194]]],&quot;closed&quot;:true}]}" fill="#a500ff"/><path d="M311.74339,243.92066l0.03868,0.10087c-1.44338,1.42411 -3.27265,2.05901 -4.82482,-0.04462c-3.06124,-6.16288 -5.18251,-12.74022 -7.44476,-19.13304c-0.43885,-1.24013 -1.19765,-2.43244 -1.42743,-3.78102c-0.35548,-2.08636 -0.87582,-7.13531 1.87707,-7.27776c0.01928,0.00005 0.03871,0.00005 0.058,0.00011c0.03352,0.00196 0.06827,0.00286 0.10378,0.00286c0.02989,0 0.05928,-0.00081 0.08775,-0.0022c4.11925,0.02314 8.39646,0.34598 12.39636,1.21425c0.9356,0.2031 1.58332,0.8276 2.40174,1.0523c0.13966,0.54721 0.28277,1.09672 0.42243,1.64394c-0.03469,7.76857 1.61568,15.52116 -1.41638,22.95134c-0.18067,0.44274 -0.42595,0.92738 -0.71425,1.40844c-0.32457,-0.19892 -0.9266,-0.40655 -1.5238,0.19066c-0.88388,0.88388 -0.03438,1.67389 -0.03438,1.67389z" data-paper-data="{&quot;noHover&quot;:false,&quot;origItem&quot;:[&quot;Path&quot;,{&quot;applyMatrix&quot;:true,&quot;segments&quot;:[[[311.75959,242.2002],[-0.88388,0.88388],[0.5972,-0.5972]],[[313.27857,242.01172],[-0.32457,-0.19892],[0.2883,-0.48106]],[[313.98862,240.60572],[-0.18067,0.44274],[3.03206,-7.43018]],[[315.40284,217.73681],[-0.03469,7.76857],[-0.13966,-0.54721]],[[314.98386,216.09516],[0.13966,0.54721],[-0.81843,-0.2247]],[[312.58957,215.04657],[0.9356,0.2031],[-3.9999,-0.86827]],[[300.231,213.83197],[4.11925,0.02314],[-0.02847,0.00139]],[[300.14347,213.83408],[0.02989,0],[-0.03551,0]],[[300.03994,213.83111],[0.03352,0.00196],[-0.01929,-0.00007]],[[299.98208,213.83093],[0.01928,0.00005],[-2.75289,0.14245]],[[298.12092,221.09769],[-0.35548,-2.08636],[0.22978,1.34858]],[[299.55451,224.87096],[-0.43885,-1.24013],[2.26225,6.39282]],[[306.95678,243.92691],[-3.06124,-6.16288],[1.55218,2.10363]],[[311.76586,243.97423],[-1.44338,1.42411],[0,0]],[311.75959,243.96796]],&quot;closed&quot;:true}]}" fill="#a500ff"/><path d="M196.43579,213.24646c1.24666,7.47737 1.15642,16.26521 -3.90204,22.48898c-3.28076,2.59517 -6.5975,-0.50111 -8.04543,-3.40915c-1.02747,-2.06359 -0.96855,-3.90596 -1.14668,-6.0799c-0.36737,-4.48361 -0.72838,-8.82717 1.29333,-12.97604c0.07774,-0.07675 0.15742,-0.15105 0.23672,-0.22187c0.09422,-0.00484 0.19636,-0.02033 0.30465,-0.04741c0.55392,-0.13848 0.79579,-0.46837 0.89052,-0.78412c1.90639,-1.00593 4.16184,-0.84464 6.46299,-0.68802c1.0548,0.07179 2.43995,0.78251 3.68061,0.83952z" data-paper-data="{&quot;noHover&quot;:false,&quot;origItem&quot;:[&quot;Path&quot;,{&quot;applyMatrix&quot;:true,&quot;segments&quot;:[[[196.18728,212.41274],[0,0],[-1.24067,-0.05701]],[[192.5203,211.578],[1.0548,0.07179],[-2.30115,-0.15662]],[[186.08294,212.26429],[1.90639,-1.00593],[-0.09474,0.31575]],[[185.19664,213.04676],[0.55392,-0.13848],[-0.10829,0.02707]],[[184.8931,213.09365],[0.09422,-0.00484],[-0.0793,0.07083]],[[184.65752,213.31497],[0.07774,-0.07675],[-2.02171,4.14887]],[[183.38921,226.23098],[-0.36737,-4.48361],[0.17813,2.17394]],[[184.51636,232.28489],[-1.02747,-2.06359],[1.44793,2.90804]],[[192.5235,235.6865],[-3.28076,2.59517],[5.05845,-6.22377]],[[196.41048,213.28958],[1.24666,7.47737],[0,0]]],&quot;closed&quot;:true}]}" fill="#a500ff"/><path d="M200.34834,195.12625c0.75384,-0.66373 1.46778,-1.49052 2.01292,-2.30598c0.03305,0.7497 0.05662,1.57672 0.06335,2.3303c-0.14581,-0.02917 -0.25277,-0.02532 -0.25277,-0.02532l-0.77806,0.00883c-0.33695,0 -0.7081,-0.01128 -1.04544,-0.00783z" data-paper-data="{&quot;noHover&quot;:false,&quot;origItem&quot;:[&quot;Path&quot;,{&quot;applyMatrix&quot;:true,&quot;segments&quot;:[[[201.39347,195.08408],[-0.33695,0],[0,0]],[202.14347,195.08408],[[202.39135,195.11325],[-0.14581,-0.02917],[-0.00673,-0.75358]],[[202.32919,192.85863],[0.03305,0.7497],[-0.54515,0.81546]],[[200.382,195.08928],[0.75384,-0.66373],[0.33735,-0.00345]]],&quot;closed&quot;:true}]}" fill="#a500ff"/><path d="M190.11809,172.41503c-4.98653,1.75114 -8.69055,9.3355 -7.92625,14.2905c0.62242,4.03512 3.07058,6.88331 6.21021,9.08455c-1.40078,0.1517 -2.82114,0.41872 -4.21121,0.60454c-0.71891,0.0961 -5.53196,0.94334 -5.60921,0.68804c-0.27076,-0.89485 0.52797,-3.85769 0.52132,-5.08916c1.15933,-5.79663 -0.03562,-11.91442 0.73503,-17.76086c0.49204,-3.73276 2.64798,-7.24015 3.17034,-10.94769c4.58456,3.50813 9.45716,5.59121 14.99953,7.43866c0.29521,0.1107 3.5463,0.90283 3.77193,1.56042c0.39613,1.15451 0.23752,2.90069 0.09539,4.57696c-1.86541,-2.51688 -4.66933,-4.19197 -8.37436,-4.22479c-0.17913,0.03784 -0.34925,0.08126 -0.51643,0.12793c-1.07447,-0.35325 -2.15871,-0.59759 -2.86629,-0.34911z" data-paper-data="{&quot;noHover&quot;:false,&quot;origItem&quot;:[&quot;Path&quot;,{&quot;applyMatrix&quot;:true,&quot;segments&quot;:[[[193.00137,172.71711],[-1.07447,-0.35325],[0.16718,-0.04667]],[[193.5203,172.59016],[-0.17913,0.03784],[3.70503,0.03282]],[[201.9232,176.84711],[-1.86541,-2.51688],[0.14213,-1.67627]],[[201.73862,172.31243],[0.39613,1.15451],[-0.22563,-0.65759]],[[197.9763,170.76241],[0.29521,0.1107],[-5.54237,-1.84746]],[[183.02809,163.33088],[4.58456,3.50813],[-0.52236,3.70753]],[[179.88139,174.25746],[0.49204,-3.73276],[-0.77065,5.84644]],[[179.13739,191.95725],[1.15933,-5.79663],[0.00665,1.23148]],[[178.61015,197.04159],[-0.27076,-0.89485],[0.07725,0.2553]],[[184.20849,196.34784],[-0.71891,0.0961],[1.39008,-0.18581]],[[188.39603,195.83972],[-1.40078,0.1517],[-3.13963,-2.20125]],[[182.15284,186.73681],[0.62242,4.03512],[-0.76431,-4.955]],[[190.11696,172.36505],[-4.98653,1.75114],[0.70757,-0.24848]]],&quot;closed&quot;:true}]}" fill="#a500ff"/><path d="M310.75041,196.7926c4.63297,-0.83827 8.00828,-4.62258 9.85699,-9.10946c0,0.64519 0.07974,1.23141 0.07974,1.8766c0,1.41667 0.00384,2.87323 0.00384,4.28989c0,0.87561 -0.1212,1.77645 -0.00377,2.64416c0.02028,0.14986 0.35068,0.38907 0.20058,0.40745c-0.41037,0.05024 -0.80879,-0.18518 -1.21129,-0.27962c-2.82224,0 -6.03725,0.37548 -8.9261,0.17099z" data-paper-data="{&quot;noHover&quot;:false,&quot;origItem&quot;:[&quot;Path&quot;,{&quot;applyMatrix&quot;:true,&quot;segments&quot;:[[[319.64347,196.58408],[-2.82224,0],[0.4025,0.09444]],[[320.85098,196.8674],[-0.41037,0.05024],[0.1501,-0.01838]],[[320.64955,196.46091],[0.02028,0.14986],[-0.11743,-0.8677]],[[320.64347,193.83408],[0,0.87561],[0,-1.41667]],[[320.64347,189.58408],[0,1.41667],[0,-0.64519]],[[320.64347,187.64852],[0,0.64519],[-1.84872,4.48688]],[[310.78775,196.75935],[4.63297,-0.83827],[2.88885,0.20448]]],&quot;closed&quot;:true}]}" fill="#a500ff"/><path d="M302.42186,175.12466c-2.82258,4.07684 -6.25991,11.84185 -3.85813,16.74778c0.83052,1.69644 1.94855,2.77349 3.30854,3.43358c-1.86336,-0.02133 -3.75975,0.05727 -5.60927,0.06858c0.51873,-6.5321 -0.06417,-13.17963 1.06456,-19.59494c0.13211,-0.75084 -0.31532,-1.58048 -0.05246,-2.29611c0.33746,-0.91871 1.9102,-1.4948 2.63939,-2.06027c5.954,-1.73789 11.72573,-4.28376 16.33715,-8.45139c1.13235,-1.02337 2.55974,-2.44268 3.26464,-3.8297c0.12604,-0.248 0.30674,-0.56025 0.47101,-0.88345c0.05571,1.19535 0.18194,2.59166 0.19665,2.69863c0.3039,2.21108 0.49899,4.09406 0.49899,6.34596c0,2.48158 0.00987,4.98563 0.00987,7.46722c-1.70592,-1.64637 -4.32405,-2.3304 -6.2229,-3.7415c-3.17742,-1.29546 -6.39969,-2.56044 -9.33352,-0.37709l-0.35007,0.34048c0,0 -0.77206,0.7737 -0.13638,1.6003c-0.73688,0.64731 -1.81425,1.9342 -2.22806,2.53189z" data-paper-data="{&quot;noHover&quot;:false,&quot;origItem&quot;:[&quot;Path&quot;,{&quot;applyMatrix&quot;:true,&quot;segments&quot;:[[[304.61639,172.55567],[-0.73688,0.64731],[-0.63568,-0.8266]],[304.75959,170.9502],[[305.1126,170.60799],[0,0],[2.93383,-2.18335]],[[314.50588,170.99437],[-3.17742,-1.29546],[1.89885,1.4111]],[[320.64347,174.77883],[-1.70592,-1.64637],[0,-2.48158]],[[320.64347,167.33408],[0,2.48158],[0,-2.2519]],[[320.15421,160.99761],[0.3039,2.21108],[-0.0147,-0.10697]],[[319.96091,158.30124],[0.05571,1.19535],[-0.16426,0.3232]],[[319.48977,159.18461],[0.12604,-0.248],[-0.7049,1.38701]],[[316.22712,163.01549],[1.13235,-1.02337],[-4.61142,4.16763]],[[299.95677,171.44996],[5.954,-1.73789],[-0.72919,0.56548]],[[297.32301,173.49784],[0.33746,-0.91871],[-0.26286,0.71562]],[[297.37733,175.78431],[0.13211,-0.75084],[-1.12873,6.4153]],[[296.29046,195.33283],[0.51873,-6.5321],[1.84952,-0.01132]],[[301.88906,195.25893],[-1.86336,-0.02133],[-1.35999,-0.6601]],[[298.53625,191.91421],[0.83052,1.69644],[-2.40177,-4.90593]],[[302.37371,175.11118],[-2.82258,4.07684],[0.41381,-0.59769]]],&quot;closed&quot;:true}]}" fill="#a500ff"/><path d="M276.18008,172.78256l0.85262,0.16187c1.44906,0.47872 3.80666,1.25247 4.77647,2.53253c1.30221,1.71881 0.27755,6.90693 -0.32771,8.68243c-2.02649,4.72356 -4.67654,8.23538 -9.23928,10.77582c-1.64734,0.91721 -3.65679,0.40994 -5.29589,-0.08418c-4.60359,-1.3878 -7.38624,-5.11207 -9.01726,-9.45978c-0.43248,-1.23423 -0.32726,-2.2903 -0.32867,-3.59738c-0.00218,-2.0231 0.10564,-4.38197 1.21519,-6.15456c2.98314,-4.76579 11.58214,-5.31016 16.55464,-3.36221c0.29624,0.40159 0.80987,0.50545 0.80987,0.50545z" data-paper-data="{&quot;noHover&quot;:false,&quot;origItem&quot;:[&quot;Path&quot;,{&quot;applyMatrix&quot;:true,&quot;segments&quot;:[[[275.34842,172.3221],[0.29624,0.40159],[-4.9725,-1.94795]],[[258.85679,175.66761],[2.98314,-4.76579],[-1.10955,1.77259]],[[257.65,181.8],[-0.00218,-2.0231],[0.00141,1.30708]],[[257.97834,185.38284],[-0.43248,-1.23423],[1.63102,4.34771]],[[266.95919,194.80272],[-4.60359,-1.3878],[1.63909,0.49412]],[[272.23278,194.88611],[-1.64734,0.91721],[4.56274,-2.54045]],[[281.4316,184.15578],[-2.02649,4.72356],[0.60525,-1.7755]],[[281.76756,175.50467],[1.30221,1.71881],[-0.96981,-1.28007]],[[277.00471,172.98586],[1.44906,0.47872],[0,0]],[276.15486,172.82573]],&quot;closed&quot;:true}]}" fill="#c3c3c3"/><path d="M246.53031,171.37554l0.54553,0.10664c4.14809,2.07404 6.26865,6.15912 4.79138,10.91877c-0.53648,1.7285 -1.9704,3.36141 -2.85866,4.92293c-4.29717,5.39805 -11.29917,5.20589 -17.22376,3.13788c-2.24152,-0.78242 -5.41057,-1.90429 -6.78905,-3.9327c-1.36192,-2.00403 -0.78804,-4.70334 -0.46548,-6.92058c2.11015,-3.62431 6.4292,-7.58874 10.80666,-9.33628c-0.0092,0.08472 -0.01202,0.17644 -0.00277,0.2712c0.79441,-0.51497 1.75006,-0.82303 2.76265,-0.84243c0.01067,-0.07567 0.02145,-0.15098 0.032,-0.22597c0.19509,-0.03225 0.3921,-0.05897 0.58559,-0.08002c2.1688,-0.23594 4.59976,0.31761 6.86658,1.01056c0.11456,0.75895 0.94932,0.96999 0.94932,0.96999z" data-paper-data="{&quot;noHover&quot;:false,&quot;origItem&quot;:[&quot;Path&quot;,{&quot;applyMatrix&quot;:true,&quot;segments&quot;:[[[245.55171,170.44609],[0.11456,0.75895],[-2.26683,-0.69295]],[[238.71226,169.44495],[2.1688,-0.23594],[-0.19349,0.02105]],[[238.12929,169.52502],[0.19509,-0.03225],[-0.01055,0.07498]],[[238.09745,169.75098],[0.01067,-0.07567],[-1.01259,0.0194]],[[235.34804,170.59145],[0.79441,-0.51497],[-0.00925,-0.09476]],[[235.35046,170.32034],[-0.0092,0.08472],[-4.37745,1.74754]],[[224.58015,179.61202],[2.11015,-3.62431],[-0.32256,2.21724]],[[225.04136,186.50857],[-1.36192,-2.00403],[1.37848,2.02841]],[[231.81212,190.41989],[-2.24152,-0.78242],[5.92459,2.06802]],[[248.96618,187.29736],[-4.29717,5.39805],[0.88826,-1.56152]],[[251.81766,182.39433],[-0.53648,1.7285],[1.47726,-4.75965]],[[247.04099,171.51804],[4.14809,2.07404],[0,0]],[246.49683,171.41268]],&quot;closed&quot;:true}]}" fill="#c3c3c3"/><path d="M285.74247,165.19732c-3.14704,-0.00897 -6.33555,-0.77627 -9.49933,-0.38813c-2.12444,0.26063 -4.04934,1.14141 -6.11974,1.41569c-0.5621,0.16468 -1.13575,0.30754 -1.71419,0.43244c0.02221,-0.1258 0.02211,-0.21095 0.02211,-0.21095c0,-8.95796 -0.02794,-18.71729 -0.02794,-27.73453c0.32334,-0.47327 0.15393,-1.07783 0.15393,-1.07783c-0.54394,-1.8896 -1.21715,-3.43488 -2.39887,-5.01982c-0.69523,-0.93245 -1.61431,-1.60122 -1.75721,-2.82152c-0.09769,-0.83424 -0.38956,-3.34017 0.86336,-3.61738c1.05108,-0.23255 1.2273,0.42511 1.68729,1.29769c0.94174,1.78644 0.91957,4.12659 1.91862,5.81544c0.4369,0.73857 0.70664,1.84578 1.56152,1.92026c0.87604,0.07632 1.37134,-1.12109 2.05215,-1.67765c0.86418,-2.86729 1.70421,-5.79625 2.5035,-8.61803c0.53048,-1.8728 0.24429,-5.16311 1.88025,-6.60483c0.26835,-0.23649 0.46646,0.58677 0.51687,0.94089c0.15524,1.09068 0.16732,2.29926 0.16661,3.40093c-0.00226,3.47773 -0.21301,6.87402 -0.5935,10.33054c-0.00189,1.84395 -0.78373,7.50169 3.18014,6.11704c0.42172,-0.14731 0.77446,-0.58747 1.071,-1.18345c0.02848,0.06471 0.0607,0.12781 0.09398,0.1871c1.29348,2.30413 4.23847,1.8716 5.64675,0.07753c2.43128,-3.0973 2.59285,-8.46478 3.98781,-12.09516c0.12403,-0.3228 0.60723,-1.07096 0.90991,-1.73779c0.28988,4.12527 -1.15559,7.50366 -2.02287,11.55329c-1.57326,7.34616 -3.04978,14.16769 -3.04978,21.74433c0,2.41011 -0.39038,4.50241 -0.73737,6.83276c-0.10713,0.14095 -0.27014,0.4029 -0.29498,0.72115z" data-paper-data="{&quot;noHover&quot;:false,&quot;origItem&quot;:[&quot;Path&quot;,{&quot;applyMatrix&quot;:true,&quot;segments&quot;:[[[286.02048,164.42914],[-0.10713,0.14095],[0.34699,-2.33035]],[[286.75,157.6],[0,2.41011],[0,-7.57665]],[[289.78097,135.92349],[-1.57326,7.34616],[0.86727,-4.04963]],[[291.81723,124.38561],[0.28988,4.12527],[-0.30269,0.66683]],[[290.9684,126.04423],[0.12403,-0.3228],[-1.39496,3.63038]],[[286.99475,138.15695],[2.43128,-3.0973],[-1.40828,1.79407]],[[281.27337,138.14149],[1.29348,2.30413],[-0.03329,-0.05929]],[[281.18077,137.95536],[0.02848,0.06471],[-0.29653,0.59599]],[[280.11207,139.1403],[0.42172,-0.14731],[-3.96387,1.38465]],[[276.95191,132.93087],[-0.00189,1.84395],[0.3805,-3.45652]],[[277.55,122.6],[-0.00226,3.47773],[0.00071,-1.10168]],[[277.38629,119.29903],[0.15524,1.09068],[-0.0504,-0.35412]],[[276.87043,118.3581],[0.26835,-0.23649],[-1.63596,1.44173]],[[274.99637,124.96223],[0.53048,-1.8728],[-0.79929,2.82178]],[[272.51075,133.57336],[0.86418,-2.86729],[-0.68081,0.55656]],[[270.46831,135.24304],[0.87604,0.07632],[-0.85488,-0.07447]],[[268.83503,133.25315],[0.4369,0.73857],[-0.99904,-1.68885]],[[266.92204,127.43285],[0.94174,1.78644],[-0.45999,-0.87258]],[[265.29552,126.21457],[1.05108,-0.23255],[-1.25292,0.27721]],[[264.43792,129.82662],[-0.09769,-0.83424],[0.1429,1.22031]],[[266.197,132.64601],[-0.69523,-0.93245],[1.18172,1.58494]],[[268.6019,137.6566],[-0.54394,-1.8896],[0,0]],[[268.45,138.72989],[0.32334,-0.47327],[0,9.01724]],[[268.45,166.4],[0,-8.95796],[0,0]],[[268.42779,166.61091],[0.02221,-0.1258],[0.57844,-0.1249]],[[270.1393,166.17748],[-0.5621,0.16468],[2.0704,-0.27428]],[[276.24727,164.75937],[-2.12444,0.26063],[3.16378,-0.38814]],[[285.72652,165.14993],[-3.14704,-0.00897],[0.02485,-0.31825]]],&quot;closed&quot;:true}]}" fill="#ffffff"/><path d="M238.55485,166.25488c0.06333,-0.72483 0.05443,-1.54906 0.06441,-2.33149c3.88591,-0.41598 7.84393,-0.53795 11.52786,-1.75093l1.00991,-0.1517c0,0 1.23208,-0.20103 1.02658,-1.43402c-0.2055,-1.23299 -1.33939,-1.01433 -1.33939,-1.01433l-1.38994,0.24843c-5.68094,1.92135 -12.2757,1.06241 -17.87885,2.98897c-4.49276,-0.05181 -9.02587,-0.12484 -13.50073,0.15775c-3.13522,0.19799 -6.09163,0.72153 -9.22235,0.0293c-2.58633,-0.57186 -4.41994,-1.55174 -4.87697,-3.22198c1.64873,0.45199 5.09201,-1.08809 5.38058,-2.8475c0.31464,-1.91835 -0.43137,-3.24155 -2.14365,-3.25413c6.70333,-5.36052 16.93373,-5.4716 25.30604,-5.47234c-0.03947,0.69102 0.04371,1.39766 0.27494,2.1124c1.66096,5.13394 8.34771,8.3247 13.35687,8.33304c4.3474,-0.02213 8.72394,-2.89036 10.32944,-6.74742c7.19376,2.21597 8.16805,8.78115 8.29837,15.27751c-5.44193,0.48873 -11.259,-0.23136 -16.41217,-0.79418c-3.2415,-0.35404 -6.56572,0.26777 -9.81092,-0.12738z" data-paper-data="{&quot;noHover&quot;:false,&quot;origItem&quot;:[&quot;Path&quot;,{&quot;applyMatrix&quot;:true,&quot;segments&quot;:[[[248.32317,166.35609],[-3.2415,-0.35404],[5.15318,0.56283]],[[264.73017,167.16169],[-5.44193,0.48873],[-0.13031,-6.49636]],[[256.43126,151.91181],[7.19376,2.21597],[-1.6055,3.85706]],[[246.2,158.65],[4.3474,-0.02213],[-5.00915,-0.00834]],[[232.80364,150.36223],[1.66096,5.13394],[-0.23123,-0.71473]],[[232.52785,148.25],[-0.03947,0.69102],[-8.37231,0.00073]],[[207.26172,153.68074],[6.70333,-5.36052],[1.71228,0.01258]],[[209.4059,156.9291],[0.31464,-1.91835],[-0.28857,1.75941]],[[204.02525,159.77162],[1.64873,0.45199],[0.45703,1.67024]],[[208.90132,162.98686],[-2.58633,-0.57186],[3.13073,0.69223]],[[218.12233,162.95242],[-3.13522,0.19799],[4.47486,-0.28259]],[[231.59977,162.76614],[-4.49276,-0.05181],[5.60315,-1.92657]],[[249.40472,159.81415],[-5.68094,1.92135],[0,0]],[250.7945,159.56701],[[252.23299,160.5945],[-0.2055,-1.23299],[0.2055,1.23299]],[251.2055,162.03299],[[250.19529,162.18586],[0,0],[-3.68393,1.21299]],[[238.64768,163.96452],[3.88591,-0.41598],[-0.00998,0.78243]],[[238.53273,166.21004],[0.06333,-0.72483],[3.2452,0.39515]]],&quot;closed&quot;:true}]}" fill="#ffffff"/><path d="M242.84538,138.18951l-0.75881,0.31299c0,0 -0.36324,0.18533 -0.57246,0.54595c-1.19609,0.4413 -2.4791,1.09232 -3.66102,1.86899c-1.4624,-1.44701 -3.10839,-2.96227 -4.78705,-4.12686c-0.98606,-0.6841 -2.73895,-1.28486 -3.48268,-2.30487c-1.48737,-2.03992 0.24924,-3.61327 2.3593,-3.88726c2.4502,-0.31815 4.69273,1.00857 6.4917,2.52573c1.72358,1.43383 3.13152,3.22904 4.41101,5.06533z" data-paper-data="{&quot;noHover&quot;:false,&quot;origItem&quot;:[&quot;Path&quot;,{&quot;applyMatrix&quot;:true,&quot;segments&quot;:[[[238.39977,133.16028],[1.72358,1.43383],[-1.79898,-1.51716]],[[231.97338,130.63792],[2.4502,-0.31815],[-2.11005,0.27399]],[[229.63244,134.49533],[-1.48737,-2.03992],[0.74373,1.02001]],[[233.11295,136.77326],[-0.98606,-0.6841],[1.67865,1.16459]],[[237.83576,140.87055],[-1.4624,-1.44701],[1.18192,-0.77667]],[[241.47114,139.0229],[-1.19609,0.4413],[0.20922,-0.36062]],[242.04099,138.48197],[[242.79828,138.17275],[0,0],[-1.27949,-1.83629]]],&quot;closed&quot;:true}]}" fill="#dc9aff"/><path d="M253.59613,145.25996c3.57777,5.43405 -2.30996,10.96955 -7.38742,10.93928c-3.97009,0.00729 -9.64978,-2.50864 -11.06193,-6.555c-1.50314,-4.3071 6.03445,-8.46221 9.20515,-8.85379c0,0 0.30509,-0.03774 0.59209,-0.22437c3.13388,0.3217 7.11691,2.36216 8.65211,4.69389z" data-paper-data="{&quot;noHover&quot;:false,&quot;origItem&quot;:[&quot;Path&quot;,{&quot;applyMatrix&quot;:true,&quot;segments&quot;:[[[244.94326,140.61607],[3.13388,0.3217],[-0.287,0.18663]],[[244.35505,140.84035],[0,0],[-3.1707,0.39157]],[[235.19637,149.63777],[-1.50314,-4.3071],[1.41215,4.04637]],[[246.2,156.15],[-3.97009,0.00729],[5.07746,0.03027]],[[253.54903,145.27673],[3.57777,5.43405],[-1.5352,-2.33173]]],&quot;closed&quot;:true}]}" fill="#dc9aff"/><path d="M270.9909,198.01433c0.77926,-0.16464 1.61289,-0.53264 2.39845,-0.94527c5.1379,-2.69878 8.10563,-6.83819 10.33954,-12.05547c0.89116,-2.7184 1.92206,-8.29394 0.08548,-10.87164c-1.26709,-1.77842 -4.03394,-2.81603 -6.00782,-3.47909l-0.32892,-0.06914c-0.06393,-0.04222 -0.10581,-0.06342 -0.10581,-0.06342c-2.05489,-1.02431 -4.6119,-1.61863 -7.26701,-1.71155c0.19625,-0.04999 0.33243,-0.18267 0.52694,-0.237c2.02017,-0.30645 3.84682,-1.12632 5.90835,-1.38949c3.06752,-0.3916 6.21844,0.40782 9.27651,0.41058c0.67755,0.00061 4.75589,-0.45204 5.1313,0.38387c0.31423,0.69966 -0.11273,1.53191 -0.16347,2.29722c-0.184,2.77552 -1.17656,5.34846 -1.56928,8.07067c-1.01051,4.59287 -1.36876,9.87502 -1.83262,14.57491c-0.0979,0.99194 0.37991,1.99888 0.22676,2.98381c-0.08146,0.52384 -1.06009,-0.11459 -1.59022,-0.1171c-0.07833,-0.00037 -4.2599,0.00079 -4.36768,0.01298c-2.70295,0.30575 -5.35039,1.58645 -8.04941,1.99894c-0.84848,0.12967 -1.73062,0.16951 -2.61109,0.2062z" data-paper-data="{&quot;noHover&quot;:false,&quot;origItem&quot;:[&quot;Path&quot;,{&quot;applyMatrix&quot;:true,&quot;segments&quot;:[[[273.62272,197.76264],[-0.84848,0.12967],[2.69903,-0.41249]],[[281.64727,195.75937],[-2.70295,0.30575],[0.10778,-0.01219]],[[286,195.75],[-0.07833,-0.00037],[0.53013,0.00251]],[[287.58594,195.86911],[-0.08146,0.52384],[0.15315,-0.98493]],[[287.35505,192.88775],[-0.0979,0.99194],[0.46386,-4.69989]],[[289.17016,178.37641],[-1.01051,4.59287],[0.39272,-2.72221]],[[290.75242,170.32233],[-0.184,2.77552],[0.05073,-0.76531]],[[290.91886,168.02741],[0.31423,0.69966],[-0.37541,-0.83591]],[[285.8,167.65],[0.67755,0.00061],[-3.05807,-0.00276]],[[276.55273,167.24064],[3.06752,-0.3916],[-2.06153,0.26317]],[[270.66069,168.62252],[2.02017,-0.30645],[-0.19452,0.05433]],[[270.07453,168.77896],[0.19625,-0.04999],[2.65511,0.09292]],[[277.35902,170.48197],[-2.05489,-1.02431],[0,0]],[[277.46517,170.5453],[-0.06393,-0.04222],[0,0]],[[277.79528,170.61415],[0,0],[1.97388,0.66306]],[[283.83244,174.09533],[-1.26709,-1.77842],[1.83657,2.57771]],[[283.7684,185.04423],[0.89116,-2.7184],[-2.2339,5.21728]],[[273.36722,197.1139],[5.1379,-2.69878],[-0.78557,0.41263]],[[271.0172,197.97181],[0.77926,-0.16464],[0.88047,-0.03669]]],&quot;closed&quot;:true}]}" fill="#a500ff"/><path d="M232.11116,169.06016c-4.14716,2.28527 -7.77116,6.07403 -9.84344,9.74229c-0.48028,2.99507 -1.14611,6.3862 0.73912,9.07564c1.7833,2.54403 5.15868,3.86158 8.01227,4.86296c7.10134,2.492 14.91577,2.23686 19.96824,-4.05684c1.00975,-1.7596 2.53183,-3.52518 3.14502,-5.47715c1.549,-4.93096 0.01171,-9.44081 -3.59162,-12.34501c0.00357,-0.0101 0.0071,-0.0203 0.01055,-0.03064c0.39529,-1.18586 -0.78717,-1.57817 -0.78717,-1.57817c-0.26005,-0.08662 -0.46408,-0.25503 -0.73272,-0.34518c4.49275,0.50587 9.37442,1.02798 14.0855,0.81798c-1.90512,0.64724 -3.62124,1.62261 -4.94189,2.95108c-3.17061,3.18939 -3.85128,9.35619 -2.50388,13.54738c1.85832,4.95739 7.04034,11.43009 12.94162,11.92055c-0.08194,0.00901 -0.1638,0.0188 -0.24539,0.02911c-14.73601,-0.02067 -29.5148,0.25044 -44.25163,0.20329c-4.13092,-0.37825 -8.08463,-1.62231 -12.18612,-2.1937c-0.87841,-0.12238 -2.60354,0.1242 -3.39709,-0.74254c-1.16195,-1.2691 -0.19882,-5.93502 -0.13327,-7.37726c0.25769,-5.66902 0.90379,-11.29116 1.35727,-16.94203c0.29101,-1.19485 6.15708,-1.43691 7.47954,-1.50207c4.881,-0.24051 9.92058,-0.28678 14.8751,-0.5597z" data-paper-data="{&quot;noHover&quot;:false,&quot;origItem&quot;:[&quot;Path&quot;,{&quot;applyMatrix&quot;:true,&quot;segments&quot;:[[[217.27767,169.64759],[4.881,-0.24051],[-1.32246,0.06516]],[[209.8023,171.14203],[0.29101,-1.19485],[-0.45347,5.65087]],[[208.44872,188.05665],[0.25769,-5.66902],[-0.06555,1.44224]],[[208.579,195.42279],[-1.16195,-1.2691],[0.79355,0.86674]],[[211.97476,196.16228],[-0.87841,-0.12238],[4.1015,0.57138]],[[224.1504,198.34142],[-4.13092,-0.37825],[14.73683,0.04715]],[[268.32233,198.15242],[-14.73601,-0.02067],[0.08159,-0.01031]],[[268.56763,198.12348],[-0.08194,0.00901],[-5.90127,-0.49046]],[[255.62167,186.21717],[1.85832,4.95739],[-1.34741,-4.19118]],[[258.13122,172.70127],[-3.17061,3.18939],[1.32065,-1.32847]],[[263.07328,169.75049],[-1.90512,0.64724],[-4.71108,0.21]],[[249.00195,168.94847],[4.49275,0.50587],[0.26864,0.09016]],[[249.79529,169.21415],[-0.26005,-0.08662],[0,0]],[[250.58586,170.79529],[0.39529,-1.18586],[-0.00344,0.01034]],[[250.57534,170.82595],[0.00357,-0.0101],[3.60333,2.90419]],[[254.18234,183.20567],[1.549,-4.93096],[-0.61319,1.95198]],[[251.03382,188.70265],[1.00975,-1.7596],[-5.05247,6.2937]],[[230.98788,192.78011],[7.10134,2.492],[-2.85359,-1.00138]],[[222.95865,187.89144],[1.7833,2.54403],[-1.88522,-2.68944]],[[222.21986,178.78798],[-0.48028,2.99507],[2.07228,-3.66826]],[[232.13066,169.10621],[-4.14716,2.28527],[-4.95452,0.27292]]],&quot;closed&quot;:true}]}" fill="#a500ff"/><path d="M230.35,152.4c0,-0.69036 0.55964,-1.25 1.25,-1.25c0.69036,0 1.25,0.55964 1.25,1.25c0,0.69036 -0.55964,1.25 -1.25,1.25c-0.69036,0 -1.25,-0.55964 -1.25,-1.25z" fill="#000000"/><path d="M240.59197,174.76532c-0.18492,0.14203 -0.35306,0.20509 -0.35306,0.20509c-1.65386,0.61822 -3.24701,1.25207 -4.63093,2.38337c-1.47822,1.20837 -3.33885,7.54647 -0.57736,8.27273c4.48222,1.17881 7.76809,-0.5696 9.56284,-4.55322c0.10574,-1.03792 0.84206,-3.40798 0.47992,-4.3318c-0.28546,-0.72821 -3.10392,-1.56536 -4.48141,-1.97617zM238.62595,172.91763c0.27095,-0.76763 1.17405,-0.76762 1.17405,-0.76762l0.99528,0.06414c1.77837,0.59738 5.65628,1.60217 6.53134,3.44437c0.71543,1.50611 -0.13448,4.50247 -0.32008,6.0682c-2.0411,4.63818 -4.865,6.78256 -10.0585,6.52221c-2.1966,-0.11012 -3.16802,0.05844 -4.69836,-1.63689c-1.07729,-1.19343 -0.8897,-1.98569 -0.89969,-3.41204c-0.03896,-5.56722 2.42982,-8.30211 7.27595,-10.28238z" fill="#000000"/><path d="M245.11549,176.71454c0.36213,0.92382 -0.36674,3.32747 -0.47248,4.36539c-1.79475,3.98362 -5.16213,5.76385 -9.64435,4.58505c-2.76149,-0.72626 -0.90797,-7.13404 0.57025,-8.34241c1.38393,-1.13129 3.02388,-1.78332 4.67774,-2.40155c0,0 0.17085,-0.06255 0.35578,-0.20459c1.37749,0.41081 4.22761,1.26991 4.51306,1.99811z" data-paper-data="{&quot;noHover&quot;:false,&quot;origItem&quot;:[&quot;Path&quot;,{&quot;applyMatrix&quot;:true,&quot;segments&quot;:[[[240.59197,174.76532],[1.37749,0.41081],[-0.18492,0.14203]],[[240.23891,174.97041],[0,0],[-1.65386,0.61822]],[[235.60797,177.35378],[1.38393,-1.13129],[-1.47822,1.20837]],[[235.03061,185.62651],[-2.76149,-0.72626],[4.48222,1.17881]],[[244.59345,181.07329],[-1.79475,3.98362],[0.10574,-1.03792]],[[245.07337,176.74149],[0.36213,0.92382],[-0.28546,-0.72821]]],&quot;closed&quot;:true}]}" fill="#fdff9a"/><path d="M272.89671,177.47175c-0.46765,0.29372 -1.04011,0.13016 -1.04011,0.13016c-1.17326,-0.33791 -2.33299,-0.84713 -3.53255,-0.26706c-5.65761,2.73584 -2.69486,12.66813 3.60834,8.60837c1.11957,-0.72109 1.88501,-1.75972 2.47447,-2.91592c0.42764,-3.30852 0.79917,-4.18228 -1.51015,-5.55554zM270.20556,174.59994c0.4193,-0.31622 0.97122,-0.23738 0.97122,-0.23738l1.59593,0.2443c0.47473,0.23119 3.04408,1.46508 3.25455,1.65604c2.1012,1.90643 1.13421,5.09827 0.76588,7.50981c-0.84443,1.70858 -1.83853,3.2513 -3.52553,4.28408c-1.9056,1.16661 -2.53896,1.10376 -4.74527,0.99079c-8.60697,-0.4407 -6.88834,-13.91054 0.81327,-14.49592c0.26453,-0.02011 0.56074,0.00134 0.86995,0.04828z" fill="#000000"/><path d="M274.45551,183.03882c-0.58945,1.1562 -1.3818,2.22832 -2.50137,2.94941c-6.3032,4.05976 -9.30484,-5.96452 -3.64723,-8.70036c1.19955,-0.58006 2.39572,-0.07 3.56898,0.26791c0,0 0.58002,0.16751 1.04766,-0.12621c2.30932,1.37327 1.95959,2.30073 1.53195,5.60925z" data-paper-data="{&quot;noHover&quot;:false,&quot;origItem&quot;:[&quot;Path&quot;,{&quot;applyMatrix&quot;:true,&quot;segments&quot;:[[[272.89671,177.47175],[2.30932,1.37327],[-0.46765,0.29372]],[[271.8566,177.60191],[0,0],[-1.17326,-0.33791]],[[268.32406,177.33484],[1.19955,-0.58006],[-5.65761,2.73584]],[[271.9324,185.94321],[-6.3032,4.05976],[1.11957,-0.72109]],[[274.40686,183.02729],[-0.58945,1.1562],[0.42764,-3.30852]]],&quot;closed&quot;:true}]}" fill="#99ffeb"/><path d="M237.75,180.4c0,-0.69036 0.55964,-1.25 1.25,-1.25c0.69036,0 1.25,0.55964 1.25,1.25c0,0.69036 -0.55964,1.25 -1.25,1.25c-0.69036,0 -1.25,-0.55964 -1.25,-1.25z" fill="#000000"/><path d="M268.75,182c0,-0.69036 0.55964,-1.25 1.25,-1.25c0.69036,0 1.25,0.55964 1.25,1.25c0,0.69036 -0.55964,1.25 -1.25,1.25c-0.69036,0 -1.25,-0.55964 -1.25,-1.25z" fill="#000000"/><path d="M309.00959,181.46796c-0.19052,-0.19052 -0.29891,-0.38104 -0.35172,-0.56271c-2.55676,1.80789 -3.51863,6.16243 -0.6685,8.08c1.8961,1.27571 6.67318,-3.04633 7.22457,-4.81494c0.10832,-0.34745 -0.14271,-2.08363 -0.20306,-2.55734c-0.5131,-0.57384 -1.02528,-1.22142 -1.53295,-1.60363c-0.33982,0.57473 -1.08446,0.57473 -1.08446,0.57473c-0.26327,0 -0.53291,-0.03562 -0.8039,-0.08063c-0.04148,0.06957 -0.08289,0.14409 -0.12423,0.22375l-0.68798,0.74076c0,0 -0.88388,0.88388 -1.76777,0zM310.44154,178.08552c2.33082,-2.0985 4.74219,-0.04084 6.83452,2.46965c0.25581,1.35657 0.71802,3.0636 0.29694,4.44266c-1.03155,3.37839 -7.37635,8.19643 -10.77543,6.18506c-5.09205,-3.01317 -3.24634,-10.77454 1.61754,-13.00367c0.13697,-0.06277 1.08373,-0.08591 2.02643,-0.09371z" fill="#000000"/><path d="M310.77786,181.41796l0.69658,-0.73993c0.04135,-0.07967 0.08371,-0.154 0.12519,-0.22357c0.27099,0.04502 0.5495,0.08333 0.81277,0.08333c0,0 0.75123,0.00328 1.09105,-0.57145c0.50767,0.38221 1.03523,1.04402 1.54833,1.61786c0.06035,0.47371 0.32024,2.23373 0.21192,2.58117c-0.55138,1.7686 -5.40488,6.13787 -7.30099,4.86217c-2.85013,-1.91758 -1.88613,-6.35798 0.67064,-8.16587c0.05281,0.18167 0.16157,0.37198 0.35209,0.5625c0.88388,0.88388 1.79243,-0.00622 1.79243,-0.00622z" data-paper-data="{&quot;noHover&quot;:false,&quot;origItem&quot;:[&quot;Path&quot;,{&quot;applyMatrix&quot;:true,&quot;segments&quot;:[[[309.00959,181.46796],[0.88388,0.88388],[-0.19052,-0.19052]],[[308.65787,180.90525],[0.05281,0.18167],[-2.55676,1.80789]],[[307.98937,188.98526],[-2.85013,-1.91758],[1.8961,1.27571]],[[315.21393,184.17032],[-0.55138,1.7686],[0.10832,-0.34745]],[[315.01088,181.61298],[0.06035,0.47371],[-0.5131,-0.57384]],[[313.47793,180.00935],[0.50767,0.38221],[-0.33982,0.57473]],[[312.39347,180.58408],[0,0],[-0.26327,0]],[[311.58957,180.50345],[0.27099,0.04502],[-0.04148,0.06957]],[[311.46534,180.7272],[0.04135,-0.07967],[0,0]],[310.77735,181.46796]],&quot;closed&quot;:true}]}" fill="#fdff9a"/><path d="M309.39347,184.33408c0,-0.69036 0.55964,-1.25 1.25,-1.25c0.69036,0 1.25,0.55964 1.25,1.25c0,0.69036 -0.55964,1.25 -1.25,1.25c-0.69036,0 -1.25,-0.55964 -1.25,-1.25z" fill="#000000"/><path d="M195.65914,181.81349c-0.32864,0.05261 -0.60907,-0.02751 -0.60907,-0.02751c-0.46728,-0.13459 -3.68569,-1.17126 -3.99943,-0.88859c-1.39342,1.2554 -1.65771,7.12276 0.63003,7.72013c2.26085,0.59035 3.39651,-1.43593 4.54791,-2.81952c0.4732,-0.56863 3.0696,-2.33356 1.64937,-2.72576c-0.74588,-0.61371 -1.44899,-0.9523 -2.2188,-1.25875zM194.05459,178.88415c0.19254,-0.05007 0.33888,-0.05007 0.33888,-0.05007l0.71424,0.0894c1.64329,0.6581 2.88571,1.0646 4.30129,2.17243c0.47308,0.44654 1.29353,0.70134 1.41924,1.33962c0.42234,2.14446 -0.64279,2.8125 -1.78735,4.01868c-2.1449,2.26038 -4.10967,5.66112 -7.9346,4.59642c-4.27196,-1.18914 -4.90028,-9.75398 -1.36997,-12.27987c0.94349,-0.67505 2.80736,-0.30581 4.31828,0.11339z" fill="#000000"/><path d="M197.92339,183.05141c1.42023,0.39219 -1.17662,2.19977 -1.64983,2.7684c-1.1514,1.38359 -2.35906,3.43014 -4.61991,2.83979c-2.28774,-0.59737 -2.02754,-6.54595 -0.63412,-7.80135c0.31374,-0.28266 3.57777,0.7453 4.04505,0.87989c0,0 0.28866,0.08345 0.61731,0.03083c0.76981,0.30645 1.49562,0.66872 2.2415,1.28244z" data-paper-data="{&quot;noHover&quot;:false,&quot;origItem&quot;:[&quot;Path&quot;,{&quot;applyMatrix&quot;:true,&quot;segments&quot;:[[[195.65914,181.81349],[0.76981,0.30645],[-0.32864,0.05261]],[[195.05007,181.78598],[0,0],[-0.46728,-0.13459]],[[191.05063,180.89739],[0.31374,-0.28266],[-1.39342,1.2554]],[[191.68066,188.61752],[-2.28774,-0.59737],[2.26085,0.59035]],[[196.22857,185.798],[-1.1514,1.38359],[0.4732,-0.56863]],[[197.87794,183.07224],[1.42023,0.39219],[-0.74588,-0.61371]]],&quot;closed&quot;:true}]}" fill="#99ffeb"/><path d="M191.64347,185.08408c0,-0.69036 0.55964,-1.25 1.25,-1.25c0.69036,0 1.25,0.55964 1.25,1.25c0,0.69036 -0.55964,1.25 -1.25,1.25c-0.69036,0 -1.25,-0.55964 -1.25,-1.25z" fill="#000000"/></g></g></svg>