<svg version="1.1" xmlns="http://www.w3.org/2000/svg" xmlns:xlink="http://www.w3.org/1999/xlink" width="86.09499" height="77.33886" viewBox="0,0,86.09499,77.33886"><g transform="translate(-206.16334,-172.11428)"><g data-paper-data="{&quot;isPaintingLayer&quot;:true}" fill-rule="nonzero" stroke="none" stroke-width="0.5" stroke-linecap="butt" stroke-linejoin="miter" stroke-miterlimit="10" stroke-dasharray="" stroke-dashoffset="0" style="mix-blend-mode: normal"><path d="M247.62851,179.47898c1.94321,1.10766 3.76393,1.90627 5.16716,3.59367l0.31583,0.07896c4.33434,1.10286 8.8889,3.63851 12.06351,6.82019c5.08453,7.72734 -1.48321,15.90057 -4.62088,23.09213c-1.26438,2.89798 -2.77133,5.75065 -5.64793,6.91185c-0.17187,0.27349 -0.40449,0.42857 -0.40449,0.42857l-1.13833,0.60028c-6.32518,0.76442 -12.59265,2.52862 -18.91663,3.58671c-1.15567,0.25597 -2.30526,0.55673 -3.42125,0.95128c-1.33921,0.47347 -6.71799,3.94797 -3.21981,5.52364c1.86438,0.83976 4.03216,2.51077 6.06409,2.87567c2.74613,0.49317 5.53292,0.39191 8.27204,0.97235h1.26652c4.78201,0 9.49454,0.3971 14.26227,0.40155c7.27602,0.72222 13.93225,1.80981 21.02492,3.43189c3.8608,0.88296 7.90772,1.56184 11.28687,3.54374l0.11833,-0.27611l1.37352,0.58865c0.4596,0.18473 0.78408,0.63461 0.78408,1.16028c0,0.63664 -0.47594,1.16211 -1.09142,1.24004l-1.31854,0.18836c-2.18127,0.62008 -4.42554,0.76226 -6.64827,1.2068c-14.19381,1.57161 -27.87522,3.0148 -42.19177,3.0148c-9.52132,0 -20.85039,0.85662 -28.78087,-5.47391c-3.22397,-2.57355 -5.26602,-3.94751 -6.06408,-8.26383c-0.01993,-11.47395 6.56883,-20.26858 17.03383,-24.34045c0.31104,-0.20732 0.62208,-0.41464 0.93312,-0.62196c5.20883,-3.25448 11.25027,-5.03053 16.23416,-8.47203c0.66656,-0.46028 0.50008,-1.2542 0.40321,-1.92509c-0.41563,-2.87859 -2.55923,-4.03207 -5.18889,-4.52398c-1.52242,-0.28478 -3.11103,-0.38656 -4.64815,-0.58116c-5.73848,0.01048 -13.05898,1.54323 -18.60952,-0.03102c-2.67366,-0.75831 -4.21115,-6.89988 -2.52686,-9.34744c0.48914,-0.7108 3.5135,-1.47052 4.36983,-1.83752c2.02753,-0.47198 1.63443,-3.26218 2.02766,-4.91879c0.3818,-1.60845 1.3324,-3.39658 2.61359,-4.47079c3.45061,-2.89319 8.02554,-1.3333 12.05025,-1.88265c1.58752,-0.21669 2.91968,-0.60592 4.55273,-0.60936c0,0 1.25,0 1.25,1.25c0,0.27145 -0.05895,0.48396 -0.15125,0.65032c3.84574,1.43498 7.6998,3.51401 11.12142,5.46438zM246.38816,181.64959c-3.98957,-2.28496 -8.66806,-4.84258 -13.14926,-6.09114l-1.22585,-0.40831c0,0 -0.05217,-0.01739 -0.13098,-0.05582c-0.23339,0.04042 -0.4727,0.07816 -0.72101,0.1106c-3.35945,0.43888 -7.89163,-1.04266 -10.74975,1.31735c-3.35542,2.77062 -0.76146,8.02371 -5.35875,9.81043c-1.03267,0.44257 -2.67957,-0.01686 -3.23018,0.96248c-0.14377,0.25572 0.0887,5.00409 0.46983,5.38522c0.71966,0.71966 4.25076,0.23389 5.11612,0.23389c4.57441,0 9.11238,-0.20505 13.67767,-0.19759c4.91435,0.60716 11.52343,0.96607 12.16297,7.29485c0.17067,1.68899 0.17107,2.87508 -1.19679,4.07492c-2.10691,1.84811 -4.86881,2.58181 -7.3579,3.6295c-3.19309,1.34401 -6.27569,3.26519 -9.20793,5.09846c-0.15836,0.10559 -0.31672,0.21119 -0.47508,0.31679c-0.24278,0.28301 -0.56403,0.40348 -0.56403,0.40348c-0.03151,0.01181 -0.06298,0.02367 -0.09442,0.03557c-0.01704,0.01136 -0.03407,0.02272 -0.05111,0.03408l-0.0095,0.04382c0,0 -0.47572,0.47573 -1.07816,0.38015c-8.88974,3.79146 -14.54015,11.40226 -14.56077,21.42371c0.62191,3.49714 2.50735,4.42841 5.13592,6.53617c7.37961,5.91746 18.37646,4.92609 27.21913,4.92609c14.18752,0 27.74108,-1.41596 41.80823,-2.9852c1.03489,-0.20698 2.07394,-0.34691 3.10874,-0.50192c-1.3495,-0.4425 -2.70347,-1.02378 -3.48639,-1.26871c-8.1828,-2.56 -16.39721,-3.48954 -24.89284,-4.34571c-4.72649,0.00477 -9.39751,-0.39845 -14.13773,-0.39845h-1.4c0,0 -0.05252,0 -0.13603,-0.01077c-0.08386,-0.00761 -0.13513,-0.019 -0.13513,-0.019c-2.76942,-0.62064 -5.61389,-0.45972 -8.39028,-0.99788c-2.08138,-0.40344 -4.94087,-2.04407 -6.73591,-3.12433c-3.18723,-1.91807 -2.45556,-6.62295 0.25039,-8.70029c1.80361,-1.38462 4.95334,-1.94444 7.10855,-2.42479c6.04617,-1.00367 12.02818,-2.61009 18.06392,-3.47463c0.2499,-0.62892 0.99772,-0.73575 0.99772,-0.73575c2.89798,-0.29451 4.19576,-3.50224 5.23098,-5.86221c2.56721,-5.85242 9.2836,-14.1669 4.97912,-20.50787c-2.76977,-2.76128 -6.93264,-5.04127 -10.70288,-5.97155c-0.64566,0.21275 -1.11202,-0.2186 -1.2905,-0.42543c-0.18853,-0.13082 -0.38165,-0.33083 -0.46225,-0.62604c-1.14037,-1.37444 -2.82378,-1.98262 -4.39787,-2.88416z" fill="#000000"/><path d="M250.79257,184.48418c0.0806,0.29521 0.27474,0.49537 0.46327,0.62619c0.17848,0.20683 0.64738,0.63864 1.29304,0.42589c3.77024,0.93028 7.95468,3.22055 10.72446,5.98183c4.30448,6.34097 -2.39381,14.6988 -4.96102,20.55122c-1.03522,2.35998 -2.35077,5.60145 -5.24875,5.89595c0,0 -0.75342,0.11088 -1.00332,0.73979c-6.03574,0.86454 -12.08257,2.46052 -18.12873,3.46419c-2.15521,0.48035 -5.22485,0.98055 -7.02846,2.36517c-2.70594,2.07734 -3.44525,6.77322 -0.25802,8.69129c1.79505,1.08026 4.64457,2.71368 6.72595,3.11712c2.77639,0.53816 5.60707,0.37213 8.37649,0.99277c0,0 0.05102,0.01134 0.13488,0.01895c0.08351,0.01077 0.13579,0.01072 0.13579,0.01072l1.39746,-0.00044c4.74022,0 9.38608,0.40599 14.11257,0.40122c8.49562,0.85618 16.69049,1.79926 24.87329,4.35926c0.78292,0.24494 2.21264,0.89148 3.56214,1.33398c-1.03479,0.15502 -2.07547,0.29679 -3.11036,0.50377c-14.06714,1.56924 -27.66602,3.00048 -41.85354,3.00048c-8.84268,0 -19.86763,0.97606 -27.24723,-4.94141c-2.62857,-2.10776 -4.51955,-3.04625 -5.14146,-6.54339c0.02062,-10.02145 5.66367,-17.65279 14.55342,-21.44425c0.60244,0.09558 1.0781,-0.38067 1.0781,-0.38067l0.00948,-0.04391c0.01704,-0.01136 0.03407,-0.02278 0.05111,-0.03414c0.03143,-0.0119 0.0629,-0.02381 0.09441,-0.03563c0,0 0.32117,-0.12122 0.56395,-0.40424c0.15836,-0.1056 0.31667,-0.21181 0.47503,-0.3174c2.93224,-1.83327 6.01632,-3.77126 9.20942,-5.11527c2.48909,-1.04769 5.26925,-1.80858 7.37616,-3.65668c1.36786,-1.19984 1.41476,-2.29905 1.24409,-3.98804c-0.63954,-6.32878 -7.23269,-6.69719 -12.14704,-7.30435c-4.56529,-0.00746 -9.09364,0.18606 -13.66804,0.18606c-0.86536,0 -4.48349,0.43663 -5.20315,-0.28304c-0.38114,-0.38114 -0.61087,-5.1341 -0.4671,-5.38981c0.5506,-0.97934 2.19937,-0.52251 3.23204,-0.96508c4.59729,-1.78671 2.0123,-7.04884 5.36772,-9.81946c2.85813,-2.36001 7.40049,-0.88461 10.75995,-1.32349c0.24831,-0.03244 0.48845,-0.07054 0.72183,-0.11096c0.07881,0.03843 0.13109,0.05577 0.13109,0.05577l1.22703,0.40783c4.4812,1.24856 9.17656,3.80269 13.16613,6.08765c1.57409,0.90153 3.26557,1.51013 4.40594,2.88456z" data-paper-data="{&quot;noHover&quot;:false,&quot;origItem&quot;:[&quot;Path&quot;,{&quot;applyMatrix&quot;:true,&quot;segments&quot;:[[[246.38816,181.64959],[1.57409,0.90153],[-3.98957,-2.28496]],[[233.2389,175.55845],[4.4812,1.24856],[0,0]],[232.01305,175.15014],[[231.88207,175.09432],[0.07881,0.03843],[-0.23339,0.04042]],[[231.16106,175.20492],[0.24831,-0.03244],[-3.35945,0.43888]],[[220.41131,176.52227],[2.85813,-2.36001],[-3.35542,2.77062]],[[215.05256,186.33269],[4.59729,-1.78671],[-1.03267,0.44257]],[[211.82239,187.29518],[0.5506,-0.97934],[-0.14377,0.25572]],[[212.29222,192.6804],[-0.38114,-0.38114],[0.71966,0.71966]],[[217.40834,192.91429],[-0.86536,0],[4.57441,0]],[[231.08601,192.7167],[-4.56529,-0.00746],[4.91435,0.60716]],[[243.24897,200.01156],[-0.63954,-6.32878],[0.17067,1.68899]],[[242.05218,204.08647],[1.36786,-1.19984],[-2.10691,1.84811]],[[234.69428,207.71597],[2.48909,-1.04769],[-3.19309,1.34401]],[[225.48635,212.81443],[2.93224,-1.83327],[-0.15836,0.10559]],[[225.01126,213.13122],[0.15836,-0.1056],[-0.24278,0.28301]],[[224.44724,213.5347],[0,0],[-0.03151,0.01181]],[[224.35282,213.57027],[0.03143,-0.0119],[-0.01704,0.01136]],[[224.30171,213.60435],[0.01704,-0.01136],[0,0]],[224.29222,213.64817],[[223.21405,214.02832],[0.60244,0.09558],[-8.88974,3.79146]],[[208.65328,235.45203],[0.02062,-10.02145],[0.62191,3.49714]],[[213.7892,241.9882],[-2.62857,-2.10776],[7.37961,5.91746]],[[241.00833,246.91429],[-8.84268,0],[14.18752,0]],[[282.81656,243.92908],[-14.06714,1.56924],[1.03489,-0.20698]],[[285.9253,243.42716],[-1.03479,0.15502],[-1.3495,-0.4425]],[[282.4389,242.15845],[0.78292,0.24494],[-8.1828,-2.56]],[[257.54607,237.81273],[8.49562,0.85618],[-4.72649,0.00477]],[[243.40833,237.41429],[4.74022,0],[0,0]],[242.00833,237.41429],[[241.8723,237.40352],[0.08351,0.01077],[-0.08386,-0.00761]],[[241.73717,237.38452],[0,0],[-2.76942,-0.62064]],[[233.34689,236.38664],[2.77639,0.53816],[-2.08138,-0.40344]],[[226.61098,233.26231],[1.79505,1.08026],[-3.18723,-1.91807]],[[226.86136,224.56202],[-2.70594,2.07734],[1.80361,-1.38462]],[[233.96992,222.13723],[-2.15521,0.48035],[6.04617,-1.00367]],[[252.03383,218.6626],[-6.03574,0.86454],[0.2499,-0.62892]],[[253.03156,217.92685],[0,0],[2.89798,-0.29451]],[[258.26254,212.06464],[-1.03522,2.35998],[2.56721,-5.85242]],[[263.24166,191.55677],[4.30448,6.34097],[-2.76977,-2.76128]],[[252.53878,185.58522],[3.77024,0.93028],[-0.64566,0.21275]],[[251.24828,185.15979],[0.17848,0.20683],[-0.18853,-0.13082]],[[250.78603,184.53375],[0.0806,0.29521],[-1.14037,-1.37444]]],&quot;closed&quot;:true}]}" fill="#4c4c4c"/><path d="M253.85833,176.36429c0,1.25 -1.25,1.25 -1.25,1.25l-0.37678,-0.01256c-0.43728,-0.06353 -0.87456,-0.12705 -1.31183,-0.19058c-1.97419,0.00104 -4.23223,-0.84149 -6.14493,-0.65178c-0.8906,0.08834 -0.38635,1.81107 -0.93818,2.51567c-0.57565,0.73502 -1.46243,1.24953 -2.359,1.50991c-1.86537,0.54175 -4.05888,-1.12 -5.91979,-1.17962c-1.3646,-0.04372 -1.60476,2.61555 -3.13572,3.13851c-2.43695,0.83243 -6.4426,-0.20255 -9.08938,0.06426c0,0 -1.2438,0.12438 -1.36818,-1.11942c-0.12438,-1.2438 1.11942,-1.36818 1.11942,-1.36818c2.62085,-0.2601 6.05143,0.62777 8.51062,0.06426c1.89044,-0.43318 0.86747,-2.9867 3.66428,-3.26149c1.95656,-0.19224 3.87024,1.49897 5.68021,1.22038c1.99167,-0.30656 0.42091,-3.12196 3.10282,-3.97443c1.82812,-0.58108 5.07091,0.5472 7.05507,0.54822c0.49606,0.06981 0.99211,0.13961 1.48817,0.20942l0.02322,-0.01256c0,0 1.25,0 1.25,1.25z" fill="#fbff00"/><path d="M240.4903,211.9233c-0.55902,-1.11803 0.55902,-1.67705 0.55902,-1.67705l0.61562,-0.28387c5.93326,-1.66956 9.12373,-7.39078 7.91893,-13.54676c-0.31094,-1.58875 -1.95625,-3.41769 -2.69356,-4.89232c-2.45893,-5.23311 -11.33445,-5.56447 -16.13193,-6.53426c-2.49569,-0.5045 -5.05019,-2.04987 -7.55004,-1.97475c0,0 -1.25,0 -1.25,-1.25c0,-1.25 1.25,-1.25 1.25,-1.25c2.79964,0.05549 5.29073,1.47982 8.04996,2.02525c5.93173,1.17255 14.67644,1.73851 17.86807,7.86574c0.86818,1.73637 2.48105,3.62481 2.90644,5.50768c1.66873,7.38618 -2.6793,14.42686 -9.68107,16.45324l-0.18438,0.11613c0,0 -1.11803,0.55902 -1.67705,-0.55902z" fill="#4eff00"/><path d="M221.95833,181.76429c0,-0.69036 0.55964,-1.25 1.25,-1.25c0.69036,0 1.25,0.55964 1.25,1.25c0,0.69036 -0.55964,1.25 -1.25,1.25c-0.69036,0 -1.25,-0.55964 -1.25,-1.25z" fill="#000000"/><path d="M219.41383,228.79728c-1.23299,0.2055 -1.43849,-1.02749 -1.43849,-1.02749l-0.20735,-1.56054c0.14481,-1.13841 0.38341,-2.26825 0.70579,-3.36962c2.84458,-4.35262 6.88049,-5.70792 11.42435,-7.81647c3.88781,-1.80411 7.62129,-3.48018 11.71493,-4.84472c0,0 1.18585,-0.39528 1.58114,0.79057c0.39528,1.18585 -0.79057,1.58114 -0.79057,1.58114c-4.01662,1.33887 -7.66548,3.00063 -11.48507,4.75528c-3.8918,1.78782 -7.67685,2.93083 -10.17565,6.58353c-0.2368,0.86013 -0.38572,1.74486 -0.49421,2.63038l0.19265,0.83946c0,0 0.2055,1.23299 -1.02749,1.43849z" fill="#00ff85"/><path d="M236.45833,241.16429c0,1.25 -1.25,1.25 -1.25,1.25l-1.37678,-0.01256c-3.48189,-0.5014 -8.03185,-1.11051 -10.8262,-3.47946c-3.30284,-2.80002 -4.09183,-8.09262 -5.38288,-11.9627c0,0 -0.39528,-1.18585 0.79057,-1.58114c1.18585,-0.39528 1.58114,0.79057 1.58114,0.79057c1.09058,3.27424 1.75451,8.51531 4.61712,10.8373c2.47136,2.00464 6.55122,2.49254 9.5738,2.92054l1.02322,-0.01256c0,0 1.25,0 1.25,1.25z" fill="#00ffce"/><path d="M284.05833,242.76429c0,1.25 -1.25,1.25 -1.25,1.25l-0.37678,-0.01256c-5.69383,-0.82719 -12.77637,-0.40986 -18.45731,0.4015c-3.3746,0.41706 -6.49946,-0.35413 -9.85453,-0.59208c-6.30823,-0.4474 -12.82423,-1.43399 -19.11139,-1.39686c0,0 -1.25,0 -1.25,-1.25c0,-1.25 1.25,-1.25 1.25,-1.25c6.36676,0.03093 12.90352,0.94402 19.28861,1.40314c3.16609,0.22766 6.16689,1.01025 9.34547,0.60792c5.90706,-0.84407 13.21564,-1.23257 19.14269,-0.3985l0.02322,-0.01256c0,0 1.25,0 1.25,1.25z" fill="#00c3ff"/></g></g></svg>