<svg version="1.1" xmlns="http://www.w3.org/2000/svg" xmlns:xlink="http://www.w3.org/1999/xlink" width="128.68162" height="103.68567" viewBox="0,0,128.68162,103.68567"><g transform="translate(-181.81838,-166.23913)"><g data-paper-data="{&quot;isPaintingLayer&quot;:true}" fill-rule="nonzero" stroke="none" stroke-linecap="butt" stroke-linejoin="miter" stroke-miterlimit="10" stroke-dasharray="" stroke-dashoffset="0" style="mix-blend-mode: normal"><path d="M293,258.875c-1.25,0 -1.25,-1.25 -1.25,-1.25l0.00426,-1.1469c-1.07817,-6.40279 -6.83704,-11.67765 -13.5946,-11.61334c-1.31693,0.01253 -3.14381,3.25118 -4.33768,3.8717c-1.91316,0.99438 -5.22482,0.49434 -7.08405,-0.22116c-5.57908,-2.8442 -6.95522,-9.39106 -7.98793,-15.33667c0,0.14879 0,0.29758 0,0.44637c0,6.8524 0.21245,13.7516 -0.25242,20.57767c-0.2575,3.78118 -1.23718,7.55026 -1.25967,11.3457c-0.29683,0.83184 -0.27517,1.86193 -0.8905,2.49553c-2.95259,3.04025 -7.19837,-3.01731 -8.02043,-5.23702c-1.27966,-3.45528 -1.50046,-7.20709 -1.82272,-10.82879c-0.11645,-1.30873 -0.42786,-2.63425 -0.64607,-3.95149c-1.18836,4.43519 -2.76701,8.95462 -4.76243,12.9499c-1.27314,2.1219 -2.16484,4.7334 -3.63607,6.69942c-1.96438,2.62503 -6.53463,3.43462 -7.66729,-0.22813c-1.41023,-4.56036 -0.2044,-12.25199 0.7076,-16.94343v-0.37938c0,-2.82006 0.14828,-5.52254 0.50242,-8.32767c-0.00674,-3.26919 0.37771,-6.49548 0.59785,-9.75048c-0.59518,0.87542 -1.28507,1.73008 -1.81031,2.52169c-4.30066,6.4817 -9.90252,11.84994 -13.3851,18.78481c-1.11495,3.34485 -2.98227,7.17604 -5.92396,9.2857c-5.49406,3.94011 -16.90337,-0.3621 -20.08176,-5.92195c-1.58188,-2.76713 -1.39913,-6.77094 -1.39913,-9.8421c0.00671,-1.36286 0.21237,-2.7296 0.53732,-4.05317l0.25,-1c0,0 0.30317,-1.21268 1.51585,-0.90951c1.21268,0.30317 0.90951,1.51585 0.90951,1.51585l-0.25,1c-0.28667,1.12324 -0.46948,2.2876 -0.46268,3.44683c0,2.641 -0.25907,6.27661 1.10087,8.6579c2.3948,4.19336 12.2298,8.18228 16.41824,5.07805c2.54743,-1.88801 4.10021,-5.28681 5.07604,-8.2143c3.54571,-7.12031 9.21457,-12.58442 13.6149,-19.21519c0.83642,-1.26038 2.12363,-2.65812 2.6351,-4.03481c0.39138,-1.05345 0.31849,-2.50061 0.23424,-3.82719c-0.75162,0.28082 -1.52538,0.52203 -2.22788,0.9013c-2.7412,1.47994 -5.38885,3.04964 -8.08225,4.6395c-1.26255,1.27706 -2.85716,2.24375 -4.06015,3.56637c-2.61311,2.87296 -2.74054,5.91621 -7.23608,6.92832c-4.22337,0.95083 -6.41468,-2.61762 -5.96367,-6.38267c0.48694,-4.06502 3.28113,-9.02855 5.52396,-12.38976c5.39819,-5.41021 11.75398,-7.71695 18.88391,-9.66241c0.63016,-0.17194 1.25484,-0.3778 1.87648,-0.60208c-1.2027,0.11705 -2.41636,0.17916 -3.66688,0.05089c-2.65815,-0.27265 -5.81804,-2.9479 -8.47805,-2.5028c-1.87869,0.31436 -3.66235,2.02808 -5.20129,3.0462c-2.29377,1.51749 -4.98007,2.41442 -7.60408,3.16459c-3.96705,1.13344 -8.70349,2.10334 -12.84473,1.27257c-5.90964,-1.18553 -11.89719,-5.95547 -8.8667,-12.28349l1.05902,-0.80902c0,0 1.11803,-0.55902 1.67705,0.55902c0.55902,1.11803 -0.55902,1.67705 -0.55902,1.67705l0.05902,-0.30902c-1.96971,3.71336 0.67047,5.80409 3.9079,7.30701c4.80403,2.23019 9.87347,1.61269 14.88066,0.18207c2.36021,-0.67393 4.84031,-1.45312 6.89592,-2.83541c1.9274,-1.29608 3.92647,-3.05954 6.29871,-3.4538c3.14455,-0.52263 5.97742,2.20827 9.02195,2.4972c0.7671,0.0728 1.51973,0.07476 2.26457,0.03748c-1.02146,-0.42917 -2.00898,-0.93033 -2.86863,-1.52951c-7.18483,-5.00784 -8.14055,-14.6731 -10.69284,-22.33411c-3.6145,-9.13365 -15.08526,-6.96698 -20.69239,-1.29606l-0.94051,0.65618c0,0 -1.04006,0.69338 -1.73344,-0.34669c-0.69338,-1.04006 0.34669,-1.73344 0.34669,-1.73344l0.55949,-0.34382c1.78701,-1.76981 4.7488,-4.21607 7.23815,-5.04421c6.83688,-2.27443 14.8251,0.44555 17.56947,7.24814c3.13217,9.39186 4.97278,22.74466 16.82332,23.85613c-1.92213,-1.39036 -3.54132,-3.24572 -4.64914,-5.46136c-4.48928,-7.91666 -4.13584,-18.84607 1.74832,-25.79779c0.6912,-0.81661 1.26137,-1.51035 1.88502,-2.08931c0.05571,-0.45745 0.38487,-0.78661 0.38487,-0.78661l0.1078,-0.09698c0.2974,-0.36767 0.5948,-0.73534 0.8922,-1.10301c5.87074,-4.67409 14.10515,-1.44982 19.74105,2.02057c2.22937,1.37276 4.07497,2.67465 5.12079,5.24509c1.34343,3.30192 -0.05373,8.40061 -0.75782,11.68982c-1.28081,5.54701 -2.64785,12.62765 -7.4614,16.32179c-0.30206,0.23182 -0.60866,0.44885 -0.91919,0.6514c1.81841,0.09462 3.49662,0.49432 5.08244,1.09696c0.13828,-0.21573 0.29714,-0.34283 0.29714,-0.34283c2.15804,-1.70801 3.81989,-4.02032 5.98838,-5.74059c2.97044,-2.35646 6.63116,-3.81229 8.71248,-7.16267c1.83691,-2.95695 1.08001,-8.57631 1.08001,-11.87065c0.00651,-3.95503 -1.11952,-8.73384 0.05182,-12.60618c2.39682,-7.92364 13.54932,-7.72427 19.66242,-5.30441l-0.21424,-0.0894c0,0 1.25,0 1.25,1.25c0,1.25 -1.25,1.25 -1.25,1.25l-0.71424,-0.0894c-4.40053,-1.78194 -8.19902,-1.90819 -12.51929,0.10326c-1.78976,0.83328 -3.23085,1.60976 -3.81829,3.59233c-1.06737,3.60232 0.04628,8.21429 0.05182,11.89382c0,3.91893 0.65243,9.58889 -1.41999,13.12935c-2.16456,3.69787 -6.07696,5.3007 -9.28752,7.83733c-1.13137,0.89388 -2.12771,1.9432 -3.1256,2.98889c2.25097,-1.10159 4.32381,-2.54588 6.77569,-3.16718c3.35245,-0.84949 7.19028,-1.25707 10.61132,-0.50089c4.52903,1.00109 8.87971,5.27559 12.82127,7.63006c1.22951,0.68312 3.13064,2.09696 4.61121,2.35499c7.7304,1.34721 12.5316,-9.22277 13.53062,-15.22805l-0.01701,-0.0445c0,0 0,-1.25 1.25,-1.25c1.25,0 1.25,1.25 1.25,1.25l-0.01701,0.4555c-1.23968,7.4249 -7.18305,19.0084 -16.46938,17.27195c-1.82111,-0.34053 -3.82784,-1.7779 -5.38879,-2.64501c-3.11459,-1.87593 -6.05642,-3.96473 -9.23627,-5.74219c-0.59391,-0.33198 -2.0106,-1.43644 -2.94245,-1.62775c-3.32905,-0.68346 -7.80428,-0.39 -10.94949,0.93462c-2.31738,0.97598 -4.30668,2.5008 -6.68765,3.39189c3.17305,1.89693 6.10324,4.33858 9.27822,6.28275c1.86196,2.40959 3.93459,4.97384 6.23183,6.98393c1.80219,1.57691 4.27139,3.72823 4.89756,6.15713c0.69381,2.69125 -0.01761,7.45848 -1.77946,9.61444c-2.43991,2.98569 -6.38954,1.37496 -8.36851,-0.9936c-3.32474,-3.35799 -5.83035,-7.81326 -7.93662,-12.02463c-0.28847,-0.57679 -0.58527,-1.14967 -0.89187,-1.71721c0.84282,5.89485 1.4122,16.2933 7.52197,19.26789c1.0715,0.45404 3.8091,0.93104 4.91595,0.27884c1.94096,-1.14369 2.63526,-3.8375 5.16232,-4.1283c2.96604,-0.34132 5.40089,1.1842 7.91987,2.34863c4.95678,2.29133 7.58608,6.09662 8.48553,11.53803l0.00426,1.3531c0,0 0,1.25 -1.25,1.25zM256.25,220.375c0.75,-1 1.75,-0.25 1.75,-0.25c0.40331,0.33258 0.72164,0.68184 0.97476,1.04638c1.19239,0.45727 2.00502,2.04642 2.60389,3.07193c2.93269,5.02198 5.1675,10.65939 9.35276,14.79803c4.07235,5.40612 6.7105,-2.7673 5.85203,-6.37916c-0.43802,-1.84291 -2.75884,-3.66722 -4.10244,-4.84287c-2.2859,-2.00016 -4.49211,-4.55512 -6.26817,-7.01607c-5.4196,-3.17718 -10.29391,-8.83109 -17.16283,-8.67825l-1.30317,-0.28732c0,0 -0.69607,-0.17402 -0.90165,-0.78573c-2.75762,1.01516 -5.66943,1.07069 -8.3792,0.34553c-0.25792,0.61049 -0.9892,0.71496 -0.9892,0.71496c-3.23675,0.42843 -6.40828,2.34282 -9.59401,3.21745c-6.60196,1.81255 -12.58467,3.8216 -17.61609,8.83759c-1.99007,2.98861 -4.49928,7.49442 -4.97604,11.11024c-0.28253,2.14272 0.47221,4.23104 3.03633,3.61733c3.55756,-0.85148 3.62002,-3.70989 5.76392,-6.07168c1.31778,-1.45172 3.04271,-2.55055 4.43985,-3.93363c3.43485,-2.08817 6.83343,-4.29408 10.51962,-5.91054c0.492,-0.21575 3.89841,-1.59106 4.45043,-1.13929c0.64595,0.52864 0.54921,3.29038 0.54921,4.28508c0,5.32644 -0.7428,10.54351 -0.75242,15.82767c-0.34141,2.75691 -0.49758,5.40166 -0.49758,8.17233v0.75c0,0 0,0.29285 -0.14174,0.59505c-0.68926,3.69697 -0.85826,7.93071 -0.85826,11.65495c0,0.42354 -0.26501,3.79814 0.29937,4.28901c1.58323,1.37703 3.72089,-2.40937 4.09854,-3.12883c0.79631,-1.51705 1.62465,-3.04221 2.50634,-4.51169c2.54215,-5.07782 4.61953,-11.39913 5.62003,-16.89363l0.24546,-1.22729c0.10493,-0.58424 0.61583,-1.02756 1.23027,-1.02756c0.5753,0 1.05983,0.38865 1.20535,0.91771l0.7103,2.36767l-0.42903,0.12871c1.89886,5.71884 1.11683,12.0782 3.18639,17.90402c0.42362,1.19249 3.77726,6.1188 4.08906,3.25851c-0.02469,-3.72256 0.99869,-7.44438 1.24033,-11.1543c0.44145,-6.77744 0.24758,-13.61939 0.24758,-20.42233c0,-2.75 0,-5.5 0,-8.25c0,-0.65079 -0.04391,-2.50412 0.18982,-3.3007c-0.20445,-0.18421 -0.82528,-0.85202 -0.18982,-1.6993z" fill="#000000" stroke-width="0.5"/><path d="M248.66667,232.375l-6.66667,-21.91667c0,0 6.48636,-1.77458 13.03234,0.23866c4.41759,1.35865 8.13624,5.89458 12.66697,8.34485c3.26088,1.76353 5.64114,6.42307 8.07579,8.20001c1.19058,0.86895 2.64048,2.61526 3.13259,4.12327c0.78721,2.41231 0.77985,4.09549 0.83529,4.94687c0.10665,1.63781 -2.75155,5.70931 -4.67334,6.60541c-2.00827,0.93642 -3.65297,-0.95908 -3.65297,-0.95908c0,0 -3.79374,-2.42401 -6.92143,-7.20368c-3.50623,-5.35813 -6.38935,-13.12045 -6.38113,-12.75255c0.04877,2.18261 0.30256,13.53956 0.30256,13.53956z" fill="#a5ff99" stroke-width="0"/><path d="M256.47288,222.03679c-0.23374,0.79658 -0.18627,2.65337 -0.18627,3.30416c0,2.75 0.01009,5.5162 0.01009,8.2662c0,6.80294 0.18269,13.69792 -0.25876,20.47536c-0.24165,3.70992 -1.27729,7.44082 -1.2526,11.16338c-0.3118,2.86029 -3.70808,-2.15638 -4.1317,-3.34886c-2.06957,-5.82582 -1.30836,-12.16882 -3.20722,-17.88766l0.42775,-0.1269l-0.71588,-2.35664c-0.14552,-0.52907 -0.53458,-0.88831 -1.10988,-0.88831c-0.61444,0 -1.13152,0.4576 -1.23645,1.04183l-0.25318,1.2367c-1.0005,5.4945 -3.11795,11.82931 -5.6601,16.90713c-0.88169,1.46948 -1.7139,2.99405 -2.51021,4.5111c-0.37765,0.71946 -2.52097,4.50442 -4.1042,3.12739c-0.56438,-0.49087 -0.3023,-3.8665 -0.3023,-4.29004c0,-3.72424 0.15867,-7.96344 0.84793,-11.66041c0.14174,-0.30221 0.1411,-0.5955 0.1411,-0.5955l-0.0013,-0.75096c0,-2.77067 0.13907,-5.43934 0.48048,-8.19625c0.00961,-5.28416 0.77665,-10.56138 0.77665,-15.88781c0,-0.99471 0.13956,-3.66616 -0.50639,-4.1948c-0.55202,-0.45177 -3.94864,0.91798 -4.44064,1.13373c-3.68618,1.61646 -7.0689,3.80311 -10.50374,5.89128c-1.39714,1.38308 -3.11879,2.47259 -4.43657,3.92431c-2.14389,2.3618 -2.20494,5.2091 -5.7625,6.06059c-2.56412,0.61371 -3.41853,-1.48107 -3.136,-3.62379c0.47677,-3.61582 2.99084,-8.13811 4.98091,-11.12672c5.03142,-5.016 11.03501,-7.04676 17.63697,-8.85931c3.18573,-0.87463 6.37479,-2.79471 9.61154,-3.22314c0,0 0.73318,-0.10468 0.9911,-0.71516c2.70977,0.72516 5.63619,0.67046 8.39381,-0.3447c0.20558,0.61171 0.90344,0.78614 0.90344,0.78614l1.30544,0.28793c6.86892,-0.15284 11.76931,5.51936 17.18891,8.69654c1.77606,2.46095 3.98895,5.02833 6.27485,7.02849c1.3436,1.17565 3.66661,3.00792 4.10464,4.85083c0.34389,1.44684 0.11078,3.62724 -0.554,5.37382c-0.99476,2.61354 -2.95611,4.25572 -5.39716,1.01519c-4.18526,-4.13864 -6.41022,-9.74682 -9.34291,-14.7688c-0.59887,-1.02551 -1.4063,-2.60871 -2.59868,-3.06597c-0.25311,-0.36454 -0.56939,-0.7119 -0.9727,-1.04449c0,0 -0.99817,-0.74848 -1.74817,0.25152c-0.63546,0.84728 0.04948,1.43838 0.25393,1.6226z" data-paper-data="{&quot;noHover&quot;:false,&quot;origItem&quot;:[&quot;Path&quot;,{&quot;applyMatrix&quot;:true,&quot;segments&quot;:[[[256.25,220.375],[-0.63546,0.84728],[0.75,-1]],[[258,220.125],[0,0],[0.40331,0.33258]],[[258.97476,221.17138],[-0.25311,-0.36454],[1.19239,0.45727]],[[261.57865,224.24332],[-0.59887,-1.02551],[2.93269,5.02198]],[[270.93141,239.04135],[-4.18526,-4.13864],[4.07235,5.40612]],[[276.78344,232.66219],[0.85847,3.61186],[-0.43802,-1.84291]],[[272.681,227.81932],[1.3436,1.17565],[-2.2859,-2.00016]],[[266.41283,220.80325],[1.77606,2.46095],[-5.4196,-3.17718]],[[249.25,212.125],[6.86892,-0.15284],[0,0]],[247.94683,211.83768],[[247.04518,211.05195],[0.20558,0.61171],[-2.75762,1.01516]],[[238.66598,211.39748],[2.70977,0.72516],[-0.25792,0.61049]],[[237.67678,212.11244],[0,0],[-3.23675,0.42843]],[[228.08277,215.32989],[3.18573,-0.87463],[-6.60196,1.81255]],[[210.46668,224.16749],[5.03142,-5.016],[-1.99007,2.98861]],[[205.49063,235.27773],[0.47677,-3.61582],[-0.28253,2.14272]],[[208.52697,238.89506],[-2.56412,0.61371],[3.55756,-0.85148]],[[214.29089,232.82337],[-2.14389,2.3618],[1.31778,-1.45172]],[[218.73073,228.88974],[-1.39714,1.38308],[3.43485,-2.08817]],[[229.25035,222.9792],[-3.68618,1.61646],[0.492,-0.21575]],[[233.70079,221.83992],[-0.55202,-0.45177],[0.64595,0.52864]],[[234.25,226.125],[0,-0.99471],[0,5.32644]],[[233.49758,241.95267],[0.00961,-5.28416],[-0.34141,2.75691]],[[233,250.125],[0,-2.77067],[0,0]],[233,250.875],[[232.85826,251.47005],[0.14174,-0.30221],[-0.68926,3.69697]],[[232,263.125],[0,-3.72424],[0,0.42354]],[[232.29937,267.41401],[-0.56438,-0.49087],[1.58323,1.37703]],[[236.39791,264.28518],[-0.37765,0.71946],[0.79631,-1.51705]],[[238.90424,259.77349],[-0.88169,1.46948],[2.54215,-5.07782]],[[244.52427,242.87985],[-1.0005,5.4945],[0,0]],[[244.76973,241.65256],[0,0],[0.10493,-0.58424]],[[246,240.625],[-0.61444,0],[0.5753,0]],[[247.20535,241.54271],[-0.14552,-0.52907],[0,0]],[247.91565,243.91038],[[247.48663,244.03909],[0,0],[1.89886,5.71884]],[[250.67302,261.94311],[-2.06957,-5.82582],[0.42362,1.19249]],[[254.76208,265.20162],[-0.3118,2.86029],[-0.02469,-3.72256]],[[256.00242,254.04733],[-0.24165,3.70992],[0.44145,-6.77744]],[[256.25,233.625],[0,6.80294],[0,-2.75]],[[256.25,225.375],[0,2.75],[0,-0.65079]],[[256.43982,222.0743],[-0.23374,0.79658],[-0.20445,-0.18421]]],&quot;closed&quot;:true}]}" fill="#ffd200" stroke-width="0.5"/><path d="M241.08333,194.91667c0,-0.69036 0.55964,-1.25 1.25,-1.25c0.69036,0 1.25,0.55964 1.25,1.25c0,0.69036 -0.55964,1.25 -1.25,1.25c-0.69036,0 -1.25,-0.55964 -1.25,-1.25z" fill="#ffec99" stroke-width="0.5"/><path d="M241.75,202.91667c0,-0.69036 0.55964,-1.25 1.25,-1.25c0.69036,0 1.25,0.55964 1.25,1.25c0,0.69036 -0.55964,1.25 -1.25,1.25c-0.69036,0 -1.25,-0.55964 -1.25,-1.25z" fill="#ffec99" stroke-width="0.5"/><path d="M241.83333,192.16667c-1.25,0 -1.25,-1.25 -1.25,-1.25v-0.33333c0,-1.1399 0.04456,-2.2699 0.10707,-3.39562c-0.96679,-0.01547 -1.92238,-0.0215 -2.85707,-0.02105c-1.63006,0.00079 -3.19195,-0.28082 -4.67427,0.39893c0,0 -1.14893,0.4924 -1.64133,-0.65653c-0.4924,-1.14893 0.65653,-1.64133 0.65653,-1.64133c2.62478,-1.07312 5.69536,-0.82437 8.66821,-0.49267c0.12188,-1.83417 0.24086,-3.66767 0.24086,-5.52507c0,0 0,-1.25 1.25,-1.25c1.25,0 1.25,1.25 1.25,1.25c0,1.95078 -0.13101,3.87354 -0.25891,5.79792c0.53159,0.05175 1.05458,0.09437 1.56555,0.12003c2.10073,0.1055 4.17038,-0.08319 6.26507,0.17504l0.73731,0.28898c0,0 1.11803,0.55902 0.55902,1.67705c-0.55902,1.11803 -1.67705,0.55902 -1.67705,0.55902l0.07064,-0.04435c-2.45346,-0.31144 -5.06601,-0.48451 -7.65794,-0.57383c-0.06073,1.10507 -0.10368,2.21437 -0.10368,3.33348v0.33333c0,0 0,1.25 -1.25,1.25z" fill="#ffec99" stroke-width="0.5"/><path d="M291.85472,262.64419c-1.18585,-0.39528 -0.79057,-1.58114 -0.79057,-1.58114l0.18585,-0.35472c0.00571,-1.28872 0.25693,-2.46693 0.25,-3.75c0,0 0,-1.25 1.25,-1.25c1.25,0 1.25,1.25 1.25,1.25c-0.00571,1.28872 -0.25693,2.46693 -0.25,3.75l-0.31415,1.14528c0,0 -0.39528,1.18585 -1.58114,0.79057z" fill="#ffec99" stroke-width="0.5"/><path d="M191.49515,234.98261c1.22573,0.24515 0.98058,1.47087 0.98058,1.47087l-0.23181,1.12803c0.00358,1.47921 -0.24722,2.89514 -0.24392,4.37683c0,0 0,1.25 -1.25,1.25c-1.25,0 -1.25,-1.25 -1.25,-1.25c0.0031,-1.56499 0.25251,-3.06186 0.25608,-4.62317l0.26819,-1.37197c0,0 0.24515,-1.22573 1.47087,-0.98058z" fill="#ffec99" stroke-width="0.5"/><path d="M186.03968,201.66173c0.08564,-0.36966 0.35611,-0.9534 1.21032,-0.9534c1.25,0 1.25,1.25 1.25,1.25l-0.36612,1.13388c-1.30845,1.30226 -1.87431,2.09738 -3.57487,2.98415c0,0 -1.11803,0.55902 -1.67705,-0.55902c-0.55902,-1.11803 0.55902,-1.67705 0.55902,-1.67705c1.2764,-0.60027 1.72219,-1.24893 2.5987,-2.17857z" fill="#ffec99" stroke-width="0.5"/><path d="M188.60472,190.39419c-1.18585,-0.39528 -0.79057,-1.58114 -0.79057,-1.58114l0.43585,-1.10472c0.95924,-1.27793 1.82369,-2.614 2.70994,-3.94338c0,0 0.69338,-1.04006 1.73344,-0.34669c1.04006,0.69338 0.34669,1.73344 0.34669,1.73344c-0.91199,1.36799 -1.80396,2.74079 -2.79006,4.05662l-0.06415,0.39528c0,0 -0.39528,1.18585 -1.58114,0.79057z" fill="#ffec99" stroke-width="0.5"/><path d="M308.19683,189.49566c1.21268,-0.30317 1.51585,0.90951 1.51585,0.90951l0.27767,1.14813c0.36647,2.95947 0.25965,5.92576 0.25965,8.90504c0,0 0,1.25 -1.25,1.25c-1.25,0 -1.25,-1.25 -1.25,-1.25c0,-2.87248 0.11975,-5.74303 -0.24035,-8.59496l-0.22233,-0.85187c0,0 -0.30317,-1.21268 0.90951,-1.51585z" fill="#ffec99" stroke-width="0.5"/><path d="M296.13388,174.09222c-0.88388,0.88388 -1.76777,0 -1.76777,0l-0.61612,-0.63388c-1.59078,-1.22389 -2.38022,-2.62325 -4.14312,-3.67813c0,0 -1.07187,-0.64312 -0.42875,-1.71499c0.64312,-1.07187 1.71499,-0.42875 1.71499,-0.42875c1.83605,1.10435 2.71495,2.63416 4.35688,3.82187l0.88388,0.86612c0,0 0.88388,0.88388 0,1.76777z" fill="#ffec99" stroke-width="0.5"/><path d="M256.5,235.70833c-0.38094,0 -0.64579,-0.11609 -0.82993,-0.27752c-2.18082,-0.13295 -4.15371,-0.71348 -6.3383,-1.04452c-2.522,-1.50427 -3.68834,-3.03375 -2.78376,-6.0211c0.43557,-1.43845 1.16318,-2.77251 1.79713,-4.13521c0.22019,-0.47331 0.91353,-1.32639 0.42396,-1.50759c-2.07569,-0.76826 -5.96889,-0.83599 -7.58243,-3.10689c-0.79769,-1.12267 0.06331,-5.91095 0.06331,-7.40716c0,0 0,-1.25 1.25,-1.25c1.25,0 1.25,1.25 1.25,1.25c0,1.34141 0.12434,2.78714 -0.00608,4.12317c-0.0653,0.66888 -0.9194,1.50842 -0.4306,1.96966c2.42981,2.29284 7.55133,0.82381 7.93669,4.90716c0.29507,3.12668 -4.89998,6.50467 -1.08178,8.82204c2.17734,0.28998 4.09841,0.94002 6.33178,0.92796l1.25,1.5c0,0 0,1.25 -1.25,1.25z" fill="#a5ff99" stroke-width="0.5"/></g></g></svg>