<svg version="1.1" xmlns="http://www.w3.org/2000/svg" xmlns:xlink="http://www.w3.org/1999/xlink" width="34.31051" height="32.14502" viewBox="0,0,34.31051,32.14502"><g transform="translate(-234.74089,-192.40696)"><g data-paper-data="{&quot;isPaintingLayer&quot;:true}" fill-rule="nonzero" stroke="none" stroke-width="0.5" stroke-linecap="butt" stroke-linejoin="miter" stroke-miterlimit="10" stroke-dasharray="" stroke-dashoffset="0" style="mix-blend-mode: normal"><path d="M250.79837,194.45038c0.30762,-1.20015 1.51313,-0.89877 1.51313,-0.89877l0.89212,0.22682c4.52037,1.51847 10.83844,4.39884 13.52761,8.43666c2.52157,7.64399 -1.31342,19.1005 -10.3865,19.99173c-5.4956,0.53982 -10.98037,-2.45633 -15.16365,-5.70544c-2.32743,-2.32406 -4.70097,-4.94518 -5.21066,-8.36372c-1.26277,-8.46954 7.22428,-14.2033 14.82796,-13.68728z" fill="#b76a00"/><path d="M243.01537,197.67946c-2.89757,2.31929 -6.11995,4.97306 -5.75994,9.19964c0.17044,2.00097 1.36505,3.34045 1.93244,5.07143c0.74609,2.27614 -0.79517,4.4808 1.62614,5.83142c2.66492,0.34474 4.57558,1.93914 7.02801,2.80999c4.92,1.74707 13.96348,3.08801 16.84036,-2.77053c0.91798,-1.8694 1.42435,-4.36163 1.88342,-6.39351c-0.01484,-3.30775 -0.15518,-7.68707 -2.82826,-10.16682c-1.26078,-1.16959 -2.95083,-0.91511 -4.4349,-1.55364c-1.36244,-0.5862 -2.74962,-1.73496 -4.07748,-2.43752c-3.01676,-1.59615 -7.36678,-4.01605 -10.04074,-0.52476l-0.6922,0.70301c0,0 -0.69988,0.69988 -1.47685,0.23129zM242.98132,195.42901l0.25093,-0.24559c5.27361,-6.39812 11.72668,-0.04535 17.08178,2.23773c1.90144,0.81065 3.46995,0.50374 5.1651,2.04636c3.27913,2.98406 3.58733,8.1887 3.57174,12.23318c-0.49918,2.27682 -1.0567,5.11401 -2.11658,7.20649c-3.60846,7.12401 -13.63188,6.30033 -19.95964,4.02947c-2.44845,-0.87868 -4.336,-2.38342 -6.97199,-2.79001c-0.61575,-0.35619 -1.32972,-0.58053 -1.84726,-1.06856c-2.06562,-1.9478 -0.57553,-4.10404 -1.3266,-6.30003c-0.63602,-1.85961 -1.93262,-3.54688 -2.06756,-5.72857c-0.32137,-5.19571 3.21566,-8.54082 6.86623,-11.46127c0,0 0.67662,-0.5413 1.35385,-0.15919z" fill="#613900"/></g></g></svg>