<svg version="1.1" xmlns="http://www.w3.org/2000/svg" xmlns:xlink="http://www.w3.org/1999/xlink" width="134.80565" height="171.27417" viewBox="0,0,134.80565,171.27417"><g transform="translate(-180.61454,-112.33408)"><g data-paper-data="{&quot;isPaintingLayer&quot;:true}" fill-rule="nonzero" stroke="none" stroke-width="0.5" stroke-linecap="butt" stroke-linejoin="miter" stroke-miterlimit="10" stroke-dasharray="" stroke-dashoffset="0" style="mix-blend-mode: normal"><path d="M292.89347,274.33408c0,1.25 -1.25,1.25 -1.25,1.25l-1.2055,-0.01701c-2.58274,-0.43844 -5.18018,-0.03674 -7.76483,-0.50256c-1.72801,-0.31144 -3.15519,-1.12869 -4.82576,-1.25682c0.5622,1.60909 0.80352,3.43506 0.76265,5.31358c-1.12586,2.2627 -4.36059,5.60619 -7.44491,4.11766c-1.98741,-0.95915 -2.94639,-5.31094 -2.20118,-7.31861c0.68637,-1.84915 2.69391,-3.21747 4.8936,-3.9827c-1.06234,-0.9794 -2.55847,-1.51865 -4.62545,-1.35668c-0.79239,0.06209 -1.70647,-0.16484 -2.36855,0.27491c-0.6497,0.43153 -0.78811,3.57349 -1.06812,4.21353c-1.88441,4.30738 -6.26696,5.26991 -10.49055,5.26155c-2.50282,-0.35322 -3.60681,-0.47553 -5.65926,-1.99526c-1.70332,-1.26122 -2.98496,-2.51279 -4.2595,-4.26152c-4.06963,-5.58373 -1.93283,-11.53523 0.58412,-17.17133c0.87145,-1.95141 0.12639,-5.99031 -0.0752,-8.00648c0.05319,-4.56833 -2.96309,-8.9566 -4.51544,-13.18175c-1.40715,0.28102 -2.98888,0.29203 -4.2972,0.78989c-3.91862,1.46904 -8.36992,2.80591 -8.43939,7.79491c-0.06134,4.40465 8.39892,10.3812 11.61659,6.6508l-0.36611,0.13388c0,0 0,-1.25 1.25,-1.25c1.25,0 1.25,1.25 1.25,1.25l-0.36612,1.63388c-6.46247,5.93719 -18.47742,-3.89167 -15.29979,-11.83463c1.63643,-4.09051 5.74209,-5.31864 9.477,-6.71967c1.32167,-0.48932 3.04752,-0.49504 4.4735,-0.81548c-0.75939,-3.34656 -0.6446,-6.83036 -0.47842,-10.268c-0.63915,0.43508 -1.3865,0.75617 -2.24416,0.96432c-0.77951,0.18918 -1.62441,0.3396 -2.51426,0.45553c-0.40121,1.78268 -0.13521,3.56782 -1.25421,5.27214c-2.15814,3.28704 -6.18319,5.28458 -9.86888,6.0458c-3.06587,0.01975 -6.09664,0.38714 -8.73826,2.06076c-3.38617,2.14533 -4.45813,8.37604 -2.81685,11.89938c1.51013,3.24182 3.9465,5.41047 6.71409,7.62454c3.27964,3.27511 5.33405,5.69162 5.90773,10.53487c0.16359,1.38115 0.5782,3.10189 -0.12335,4.45556c-0.86083,1.66099 -3.16397,3.07119 -4.72492,4.01285l-1.25,0.75c0,0 -1.07186,0.64312 -1.71498,-0.42874c-0.64312,-1.07187 0.42874,-1.71499 0.42874,-1.71499l1.25,-0.75c1.17905,-0.70306 3.07259,-1.7642 3.77508,-2.98715c0.34221,-0.59574 -0.08128,-2.68398 -0.12335,-3.04444c-0.49514,-4.24257 -2.2408,-6.1096 -5.09227,-8.96513c-2.96875,-2.375 -5.71406,-4.84971 -7.28591,-8.37547c-1.97545,-4.43103 -0.90353,-10.78427 2.50861,-14.21218c2.75202,-2.76472 7.35808,-3.33621 11.03338,-3.34709c2.96517,-0.56715 6.27426,-2.35142 8.03402,-4.93479c0.75357,-1.10625 0.73096,-2.39931 0.83945,-3.66323c-4.29477,0.25769 -9.1267,-0.10444 -12.63272,-0.69488c-4.84629,-1.91108 -10.11189,-0.28651 -12.86221,4.47296c-2.58293,4.46981 -2.84892,10.98906 -3.56567,16.01442c-0.79994,4.79962 -0.57446,8.72062 1.29578,13.01014c0.23897,-0.18093 0.58213,-0.29039 1.06232,-0.15319c1.20191,0.3434 0.8585,1.5453 0.8585,1.5453l-0.49241,1.72343c-0.14026,0.53694 -0.6286,0.93317 -1.2095,0.93317c-0.41415,0 -0.78127,-0.20142 -1.00873,-0.51164l-0.74127,-0.98836l0.02898,-0.02173l-0.09229,-0.07111c-2.66124,-5.28512 -3.14264,-10.02439 -2.17198,-15.84831c0.77238,-5.3981 1.12261,-12.20002 3.93433,-16.98559c3.25904,-5.54691 9.82408,-7.8929 15.63779,-5.52703c3.92233,0.64436 8.53686,0.51833 12.6564,0.28955c0.28052,-0.74838 0.61419,-1.50847 1.00016,-2.25004c-3.66589,-1.37985 -7.45368,-4.1096 -9.76804,-5.20119c-1.62536,-0.76662 -3.65988,-0.6365 -5.39767,-0.63698c-2.09372,0.20255 -2.61806,1.1751 -4.53416,2.12807c-2.67679,1.3313 -5.51054,1.36097 -8.07061,3.14411c-3.09925,2.15869 -4.90398,5.44022 -7.74524,7.74662c-1.87502,1.52205 -4.81188,1.61254 -6.92847,2.60652c-1.13252,0.53185 -2.15805,1.28019 -3.30679,1.77604l-2.05142,-0.5309c0,0 -1.11803,-0.55902 -0.55902,-1.67705c0.55901,-1.11803 1.67705,-0.55901 1.67705,-0.55901l-0.05141,0.4691c1.1132,-0.47324 2.09597,-1.21479 3.19321,-1.72396c1.90391,-0.88351 4.90437,-1.01437 6.57154,-2.39348c1.89884,-1.57075 3.25857,-3.98859 5.144,-5.66503c1.4221,-1.26447 3.08158,-2.58943 4.78019,-3.43938c1.99519,-0.99836 4.30507,-1.02088 6.25995,-2.00486c2.24742,-1.13123 2.84417,-1.99528 5.46584,-2.37193c1.08972,-0.00026 2.22045,-0.01717 3.33435,0.08037c-1.86258,-0.82712 -3.78592,-1.83781 -5.50136,-1.55077c-1.87869,0.31436 -3.66235,2.02808 -5.20129,3.0462c-2.29377,1.51749 -4.98007,2.41442 -7.60408,3.16459c-3.96705,1.13344 -8.70349,2.10334 -12.84473,1.27257c-5.90964,-1.18553 -11.89719,-5.95547 -8.8667,-12.28349l1.05902,-0.80902c0,0 1.11803,-0.55902 1.67705,0.55902c0.55902,1.11803 -0.55902,1.67705 -0.55902,1.67705l0.05902,-0.30902c-1.96971,3.71336 0.67047,5.80409 3.9079,7.30701c4.80403,2.23019 9.87347,1.61269 14.88066,0.18207c2.36021,-0.67393 4.84031,-1.45312 6.89592,-2.83541c1.9274,-1.29608 3.92647,-3.05954 6.29871,-3.4538c2.64892,-0.44026 5.07668,1.42825 7.5961,2.2009c0.86154,0.01356 1.72038,0.1555 2.57878,0.35649c0.14886,0.00183 0.29729,0.00152 0.44534,-0.00069c-0.11939,-0.11522 -0.22923,-0.26423 -0.29143,-0.45247c-0.67668,-0.32614 -1.32362,-0.68973 -1.9109,-1.09906c-7.18483,-5.00784 -8.14055,-14.6731 -10.69284,-22.33411c-3.6145,-9.13365 -15.08526,-6.96698 -20.69239,-1.29606l-0.94051,0.65618c0,0 -1.04006,0.69338 -1.73344,-0.34669c-0.69338,-1.04006 0.34669,-1.73344 0.34669,-1.73344l0.55949,-0.34382c1.78701,-1.76981 4.7488,-4.21607 7.23815,-5.04421c6.83688,-2.27443 14.8251,0.44555 17.56947,7.24814c0.99902,2.99556 1.86664,6.39407 2.96957,9.66981c0,-0.17871 0.00014,-0.35571 0.00014,-0.53075c0.01485,-3.35052 0.7926,-6.50369 1.00241,-9.82767c0.09033,-1.43095 0.17685,-2.88056 0.25396,-4.34289c-6.88201,-0.59558 -13.52895,-4.62001 -16.76164,-10.84304c-1.83058,-3.52392 -2.11186,-7.62667 -2.9613,-11.4492c-0.35861,-1.44671 -0.69611,-3.29973 -1.73282,-4.47407c-2.00522,-2.27144 -7.29939,-1.91214 -9.6125,-0.26957c-1.322,0.93877 -1.8119,2.29963 -2.79497,3.45075l0.74997,0.18383c0,0 1.07187,0.64312 0.42875,1.71499c-0.64312,1.07187 -1.71499,0.42874 -1.71499,0.42874l-1.75002,-1.31618c0.53852,-5.52149 4.905,-8.0019 10.14315,-8.00569c1.78238,-0.00128 3.03168,-0.25486 4.60831,0.658c2.62362,1.51906 3.41991,4.32216 4.10825,7.05481c0.80105,3.60467 1.03203,7.5606 2.75138,10.88018c2.75836,5.32564 8.63386,8.9727 14.65671,9.55095c0.14764,-3.35078 0.23053,-6.75032 0.18261,-10.12896c-2.0838,-0.84275 -4.14924,-1.75229 -5.90199,-3.3436c-2.73168,-2.48007 -4.36573,-6.83099 -5.78924,-10.14543c-1.93093,-3.86493 -2.79808,-7.7981 -4.0554,-11.89135c-0.33223,-1.08159 -0.75427,-2.34226 -1.07634,-3.65662c-0.00951,0.00174 -0.01911,0.00342 -0.0288,0.00503c-1.23299,0.2055 -1.43849,-1.02749 -1.43849,-1.02749l-0.00501,-0.26404c-1.77583,-0.33973 -3.30014,0.7638 -4.0961,2.75929c-0.63819,1.59994 -1.11127,3.06933 0.76087,3.06181l0.07323,-0.01256c0,0 1.25,0 1.25,1.25c0,1.25 -1.25,1.25 -1.25,1.25l-0.42678,-0.01256c-0.78188,-0.16821 -1.71442,-0.01351 -2.34562,-0.50464c-2.65949,-2.06931 -0.09361,-7.17184 1.65243,-8.88038c1.60265,-1.56823 3.33136,-1.81849 5.14097,-1.31177c0.07563,-0.01985 0.15155,-0.03876 0.22774,-0.05676c0.02585,-1.00536 0.21703,-1.9726 0.66044,-2.84433c0.2529,-0.4972 3.07995,-2.48462 3.44604,-2.71044c3.69837,-2.28128 7.98892,-2.60907 12.05724,-3.96761c2.28205,-0.75343 6.57795,-0.82296 8.09278,-2.96846c1.46872,-2.08021 0.8547,-4.44606 1.71734,-6.53105l-1.4115,-0.29158c0,0 -1.17041,-0.43891 -0.7315,-1.60932c0.43891,-1.17041 1.60932,-0.73151 1.60932,-0.73151l2.5885,1.20842c0.48554,4.27967 -0.14535,9.86705 -4.84552,11.63501c-1.9795,0.74459 -4.20911,0.97962 -6.22893,1.66023c-3.87644,1.28961 -8.04338,1.58026 -11.5582,3.73763c-0.88593,0.54378 -2.10132,0.85378 -2.55396,1.78957c-0.19986,0.41321 -0.31743,0.86574 -0.37168,1.34314c3.73801,-0.01661 7.76367,1.62178 10.70456,3.49349c0.99846,0.63547 2.20899,1.11467 2.86139,2.10214c2.84921,4.31257 2.2328,10.41743 2.91628,15.30959c0.47592,3.42219 0.72303,6.95388 0.81667,10.51852c1.33597,0.52854 2.65985,1.07358 3.88914,1.80937c2.51345,1.50442 4.10679,4.42955 5.52442,6.92335c0.2637,-0.32601 0.5274,-0.65202 0.7911,-0.97802c0.31741,-0.25271 0.64172,-0.48233 0.97216,-0.69007c-3.94858,-4.10029 -7.33577,-8.57998 -7.88589,-14.52759c-0.088,-0.95139 -0.21913,-1.92972 -0.02969,-2.8662c0.51227,-2.53226 1.72774,-4.18916 3.33632,-5.20812c-1.37424,-2.12105 -2.36044,-4.47841 -3.41666,-6.83344c-1.05257,-3.7991 -3.09883,-8.63051 -1.09958,-12.43224c1.67611,-3.18725 5.78399,-4.91408 9.04958,-5.8427c8.60605,-2.44728 20.0596,-2.2244 28.11793,1.6302c1.21157,0.51928 2.43773,1.00508 3.67203,1.46772l-0.18891,-0.07959c0,0 1.25,0 1.25,1.25c0,1.25 -1.25,1.25 -1.25,1.25l-0.6889,-0.07959c-1.28683,-0.48279 -2.56466,-0.9909 -3.82797,-1.53228c-7.22699,-3.48486 -16.27213,-3.3379 -24.08114,-1.98613c-3.25853,0.56406 -8.12734,1.90578 -9.84461,5.09482c-1.59616,2.96416 0.4308,7.44472 1.24346,10.41212c1.03579,2.29181 1.97352,4.63894 3.38327,6.68816c3.19753,-0.85227 7.12776,-0.18305 10.29832,0.865c-0.78271,-2.46526 -1.06885,-5.11008 -0.12701,-7.18756c0.8509,-1.87687 2.37661,-2.76911 3.91069,-3.95004c7.12448,-5.41526 18.00228,-5.47769 26.47787,-3.80046l1.1399,0.84207c0,0 0.88389,0.88388 0,1.76776c-0.88389,0.88388 -1.76777,0 -1.76777,0l0.1399,-0.15793c-7.69571,-1.54112 -17.99636,-1.63978 -24.47225,3.33518c-1.10278,0.83516 -2.52553,1.67693 -3.15861,3.0114c-0.92935,1.95898 -0.10846,4.91762 0.96076,7.28565c7.28667,2.61399 14.07187,3.38851 21.91408,3.39181c5.40702,0.00227 9.82534,-0.97093 10.03344,-6.96281c-0.77181,-1.46567 -2.19793,-3.94186 -4.03344,-3.78719l-1.30317,-0.28733c0,0 -1.21268,-0.30316 -0.90951,-1.51584c0.30317,-1.21268 1.51585,-0.90951 1.51585,-0.90951l0.69683,0.21268c3.2942,0.13952 5.12832,2.94958 6.46656,5.71281c0.2768,12.72471 -16.85681,11.0294 -25.62287,9.26754c-1.22185,-0.24558 -3.76118,-0.78654 -4.95989,-1.11255c-0.60779,-0.16529 -1.20524,-0.35202 -1.79627,-0.55327c1.01809,1.32515 2.13681,2.26246 3.35396,3.61321c1.37556,1.52655 2.7839,3.05877 4.15957,4.62386c3.72188,-2.31483 8.68751,-3.41589 12.39477,-3.04024c4.37962,0.44378 8.07211,2.82557 12.27433,3.73879c5.02637,-0.91431 8.3515,-4.15237 12.19768,-7.22521c3.22607,-2.5774 6.37441,-6.49881 4.15114,-10.99268c-1.93041,-3.90193 -6.43988,-6.632 -9.66922,-9.32199l-0.33365,-0.32639c0,0 -0.88389,-0.88388 0,-1.76776c0.88389,-0.88388 1.76777,0 1.76777,0l0.16634,0.1736c3.50613,2.92305 8.30751,5.89384 10.33079,10.17802c2.6438,5.5981 -0.66672,10.65724 -4.84886,14.00732c-4.36054,3.49299 -8.06696,6.8769 -13.80232,7.77478c-4.29136,-0.81518 -8.07417,-3.28354 -12.49139,-3.75176c-2.95406,-0.31313 -7.28496,0.57296 -10.50935,2.44568c3.59481,4.28332 6.76612,8.88166 8.24855,14.32092c0.51015,4.47147 2.40751,9.25922 1.4971,13.73528c-0.64866,3.18921 -2.68132,5.29471 -4.80172,7.59296c-3.54503,3.84237 -7.07875,7.46123 -11.60982,10.10094c0.08587,0.20173 0.16946,0.40527 0.2505,0.61043c2.65735,-0.51647 5.30558,-1.93023 6.80241,-3.43818c0,0 0.07694,-0.07694 0.20811,-0.16272c1.03756,-1.08998 2.06426,-2.19658 3.23984,-3.12917c2.97044,-2.35646 6.63116,-3.81229 8.71248,-7.16267c1.83691,-2.95695 1.08001,-8.57631 1.08001,-11.87065c0.00651,-3.95503 -1.11952,-8.73384 0.05182,-12.60618c2.39682,-7.92364 13.54932,-7.72427 19.66242,-5.30441l-0.21424,-0.0894c0,0 1.25,0 1.25,1.25c0,1.25 -1.25,1.25 -1.25,1.25l-0.71424,-0.0894c-4.40053,-1.78194 -8.19902,-1.90819 -12.51929,0.10326c-1.78976,0.83328 -3.23085,1.60976 -3.81829,3.59233c-1.06737,3.60232 0.04628,8.21429 0.05182,11.89382c0,3.91893 0.65243,9.58889 -1.41999,13.12935c-2.16456,3.69787 -6.07696,5.3007 -9.28752,7.83733c-0.9475,0.74861 -1.8003,1.60624 -2.63862,2.47946c-0.08817,-0.00453 -0.17636,-0.00875 -0.26453,-0.01268c-0.0926,0.39008 -0.36201,0.65949 -0.36201,0.65949c-1.71885,1.70783 -4.26673,3.1292 -6.96492,3.83433c1.84628,-0.21857 3.48577,-0.67617 4.40735,-1.27113c1.46245,-0.94414 2.51366,-2.18029 3.67322,-3.18177c-0.01092,-0.0007 -0.02183,-0.0014 -0.03274,-0.00209c0.03091,-0.01642 0.06178,-0.03287 0.09265,-0.04936c0.86273,-0.73654 1.78996,-1.33907 2.99355,-1.59283c0.87944,-0.42706 1.78359,-0.79781 2.74615,-1.04172c3.35245,-0.84949 7.19028,-1.25707 10.61132,-0.50089c4.52903,1.00109 8.87971,5.27559 12.82127,7.63006c1.22951,0.68312 3.13064,2.09696 4.61121,2.35499c7.7304,1.34721 12.5316,-9.22277 13.53062,-15.22805l-0.01701,-0.0445c0,0 0,-1.25 1.25,-1.25c1.25,0 1.25,1.25 1.25,1.25l-0.01701,0.4555c-1.23968,7.4249 -7.18305,19.0084 -16.46938,17.27195c-1.82111,-0.34053 -3.82784,-1.7779 -5.38879,-2.64501c-3.11459,-1.87593 -6.05642,-3.96473 -9.23627,-5.74219c-0.59391,-0.33198 -2.0106,-1.43644 -2.94245,-1.62775c-3.2298,-0.66308 -7.53847,-0.40662 -10.66471,0.8189c-0.30684,0.67767 -1.13794,0.67767 -1.13794,0.67767c-0.11369,-0.01059 -0.22687,-0.01176 -0.33956,-0.00427c-0.03957,0.02014 -0.07907,0.04039 -0.11852,0.06073l-0.07608,-0.03925c-2.04579,0.31446 -3.93374,3.36561 -5.79215,4.53571c-1.48287,0.93365 -3.71971,1.52174 -6.10661,1.71406c0.24973,1.99794 0.10682,4.02181 -0.65212,5.93617c-0.19999,0.50446 -0.43903,0.98208 -0.70214,1.44359c0.09921,0.06349 0.19812,0.12699 0.29654,0.19066c3.29654,2.13278 6.79044,3.31734 10.39443,4.34409c2.57115,-2.61049 4.79293,-6.77426 7.77714,-8.29444c9.23546,-4.70463 18.78677,2.50464 26.97103,6.04645c5.06635,4.16957 11.325,6.96164 14.91401,12.66367l0.75589,1.25972c0,0 0.64312,1.07187 -0.42874,1.71499c-1.07187,0.64312 -1.71499,-0.42874 -1.71499,-0.42874l-0.74411,-1.24029c-3.31689,-5.34998 -9.41023,-7.88283 -14.086,-11.83633c-5.67178,-2.36924 -11.33455,-6.75047 -17.66029,-7.06806c-2.20259,-0.11058 -6.12161,-0.10238 -7.83983,1.67001c-1.99169,2.05447 -3.39369,4.23645 -5.22803,6.26417c0.73782,0.20138 1.47922,0.40438 2.22352,0.61548c2.42411,0.6926 4.72783,1.25193 6.85924,2.66808c9.0585,6.01865 9.3918,16.20606 11.29127,25.91065c0,1.47415 0.24687,2.71542 0.48908,4.16767l0.01701,0.4555c0,0 0,1.25 -1.25,1.25c-1.25,0 -1.25,-1.25 -1.25,-1.25l0.01701,-0.0445c-0.24832,-1.49092 -0.51092,-2.81769 -0.51092,-4.33233c-1.8333,-8.94655 -1.8596,-18.50114 -10.20873,-24.08935c-1.88504,-1.26168 -3.99211,-1.71801 -6.14076,-2.33191c-1.21181,-0.34904 -2.4143,-0.67681 -3.6056,-1.00909c-0.0489,0.0411 -0.09819,0.0821 -0.14784,0.12296c-3.639,1.53671 -8.0688,1.10094 -11.9946,-0.61141c0.17084,0.44722 0.34015,0.89542 0.50734,1.34489c1.92518,5.1755 6.23962,9.19693 8.28228,14.34456c0.97998,4.91425 -2.05836,8.82125 -5.64795,11.81646l0.0678,0.09874c0,0 -0.55902,1.11803 -1.67705,0.55902c-1.11803,-0.55901 -0.55902,-1.67705 -0.55902,-1.67705l0.56781,-0.90126c2.71683,-2.26091 5.61421,-5.38886 4.85205,-9.18354c-2.04675,-5.06507 -6.28278,-9.03405 -8.21772,-14.15543c-0.36023,-0.95346 -0.72813,-1.9025 -1.09854,-2.8496c-0.87477,1.88583 -1.7581,3.8608 -3.44124,5.06725c1.62088,4.58472 4.656,9.04994 4.70413,14.01933c0.2536,2.53578 0.92396,6.55595 -0.0752,8.99353c-0.69576,1.6974 -1.68645,3.14777 -2.22507,4.92492c-1.71387,5.65481 0.57011,10.22893 5.04969,13.64222c1.66199,1.26638 2.2545,1.20272 4.34074,1.50474c3.07515,-0.00685 6.65328,-0.48094 8.00945,-3.73845c0.74164,-1.78141 0.19717,-3.9336 1.93188,-5.28646c0.39805,-0.31043 3.20862,-0.69724 3.63145,-0.72509c3.53533,-0.23287 5.98557,1.0806 7.51973,3.2226c0.93129,-0.10811 1.81287,-0.09574 2.55526,0.04681c1.88036,0.36106 3.3995,1.31863 5.36671,1.48171c2.14144,0.17752 4.2136,-0.08796 6.3524,0.26274l0.7945,-0.01701c0,0 1.25,0 1.25,1.25zM275.33983,274.141c-1.59317,0.46776 -3.59672,1.39663 -4.01682,2.60683c-0.10093,0.29077 0.3008,2.35786 0.30576,2.39509c0.41151,3.08841 3.48287,1.51407 4.54814,-0.59605c-0.05458,-1.57169 -0.29841,-3.10736 -0.83709,-4.40588zM245.43042,227.4761c-1.0592,-0.86576 -2.00766,-1.83476 -2.80121,-2.88327c-0.10577,2.51787 -0.11967,5.05451 0.3435,7.50956c1.12772,-1.21743 1.78101,-3.14525 2.45771,-4.62628zM239.41591,220.43331c-0.71691,0.10401 -1.47574,0.07405 -2.25896,-0.05701c-0.26273,0.42909 -0.49941,0.87302 -0.71731,1.34223c1.18281,-0.1493 2.23974,-0.46168 2.97627,-1.28522zM253.74434,168.42618c-1.08426,1.92472 -0.92249,4.49757 -0.86513,6.72674c0.33367,0.19288 0.65997,0.38792 0.97799,0.58374c2.22937,1.37276 4.07497,2.67465 5.12079,5.24509c1.34343,3.30192 -0.05373,8.40061 -0.75782,11.68982c-0.94473,4.09148 -1.93637,9.01734 -4.32339,12.80315c2.34597,-1.95992 4.45406,-4.18851 6.57366,-6.48357c1.78768,-1.93566 3.66823,-3.69963 4.19828,-6.40704c0.80458,-4.10967 -1.04241,-8.64749 -1.5029,-12.76472c-1.44214,-5.28369 -4.5922,-9.29985 -8.05922,-13.11627c-0.55038,0.529 -1.0136,1.10413 -1.36226,1.72305zM251.5426,167.24198c0.49173,-0.852 1.13537,-1.63612 1.89195,-2.34826c-2.86277,-3.06315 -5.78848,-6.10661 -8.03687,-9.69866c-0.32873,-0.52518 -0.66161,-1.1141 -0.97998,-1.7477c-0.25966,-0.10346 -0.51975,-0.20683 -0.78061,-0.30947c-1.09768,-0.43231 -3.30889,-1.36317 -4.4991,-1.60176c-1.65479,-0.33173 -3.18653,-0.30265 -4.51189,0.04003c0.11432,0.11052 0.23128,0.21939 0.35102,0.32651c2.50777,2.24352 5.69589,3.21396 8.39724,5.16735c5.06437,3.66213 6.89564,10.01829 4.91194,15.8434c0.70663,0.27793 1.40086,0.5835 2.07701,0.9079c-0.02388,-2.26926 0.07056,-4.65827 1.1793,-6.57934zM208.08284,141.44949c1.2327,3.99977 2.05678,7.83607 3.94461,11.60866c1.26061,2.94796 2.74753,7.16159 5.21076,9.35456c1.25605,1.11824 2.67624,1.87843 4.14623,2.52218c-0.11195,-3.10057 -0.34992,-6.16778 -0.76569,-9.14705c-0.63281,-4.55499 -0.05648,-10.16277 -2.51036,-14.25296c-1.41211,-2.35375 -6.19736,-3.55586 -8.67041,-3.96779c-0.63002,-0.10494 -1.6954,-0.20571 -2.63709,-0.4049c0.32391,1.56106 0.92238,3.12061 1.28195,4.28732zM231.30817,176.20425c-1.23107,-2.15455 -2.61933,-4.98066 -4.82186,-6.30686c-0.81116,-0.48842 -1.66273,-0.89754 -2.53228,-1.27421c0.01885,3.06089 -0.06101,6.13197 -0.19234,9.16527c1.93502,-0.09504 3.84282,-0.52842 5.62411,-1.34663c0,0 1.14226,-0.50768 1.64994,0.63459c0.0566,0.12735 0.09269,0.24682 0.11214,0.35857c0.22122,-0.2619 0.43174,-0.51009 0.63815,-0.74487c-0.31139,-0.19453 -0.47786,-0.48586 -0.47786,-0.48586zM223.39106,184.66175c-0.20288,3.27737 -1.01538,6.37615 -0.99758,9.67233c0,2.39203 -0.16479,5.57621 0.83746,7.96886c0.56162,0.88969 1.1797,1.72122 1.86688,2.4764c1.69814,1.3944 3.84325,1.85911 6.04482,2.38778c0.19804,0.04755 0.39595,0.09509 0.59375,0.14256c-1.04654,-1.08081 -1.94319,-2.3294 -2.63844,-3.71989c-4.25665,-7.50644 -4.15947,-17.72149 0.87806,-24.68606c-2.03066,0.81672 -4.17334,1.24531 -6.33057,1.32345c-0.07718,1.49261 -0.16389,2.97275 -0.25438,4.43456zM246.39539,169.51496c0.09645,-1.79112 0.21206,-3.78728 -0.42427,-5.49719c-2.02693,-5.44661 -8.72261,-6.68904 -12.66129,-10.25227c-0.38042,-0.34416 -0.7365,-0.70229 -1.07155,-1.07265c-2.08282,1.54477 -3.04011,4.29452 -2.1339,7.83101c1.20395,4.69842 4.08272,8.04472 7.38892,11.38939c2.67747,-0.8465 5.59951,-0.60768 8.42901,0.19658c0.27832,-0.83444 0.42593,-1.71901 0.4731,-2.59487zM244.52736,209.9502c0.22573,0.23455 0.46921,0.44111 0.72786,0.62149c0.06037,-0.24916 0.11522,-0.49368 0.16253,-0.73275c0,0 0.01238,-0.06189 0.04548,-0.15507c-0.34303,0.01099 -0.6865,0.01973 -1.03031,0.0265zM232.5203,213.828c-2.2589,-0.22569 -4.37669,-1.25863 -6.58258,-1.61957c3.44711,1.56948 6.28179,4.30915 10.03133,5.2974c0.83814,-1.149 1.82608,-2.15474 2.95946,-2.86669c-0.25603,-0.49271 -0.49373,-0.926 -0.65307,-1.24604c-0.06753,-0.13564 -0.13819,-0.2697 -0.21171,-0.40226c-1.69655,0.71622 -3.54217,1.03712 -5.54343,0.83716zM240.01494,217.30904c-0.00513,-0.07876 -0.00986,-0.15765 -0.01419,-0.23665c-0.00511,-0.01595 -0.01029,-0.03191 -0.01552,-0.0479c-0.2033,0.18653 -0.41097,0.39304 -0.63111,0.6157c0.25114,-0.08402 0.47056,-0.1956 0.66082,-0.33116zM242.75739,218.40542c0.0055,0.19602 -0.00083,0.38864 -0.0206,0.57681c0.13394,0.66794 0.32158,1.31193 0.57993,1.9206c0.30406,0.71635 0.71843,1.41875 1.2221,2.09395c-0.5854,-1.57542 -1.14438,-3.16153 -1.65359,-4.76956c-0.04208,0.06079 -0.08471,0.12019 -0.12784,0.17821zM249.2285,221.13093c0.64438,-1.59242 0.73304,-3.29408 0.48963,-4.97395c-1.13792,-0.04044 -2.26306,-0.1723 -3.31253,-0.40081c-0.24944,1.31229 -0.29606,2.58465 0.15692,3.63539c0.48661,1.12876 1.29582,1.96669 2.22203,2.68434c0.16306,-0.30652 0.31269,-0.62056 0.44396,-0.94496zM247.83179,210.50621c-0.0684,0.31035 -0.15478,0.63882 -0.25186,0.98097c0.24633,0.04179 0.49759,0.07098 0.75262,0.08837c-0.16096,-0.36542 -0.32891,-0.72247 -0.50075,-1.06934zM257.76414,229.45282c-2.74063,-0.90794 -5.40553,-2.02204 -7.96979,-3.68264c-0.09946,-0.06441 -0.19868,-0.12865 -0.29759,-0.19281c-0.27092,0.39269 -0.54227,0.78597 -0.80321,1.18763c2.76969,1.77242 6.1004,2.86171 9.07058,2.68782z" fill="#000000"/><path d="M186.03968,201.66173c0.08564,-0.36966 0.35611,-0.9534 1.21032,-0.9534c1.25,0 1.25,1.25 1.25,1.25l-0.36612,1.13388c-1.30845,1.30226 -1.87431,2.09738 -3.57487,2.98415c0,0 -1.11803,0.55902 -1.67705,-0.55902c-0.55902,-1.11803 0.55902,-1.67705 0.55902,-1.67705c1.2764,-0.60027 1.72219,-1.24893 2.5987,-2.17857z" fill="#ffec99"/><path d="M188.60472,190.39419c-1.18585,-0.39528 -0.79057,-1.58114 -0.79057,-1.58114l0.43585,-1.10472c0.95924,-1.27793 1.82369,-2.614 2.70994,-3.94338c0,0 0.69338,-1.04006 1.73344,-0.34669c1.04006,0.69338 0.34669,1.73344 0.34669,1.73344c-0.91199,1.36799 -1.80396,2.74079 -2.79006,4.05662l-0.06415,0.39528c0,0 -0.39528,1.18585 -1.58114,0.79057z" fill="#ffec99"/><path d="M308.19683,189.49566c1.21268,-0.30317 1.51585,0.90951 1.51585,0.90951l0.27767,1.14813c0.36647,2.95947 0.25965,5.92576 0.25965,8.90504c0,0 0,1.25 -1.25,1.25c-1.25,0 -1.25,-1.25 -1.25,-1.25c0,-2.87248 0.11975,-5.74303 -0.24035,-8.59496l-0.22233,-0.85187c0,0 -0.30317,-1.21268 0.90951,-1.51585z" fill="#ffec99"/><path d="M296.13388,174.09222c-0.88388,0.88388 -1.76777,0 -1.76777,0l-0.61612,-0.63388c-1.59078,-1.22389 -2.38022,-2.62325 -4.14312,-3.67813c0,0 -1.07187,-0.64312 -0.42875,-1.71499c0.64312,-1.07187 1.71499,-0.42875 1.71499,-0.42875c1.83605,1.10435 2.71495,2.63416 4.35688,3.82187l0.88388,0.86612c0,0 0.88388,0.88388 0,1.76777z" fill="#ffec99"/><path d="M266.95761,141.1888c0.39529,-1.18586 1.58114,-0.79057 1.58114,-0.79057l0.35471,0.18586c1.28872,0.00571 2.46693,0.25692 3.75,0.25c0,0 1.25,0 1.25,1.25c0,1.25 -1.25,1.25 -1.25,1.25c-1.28872,-0.00571 -2.46693,-0.25692 -3.75,-0.25l-1.14529,-0.31414c0,0 -1.18586,-0.39529 -0.79057,-1.58114z" fill="#ffec99"/><path d="M280.32933,139.47937c-0.39529,1.18586 -1.58114,0.79057 -1.58114,0.79057l-1.10471,-0.43586c-1.24807,-0.98507 -2.82479,-1.11436 -4.3434,-1.54809c0,0 -1.2019,-0.3434 -0.8585,-1.54531c0.3434,-1.20191 1.5453,-0.8585 1.5453,-0.8585c1.87575,0.53612 3.56169,0.79639 5.1566,1.95191l0.39529,0.06414c0,0 1.18586,0.39529 0.79057,1.58114z" fill="#ffec99"/><path d="M282.73278,133.56994c-0.33752,-0.04885 -1.08931,-0.26646 -1.08931,-1.23586c0,-1.25 1.25,-1.25 1.25,-1.25l1,0.25c1.14319,0.88518 2.50429,1.23251 3.80902,1.88197c0,0 1.11803,0.55901 0.55902,1.67705c-0.55901,1.11803 -1.67705,0.55902 -1.67705,0.55902c-1.34013,-0.67338 -2.62718,-1.07472 -3.85167,-1.88217z" fill="#ffec99"/><path d="M274.8692,131.57923c-0.24514,1.22573 -1.47087,0.98058 -1.47087,0.98058l-1.36104,-0.27755c-2.11356,-0.83665 -4.13134,-1.79638 -6.2891,-2.51233c0,0 -1.18586,-0.39529 -0.79057,-1.58114c0.39529,-1.18586 1.58114,-0.79057 1.58114,-0.79057c2.13518,0.71476 4.1272,1.6439 6.2109,2.48767l1.13896,0.22245c0,0 1.22572,0.24515 0.98058,1.47087z" fill="#ffec99"/><path d="M223.89347,113.58408c0,-1.25 1.25,-1.25 1.25,-1.25l0.74514,0.02428c1.45102,0.2959 2.746,0.82236 4.15014,1.28987c0,0 1.18586,0.39529 0.79057,1.58114c-0.39529,1.18586 -1.58114,0.79057 -1.58114,0.79057c-1.30143,-0.43429 -2.50549,-0.94756 -3.84986,-1.21013l-0.25485,0.02428c0,0 -1.25,0 -1.25,-1.25z" fill="#ffec99"/><path d="M205.39347,144.58408c0,1.25 -1.25,1.25 -1.25,1.25h-0.25c-1.57059,-0.00479 -3.01737,0.2651 -4.57323,0.48744c0,0 -1.23744,0.17677 -1.41421,-1.06066c-0.17677,-1.23744 1.06066,-1.41421 1.06066,-1.41421c1.67421,-0.23909 3.23426,-0.50807 4.92678,-0.51256h0.25c0,0 1.25,0 1.25,1.25z" fill="#ffec99"/><path d="M192.89347,161.33408c0,1.25 -1.25,1.25 -1.25,1.25l-0.64529,-0.06414c-2.60551,-0.92063 -3.70973,-3.1046 -6.16373,-4.31782c0,0 -1.11803,-0.55902 -0.55902,-1.67705c0.55901,-1.11803 1.67705,-0.55901 1.67705,-0.55901c2.24309,1.13235 3.55073,3.4854 5.83627,4.18218l-0.14529,-0.06414c0,0 1.25,0 1.25,1.25z" fill="#ffec99"/><path d="M180.89347,233.83408c-0.75,-1 0.25,-1.75 0.25,-1.75l1.05251,-0.78731c2.03897,-1.22581 3.6165,-2.51916 5.99199,-2.94568c0,0 1.23299,-0.2055 1.43849,1.02749c0.2055,1.23299 -1.02749,1.43849 -1.02749,1.43849c-1.95785,0.29211 -3.32485,1.54652 -5.00802,2.55432l-0.94749,0.71269c0,0 -1,0.75 -1.75,-0.25z" fill="#ffec99"/><path d="M212.07933,264.22936c-0.39529,1.18586 -1.58114,0.79057 -1.58114,0.79057l-1.04809,-0.39579c-2.1301,-1.4203 -3.77363,-2.49606 -5.30662,-4.54006c0,0 -0.75,-1 0.25,-1.75c1,-0.75 1.75,0.25 1.75,0.25c1.36266,1.81688 2.78718,2.68935 4.69338,3.95994l0.45191,0.10421c0,0 1.18586,0.39528 0.79057,1.58114z" fill="#ffec99"/><path d="M212.33446,280.45212c-1.11803,-0.55901 -0.55902,-1.67705 -0.55902,-1.67705l0.72492,-1.01285c1.90431,-1.11435 4.14105,-1.6612 6.24784,-2.36398c0,0 1.18586,-0.39529 1.58114,0.79057c0.39529,1.18586 -0.79057,1.58114 -0.79057,1.58114c-1.87623,0.62493 -4.08082,1.0994 -5.75217,2.13601l0.22492,-0.01285c0,0 -0.55902,1.11803 -1.67705,0.55902z" fill="#ffec99"/><path d="M240.89347,245.08408c1.25,0 1.25,1.25 1.25,1.25l-0.02428,1.24515c-0.29479,1.47296 -0.52589,2.94434 -0.73829,4.43163c0,0 -0.17678,1.23744 -1.41421,1.06066c-1.23744,-0.17677 -1.06066,-1.41422 -1.06066,-1.41422c0.21907,-1.53293 0.45825,-3.05006 0.76171,-4.56836l-0.02427,-0.75485c0,0 0,-1.25 1.25,-1.25z" fill="#ffec99"/><path d="M250.0903,261.04676c-1.21268,-0.30317 -0.90951,-1.51585 -0.90951,-1.51585l0.48659,-1.4777c0.66666,-0.83333 1.33334,-1.66666 2,-2.5c0,0 0.78087,-0.97609 1.75696,-0.19522c0.97609,0.78087 0.19521,1.75695 0.19521,1.75695c-0.66666,0.83333 -1.33334,1.66667 -2,2.5l-0.0134,0.52231c0,0 -0.30317,1.21268 -1.51585,0.90951z" fill="#ffec99"/><path d="M296.64347,274.58408c0,1.25 -1.25,1.25 -1.25,1.25c-1,0 -3.25,0 -4.25,0c0,0 -1.25,0 -1.25,-1.25c0,-1.25 1.25,-1.25 1.25,-1.25c1,0 2,0 3,0h1.25c0,0 1.25,0 1.25,1.25z" fill="#ffec99"/><path d="M283.89347,270.08408c-1.25,0 -1.25,-1.25 -1.25,-1.25v-1c0,-2.32817 -0.02689,-4.59097 0.25966,-6.90504c0,0 0.15505,-1.24035 1.39539,-1.08531c1.24034,0.15504 1.0853,1.39539 1.0853,1.39539c-0.27883,2.20828 -0.24035,4.3719 -0.24035,6.59496v1c0,0 0,1.25 -1.25,1.25z" fill="#ffec99"/><path d="M315.02736,246.21796c-0.88389,0.88388 -1.76777,0 -1.76777,0l-0.52671,-0.66965c-0.64643,-1.65983 -1.71624,-2.828 -2.97329,-4.08035c0,0 -0.88389,-0.88388 0,-1.76776c0.88389,-0.88388 1.76777,0 1.76777,0c1.50826,1.51338 2.7158,2.93366 3.52671,4.91965l-0.02671,-0.16965c0,0 0.88389,0.88388 0,1.76776z" fill="#ffec99"/><path d="M242.89347,193.58408c-1.25,0 -1.25,-1.25 -1.25,-1.25v-1.5c0,-4.34441 0.25,-8.63981 0.25,-13c0,0 0,-1.25 1.25,-1.25c1.25,0 1.25,1.25 1.25,1.25c0,4.35934 -0.25,8.65758 -0.25,13v1.5c0,0 0,1.25 -1.25,1.25z" fill="#ff0000"/><path d="M241.14347,199.58408c0,-0.69036 0.55964,-1.25 1.25,-1.25c0.69036,0 1.25,0.55964 1.25,1.25c0,0.69036 -0.55964,1.25 -1.25,1.25c-0.69036,0 -1.25,-0.55964 -1.25,-1.25z" fill="#ff0000"/></g></g></svg>