<svg version="1.1" xmlns="http://www.w3.org/2000/svg" xmlns:xlink="http://www.w3.org/1999/xlink" width="99.29838" height="89.64748" viewBox="0,0,99.29838,89.64748"><g transform="translate(-224.35833,-154.88296)"><g data-paper-data="{&quot;isPaintingLayer&quot;:true}" fill-rule="nonzero" stroke="none" stroke-width="0.5" stroke-linecap="butt" stroke-linejoin="miter" stroke-miterlimit="10" stroke-dasharray="" stroke-dashoffset="0" style="mix-blend-mode: normal"><path d="M274.40316,186.40485c-1.16574,0.87895 -1.53408,1.90135 -1.54483,3.95943c-0.00791,1.51446 -0.32693,2.5694 1.33344,3.01026c5.29446,1.40578 10.3525,0.12573 15.49692,-1.01871c2.47565,-0.75889 5.17594,-1.57546 7.78877,-1.43965c4.11059,0.21366 6.98604,1.885 10.94105,-0.25401c1.78728,-0.96663 3.64342,-2.26483 5.14509,-3.61928c0.67378,-0.60772 1.27917,-1.47162 2.04288,-2.08523c-2.74558,0.0002 -4.65455,2.10734 -7.48334,1.8537c-3.00417,-0.26937 -3.27692,-3.39387 -5.79317,-4.29224c-2.21365,-0.79033 -4.11552,0.29078 -5.87917,1.3174c-2.36835,1.37863 -5.07188,2.45285 -7.77335,2.77583c-4.25903,-0.00299 -8.29575,-1.23697 -12.58193,-0.63153l-1.09191,0.36929c0,0 -0.27287,0.09096 -0.60045,0.05471zM276.28856,183.45456c4.1762,-0.41469 8.08383,0.6652 12.25065,0.66164c4.574,-0.45505 7.8099,-4.56653 12.53825,-4.2c2.02538,0.157 3.27743,0.77092 4.77561,2.12671c0.83025,0.75134 1.15324,2.23418 2.44045,2.27428c1.31227,0.04088 2.75479,-1.13522 3.90787,-1.53481c2.04951,-0.71024 3.62772,-0.49189 5.67299,0.02203c0.49244,0.44983 1.27832,0.75451 1.76202,1.20866c-0.81279,-3.43712 -2.33221,-6.54246 -5.35572,-8.63241c-2.59489,-1.79367 -6.12868,-1.91666 -9.4384,-1.84744c-0.18429,0.16327 -0.45022,0.28106 -0.83394,0.28106c-0.34884,0 -0.60032,-0.09735 -0.78163,-0.23771c-0.69643,0.02008 -1.3732,0.03771 -2.01837,0.03771c-6.47756,-0.01183 -13.05712,0.49239 -19.51139,0.99686c-3.52175,0.27526 -7.37286,-0.19932 -10.79966,0.8587c-0.31976,0.28302 -0.73391,0.33479 -0.73391,0.33479c-0.10134,0.01237 -0.20186,0.02558 -0.3016,0.03962c-0.05381,0.02252 -0.10749,0.04551 -0.16104,0.06896c0,0 -0.35889,0.15381 -0.76147,0.08892c-4.84424,0.98197 -7.71846,4.07021 -10.26761,8.21932c-0.92779,1.51011 -2.29818,3.2531 -2.64857,5.03766c-0.65737,3.34795 -0.19296,6.8892 -0.77552,10.26899c-0.64885,6.95961 -4.07922,13.95031 -10.48202,17.15514c-2.27814,1.14029 -4.77759,2.22981 -7.23387,2.88851c-0.37123,0.09956 -3.45548,0.63594 -3.56115,1.0528c-0.16634,0.65619 0.72706,1.62633 1.20005,1.94337c1.88127,-0.04907 3.12129,-0.87941 4.84431,-1.39009c5.97464,-1.77083 11.20483,-2.39646 16.48341,-6.04229c1.40891,-0.97312 3.02598,-2.08202 3.5242,-3.76654l1.38586,-0.85471c0,0 0.61839,0 0.98527,0.43495c1.46951,-0.58757 2.72598,-1.31267 4.03386,-2.36103l0.309,-0.66703c0,0 0.09528,-0.1588 0.27361,-0.31748c0.07155,-0.21282 0.14232,-0.42445 0.2124,-0.63469c0,0 0.19548,-0.58643 0.72389,-0.79704c0.05843,-0.38924 0.19255,-0.79825 0.22302,-1.17359c0.17388,-2.14166 0.79104,-4.04102 0.78894,-6.23408c0,0 0,-1.25 1.25,-1.25c1.25,0 1.25,1.25 1.25,1.25c-0.00157,1.78176 -0.26111,3.36192 -0.63097,5.07651c-0.15749,0.73007 -0.96134,1.60663 -0.49036,2.18628c0.30899,0.38028 0.88468,0.42789 1.34968,0.58237c0.64343,0.21375 1.29637,1.1397 1.87552,0.78717c0.53125,-0.32337 0.27051,-1.21549 0.45442,-1.8096c0.50794,-1.64088 0.98265,-3.17201 1.65773,-4.74866l0.61594,-1.23308c0,0 0.55902,-1.11803 1.67705,-0.55902c1.11803,0.55902 0.55902,1.67705 0.55902,1.67705l-0.58406,1.16692c-0.53513,1.24734 -0.91878,2.81645 -1.4193,4.21411c0.53533,0.34975 0.53533,1.05996 0.53533,1.05996v0.8c0,3.23083 0.06966,7.20842 -1.34031,10.35l1.09425,0c3.33928,0.02299 6.5836,0.02236 9.91838,-0.19759c0.47669,-0.03144 2.50757,-0.34842 3.00116,-0.37145c0.15676,-0.00731 0.42391,0.24026 0.46246,0.08815c0.24365,-0.96142 -0.43517,-3.41314 -0.43595,-4.46911c-0.00271,-3.67307 -0.2,-7.32259 -0.2,-11c0.07865,-0.9103 -0.24501,-1.95403 0.23595,-2.73089c0.6969,-1.12564 2.7991,-0.91502 3.81405,-0.91911c3.14216,-0.01268 6.41012,-0.29753 9.53087,-0.19809c1.12367,0.03581 2.43719,-0.28787 3.35301,0.3642c0.54606,0.38881 0.30261,3.56658 0.36107,4.17163c0.33431,3.46015 0.80102,6.97651 1.00264,10.43459c0.03965,0.68013 -0.50403,4.41459 0.6602,4.73545c0.53474,0.14738 1.09038,-0.20433 1.63558,-0.3065c2.98291,-0.00263 6.64845,0.06123 9.52645,-0.48327c0.80904,-0.15307 0.82566,-4.50953 0.89015,-5.02544c0.5845,-4.67634 0.31258,-9.38268 0.51468,-14.08551c-0.12463,-0.28829 -0.12463,-0.55706 -0.12463,-0.55706l0.0062,-0.27562c-0.36734,-3.6738 -0.3003,-8.09097 -1.05528,-12.17444c-0.34665,0.48181 -1.20602,0.76708 -1.7111,1.15215c-1.44825,1.10413 -2.79282,2.18176 -4.23502,3.29429c-2.78747,2.15027 -5.3774,4.10046 -8.95458,4.63748c-2.71426,0.40748 -5.01987,-0.82677 -7.66935,-0.98577c-2.31678,-0.13904 -4.82357,0.68462 -7.01123,1.36035c-5.36625,1.19136 -11.42085,2.86479 -16.90308,0.98129c-3.77889,-1.29829 -3.9178,-6.43184 -2.31459,-9.58709c0.76857,-1.5126 2.31529,-2.20579 3.73901,-2.92068c0,0 0.85092,-0.42546 1.43924,0.20831zM262.00362,213.75014c0,0 -0.16206,0.05402 -0.38633,0.06221c-3.2506,5.49051 -11.61394,7.38816 -17.10993,8.76564c-3.45625,0.86625 -6.43079,2.43578 -10.06126,2.38266c-1.56849,-1.04376 -3.70396,-2.91947 -2.79995,-5.25662c0.51851,-1.34051 2.50204,-1.80452 3.6127,-2.13989c2.88216,-0.87032 5.68448,-1.76644 8.39229,-3.11879c5.64677,-2.82015 8.57684,-9.12538 9.11798,-15.24487c0.22525,-1.28322 0.30116,-2.58887 0.34287,-3.89903c-3.98102,3.92154 -9.31178,5.22118 -15.24509,4.50481c-3.58085,-0.43234 -6.95158,-1.91177 -10.49885,-2.41529l-0.05794,-0.03377l-0.00494,0.01976l-1.57463,-0.39366c-0.55665,-0.12632 -0.9722,-0.62414 -0.9722,-1.21902c0,-0.51967 0.31712,-0.96528 0.7684,-1.15385l1.77392,-0.78841l0.10767,0.24225c2.26412,-1.39006 4.6533,-2.59416 6.81416,-4.27207c3.6068,-2.80069 4.03507,-8.50713 6.56776,-11.95318c2.26614,-3.08336 6.0093,-4.39058 8.8496,-6.85965c9.91061,-6.64654 22.65625,-4.08654 33.23759,-9.22914c2.54986,-2.61212 5.19409,-4.82195 8.80756,-5.79341c1.09378,-0.29406 2.12786,-1.27362 3.23559,-1.03749c1.83058,0.39022 2.20724,1.50002 3.21915,2.6113c3.77026,4.14048 6.1654,8.06218 6.98101,13.49833c2.10535,-0.0401 4.2284,0.00757 6.19148,0.52283c11.22581,2.94647 11.2037,15.10976 12.03298,24.54441c0.34747,0.39435 0.31035,0.95123 0.31035,0.95123c-0.39065,5.84648 -0.11978,11.63341 -0.80585,17.4634c-0.20515,1.74334 -0.07142,4.31934 -2.11119,5.18544c-0.90798,0.38554 -1.97284,0.04948 -2.95704,0.11587c-2.54139,0.17143 -4.95797,0.6033 -7.51651,0.60086c-0.92147,0.03117 -1.93188,0.48968 -2.76442,0.0935c-0.88863,-0.42287 -1.46395,-1.39224 -1.85894,-2.2936c-0.43401,-0.99041 -0.22125,-3.43626 -0.28086,-4.57094c-0.1237,-2.35487 -0.6059,-4.47176 -0.60242,-6.87767c0.00169,-1.17001 -0.28553,-2.32286 -0.39495,-3.48774c-0.06585,-0.701 -0.10087,-1.41472 -0.00505,-2.11226c0.02871,-0.20897 0.57499,-0.48676 0.36612,-0.51612c-1.08786,-0.15289 -2.15053,0.49648 -3.24699,0.5642c-1.86816,0.11538 -3.80032,0.00191 -5.66913,0.00191c-0.73333,0 -1.46667,0.00329 -2.2,0c-0.59663,-0.00268 -1.70972,-0.71086 -1.78595,-0.11911c-0.05498,0.42676 0.1573,0.84607 0.23595,1.26911c0,4.22521 -0.05305,8.50798 0.19758,12.72233c0.07089,1.19206 0.6335,3.13425 -0.03353,4.20856c-0.54647,0.88014 -2.79391,1.00038 -3.65901,1.10946c-3.93166,0.49573 -7.81252,0.43217 -11.75899,0.40965l-1.39605,0.00001c0,0 -0.75862,0 -1.09387,-0.59099c-0.15552,0.06742 -0.30208,0.14227 -0.3795,0.28247c-0.49588,0.89804 0.63944,2.26155 0.01769,3.07752c-0.47923,0.62892 -2.02248,-0.10418 -2.2835,0.64218c-0.49164,1.40582 -0.61916,3.07075 -0.61082,4.53881c0,1.14075 0.35804,5.03899 -0.431,5.74432c-2.1011,1.87821 -5.31949,-2.60989 -7.76585,-1.77935c-1.46889,0.49869 -0.62877,1.89534 -1.67103,3.2083c-0.69014,0.86938 -2.12992,0.85939 -2.87266,1.68428c-0.72256,0.80248 -0.44798,2.35967 -1.35784,2.94124c-1.70236,1.08813 -3.1677,0.4496 -4.42115,-0.70076c-0.85676,-0.78629 -1.61032,-2.28353 -2.12236,-0.17718c-0.82475,3.55497 -1.87697,3.28596 -4.9639,4.04757c-0.81746,0.20169 -1.7397,0.92433 -2.47358,0.51161c-0.86844,-0.4884 -0.62172,-3.47569 -2.55117,-3.64943c-0.69712,-0.06277 -0.16372,1.41581 -0.46463,2.04777c-0.3378,0.70945 -0.74261,1.5098 -1.44464,1.86278c-0.25344,0.12743 -3.65525,-0.27233 -3.97248,-0.29268c-2.59315,-0.16636 -5.36866,-1.68448 -7.83266,-3.22789l-1.26366,-0.18052c-0.61548,-0.07792 -1.09142,-0.6034 -1.09142,-1.24004c0,-0.69036 0.55964,-1.25 1.25,-1.25h1.24706c7.8174,-2.6638 16.31768,-3.37315 23.40507,-8.1516c3.4643,-2.86353 7.01223,-5.30407 9.99409,-8.80637c2.16595,-2.54398 3.75908,-5.76003 5.04993,-9.02022c-1.02374,0.55802 -2.10002,1.01165 -3.30087,1.41405zM262.16211,222.97225c-3.08353,3.66403 -6.82779,6.18499 -10.40591,9.19363c-6.60621,4.36714 -14.17107,5.64015 -21.54745,7.72533c0.26228,0.16845 0.47764,0.30788 0.61103,0.38283c1.68221,0.94525 4.70867,2.47197 6.67834,1.94911c0.89689,-0.23809 0.13265,-1.93334 0.64242,-2.70873c0.42247,-0.64259 1.09716,-1.21588 1.84831,-1.38072c1.13753,-0.24962 4.06391,1.55507 4.51444,2.62762c0.17419,0.41469 -0.30852,0.87522 -0.26561,1.32295c0.02423,0.2528 0.11366,-0.54973 0.32642,-0.68839c0.42368,-0.27613 0.94353,-0.39276 1.444,-0.46546c0.57591,-0.08365 1.55912,0.33954 1.73244,-0.21601c0.16787,-0.5381 0.17311,-1.11398 0.25966,-1.67097c0.8143,-2.16961 2.40592,-3.90227 5.04806,-2.55294c0.94373,0.48196 1.71192,2.8736 2.40844,2.07499c0.62568,-0.71739 0.40546,-1.95114 1.04216,-2.65876c0.69568,-0.77317 2.09164,-0.69253 2.72734,-1.51572c0.65556,-0.84891 0.31689,-2.25159 1.0378,-3.04574c1.37116,-1.51045 3.87417,-1.61577 5.60337,-0.94366c0.70621,0.2745 1.34225,0.70514 1.9917,1.09541c0.45522,0.27355 1.43037,1.56109 1.13025,1.12294c-0.75585,-1.10348 -0.431,-2.59404 -0.431,-3.85568c0.01097,-2.2876 0.03327,-6.18881 2.63624,-7.17954c0.29322,-0.1116 0.57418,0.46664 0.86944,0.36053c0.2207,-0.07931 -0.4674,-0.26052 -0.50254,-0.49239c-0.10158,-0.67023 -0.13754,-1.40313 0.12023,-2.0301c0.19274,-0.46881 0.83009,-0.60822 1.13188,-1.01547c1.77065,-2.38939 1.77762,-6.18736 1.75245,-9.21727c-0.88985,0.58714 -2.09744,0.6275 -3.83606,-0.27093c-0.42222,-0.21818 -0.87617,-0.42399 -1.30174,-0.66379c-1.69577,5.04387 -3.81304,10.61374 -7.26614,14.71691zM281.51972,172.11743c6.51526,-0.52055 13.14905,-0.99245 19.68861,-1.00314c0.45903,0 0.92481,-0.00788 1.39522,-0.01913c-0.6446,-4.05651 -2.23286,-7.54412 -5.11825,-10.68795c-0.34578,-0.37676 -2.20216,-2.87038 -2.78923,-2.99797c-0.83153,-0.18073 -1.54175,0.74499 -2.36441,0.96251c-3.35768,0.88781 -5.58662,3.04707 -7.99244,5.40659c-3.73031,1.90907 -7.32907,3.27609 -11.51985,4.018c-7.54567,1.33584 -15.00251,0.73661 -21.66216,5.16988c-2.19652,1.90712 -5.01559,2.97111 -7.09891,4.9146c-1.89063,1.76373 -2.15845,3.71196 -3.10124,5.97633c-1.63609,3.92948 -4.33935,6.90718 -7.61784,9.32118c-0.93856,0.69108 -1.87164,1.67112 -2.87847,2.28971c2.55429,0.64033 5.06386,1.53441 7.68903,1.85427c6.19894,0.75531 11.54858,-0.86716 15.1099,-6.09019c0.06268,-0.86216 0.16279,-1.71812 0.33392,-2.56266c0.41621,-2.05408 1.8776,-4.02036 2.95142,-5.76235c3.06336,-4.96947 6.70764,-8.52685 12.67444,-9.49162c3.92188,-1.46469 8.19193,-0.96982 12.30026,-1.29807z" fill="#000000"/><path d="M269.39289,208.2907c0.42557,0.2398 0.95217,0.37696 1.37439,0.59514c1.73862,0.89843 2.94937,0.86199 3.83922,0.27485c0.02516,3.02991 0.02512,6.84128 -1.74553,9.23067c-0.30179,0.40725 -0.93869,0.54808 -1.13143,1.01689c-0.25776,0.62697 -0.22062,1.3646 -0.11903,2.03483c0.03514,0.23187 0.62492,0.43128 0.40422,0.51059c-0.29526,0.10611 -0.47787,-0.4902 -0.77109,-0.37859c-2.60297,0.99073 -2.62544,4.9121 -2.63641,7.1997c0,1.26165 -0.328,2.7619 0.42785,3.86538c0.30012,0.43815 -0.76718,-0.88819 -1.2224,-1.16174c-0.64945,-0.39026 -1.19233,-0.78457 -1.89854,-1.05907c-1.72919,-0.67212 -4.23932,-0.55405 -5.61048,0.9564c-0.72091,0.79415 -0.39185,2.20633 -1.04741,3.05524c-0.6357,0.82319 -2.04365,0.74921 -2.73933,1.52238c-0.6367,0.70762 -0.42327,1.94346 -1.04896,2.66085c-0.69652,0.79861 -1.47303,-1.59184 -2.41676,-2.0738c-2.64214,-1.34933 -4.2519,0.38104 -5.0662,2.55065c-0.08655,0.55699 -0.09102,1.13311 -0.25889,1.67121c-0.17331,0.55554 -1.16099,0.13078 -1.7369,0.21443c-0.50047,0.07269 -1.02328,0.18801 -1.44696,0.46413c-0.21276,0.13866 -0.30218,0.9412 -0.3264,0.6884c-0.04291,-0.44773 0.43892,-0.9087 0.26474,-1.32339c-0.45053,-1.07255 -3.38893,-2.88582 -4.52646,-2.6362c-0.75116,0.16483 -1.35573,0.66683 -1.77819,1.30943c-0.50977,0.77539 0.18606,2.54351 -0.71083,2.7816c-1.96968,0.52286 -5.00418,-1.01289 -6.68639,-1.95813c-0.13339,-0.07495 -0.26592,-0.2704 -0.5282,-0.43884c7.37638,-2.08518 14.90407,-3.38049 21.51028,-7.74763c3.57812,-3.00864 7.26914,-5.46826 10.35267,-9.13229c3.4531,-4.10317 5.58365,-9.64923 7.27943,-14.69311z" data-paper-data="{&quot;noHover&quot;:false,&quot;origItem&quot;:[&quot;Path&quot;,{&quot;applyMatrix&quot;:true,&quot;segments&quot;:[[[262.16211,222.97225],[3.4531,-4.10317],[-3.08353,3.66403]],[[251.7562,232.16588],[3.57812,-3.00864],[-6.60621,4.36714]],[[230.20875,239.89121],[7.37638,-2.08518],[0.26228,0.16845]],[[230.81978,240.27404],[-0.13339,-0.07495],[1.68221,0.94525]],[[237.49812,242.22315],[-1.96968,0.52286],[0.89689,-0.23809]],[[238.14054,239.51442],[-0.50977,0.77539],[0.42247,-0.64259]],[[239.98886,238.1337],[-0.75116,0.16483],[1.13753,-0.24962]],[[244.50329,240.76133],[-0.45053,-1.07255],[0.17419,0.41469]],[[244.23769,242.08428],[-0.04291,-0.44773],[0.02423,0.2528]],[[244.56411,241.39588],[-0.21276,0.13866],[0.42368,-0.27613]],[[246.00811,240.93043],[-0.50047,0.07269],[0.57591,-0.08365]],[[247.74054,240.71442],[-0.17331,0.55554],[0.16787,-0.5381]],[[248.00021,239.04345],[-0.08655,0.55699],[0.8143,-2.16961]],[[253.04827,236.49052],[-2.64214,-1.34933],[0.94373,0.48196]],[[255.45671,238.56551],[-0.69652,0.79861],[0.62568,-0.71739]],[[256.49887,235.90675],[-0.6367,0.70762],[0.69568,-0.77317]],[[259.22621,234.39102],[-0.6357,0.82319],[0.65556,-0.84891]],[[260.26402,231.34528],[-0.72091,0.79415],[1.37116,-1.51045]],[[265.86738,230.40163],[-1.72919,-0.67212],[0.70621,0.2745]],[[267.85908,231.49703],[-0.64945,-0.39026],[0.45522,0.27355]],[[268.98933,232.61997],[0.30012,0.43815],[-0.75585,-1.10348]],[[268.55833,228.76429],[0,1.26165],[0.01097,-2.2876]],[[271.19457,221.58475],[-2.60297,0.99073],[0.29322,-0.1116]],[[272.06402,221.94528],[-0.29526,0.10611],[0.2207,-0.07931]],[[271.56148,221.4529],[0.03514,0.23187],[-0.10158,-0.67023]],[[271.6817,219.4228],[-0.25776,0.62697],[0.19274,-0.46881]],[[272.81359,218.40733],[-0.30179,0.40725],[1.77065,-2.38939]],[[274.56604,209.19006],[0.02516,3.02991],[-0.88985,0.58714]],[[270.72998,208.91914],[1.73862,0.89843],[-0.42222,-0.21818]],[[269.42824,208.25534],[0.42557,0.2398],[-1.69577,5.04387]]],&quot;closed&quot;:true}]}" fill="#dedede"/><path d="M274.95383,186.34556l1.09204,-0.37057c4.28618,-0.60544 8.32432,0.62128 12.58334,0.62426c2.70147,-0.32299 5.47636,-1.42842 7.84471,-2.80705c1.76365,-1.02663 3.68356,-2.09181 5.8972,-1.30147c2.51625,0.89837 2.79763,4.0466 5.8018,4.31597c2.82879,0.25364 4.73744,-1.85613 7.48302,-1.85633c-0.76371,0.61362 -1.36864,1.48204 -2.04242,2.08977c-1.50167,1.35446 -3.35851,2.66424 -5.1458,3.63087c-3.95501,2.13901 -6.84173,0.49141 -10.95232,0.27775c-2.61282,-0.13581 -5.38758,0.68235 -7.86323,1.44124c-5.14442,1.14443 -10.2143,2.40302 -15.50877,0.99724c-1.66037,-0.44086 -1.34271,-1.50326 -1.33481,-3.01773c0.01075,-2.05809 0.37901,-3.09001 1.54474,-3.96897c0.32758,0.03624 0.60048,-0.05499 0.60048,-0.05499z" data-paper-data="{&quot;noHover&quot;:false,&quot;origItem&quot;:[&quot;Path&quot;,{&quot;applyMatrix&quot;:true,&quot;segments&quot;:[[[274.40316,186.40485],[0.32758,0.03624],[-1.16574,0.87895]],[[272.85833,190.36429],[0.01075,-2.05809],[-0.00791,1.51446]],[[274.19178,193.37455],[-1.66037,-0.44086],[5.29446,1.40578]],[[289.68869,192.35584],[-5.14442,1.14443],[2.47565,-0.75889]],[[297.47746,190.9162],[-2.61282,-0.13581],[4.11059,0.21366]],[[308.41851,190.66219],[-3.95501,2.13901],[1.78728,-0.96663]],[[313.5636,187.04291],[-1.50167,1.35446],[0.67378,-0.60772]],[[315.60649,184.95768],[-0.76371,0.61362],[-2.74558,0.0002]],[[308.12315,186.81138],[2.82879,0.25364],[-3.00417,-0.26937]],[[302.32998,182.51914],[2.51625,0.89837],[-2.21365,-0.79033]],[[296.45081,183.83654],[1.76365,-1.02663],[-2.36835,1.37863]],[[288.67746,186.61237],[2.70147,-0.32299],[-4.25903,-0.00299]],[[276.09552,185.98085],[4.28618,-0.60544],[0,0]],[275.00362,186.35014]],&quot;closed&quot;:true}]}" fill="#df0000"/><path d="M269.1917,173.45709c-5.96681,0.96477 -9.53946,4.45656 -12.60282,9.42603c-1.07382,1.74198 -2.5413,3.69949 -2.95752,5.75358c-0.17113,0.84454 -0.34368,1.7693 -0.40636,2.63145c-3.56132,5.22303 -8.91724,6.83816 -15.11618,6.08285c-2.62516,-0.31986 -5.13852,-1.22027 -7.6928,-1.8606c1.00683,-0.61859 1.93945,-1.59956 2.87802,-2.29064c3.27849,-2.41401 5.97843,-5.40095 7.61452,-9.33044c0.9428,-2.26437 1.20912,-4.22379 3.09975,-5.98752c2.08332,-1.94349 4.90437,-3.02243 7.10089,-4.92955c6.65964,-4.43328 14.1918,-3.86196 21.73747,-5.1978c4.19078,-0.74191 7.8019,-2.09748 11.53221,-4.00655c2.40582,-2.35952 4.6353,-4.51806 7.99298,-5.40588c0.82267,-0.21752 1.53342,-1.1425 2.36495,-0.96177c0.58707,0.1276 2.44651,2.62609 2.79229,3.00285c2.88538,3.14383 4.47909,6.64689 5.12368,10.70339c-0.47041,0.01125 -1.03462,0.03677 -1.49365,0.03677c-6.53956,0.01069 -13.17128,0.49036 -19.68654,1.01091c-4.10833,0.32824 -8.35902,-0.14177 -12.2809,1.32292z" data-paper-data="{&quot;noHover&quot;:false,&quot;origItem&quot;:[&quot;Path&quot;,{&quot;applyMatrix&quot;:true,&quot;segments&quot;:[[[281.51972,172.11743],[-4.10833,0.32824],[6.51526,-0.52055]],[[301.20833,171.11429],[-6.53956,0.01069],[0.45903,0]],[[302.60355,171.09516],[-0.47041,0.01125],[-0.6446,-4.05651]],[[297.48531,160.40721],[2.88538,3.14383],[-0.34578,-0.37676]],[[294.69608,157.40923],[0.58707,0.1276],[-0.83153,-0.18073]],[[292.33166,158.37174],[0.82267,-0.21752],[-3.35768,0.88781]],[[284.33922,163.77834],[2.40582,-2.35952],[-3.73031,1.90907]],[[272.81938,167.79634],[4.19078,-0.74191],[-7.54567,1.33584]],[[251.15722,172.96623],[6.65964,-4.43328],[-2.19652,1.90712]],[[244.05831,177.88083],[2.08332,-1.94349],[-1.89063,1.76373]],[[240.95706,183.85716],[0.9428,-2.26437],[-1.63609,3.92948]],[[233.33922,193.17834],[3.27849,-2.41401],[-0.93856,0.69108]],[[230.46075,195.46804],[1.00683,-0.61859],[2.55429,0.64033]],[[238.14978,197.32231],[-2.62516,-0.31986],[6.19894,0.75531]],[[253.25968,191.23212],[-3.56132,5.22303],[0.06268,-0.86216]],[[253.5936,188.66947],[-0.17113,0.84454],[0.41621,-2.05408]],[[256.54502,182.90712],[-1.07382,1.74198],[3.06336,-4.96947]],[[269.21946,173.4155],[-5.96681,0.96477],[3.92188,-1.46469]]],&quot;closed&quot;:true}]}" fill="#520000"/><path d="M274.85819,183.29546c-1.42372,0.71489 -2.95558,1.40288 -3.72414,2.91548c-1.60321,3.15525 -1.53168,8.22038 2.24722,9.51867c5.48223,1.8835 11.62891,0.22212 16.99516,-0.96925c2.18766,-0.67574 4.6947,-1.4984 7.01148,-1.35936c2.64948,0.159 4.85683,1.4112 7.5711,1.00372c3.57718,-0.53702 6.16791,-2.4827 8.95539,-4.63297c1.4422,-1.11252 2.78744,-2.18755 4.23568,-3.29168c0.50508,-0.38507 1.46043,-0.6984 1.80708,-1.18022c0.75498,4.08347 0.69004,8.51438 1.05739,12.18818l-0.0062,0.27594c0,0 0,0.26942 0.12463,0.55771c-0.2021,4.70283 0.06725,9.42467 -0.51725,14.10101c-0.06448,0.51591 -0.08311,4.87744 -0.89215,5.03051c-2.878,0.5445 -6.54626,0.48576 -9.52917,0.48838c-0.54519,0.10217 -1.18544,0.4006 -1.72019,0.25322c-1.16422,-0.32087 -0.6232,-4.05073 -0.66285,-4.73086c-0.20162,-3.45808 -0.67305,-6.96017 -1.00736,-10.42032c-0.05846,-0.60504 0.1843,-3.77585 -0.36176,-4.16466c-0.91582,-0.65208 -2.12937,-0.32603 -3.25304,-0.36184c-3.12075,-0.09944 -6.38875,0.18657 -9.53091,0.19925c-1.01495,0.0041 -3.11752,-0.20219 -3.81442,0.92345c-0.48096,0.77685 -0.15982,1.83106 -0.23847,2.74135c0,3.67741 0.18144,7.3491 0.18415,11.02218c0.00078,1.05597 0.67536,3.51074 0.43171,4.47215c-0.03855,0.15212 -0.30632,-0.09506 -0.46308,-0.08775c-0.49359,0.02302 -2.52996,0.34295 -3.00665,0.3744c-3.33478,0.21995 -6.6017,0.22511 -9.94097,0.20212l-1.0881,-0.09978c1.40997,-3.14158 1.33358,-7.01942 1.33358,-10.25025l-0.0002,-0.80001c0,0 -0.00361,-0.71052 -0.53894,-1.06027c0.50052,-1.39766 0.88479,-3.06609 1.41992,-4.31343l0.57193,-1.16401c0,0 0.59715,-1.02564 -0.52088,-1.58466c-1.11803,-0.55902 -1.72843,0.55274 -1.72843,0.55274l-0.55754,1.15201c-0.67508,1.57665 -1.15626,3.10417 -1.66421,4.74505c-0.18391,0.59411 0.03631,1.57764 -0.49494,1.90101c-0.57915,0.35253 -1.24075,-0.57815 -1.88418,-0.79189c-0.465,-0.15447 -1.04599,-0.20624 -1.35498,-0.58652c-0.47098,-0.57964 0.32852,-1.46064 0.48601,-2.19071c0.36986,-1.71459 0.61753,-3.32159 0.6191,-5.10335c0,0 0.09952,-1.2523 -1.15048,-1.2523c-1.25,0 -1.25005,1.24219 -1.25005,1.24219c0.0021,2.19306 -0.62477,4.06677 -0.79865,6.20843c-0.03047,0.37534 -0.1666,0.78183 -0.22503,1.17107c-0.52842,0.21062 -0.72422,0.79666 -0.72422,0.79666c-0.07008,0.21024 -0.14165,0.42097 -0.21319,0.63379c-0.17833,0.15868 -0.27373,0.31735 -0.27373,0.31735l-0.3821,0.73527c-1.30788,1.04836 -2.56615,1.77146 -4.03566,2.35903c-0.36688,-0.43495 -0.98677,-0.43679 -0.98677,-0.43679l-1.30654,0.79381c-0.49822,1.68452 -2.19386,2.85526 -3.60277,3.82838c-5.27857,3.64584 -10.51253,4.26617 -16.48717,6.037c-1.72302,0.51068 -2.96375,1.33983 -4.84502,1.3889c-0.47299,-0.31704 -1.3675,-1.28923 -1.20117,-1.94542c0.10567,-0.41687 3.27833,-0.99997 3.64956,-1.09952c2.45628,-0.6587 4.86824,-1.69979 7.14639,-2.84008c6.40281,-3.20483 9.82674,-10.21693 10.47559,-17.17654c0.58256,-3.3798 0.12175,-6.94329 0.77912,-10.29123c0.3504,-1.78456 1.72675,-3.53821 2.65454,-5.04831c2.54916,-4.1491 5.44556,-7.25437 10.2898,-8.23634c0.40258,0.06489 0.76296,-0.08947 0.76296,-0.08947c0.05355,-0.02345 0.10758,-0.04656 0.16139,-0.06908c0.09974,-0.01404 0.20087,-0.02745 0.3022,-0.03982c0,0 0.41577,-0.05228 0.73554,-0.3353c3.4268,-1.05802 7.30077,-0.58469 10.82251,-0.85995c6.45427,-0.50447 13.05986,-0.99536 19.53742,-0.98353c0.64517,0 1.32335,-0.01621 2.01978,-0.03629c0.1813,0.14036 0.43347,0.23844 0.7823,0.23844c0.38372,0 0.64997,-0.11743 0.83427,-0.2807c3.30973,-0.06922 6.84886,0.06091 9.44375,1.85458c3.02351,2.08995 4.5478,5.20573 5.36059,8.64285c-0.4837,-0.45415 -1.36379,-0.72536 -1.85623,-1.1752c-2.04527,-0.51392 -3.62247,-0.7298 -5.67198,-0.01956c-1.15308,0.39959 -2.59549,1.57592 -3.90777,1.53504c-1.28721,-0.0401 -1.60808,-1.51872 -2.43833,-2.27006c-1.49818,-1.35579 -2.74631,-1.96381 -4.7717,-2.12081c-4.72835,-0.36653 -7.95566,3.75367 -12.52965,4.20872c-4.16682,0.00356 -8.03923,-1.06571 -12.21543,-0.65102c-0.58832,-0.63377 -1.43457,-0.20892 -1.43457,-0.20892z" data-paper-data="{&quot;noHover&quot;:false,&quot;origItem&quot;:[&quot;Path&quot;,{&quot;applyMatrix&quot;:true,&quot;segments&quot;:[[[276.28856,183.45456],[-0.58832,-0.63377],[4.1762,-0.41469]],[[288.53921,184.1162],[-4.16682,0.00356],[4.574,-0.45505]],[[301.07746,179.9162],[-4.72835,-0.36653],[2.02538,0.157]],[[305.85306,182.04291],[-1.49818,-1.35579],[0.83025,0.75134]],[[308.29352,184.31719],[-1.28721,-0.0401],[1.31227,0.04088]],[[312.20139,182.78238],[-1.15308,0.39959],[2.04951,-0.71024]],[[317.87438,182.80441],[-2.04527,-0.51392],[0.49244,0.44983]],[[319.6364,184.01308],[-0.4837,-0.45415],[-0.81279,-3.43712]],[[314.28068,175.38066],[3.02351,2.08995],[-2.59489,-1.79367]],[[304.84228,173.53323],[3.30973,-0.06922],[-0.18429,0.16327]],[[304.00833,173.81429],[0.38372,0],[-0.34884,0]],[[303.2267,173.57657],[0.1813,0.14036],[-0.69643,0.02008]],[[301.20833,173.61429],[0.64517,0],[-6.47756,-0.01183]],[[281.69694,174.61114],[6.45427,-0.50447],[-3.52175,0.27526]],[[270.89728,175.46984],[3.4268,-1.05802],[-0.31976,0.28302]],[[270.16337,175.80464],[0,0],[-0.10134,0.01237]],[[269.86177,175.84426],[0.09974,-0.01404],[-0.05381,0.02252]],[[269.70073,175.91322],[0.05355,-0.02345],[0,0]],[[268.93926,176.00213],[0.40258,0.06489],[-4.84424,0.98197]],[[258.67165,184.22145],[2.54916,-4.1491],[-0.92779,1.51011]],[[256.02307,189.25911],[0.3504,-1.78456],[-0.65737,3.34795]],[[255.24756,199.5281],[0.58256,-3.3798],[-0.64885,6.95961]],[[244.76553,216.68323],[6.40281,-3.20483],[-2.27814,1.14029]],[[237.53167,219.57175],[2.45628,-0.6587],[-0.37123,0.09956]],[[233.97052,220.62455],[0.10567,-0.41687],[-0.16634,0.65619]],[[235.17057,222.56792],[-0.47299,-0.31704],[1.88127,-0.04907]],[[240.01488,221.17783],[-1.72302,0.51068],[5.97464,-1.77083]],[[256.49828,215.13554],[-5.27857,3.64584],[1.40891,-0.97312]],[[260.02248,211.369],[-0.49822,1.68452],[0,0]],[261.40834,210.51429],[[262.3936,210.94923],[-0.36688,-0.43495],[1.46951,-0.58757]],[[266.42746,208.5882],[-1.30788,1.04836],[0,0]],[266.73647,207.92117],[[267.01008,207.60369],[-0.17833,0.15868],[0.07155,-0.21282]],[[267.22248,206.969],[-0.07008,0.21024],[0,0]],[[267.94637,206.17196],[-0.52842,0.21062],[0.05843,-0.38924]],[[268.16939,204.99837],[-0.03047,0.37534],[0.17388,-2.14166]],[[268.95833,198.76429],[0.0021,2.19306],[0,0]],[[270.20833,197.51429],[-1.25,0],[1.25,0]],[[271.45833,198.76429],[0,0],[-0.00157,1.78176]],[[270.82737,203.8408],[0.36986,-1.71459],[-0.15749,0.73007]],[[270.33701,206.02707],[-0.47098,-0.57964],[0.30899,0.38028]],[[271.68669,206.60944],[-0.465,-0.15447],[0.64343,0.21375]],[[273.56221,207.39661],[-0.57915,0.35253],[0.53125,-0.32337]],[[274.01663,205.58701],[-0.18391,0.59411],[0.50794,-1.64088]],[[275.67436,200.83835],[-0.67508,1.57665],[0,0]],[276.2903,199.60527],[[277.96735,199.04625],[-1.11803,-0.55902],[1.11803,0.55902]],[278.52637,200.7233],[[277.94231,201.89022],[0,0],[-0.53513,1.24734]],[[276.52301,206.10433],[0.50052,-1.39766],[0.53533,0.34975]],[277.05833,207.16429],[[277.05833,207.96429],[0,0],[0,3.23083]],[[275.71803,218.31429],[1.40997,-3.14158],[0,0]],[[276.81228,218.31429],[0,0],[3.33928,0.02299]],[[286.73066,218.1167],[-3.33478,0.21995],[0.47669,-0.03144]],[[289.73182,217.74525],[-0.49359,0.02302],[0.15676,-0.00731]],[[290.19428,217.8334],[-0.03855,0.15212],[0.24365,-0.96142]],[[289.75833,213.36429],[0.00078,1.05597],[-0.00271,-3.67307]],[[289.55833,202.36429],[0,3.67741],[0.07865,-0.9103]],[[289.79428,199.6334],[-0.48096,0.77685],[0.6969,-1.12564]],[[293.60833,198.71429],[-1.01495,0.0041],[3.14216,-0.01268]],[[303.13921,198.5162],[-3.12075,-0.09944],[1.12367,0.03581]],[[306.49222,198.8804],[-0.91582,-0.65208],[0.54606,0.38881]],[[306.85328,203.05203],[-0.05846,-0.60504],[0.33431,3.46015]],[[307.85592,213.48661],[-0.20162,-3.45808],[0.03965,0.68013]],[[308.51611,218.22207],[-1.16422,-0.32087],[0.53474,0.14738]],[[310.15169,217.91557],[-0.54519,0.10217],[2.98291,-0.00263]],[[319.67814,217.4323],[-2.878,0.5445],[0.80904,-0.15307]],[[320.56829,212.40686],[-0.06448,0.51591],[0.5845,-4.67634]],[[321.08297,198.32135],[-0.2021,4.70283],[-0.12463,-0.28829]],[320.95833,197.76429],[[320.96454,197.48867],[0,0],[-0.36734,-3.6738]],[[319.90926,185.31423],[0.75498,4.08347],[-0.34665,0.48181]],[[318.19816,186.46638],[0.50508,-0.38507],[-1.44825,1.10413]],[[313.96314,189.76066],[1.4422,-1.11252],[-2.78747,2.15027]],[[305.00856,194.39815],[3.57718,-0.53702],[-2.71426,0.40748]],[[297.33921,193.41237],[2.64948,0.159],[-2.31678,-0.13904]],[[290.32797,194.77273],[2.18766,-0.67574],[-5.36625,1.19136]],[[273.42489,195.75402],[5.48223,1.8835],[-3.77889,-1.29829]],[[271.11031,186.16693],[-1.60321,3.15525],[0.76857,-1.5126]],[[274.84932,183.24625],[-1.42372,0.71489],[0,0]]],&quot;closed&quot;:true}]}" fill="#ab6300"/><path d="M263.95833,190.36429c0,-0.69036 0.55964,-1.25 1.25,-1.25c0.69036,0 1.25,0.55964 1.25,1.25c0,0.69036 -0.55964,1.25 -1.25,1.25c-0.69036,0 -1.25,-0.55964 -1.25,-1.25z" fill="#000000"/></g></g></svg>