<svg version="1.1" xmlns="http://www.w3.org/2000/svg" xmlns:xlink="http://www.w3.org/1999/xlink" width="98.83229" height="116.86031" viewBox="0,0,98.83229,116.86031"><g transform="translate(-194.45531,-127.17485)"><g data-paper-data="{&quot;isPaintingLayer&quot;:true}" fill-rule="nonzero" stroke="none" stroke-width="0.5" stroke-linecap="butt" stroke-linejoin="miter" stroke-miterlimit="10" stroke-dasharray="" stroke-dashoffset="0" style="mix-blend-mode: normal"><path d="M234.87835,161.75485c-0.87383,0.43514 -1.79726,0.77568 -2.73495,1.04706l-0.84023,0.21077c0,0 -0.46961,0.1174 -0.89742,-0.08615c-1.63424,0.69739 -2.63581,2.50509 -2.7589,4.36208c-0.04383,0.66117 -0.4085,2.49923 0.3101,2.91664c3.11999,1.81229 5.39379,0.13432 8.49032,-0.24589c1.90821,-0.2343 3.72042,-0.22305 5.6425,-0.57026c6.98432,-2.3465 11.67487,-6.04687 17.07475,-10.91888c0.6375,-0.57518 1.2035,-0.94291 1.71468,-1.32117c0.55056,-0.58146 1.04632,-1.09894 1.4227,-1.47961c-0.21784,-0.22497 -0.3519,-0.53155 -0.3519,-0.86944c0,-0.12924 0.01961,-0.2539 0.05603,-0.37116l0.39207,-1.37224l0.13749,0.03928l0.02378,-0.3884c0.66955,-0.5763 1.51315,-1.013 1.97732,-1.76465c0.38523,-0.62382 0.66902,-1.31871 0.84675,-2.03003c1.33547,-5.34465 -7.06274,-4.62981 -9.47095,-1.66828c-0.6677,1.85027 -1.49685,2.67103 -2.79751,3.40847c-0.40432,0.41701 -0.83367,0.833 -1.30326,1.24027c-4.25767,3.69266 -8.74516,7.00615 -14.20226,9.08713c-0.22383,0.08536 -0.75665,0.1947 -1.48664,0.32063c-0.40806,0.1626 -0.82258,0.31434 -1.24446,0.45381zM226.44305,172.19475c-1.57512,-1.25764 -1.2581,-1.77692 -1.29305,-3.59475c-0.07461,-3.88177 1.65517,-7.45756 5.52036,-8.33277c0.10714,-0.79302 0.20007,-1.57444 0.24705,-2.36957c-2.7949,1.74774 -5.46677,3.53816 -8.44882,0.13599c-0.38777,-0.4424 -0.85581,-0.86393 -1.04812,-1.41989c-0.04069,-0.11763 -0.05887,-0.7116 -0.06663,-1.36252c-0.11406,0.09973 -0.22809,0.1995 -0.3421,0.29933c-0.40383,0.33657 -0.80768,0.67314 -1.21151,1.0097l-0.11634,0.12361c0,0 -0.88389,0.88388 -1.76777,0c-0.88388,-0.88388 0,-1.76777 0,-1.76777l0.28366,-0.27639c0.39616,-0.33009 0.79233,-0.6602 1.18849,-0.9903c0.8394,-0.73393 1.68043,-1.46498 2.52221,-2.1944c-0.28567,-0.21034 -0.42851,-0.49601 -0.42851,-0.49601c-0.82145,-1.65079 -2.1356,-3.20286 -2.67511,-4.9863c-1.30435,-4.31179 1.17265,-9.39178 1.96439,-13.60224c0.22999,-1.22308 0.07231,-4.66088 1.67471,-5.1693c0.80447,-0.25525 2.60232,1.41652 3.23822,1.95269c4.70492,2.325 9.59395,2.0912 14.69259,2.8087l1.22872,0.20444c0,0 0.70008,0.11668 0.95727,0.70173c0.11793,-0.11735 0.23571,-0.23488 0.35334,-0.35262c0,0 0.88389,-0.88388 1.76777,0c0.88388,0.88388 0,1.76777 0,1.76777c-0.60921,0.60862 -1.22231,1.21203 -1.83891,1.81076c3.84085,1.72504 9.43948,4.90045 11.27792,8.55616c0.05105,0.10152 0.10057,0.20414 0.14861,0.30781c0.18486,-0.1431 0.43328,-0.24385 0.761,-0.21825c3.3,-2.66003 9.35778,-3.62136 11.96087,-0.29911c0.38144,0.48682 0.64738,1.01926 0.81403,1.5778c2.18291,-0.50618 4.36078,-1.02398 6.4948,-1.7069c-0.21549,-2.31208 -1.05118,-5.75599 -0.22884,-7.45364c0.57367,-1.1843 2.63146,-2.0785 3.88223,-1.65687c1.32799,0.44766 4.94253,4.30776 4.63951,6.4193c0.36647,-0.25706 0.77885,-0.455 1.19921,-0.60328c0.5032,-0.1775 1.05712,-0.14889 1.58153,-0.2474c2.42629,-0.45579 3.50346,-0.42257 5.70802,0.74586c0.80309,1.54707 1.3548,1.93507 0.93268,3.77107c-0.14168,0.61625 -0.42669,1.22401 -0.84448,1.69866c-0.16051,0.18234 -0.8155,-0.14175 -0.724,0.08328c0.3412,0.83914 1.66647,0.95216 2.06646,1.76492c1.30711,2.65606 0.59492,4.84553 -1.29035,5.9135c1.84908,2.03942 3.26089,4.92657 0.56563,6.55455c-1.63921,0.9901 -3.12365,-0.56484 -4.67843,-0.65524c-4.98083,-0.28961 -9.2585,-0.71234 -14.24995,-0.2245c-0.28237,0.09456 -0.55808,0.17553 -0.82945,0.24632c-0.05452,0.34059 -0.2561,0.72364 -0.8367,0.91718c-0.77742,0.25914 -1.21507,-0.16127 -1.42432,-0.48161c-0.61332,0.09387 -1.23814,0.18531 -1.90281,0.31665c-1.55321,0.30692 -2.82345,1.1047 -4.15326,1.79704c0.9593,2.51844 1.56115,5.22077 1.90027,8.00384l1.34706,0.18186c4.42482,2.14885 7.13867,5.03599 9.72802,9.18492c1.66033,3.31557 3.6137,6.67063 3.15229,10.54784c-0.8716,7.32409 -9.49818,12.1246 -16.26482,13.07402c-0.08549,0.22851 -0.34278,0.74982 -0.93314,0.83811c0.13378,0.88103 0.20455,1.80706 0.20352,2.82061c-1.22107,10.98969 -2.28536,23.4634 -11.5642,30.81476c-1.3074,1.62534 -1.27183,4.26243 -3.47012,5.09565c-1.91807,0.727 -5.85796,-0.30439 -7.89143,-0.53195c-0.66941,-0.07491 -1.50747,0.24401 -2.01044,-0.20403c-0.19311,-0.17202 -0.36555,-0.37323 -0.51447,-0.59415l-1.19719,0.38446c-1.49603,0.01224 -3.90166,0.21744 -5.15897,-0.84048c-1.67686,-1.41093 -1.46177,-3.36508 -1.06377,-5.25408c0.85064,-4.03734 2.51075,-7.78935 3.40228,-11.81047c0,0 0.0958,-0.43111 0.42976,-0.72389c0.55372,-2.33855 1.74867,-4.60448 1.75661,-7.00472c-0.73557,-2.10006 -1.93778,-3.89386 -2.73111,-5.94707c-2.4816,-6.42262 -2.85315,-13.44074 -0.54454,-19.91151c-0.19568,-0.41942 -0.40425,-0.83775 -0.64243,-1.25634c-0.33691,-1.15491 -0.73258,-2.29222 -1.11195,-3.43373c-4.37915,7.24639 -15.66301,8.15321 -22.48885,3.14636c-2.14454,-1.57305 -3.72139,-4.16889 -4.96274,-6.4343c-1.67247,-3.68115 -2.58938,-7.72563 -2.92618,-11.83003c-1.76673,-0.4719 -3.46804,-0.68587 -4.62165,-2.47644c-1.05259,-1.63378 -0.9848,-4.40451 -0.98669,-6.25716c-0.00524,-5.14262 -0.61023,-10.36985 1.30568,-15.219c3.91763,-2.20071 8.67999,-1.58145 12.8938,-0.38115c2.25553,0.64249 4.75287,0.71143 5.81819,3.15402c0.60182,1.37987 0.37466,3.29467 0.47918,4.75752c0.23506,3.28994 0.20314,6.58072 0.20314,9.88861c0,1.58994 0.30848,3.72367 -0.27845,5.23587c-0.71062,1.83089 -2.19331,2.64272 -3.96421,2.91484c0.06632,0.55232 0.14157,1.10483 0.22787,1.65752c0.25619,1.64076 0.9042,6.32662 2.86113,7.04454c2.1712,0.79652 4.12311,-0.02346 6.179,-0.58732c2.98781,-2.04395 5.5983,-4.32543 8.13594,-6.84515c0.06224,-0.21567 0.18772,-0.47766 0.44067,-0.65748c0.00325,-0.11856 0.00686,-0.23716 0.01084,-0.35578c0.02489,0.00047 0.04982,0.00089 0.07481,0.00125c-0.83781,-0.18222 -1.66992,-0.55511 -2.49454,-1.21353zM240.02323,134.43744c-5.49907,-0.7989 -10.62705,-0.63016 -15.70741,-3.1913c-0.20942,-0.17279 -0.53883,-0.42881 -0.81686,-0.69121c-0.01329,0.22996 -0.03925,0.45349 -0.06001,0.611c-0.25903,1.9652 -0.47197,4.30653 -1.0458,6.2068c-0.72701,2.40755 -2.0279,5.22773 -1.2,7.85458c0.51484,1.63354 1.76149,3.09337 2.52489,4.61369c0,0 0.00639,0.01278 0.01643,0.03628c5.78904,-5.00107 11.58285,-9.96782 17.09328,-15.3055zM202.07796,169.55415c0.0393,-0.00274 0.07996,-0.00415 0.12204,-0.00415c0.41497,0 0.69218,0.13776 0.87736,0.32181c2.39086,0.40039 4.71896,1.03384 7.14586,0.69075c0.90997,-0.12864 2.07471,-0.09195 2.40523,-1.19843c0.38894,-1.30208 0.12155,-3.02954 0.12155,-4.36413c0,-4.33109 0.67596,-9.54467 -0.51768,-13.75387c-0.32746,-1.15474 -3.21707,-1.36946 -4.18181,-1.64598c-3.1902,-0.91441 -7.13033,-1.52403 -10.3062,-0.38115c-0.82805,4.05647 -0.69432,8.01722 -0.69432,12.181c0,1.77409 -0.37912,4.74386 0.61331,6.34284c0.49266,0.79377 1.41837,1.08292 2.36,1.28014c-0.0059,-0.22513 -0.01018,-0.45026 -0.01286,-0.67534c0.1746,0.2666 0.37345,0.53084 0.59266,0.78902c0.42527,0.08083 0.83593,0.16019 1.19217,0.27749c0,0 0.12627,0.04209 0.28267,0.14001zM232.80746,235.92333c-0.2221,0.83148 -1.27127,3.37972 -0.24872,4.08329c0.77744,0.53492 2.34547,0.34857 3.24103,0.35952l1.00045,-0.35042c0.23056,-1.08175 1.42272,-1.18975 1.92244,-2.04963c1.1486,-1.97643 1.51824,-4.63148 2.55931,-6.72511c0,0 0.08817,-0.17634 0.2645,-0.35394c1.40144,-5.17168 4.56003,-12.38104 3.25717,-17.52482c-0.35059,-1.38417 -2.64933,-2.86628 -3.57187,-3.97164c-3.8682,-4.83477 -6.5147,-9.37369 -5.95339,-14.70798c-0.17033,0.10151 -0.39141,0.16739 -0.67838,0.16739c-0.29644,0 -0.52258,-0.0703 -0.69509,-0.17756c-1.23443,5.18722 -0.67552,10.61375 1.26005,15.6744c0.85179,2.22705 2.12729,4.14364 2.86889,6.45293c0.00593,2.88158 -1.18864,5.2491 -1.80412,8.02436l-0.1923,1.35264c0,0 -0.09332,0.65326 -0.619,0.94269c-0.78154,2.97039 -1.81118,5.80969 -2.61098,8.80387zM271.65,147.8c-0.00368,3.4661 0.14747,6.87556 0.18937,10.33154c0.16656,-0.04765 0.33297,-0.09874 0.49919,-0.1539c3.52631,-0.36025 6.89843,-1.03235 10.47478,-0.4093c1.94073,0.3381 4.29582,0.28563 6.15937,0.83852c0.56797,0.16851 1.05907,0.81924 1.63747,0.69105c0.27206,-0.0603 -0.03614,-0.57248 -0.16503,-0.81955c-0.80888,-1.55057 -0.90605,-2.08886 -1.95938,-2.83035c-0.0285,0.00082 -0.05709,0.00149 -0.08577,0.00199h-0.2c0,0 -1.25,0 -1.25,-1.25c0,-0.04058 0.00132,-0.07984 0.00387,-0.11782c-0.06196,-0.24856 -0.03989,-0.5511 0.16083,-0.90235c0.62018,-1.08531 1.70548,-0.46513 1.70548,-0.46513c0.10993,0.06314 0.22618,0.13572 0.34733,0.21692c3.88479,-0.33083 -1.10738,-4.42401 -1.2156,-6.00074c-0.12393,-1.80567 2.33168,-1.46353 1.3642,-3.64699c-1.44507,-0.61249 -3.24944,-0.43122 -4.71045,0.09846c-1.02834,0.37281 -2.32733,1.95427 -3.67213,1.07517c-0.69027,-0.45123 -0.48213,-1.57758 -0.74724,-2.35849c-0.507,-1.4934 -1.47357,-3.65946 -2.9419,-4.50068c-1.01667,-0.58246 -0.80782,1.23334 -0.79631,1.33252c0.24558,2.11599 0.40192,4.1401 0.40192,6.26913c0,0 0,1.19312 -1.16565,1.24805l-0.29595,0.14008c-1.23802,0.40309 -2.49041,0.74974 -3.75002,1.06928c0.01162,0.0873 0.01162,0.14259 0.01162,0.14259zM264.84686,191.08861c-0.00305,0.57453 -0.0152,1.15913 -0.03548,1.75082c3.82502,-2.59737 5.22662,-10.44504 1.12498,-13.04632c-0.13018,3.89803 -0.57491,7.752 -1.0895,11.29551z" fill="#000000"/><path d="M271.58849,147.65406c1.25961,-0.31954 2.51394,-0.67701 3.75196,-1.0801l0.29652,-0.14188c1.16565,-0.05493 1.17238,-1.26119 1.17238,-1.26119c0,-2.12903 -0.13822,-4.16866 -0.3838,-6.28465c-0.01151,-0.09918 -0.21508,-1.91728 0.80159,-1.33482c1.46833,0.84122 2.44426,3.00483 2.95125,4.49823c0.26511,0.7809 0.06168,1.90672 0.75196,2.35796c1.3448,0.8791 2.67558,-0.69348 3.70391,-1.06629c1.46101,-0.52967 3.27934,-0.69616 4.72442,-0.08367c0.96748,2.18346 -1.48169,1.85766 -1.35776,3.66332c0.10821,1.57673 5.09463,5.7049 1.20984,6.03572c-0.12115,-0.0812 -0.23737,-0.15385 -0.3473,-0.21699c0,0 -1.08998,-0.61344 -1.71015,0.47187c-0.20072,0.35126 -0.22608,0.65742 -0.16412,0.90597c-0.00255,0.03798 -0.00424,0.07761 -0.00424,0.11819c0,1.25 1.18001,1.17858 1.18001,1.17858l0.1995,0.0005c0.02868,-0.00051 0.12854,0.06897 0.15703,0.06815c1.05334,0.74149 1.14879,1.28146 1.95767,2.83202c0.12889,0.24707 0.43596,0.76027 0.1639,0.82057c-0.5784,0.1282 -1.07186,-0.5206 -1.63983,-0.68911c-1.86356,-0.55289 -4.24049,-0.49078 -6.18122,-0.82888c-3.57635,-0.62305 -6.99087,0.03673 -10.51718,0.39698c-0.16623,0.05516 -0.33335,0.10558 -0.49991,0.15323c-0.04189,-3.45598 -0.20854,-6.90431 -0.20486,-10.37041c0,0 0.00004,-0.05602 -0.01158,-0.14333z" data-paper-data="{&quot;noHover&quot;:false,&quot;origItem&quot;:[&quot;Path&quot;,{&quot;applyMatrix&quot;:true,&quot;segments&quot;:[[[271.65,147.8],[0,0],[-0.00368,3.4661]],[[271.83937,158.13154],[-0.04189,-3.45598],[0.16656,-0.04765]],[[272.33856,157.97765],[-0.16623,0.05516],[3.52631,-0.36025]],[[282.81334,157.56834],[-3.57635,-0.62305],[1.94073,0.3381]],[[288.97271,158.40686],[-1.86356,-0.55289],[0.56797,0.16851]],[[290.61018,159.09791],[-0.5784,0.1282],[0.27206,-0.0603]],[[290.44515,158.27836],[0.12889,0.24707],[-0.80888,-1.55057]],[[288.48577,155.44801],[1.05334,0.74149],[-0.0285,0.00082]],[[288.4,155.45],[0.02868,-0.00051],[0,0]],[288.2,155.45],[[286.95,154.2],[0,1.25],[0,-0.04058]],[[286.95387,154.08218],[-0.00255,0.03798],[-0.06196,-0.24856]],[[287.1147,153.17983],[-0.20072,0.35126],[0.62018,-1.08531]],[[288.82018,152.7147],[0,0],[0.10993,0.06314]],[[289.16751,152.93162],[-0.12115,-0.0812],[3.88479,-0.33083]],[[287.95192,146.93087],[0.10821,1.57673],[-0.12393,-1.80567]],[[289.31612,143.28389],[0.96748,2.18346],[-1.44507,-0.61249]],[[284.60567,143.38234],[1.46101,-0.52967],[-1.02834,0.37281]],[[280.93354,144.45751],[1.3448,0.8791],[-0.69027,-0.45123]],[[280.18629,142.09903],[0.26511,0.7809],[-0.507,-1.4934]],[[277.2444,137.59835],[1.46833,0.84122],[-1.01667,-0.58246]],[[276.44809,138.93087],[-0.01151,-0.09918],[0.24558,2.11599]],[[276.85,145.2],[0,-2.12903],[0,0]],[[275.68435,146.44805],[1.16565,-0.05493],[0,0]],[[275.3884,146.58813],[0,0],[-1.23802,0.40309]],[[271.63838,147.65741],[1.25961,-0.31954],[0.01162,0.0873]]],&quot;closed&quot;:true}]}" fill="#ffc3c3"/><path d="M236.17046,161.28588c0.72999,-0.12594 1.16776,-0.20422 1.39159,-0.28958c5.45709,-2.08099 10.02476,-5.44814 14.28243,-9.1408c0.46959,-0.40727 0.89959,-0.82268 1.30392,-1.2397c1.30066,-0.73743 2.12929,-1.55866 2.79699,-3.40893c2.40821,-2.96154 10.81857,-3.66041 9.4831,1.68424c-0.17774,0.71131 -0.46001,1.40967 -0.84524,2.03349c-0.46417,0.75164 -1.30685,1.19092 -1.9764,1.76722l-0.02346,0.38943l-0.13756,-0.03951l-0.39109,1.37587c-0.03641,0.11726 -0.05579,0.243 -0.05579,0.37224c0,0.33789 0.13457,0.64732 0.35241,0.87229c-0.37638,0.38068 -0.87169,0.9025 -1.42225,1.48396c-0.51118,0.37827 -1.07713,0.75082 -1.71463,1.32599c-5.39988,4.87201 -10.15851,8.6171 -17.14283,10.9636c-1.92208,0.34721 -3.74838,0.32761 -5.65658,0.56191c-3.09653,0.38021 -5.3799,2.04741 -8.49989,0.23512c-0.7186,-0.41741 -0.35701,-2.26086 -0.31318,-2.92203c0.12309,-1.85699 1.12171,-3.67214 2.75594,-4.36953c0.42781,0.20355 0.99271,0.05584 0.99271,0.05584l0.84017,-0.21097c0.9377,-0.27138 1.76613,-0.58068 2.63996,-1.01582c0.42189,-0.13947 0.93163,-0.32175 1.33969,-0.48435z" data-paper-data="{&quot;noHover&quot;:false,&quot;origItem&quot;:[&quot;Path&quot;,{&quot;applyMatrix&quot;:true,&quot;segments&quot;:[[[234.87835,161.75485],[0.42189,-0.13947],[-0.87383,0.43514]],[[232.1434,162.8019],[0.9377,-0.27138],[0,0]],[231.30317,163.01268],[[230.40575,162.92653],[0.42781,0.20355],[-1.63424,0.69739]],[[227.64686,167.28861],[0.12309,-1.85699],[-0.04383,0.66117]],[[227.95695,170.20525],[-0.7186,-0.41741],[3.11999,1.81229]],[[236.44727,169.95937],[-3.09653,0.38021],[1.90821,-0.2343]],[[242.08977,169.38911],[-1.92208,0.34721],[6.98432,-2.3465]],[[259.16452,158.47023],[-5.39988,4.87201],[0.6375,-0.57518]],[[260.8792,157.14905],[-0.51118,0.37827],[0.55056,-0.58146]],[[262.3019,155.66944],[-0.37638,0.38068],[-0.21784,-0.22497]],[[261.95,154.8],[0,0.33789],[0,-0.12924]],[[262.00603,154.42884],[-0.03641,0.11726],[0,0]],[262.3981,153.0566],[262.53558,153.09588],[[262.55937,152.70748],[0,0],[0.66955,-0.5763]],[[264.53669,150.94284],[-0.46417,0.75164],[0.38523,-0.62382]],[[265.38344,148.91281],[-0.17774,0.71131],[1.33547,-5.34465]],[[255.91249,147.24453],[2.40821,-2.96154],[-0.6677,1.85027]],[[253.11498,150.653],[1.30066,-0.73743],[-0.40432,0.41701]],[[251.81171,151.89327],[0.46959,-0.40727],[-4.25767,3.69266]],[[237.60946,160.98041],[5.45709,-2.08099],[-0.22383,0.08536]],[[236.12282,161.30104],[0.72999,-0.12594],[-0.40806,0.1626]]],&quot;closed&quot;:true}]}" fill="#ff5454"/><path d="M235.43425,227.07203c0.52568,-0.28943 0.5889,-0.84734 0.5889,-0.84734l0.19105,-1.35303c0.61548,-2.77526 1.79446,-5.22943 1.78853,-8.11101c-0.7416,-2.30928 -2.00762,-4.23182 -2.85941,-6.45887c-1.93558,-5.06065 -2.48293,-10.49108 -1.2485,-15.6783c0.17251,0.10726 0.40002,0.1773 0.69646,0.1773c0.28696,0 0.50954,-0.06612 0.67987,-0.16763c-0.5613,5.33428 2.10772,9.87508 5.97592,14.70985c0.92254,1.10536 3.24744,2.60713 3.59803,3.99131c1.30286,5.14378 -1.88647,12.42991 -3.28792,17.60159c-0.17633,0.17759 -0.26568,0.35418 -0.26568,0.35418c-1.04107,2.09363 -1.41999,4.74959 -2.56859,6.72602c-0.49972,0.85988 -1.69617,0.96772 -1.92673,2.04947l-1.00254,0.35021c-0.89556,-0.01095 -2.47048,0.17405 -3.24792,-0.36087c-1.02255,-0.70357 0.02457,-3.2524 0.24667,-4.08388c0.7998,-2.99418 1.86031,-5.92859 2.64185,-8.89898z" data-paper-data="{&quot;noHover&quot;:false,&quot;origItem&quot;:[&quot;Path&quot;,{&quot;applyMatrix&quot;:true,&quot;segments&quot;:[[[465.61492,471.84666],[1.5996,-5.98836],[-0.44421,1.66296]],[[465.11748,480.01323],[-2.0451,-1.40714],[1.55488,1.06984]],[[471.59954,480.73228],[-1.79111,-0.02191],[0,0]],[[473.60044,480.03144],[0,0],[0.46111,-2.1635]],[[477.44532,475.93218],[-0.99944,1.71976],[2.2972,-3.95286]],[[482.56393,462.48197],[-2.08213,4.18725],[0,0]],[[483.09294,461.7741],[-0.35267,0.35519],[2.80289,-10.34336]],[[489.60727,426.72446],[2.60572,10.28756],[-0.70119,-2.76835]],[[482.46354,418.78118],[1.84507,2.21072],[-7.73639,-9.66953]],[[470.55675,389.36523],[-1.12261,10.66857],[-0.34066,0.20302]],[[469.2,389.7],[0.57392,0],[-0.59288,0]],[[467.80983,389.34488],[0.34502,0.21452],[-2.46887,10.37445]],[[470.32994,420.69369],[-3.87116,-10.1213],[1.70359,4.4541]],[[476.06772,433.59954],[-1.4832,-4.61857],[0.01185,5.76317]],[[472.45948,449.64827],[1.23096,-5.55052],[0,0]],[472.07487,452.35355],[[470.83688,454.23892],[1.05135,-0.57885],[-1.56307,5.94078]]],&quot;closed&quot;:true}]}" fill="#444444"/><path d="M201.7799,169.46172c-0.35624,-0.1173 -0.77234,-0.19878 -1.19761,-0.2796c-0.21921,-0.25818 -0.42192,-0.5244 -0.59652,-0.791c0.00268,0.22507 0.00838,0.45098 0.01428,0.67611c-0.94163,-0.19722 -1.87751,-0.49345 -2.37017,-1.28722c-0.99243,-1.59898 -0.62867,-4.595 -0.62867,-6.36909c0,-4.16378 -0.11343,-8.17655 0.71462,-12.23302c3.17587,-1.14288 7.15921,-0.53995 10.34941,0.37446c0.96474,0.27652 3.87239,0.50125 4.19985,1.65599c1.19364,4.2092 0.52607,9.48893 0.52607,13.82002c0,1.33459 0.25718,3.07294 -0.13177,4.37503c-0.33052,1.10649 -1.50452,1.07557 -2.41448,1.20421c-2.4269,0.34309 -4.78572,-0.28623 -7.17658,-0.68662c-0.18518,-0.18405 -0.46675,-0.32282 -0.88172,-0.32282c-0.04208,0 -0.08329,0.00126 -0.12258,0.004c-0.1564,-0.09792 -0.28412,-0.14045 -0.28412,-0.14045z" data-paper-data="{&quot;noHover&quot;:false,&quot;origItem&quot;:[&quot;Path&quot;,{&quot;applyMatrix&quot;:true,&quot;segments&quot;:[[[404.15592,339.10831],[-0.3128,-0.19583],[0.07859,-0.00548]],[[404.4,339.1],[-0.08416,0],[0.82994,0]],[[406.15472,339.74363],[-0.37037,-0.36811],[4.78173,0.80079]],[[420.44645,341.12513],[-4.85379,0.68617],[1.81993,-0.25728]],[[425.25691,338.72826],[-0.66104,2.21297],[0.77789,-2.60416]],[[425.5,330],[0,2.66917],[0,-8.66219]],[[424.46465,302.49226],[2.38727,8.41841],[-0.65492,-2.30948]],[[416.10103,299.2003],[1.92947,0.55304],[-6.38041,-1.82881]],[[395.48863,298.438],[6.35174,-2.28576],[-1.6561,8.11294]],[[394.1,322.8],[0,-8.32756],[0,3.54817]],[[395.32663,335.48567],[-1.98486,-3.19796],[0.98533,1.58753]],[[400.04663,338.04595],[-1.88326,-0.39443],[-0.01181,-0.45027]],[[400.02091,336.69527],[0.00535,0.45015],[0.34919,0.5332]],[[401.20624,338.27332],[-0.43842,-0.51636],[0.85054,0.16165]],[[403.59057,338.82829],[-0.71247,-0.23459],[0,0]]],&quot;closed&quot;:true}]}" fill="#b5b5b5"/><path d="M240.87124,134.54709c-5.51042,5.33768 -11.37746,10.3693 -17.1665,15.37038c-0.01004,-0.02351 -0.01655,-0.03637 -0.01655,-0.03637c-0.7634,-1.52033 -2.02462,-2.99729 -2.53946,-4.63083c-0.8279,-2.62685 0.46998,-5.4859 1.197,-7.89345c0.57383,-1.90026 0.80244,-4.26433 1.06146,-6.22953c0.02076,-0.1575 0.04813,-0.38214 0.06142,-0.6121c0.27803,0.2624 0.60827,0.5178 0.81769,0.69059c5.08036,2.56115 10.28013,2.40605 15.7792,3.20495z" data-paper-data="{&quot;noHover&quot;:false,&quot;origItem&quot;:[&quot;Path&quot;,{&quot;applyMatrix&quot;:true,&quot;segments&quot;:[[[480.04645,268.87487],[0,0],[-10.99814,-1.5978]],[[448.63163,262.49226],[10.16072,5.1223],[-0.41884,-0.34558]],[[446.99791,261.10984],[0.55605,0.5248],[-0.02658,0.45992]],[[446.87788,262.33183],[0.04152,-0.31501],[-0.51805,3.93041]],[[444.78628,274.74542],[1.14766,-3.80053],[-1.45403,4.8151]],[[442.38628,290.45458],[-1.6558,-5.2537],[1.02968,3.26708]],[[447.43607,299.68197],[-1.5268,-3.04065],[0,0]],[[447.46893,299.75453],[-0.02009,-0.04701],[11.57808,-10.00215]],[[481.65549,269.14352],[-11.02085,10.67537],[0,0]]],&quot;closed&quot;:true}]}" fill="#ff0000"/><path d="M229.67123,133.0846c-1.87158,1.81291 -3.86429,3.52188 -5.8305,5.22046c-0.00341,-0.00798 -0.00562,-0.01235 -0.00562,-0.01235c-0.25928,-0.51637 -0.68765,-1.01801 -0.86251,-1.57284c-0.28119,-0.89219 0.15963,-1.86325 0.40655,-2.68097c0.1949,-0.64541 0.27254,-1.44835 0.36052,-2.11582c0.00705,-0.0535 0.01635,-0.12979 0.02086,-0.2079c0.09443,0.08912 0.20659,0.17587 0.27772,0.23455c1.72552,0.86988 3.49159,0.8172 5.35931,1.08854z" data-paper-data="{&quot;noHover&quot;:false,&quot;origItem&quot;:[&quot;Path&quot;,{&quot;applyMatrix&quot;:true,&quot;segments&quot;:[[[480.04645,268.87487],[0,0],[-10.99814,-1.5978]],[[448.63163,262.49226],[10.16072,5.1223],[-0.41884,-0.34558]],[[446.99791,261.10984],[0.55605,0.5248],[-0.02658,0.45992]],[[446.87788,262.33183],[0.04152,-0.31501],[-0.51805,3.93041]],[[444.78628,274.74542],[1.14766,-3.80053],[-1.45403,4.8151]],[[442.38628,290.45458],[-1.6558,-5.2537],[1.02968,3.26708]],[[447.43607,299.68197],[-1.5268,-3.04065],[0,0]],[[447.46893,299.75453],[-0.02009,-0.04701],[11.57808,-10.00215]],[[481.65549,269.14352],[-11.02085,10.67537],[0,0]]],&quot;closed&quot;:true}]}" fill="#ffbbbb"/><path d="M237.5606,146.33576c0.46424,1.1606 -0.69636,1.62483 -0.69636,1.62483l-0.85718,0.3321c-1.61692,0.89721 -2.89288,1.78585 -4.66365,2.30921c0,0 -1.2019,0.3434 -1.54531,-0.8585c-0.3434,-1.2019 0.8585,-1.54531 0.8585,-1.54531c1.5591,-0.42556 2.70961,-1.29725 4.13635,-2.09079l1.14282,-0.4679c0,0 1.1606,-0.46424 1.62483,0.69636z" fill="#ffc3c3"/></g></g></svg>