<svg version="1.1" xmlns="http://www.w3.org/2000/svg" xmlns:xlink="http://www.w3.org/1999/xlink" width="92.86106" height="117.96408" viewBox="0,0,92.86106,117.96408"><g transform="translate(-201.4835,-115.88323)"><g data-paper-data="{&quot;isPaintingLayer&quot;:true}" fill-rule="nonzero" stroke="none" stroke-width="0.5" stroke-linecap="butt" stroke-linejoin="miter" stroke-miterlimit="10" stroke-dasharray="" stroke-dashoffset="0" style="mix-blend-mode: normal"><path d="M252.83299,226.0055l-0.028,0.16213c-0.04686,0.47623 -0.10247,0.94667 -0.16755,1.40915l0.01256,0.02322c0,0 0,0.52799 -0.34315,0.89767c-0.51909,2.09638 -1.35096,5.19679 -3.41911,5.34728c-1.29098,0.09394 -1.82505,-2.6442 -2.0819,-3.47552c-1.04049,-3.36759 -1.68394,-6.14297 -1.54707,-9.51072c-0.51886,-0.52516 -0.22918,-1.29762 -0.22918,-1.29762c0.53615,-1.42974 1.10342,-3.88208 2.16894,-5.42493c-0.01733,-0.05641 -0.02425,-0.09102 -0.02425,-0.09102l-0.22427,-1.24515c0,-3.84694 -0.38107,-8.21866 0.48981,-12.03519c-4.97538,0.03627 -9.95046,0.06952 -14.92913,0.0804c-0.67899,3.70056 -0.8247,7.45834 -1.47863,11.16583c-0.17859,1.01256 -0.39013,3.44887 -0.78738,4.07537c-0.12756,0.20117 -0.28801,0.38035 -0.47055,0.53906c0.32456,0.12267 0.60249,0.28834 0.73151,0.59135c1.71259,4.02219 -6.07139,7.03199 -6.74705,1.32935c-0.03322,-0.28036 -0.04826,-0.54433 -0.04416,-0.79269c-2.2022,-0.74578 -4.90597,-1.73056 -6.54341,-3.21794c-0.89639,-0.81424 -1.58824,-1.81097 -2.30846,-2.78727c-1.80042,5.23742 -2.6493,11.48893 -3.44598,16.93891l-0.07357,0.09381l0.04286,0.01429l-0.39089,1.17266c-0.15709,0.51078 -0.63267,0.88206 -1.19497,0.88206c-0.61444,0 -1.12533,-0.44333 -1.23027,-1.02756l-0.39546,-1.97729l0.21363,-0.04273c-2.84818,-7.84904 -2.12221,-17.32959 0.42624,-24.9977l0.42526,-1.06895c0,0 0.46424,-1.1606 1.62483,-0.69636c0.07852,0.03141 0.1496,0.066 0.21389,0.10321c1.0892,-0.02137 3.24367,-0.05308 3.85276,0.44333c1.6311,1.32936 1.83777,4.75041 1.49905,6.63708c-0.06498,0.36195 -0.19349,0.70327 -0.35146,1.03537c0.9046,1.1568 1.68719,2.41894 2.75051,3.40605c1.42142,1.31952 3.98526,2.16811 5.92114,2.80335c0.35483,-0.2781 0.80627,-0.50398 1.36267,-0.68436c0.64803,-0.2101 1.82941,0.5772 2.04252,-0.06985c1.42104,-4.31461 1.1171,-9.32435 1.82538,-13.86487c-1.98231,0.00109 -3.96529,-0.00188 -5.94919,-0.01013c-4.21265,-0.38686 -8.22897,-1.59477 -12.40628,-2.20086c-2.14896,-0.31179 -3.31704,0.17909 -5.00424,-1.66051c-1.77157,-1.93159 -0.77287,-6.76432 -0.66971,-9.03386c0.26615,-5.85533 0.86459,-11.65645 1.44641,-17.48538c1.68122,-2.93752 4.86406,-2.72561 8.05576,-3.09936c6.83029,-0.79982 13.72773,-0.43886 20.56442,-1.03733c0.0626,-0.65696 0.10642,-1.32426 0.12381,-2.03583c-1.41073,0.21872 -2.79765,0.51266 -4.14145,0.9484c-3.49061,0.0313 -7.04029,-0.18161 -10.52256,0.01372c-4.39915,0.24677 -8.79374,1.14406 -13.17898,0.16556c-5.71971,-1.27627 -8.48876,-5.0082 -5.75161,-10.48683c7.10061,-8.93796 19.82357,-9.17631 30.45292,-9.17631c0,0 0.07863,0 0.19646,0.01972c0.59028,-1.22719 1.52475,-2.36545 2.63759,-3.36459c-1.28941,-1.27192 -2.67977,-2.56499 -4.147,-3.57839c-2.23158,-1.54132 -5.06882,-2.6857 -5.132,-5.91449c-0.04549,-2.32461 0.28084,-2.17419 1.95158,-3.35232c3.88086,-2.73659 8.14656,-1.08182 11.4936,1.67979c2.25817,1.88485 4.00848,4.22403 5.63984,6.6669l0.07462,0.31755c3.77238,0.56141 8.10938,2.81318 9.93628,5.69909c1.18719,1.87536 1.58669,3.77929 1.40214,5.568c5.03607,1.56419 7.60015,4.79548 8.89689,8.76691c0,-6.61939 0,-13.23878 0,-19.85817v-0.8c0,0 0,-0.00155 0.00005,-0.00454c-1.22673,-3.23108 -4.01532,-5.33498 -4.00005,-8.99546c0.00796,-1.90857 0.36825,-4.35303 2.75448,-4.81457c3.72972,-0.72139 4.90786,3.11834 5.69742,5.87116c0.03571,0.12451 0.17992,0.51533 0.3259,0.97648c0.87345,-3.83421 1.4858,-7.97551 2.91233,-11.49912c0.23636,-0.58383 1.57617,-2.90925 2.28944,-3.09205c3.40167,-0.87181 3.96895,2.02076 4.11802,4.48043c0.10949,1.80665 0.0988,3.62566 0.01375,5.44367c3.2712,-1.09284 5.21431,0.23905 7.34878,2.80415c0.59841,-2.26297 1.27509,-4.50546 2.45592,-6.49609c1.82903,-3.08338 3.75353,-1.70596 4.37402,1.16851c0.52432,4.75905 -1.04508,8.4823 -2.02101,13.03394c-1.5372,7.16929 -2.96903,13.73249 -2.96903,21.12349c0,2.62048 -0.43624,4.92195 -0.79857,7.47765c1.8122,0.00021 3.72266,0.2524 4.62971,1.69494c0.39635,0.63035 0.13545,1.48356 0.16886,2.22741c0.15319,3.40995 -1.15296,6.5188 -1.62016,9.8236c-1.00871,4.53043 -1.31463,9.65183 -1.78489,14.28866c-0.09434,0.93025 0.21079,3.54449 -0.23089,4.21864c-0.94639,1.44448 -4.49518,0.92216 -5.81405,0.91911c-3.39039,-0.00785 -6.49149,1.49083 -9.82272,1.98737c-1.27626,0.19023 -2.60586,0.20358 -3.92169,0.27697c0.09019,5.81703 1.24378,11.51208 1.5428,17.30209c0.98787,-0.14009 1.95291,-0.05134 2.72134,0.31577c2.0353,-4.18518 4.07619,-8.46949 7.39638,-11.81607l0.14352,-0.14352c0.07311,-1.4157 0.41363,-2.6455 1.42487,-3.67141l0.53941,-0.88205c0.72182,-0.84654 1.72742,-1.48093 2.77586,-1.85299c5.30725,0 6.04585,4.05137 6.05023,8.63386c0.00473,4.94861 -0.81242,9.16617 -2.47167,13.81717c-0.81387,2.28134 -1.17514,4.01449 -2.28039,5.64813l0.34212,0.22808l-0.78925,1.18387c-0.22257,0.34463 -0.61005,0.57276 -1.05082,0.57276c-0.63664,0 -1.16211,-0.47594 -1.24004,-1.09142l-0.1974,-1.38181c-0.45362,-3.17611 -0.56196,-6.40479 -1.19043,-9.5426c-0.52758,-2.63407 -1.5246,-5.39495 -1.78268,-8.09087c-2.58897,3.2052 -4.28126,7.12251 -6.0667,10.79252c0.04055,0.44533 0.01204,0.94929 -0.09828,1.51551c-0.26577,1.36414 -1.1096,2.27776 -1.88749,3.3583c-2.33336,0.74659 -6.03845,1.47421 -6.93335,-1.8474c-0.45495,-1.68866 -0.14204,-2.78075 1.118,-3.58795c0.00578,-0.6282 0.58499,-1.01434 0.58499,-1.01434l0.36541,-0.23783c-0.26004,-1.36739 -0.31457,-2.77075 -0.51017,-4.15027c-0.6436,-4.53933 -0.97254,-9.31718 -1.00854,-13.92279c-5.85242,0.01096 -11.69722,0.05369 -17.54068,0.09684c-1.05995,3.66986 -0.56818,8.2055 -0.56269,11.99078c0.5578,0.00469 1.19248,0.20966 1.91931,0.67808c1.05856,0.6822 1.39476,2.74452 1.47759,3.89665c0.1941,2.69983 0.23938,5.65143 -0.00241,8.4304c0.00642,0.15648 -0.01145,0.26371 -0.01145,0.26371zM247.8438,219.72438c-0.14532,1.44164 -0.43709,3.2154 -0.20994,4.67539c0.22772,1.4636 1.18259,3.15824 1.66037,4.75702c0.33004,-1.04326 0.79669,-2.12478 0.90387,-2.50019l0.12736,-0.80083c0.26057,-2.74722 0.16451,-5.66472 0.02769,-8.36715c-0.00444,-0.08778 -0.32325,-2.92738 -1.04745,-2.34547c-0.60516,0.48626 -1.14435,2.50297 -1.54442,3.97307c0.11178,0.31556 0.08252,0.60816 0.08252,0.60816zM284.70321,204.56274c-0.3582,0.57639 -0.44359,1.33315 -0.42887,2.1343c0.00212,0.0313 0.00278,0.06219 0.00213,0.09261c0.02156,0.78223 0.13153,1.60148 0.1711,2.33267c0.14736,2.72297 1.24696,5.5731 1.78028,8.2435c0.39158,1.96067 0.58548,3.95331 0.78437,5.94701c0.31259,-0.75572 0.63804,-1.45067 0.80942,-1.92999c1.67779,-4.69247 2.69259,-9.25986 2.33148,-14.29422c-0.18517,-2.58156 -0.2399,-4.85475 -3.15292,-4.85475c-0.19005,0.05311 -0.36999,0.14269 -0.5365,0.25659c0.11369,0.81839 -0.70471,1.22759 -0.70471,1.22759c-0.15344,0.05801 -0.29186,0.12651 -0.41659,0.20443l-0.07056,0.12066c0,0 -0.20214,0.3369 -0.56865,0.51962zM271.79955,220.21702c0.03281,0.41118 0.00603,0.80581 -0.20617,1.14173c-0.60506,0.95786 -2.72836,-0.07661 -2.19702,1.47903c0.41289,1.20884 2.1428,0.74227 3.06665,0.5526c0.43734,-0.78477 0.70733,-1.50777 0.76816,-2.07174c-0.10722,-0.24775 -0.10151,-0.5025 -0.06578,-0.70207c-0.16694,-0.418 -0.6044,-0.59263 -1.36585,-0.39954zM211.18867,203.58828l-0.00282,0.007c-1.7609,5.2683 -2.3367,9.85805 -1.74276,15.4735c0.07722,0.73009 0.27066,1.7678 0.45942,2.89751c0.65199,-3.91283 1.49137,-7.89684 2.72686,-11.40462c0.09325,-0.26475 0.23628,-0.59351 0.39968,-0.96486l-0.51294,-0.51294c0,0 -0.88388,-0.88388 0,-1.76777c0.57469,-0.57469 1.14938,-0.40207 1.48112,-0.21097c0.38493,-1.33472 0.45468,-2.67749 -0.52813,-3.49109c-0.59091,-0.48918 -1.46433,-0.17146 -2.28044,-0.02577zM226.52552,217.23153c-0.11586,0.02933 -0.20714,0.0975 -0.26221,0.22563c-0.10489,0.24407 -0.05958,0.53369 -0.02189,0.79666c0.32127,2.24159 2.37002,-0.0019 1.56329,0.33203l-0.56373,-0.26782c0,0 -0.72434,-0.36217 -0.71546,-1.0865zM285.58706,130.48508c-1.6,-1.99285 -2.63466,-3.10492 -5.29466,-1.93615c0,0 -0.16894,0.0724 -0.40502,0.0969c-0.12017,1.48191 -0.27494,2.95877 -0.43929,4.42329c0.00053,0.47729 0.00165,0.95458 0.00189,1.43187c0.30325,-1.0086 0.67274,-2.01867 0.99517,-2.97935l0.0671,-0.06552l-0.03028,-0.01514l0.58789,-1.17578c0.20043,-0.42281 0.63114,-0.7152 1.13014,-0.7152c0.66183,0 1.20353,0.51435 1.24716,1.16512l0.1909,2.48165l-0.14554,0.0112c0.09677,0.5253 0.1558,1.05474 0.15748,1.58861c0.00252,0.80071 -0.711,2.40862 0.08967,2.40046c1.69657,-0.01729 1.86753,-2.17129 2.27448,-3.39232c0.25653,-0.7697 0.48249,-1.55881 0.69705,-2.35689c-0.79288,-0.03944 -1.04437,-0.6068 -1.12414,-0.96275zM286.02048,164.42914c0.34699,-2.33035 0.72952,-4.41902 0.72952,-6.82914c0,-7.57665 1.45771,-14.33035 3.03097,-21.67651c0.86727,-4.04963 2.32615,-7.41261 2.03627,-11.53788c-0.30269,0.66683 -0.7248,1.33581 -0.84883,1.65861c-1.39496,3.63038 -1.54238,9.01543 -3.97366,12.11273c-1.40828,1.79407 -4.4279,2.28866 -5.72138,-0.01547c-0.03329,-0.05929 -0.06412,-0.12141 -0.0926,-0.18612c-0.29653,0.59599 -0.64698,1.03762 -1.0687,1.18494c-3.96387,1.38465 -3.16204,-4.36547 -3.16016,-6.20943c0.3805,-3.45652 0.59583,-6.85314 0.59809,-10.33087c0.00071,-1.10168 -0.00846,-2.21029 -0.16371,-3.30097c-0.0504,-0.35412 -0.24751,-1.17742 -0.51586,-0.94093c-1.63596,1.44173 -1.34358,4.73133 -1.87407,6.60413c-0.79929,2.82178 -1.62144,5.74385 -2.48562,8.61113c-0.68081,0.55656 -1.1664,1.746 -2.04243,1.66968c-0.85488,-0.07447 -1.19638,-1.25132 -1.63328,-1.98989c-0.99904,-1.68885 -0.97126,-4.03386 -1.91299,-5.82031c-0.45999,-0.87258 -0.57544,-1.45084 -1.62652,-1.21828c-1.25292,0.27721 -0.95529,2.77782 -0.8576,3.61206c0.1429,1.22031 1.06385,1.88694 1.75908,2.81939c1.18172,1.58494 1.86097,3.12098 2.40491,5.01059c0,0 0.17144,0.60002 -0.1519,1.07329c0,9.01724 0,18.71214 0,27.67011c0,0 0,0.08511 -0.02221,0.21091c0.57844,-0.1249 1.14941,-0.26874 1.71151,-0.43342c2.0704,-0.27428 3.98353,-1.15749 6.10797,-1.41812c3.16378,-0.38814 6.33222,0.38159 9.47925,0.39056c0.02485,-0.31825 0.18683,-0.57985 0.29396,-0.72079zM217.27767,169.64759c-1.32246,0.06516 -7.18436,0.29959 -7.47537,1.49444c-0.45347,5.65087 -1.0959,11.2456 -1.35359,16.91462c-0.06555,1.44224 -1.03166,6.09704 0.13029,7.36614c0.79355,0.86674 2.51735,0.61711 3.39576,0.73949c4.1015,0.57138 8.04471,1.80089 12.17564,2.17914c14.73683,0.04715 29.43593,-0.20967 44.17194,-0.189c0.08159,-0.01031 0.16336,-0.01993 0.2453,-0.02893c-5.90127,-0.49046 -11.08764,-6.94892 -12.94596,-11.90632c-1.34741,-4.19118 -0.66106,-10.3265 2.50955,-13.51589c1.32065,-1.32847 3.03694,-2.30353 4.94206,-2.95078c-4.71108,0.21 -9.57859,-0.29616 -14.07134,-0.80203c0.26864,0.09016 0.53329,0.17906 0.79334,0.26568c0,0 1.18586,0.39529 0.79057,1.58114c-0.00344,0.01034 -0.00696,0.02057 -0.01052,0.03066c3.60333,2.90419 5.15601,7.44876 3.60701,12.37972c-0.61319,1.95198 -2.13877,3.73737 -3.14852,5.49697c-5.05247,6.2937 -12.9446,6.56947 -20.04594,4.07747c-2.85359,-1.00138 -6.24594,-2.34465 -8.02923,-4.88868c-1.88522,-2.68944 -1.21907,-6.10839 -0.73879,-9.10345c2.07228,-3.66826 5.76364,-7.39651 9.9108,-9.68178c-4.95452,0.27292 -9.97199,0.30087 -14.85298,0.54138zM273.62272,197.76264c2.69903,-0.41249 5.3216,-1.69752 8.02455,-2.00327c0.10778,-0.01219 4.2744,-0.00974 4.35273,-0.00937c0.53013,0.00251 1.50449,0.64296 1.58594,0.11911c0.15315,-0.98493 -0.32879,-1.98942 -0.23089,-2.98137c0.46386,-4.69989 0.8046,-9.91846 1.81511,-14.51134c0.39272,-2.72221 1.39825,-5.27855 1.58225,-8.05408c0.05073,-0.76531 0.48067,-1.59526 0.16645,-2.29492c-0.37541,-0.83591 -4.44131,-0.3768 -5.11886,-0.37741c-3.05807,-0.00276 -6.17975,-0.80097 -9.24727,-0.40937c-2.06153,0.26317 -3.87187,1.07542 -5.89204,1.38188c-0.19452,0.05433 -0.38992,0.10646 -0.58617,0.15645c2.65511,0.09292 5.2296,0.67869 7.28449,1.703c0,0 0.04222,0.02111 0.10615,0.06333l0.33012,0.06885c1.97388,0.66306 4.77006,1.70276 6.03716,3.48118c1.83657,2.57771 0.82712,8.2305 -0.06404,10.9489c-2.2339,5.21728 -5.26328,9.37089 -10.40118,12.06967c-0.78557,0.41263 -1.57076,0.69327 -2.35002,0.85791c0.88047,-0.03669 1.75705,-0.0795 2.60552,-0.20917zM248.32317,166.35609c5.15318,0.56283 10.96507,1.29434 16.407,0.8056c-0.13031,-6.49636 -1.10515,-13.03391 -8.29891,-15.24988c-1.6055,3.85706 -5.88387,6.71606 -10.23126,6.73819c-5.00915,-0.00834 -11.73541,-3.15383 -13.39636,-8.28777c-0.23123,-0.71473 -0.31526,-1.4212 -0.27579,-2.11223c-8.37231,0.00073 -18.5628,0.07021 -25.26613,5.43073c1.71228,0.01258 2.45882,1.33001 2.14418,3.24836c-0.28857,1.75941 -3.73193,3.29451 -5.38065,2.84252c0.45703,1.67024 2.28974,2.64338 4.87607,3.21524c3.13073,0.69223 6.08579,0.16354 9.22101,-0.03445c4.47486,-0.28259 8.98468,-0.23808 13.47744,-0.18627c5.60315,-1.92657 12.12401,-1.03065 17.80495,-2.952l1.38978,-0.24713c0,0 1.23299,-0.2055 1.43849,1.02749c0.2055,1.23299 -1.02749,1.43849 -1.02749,1.43849l-1.01021,0.15286c-3.68393,1.21299 -7.6617,1.36268 -11.54761,1.77866c-0.00998,0.78243 -0.05162,1.52069 -0.11495,2.24552c3.2452,0.39515 6.54894,-0.20799 9.79044,0.14605zM245.55171,170.44609c-2.26683,-0.69295 -4.67066,-1.23708 -6.83946,-1.00114c-0.19349,0.02105 -0.38788,0.04781 -0.58297,0.08006c-0.01055,0.07498 -0.02117,0.15029 -0.03184,0.22597c-1.01259,0.0194 -1.95499,0.32549 -2.7494,0.84046c-0.00925,-0.09476 -0.00678,-0.18638 0.00242,-0.27111c-4.37745,1.74754 -8.66016,5.66737 -10.77031,9.29168c-0.32256,2.21724 -0.9007,4.89251 0.46121,6.89655c1.37848,2.02841 4.52924,3.12891 6.77076,3.91133c5.92459,2.06802 12.85689,2.27552 17.15406,-3.12253c0.88826,-1.56152 2.315,-3.17453 2.85148,-4.90303c1.47726,-4.75965 -0.62859,-8.80226 -4.77667,-10.87629l-0.54416,-0.10536c0,0 -0.83055,-0.20764 -0.94512,-0.96659zM275.34842,172.3221c-4.9725,-1.94795 -13.50849,-1.42029 -16.49162,3.34551c-1.10955,1.77259 -1.20898,4.1093 -1.20679,6.1324c0.00141,1.30708 -0.10415,2.3486 0.32834,3.58283c1.63102,4.34771 4.37725,8.03208 8.98085,9.41988c1.63909,0.49412 3.62625,1.0006 5.2736,0.08339c4.56274,-2.54045 7.17233,-6.00677 9.19882,-10.73033c0.60525,-1.7755 1.63817,-6.9323 0.33596,-8.65111c-0.96981,-1.28007 -3.31379,-2.0401 -4.76285,-2.51882l-0.84986,-0.16013c0,0 -0.5102,-0.10204 -0.80644,-0.50362zM244.94326,140.61607c-0.287,0.18663 -0.58822,0.22428 -0.58822,0.22428c-3.1707,0.39157 -10.66182,4.49032 -9.15868,8.79742c1.41215,4.04637 7.03355,6.51953 11.00364,6.51223c5.07746,0.03027 10.9268,-5.43922 7.34903,-10.87327c-1.5352,-2.33173 -5.47189,-4.33897 -8.60577,-4.66066zM238.39977,133.16028c-1.79898,-1.51716 -3.97619,-2.84051 -6.42639,-2.52236c-2.11005,0.27399 -3.82831,1.81749 -2.34094,3.85741c0.74373,1.02001 2.49445,1.59383 3.48051,2.27793c1.67865,1.16459 3.2604,2.65028 4.72281,4.0973c1.18192,-0.77667 2.43929,-1.40635 3.63538,-1.84765c0.20922,-0.36062 0.56985,-0.54093 0.56985,-0.54093l0.75729,-0.30921c-1.27949,-1.83629 -2.67493,-3.57865 -4.3985,-5.01247z" fill="#000000"/><path d="M276.18008,172.78256l0.85262,0.16187c1.44906,0.47872 3.80666,1.25247 4.77647,2.53253c1.30221,1.71881 0.27755,6.90693 -0.32771,8.68243c-2.02649,4.72356 -4.67654,8.23538 -9.23928,10.77582c-1.64734,0.91721 -3.65679,0.40994 -5.29589,-0.08418c-4.60359,-1.3878 -7.38624,-5.11207 -9.01726,-9.45978c-0.43248,-1.23423 -0.32726,-2.2903 -0.32867,-3.59738c-0.00218,-2.0231 0.10564,-4.38197 1.21519,-6.15456c2.98314,-4.76579 11.58214,-5.31016 16.55464,-3.36221c0.29624,0.40159 0.80987,0.50545 0.80987,0.50545z" data-paper-data="{&quot;noHover&quot;:false,&quot;origItem&quot;:[&quot;Path&quot;,{&quot;applyMatrix&quot;:true,&quot;segments&quot;:[[[275.34842,172.3221],[0.29624,0.40159],[-4.9725,-1.94795]],[[258.85679,175.66761],[2.98314,-4.76579],[-1.10955,1.77259]],[[257.65,181.8],[-0.00218,-2.0231],[0.00141,1.30708]],[[257.97834,185.38284],[-0.43248,-1.23423],[1.63102,4.34771]],[[266.95919,194.80272],[-4.60359,-1.3878],[1.63909,0.49412]],[[272.23278,194.88611],[-1.64734,0.91721],[4.56274,-2.54045]],[[281.4316,184.15578],[-2.02649,4.72356],[0.60525,-1.7755]],[[281.76756,175.50467],[1.30221,1.71881],[-0.96981,-1.28007]],[[277.00471,172.98586],[1.44906,0.47872],[0,0]],[276.15486,172.82573]],&quot;closed&quot;:true}]}" fill="#c3c3c3"/><path d="M246.53031,171.37554l0.54553,0.10664c4.14809,2.07404 6.26865,6.15912 4.79138,10.91877c-0.53648,1.7285 -1.9704,3.36141 -2.85866,4.92293c-4.29717,5.39805 -11.29917,5.20589 -17.22376,3.13788c-2.24152,-0.78242 -5.41057,-1.90429 -6.78905,-3.9327c-1.36192,-2.00403 -0.78804,-4.70334 -0.46548,-6.92058c2.11015,-3.62431 6.4292,-7.58874 10.80666,-9.33628c-0.0092,0.08472 -0.01202,0.17644 -0.00277,0.2712c0.79441,-0.51497 1.75006,-0.82303 2.76265,-0.84243c0.01067,-0.07567 0.02145,-0.15098 0.032,-0.22597c0.19509,-0.03225 0.3921,-0.05897 0.58559,-0.08002c2.1688,-0.23594 4.59976,0.31761 6.86658,1.01056c0.11456,0.75895 0.94932,0.96999 0.94932,0.96999z" data-paper-data="{&quot;noHover&quot;:false,&quot;origItem&quot;:[&quot;Path&quot;,{&quot;applyMatrix&quot;:true,&quot;segments&quot;:[[[245.55171,170.44609],[0.11456,0.75895],[-2.26683,-0.69295]],[[238.71226,169.44495],[2.1688,-0.23594],[-0.19349,0.02105]],[[238.12929,169.52502],[0.19509,-0.03225],[-0.01055,0.07498]],[[238.09745,169.75098],[0.01067,-0.07567],[-1.01259,0.0194]],[[235.34804,170.59145],[0.79441,-0.51497],[-0.00925,-0.09476]],[[235.35046,170.32034],[-0.0092,0.08472],[-4.37745,1.74754]],[[224.58015,179.61202],[2.11015,-3.62431],[-0.32256,2.21724]],[[225.04136,186.50857],[-1.36192,-2.00403],[1.37848,2.02841]],[[231.81212,190.41989],[-2.24152,-0.78242],[5.92459,2.06802]],[[248.96618,187.29736],[-4.29717,5.39805],[0.88826,-1.56152]],[[251.81766,182.39433],[-0.53648,1.7285],[1.47726,-4.75965]],[[247.04099,171.51804],[4.14809,2.07404],[0,0]],[246.49683,171.41268]],&quot;closed&quot;:true}]}" fill="#c3c3c3"/><path d="M285.26082,203.99436l0.07107,-0.12077c0.12473,-0.07792 0.26556,-0.14687 0.419,-0.20489c0,0 0.8227,-0.40971 0.70902,-1.22811c0.16652,-0.11389 0.34908,-0.20361 0.53913,-0.25672c2.91302,0 2.99167,2.27866 3.17684,4.86021c0.36111,5.03436 -0.67312,9.69617 -2.35091,14.38864c-0.17138,0.47932 -0.50128,1.17438 -0.81386,1.93009c-0.1989,-1.9937 -0.40253,-3.98752 -0.7941,-5.94819c-0.53332,-2.6704 -1.65251,-5.609 -1.79987,-8.33197c-0.03957,-0.7312 -0.14135,-1.55556 -0.16291,-2.33779c0.00065,-0.03043 0.00025,-0.06145 -0.00187,-0.09274c-0.01473,-0.80114 0.07785,-1.56076 0.43604,-2.13715c0.36651,-0.18272 0.57242,-0.52063 0.57242,-0.52063z" data-paper-data="{&quot;noHover&quot;:false,&quot;origItem&quot;:[&quot;Path&quot;,{&quot;applyMatrix&quot;:true,&quot;segments&quot;:[[[284.70321,204.56274],[0.36651,-0.18272],[-0.3582,0.57639]],[[284.27435,206.69704],[-0.01473,-0.80114],[0.00212,0.0313]],[[284.27648,206.78965],[0.00065,-0.03043],[0.02156,0.78223]],[[284.44758,209.12233],[-0.03957,-0.7312],[0.14736,2.72297]],[[286.22787,217.36582],[-0.53332,-2.6704],[0.39158,1.96067]],[[287.01224,223.31283],[-0.1989,-1.9937],[0.31259,-0.75572]],[[287.82167,221.38283],[-0.17138,0.47932],[1.67779,-4.69247]],[[290.15314,207.08861],[0.36111,5.03436],[-0.18517,-2.58156]],[[287.00023,202.23386],[2.91302,0],[-0.19005,0.05311]],[[286.46372,202.49044],[0.16652,-0.11389],[0.11369,0.81839]],[[285.75902,203.71803],[0,0],[-0.15344,0.05801]],[[285.34242,203.92246],[0.12473,-0.07792],[0,0]],[285.27187,204.04312]],&quot;closed&quot;:true}]}" fill="#ffffff"/><path d="M247.7419,219.07012c0.40006,-1.47011 0.96068,-3.49068 1.56584,-3.97694c0.7242,-0.58191 1.05482,2.2596 1.05926,2.34739c0.13682,2.70243 0.23549,5.71519 -0.02509,8.46241l-0.13128,0.80202c-0.10718,0.37541 -0.58443,1.45849 -0.91446,2.50175c-0.47778,-1.59878 -1.4605,-3.30061 -1.68821,-4.76421c-0.22716,-1.45999 0.06841,-3.32138 0.21373,-4.76301c0,0 0.03199,-0.29385 -0.07979,-0.60941z" data-paper-data="{&quot;noHover&quot;:false,&quot;origItem&quot;:[&quot;Path&quot;,{&quot;applyMatrix&quot;:true,&quot;segments&quot;:[[[247.8438,219.72438],[0,0],[-0.14532,1.44164]],[[247.63386,224.39977],[-0.22716,-1.45999],[0.22772,1.4636]],[[249.29423,229.15679],[-0.47778,-1.59878],[0.33004,-1.04326]],[[250.1981,226.6566],[-0.10718,0.37541],[0,0]],[[250.32546,225.85576],[0,0],[0.26057,-2.74722]],[[250.35314,217.48861],[0.13682,2.70243],[-0.00444,-0.08778]],[[249.30569,215.14314],[0.7242,-0.58191],[-0.60516,0.48626]],[[247.76127,219.11622],[0.40006,-1.47011],[0.11178,0.31556]]],&quot;closed&quot;:true}]}" fill="#ffffff"/><path d="M213.47851,203.56494c0.9828,0.81361 0.88483,2.2518 0.4999,3.58652c-0.33174,-0.1911 -0.8948,-0.36056 -1.46949,0.21413c-0.88388,0.88388 0.01782,1.66943 0.01782,1.66943l0.52173,0.51572c-0.16341,0.37135 -0.30631,0.70016 -0.39956,0.96491c-1.23549,3.50778 -2.10409,7.58687 -2.75608,11.4997c-0.18876,-1.12972 -0.38938,-2.16941 -0.4666,-2.89949c-0.59394,-5.61546 -0.00433,-10.30218 1.75657,-15.57048l0.00284,-0.007c0.81611,-0.14569 1.70195,-0.46261 2.29286,0.02657z" data-paper-data="{&quot;noHover&quot;:false,&quot;origItem&quot;:[&quot;Path&quot;,{&quot;applyMatrix&quot;:true,&quot;segments&quot;:[[[211.18867,203.58828],[0.81611,-0.14569],[0,0]],[[211.18585,203.59528],[0,0],[-1.7609,5.2683]],[[209.44309,219.06879],[-0.59394,-5.61546],[0.07722,0.73009]],[[209.90251,221.9663],[-0.18876,-1.12972],[0.65199,-3.91283]],[[212.62937,210.56168],[-1.23549,3.50778],[0.09325,-0.26475]],[[213.02905,209.59682],[-0.16341,0.37135],[0,0]],[212.51612,209.08388],[[212.51612,207.31612],[-0.88388,0.88388],[0.57469,-0.57469]],[[213.99724,207.10514],[-0.33174,-0.1911],[0.38493,-1.33472]],[[213.46911,203.61405],[0.9828,0.81361],[-0.59091,-0.48918]]],&quot;closed&quot;:true}]}" fill="#ffffff"/><path d="M285.74247,165.19732c-3.14704,-0.00897 -6.33555,-0.77627 -9.49933,-0.38813c-2.12444,0.26063 -4.04934,1.14141 -6.11974,1.41569c-0.5621,0.16468 -1.13575,0.30754 -1.71419,0.43244c0.02221,-0.1258 0.02211,-0.21095 0.02211,-0.21095c0,-8.95796 -0.02794,-18.71729 -0.02794,-27.73453c0.32334,-0.47327 0.15393,-1.07783 0.15393,-1.07783c-0.54394,-1.8896 -1.21715,-3.43488 -2.39887,-5.01982c-0.69523,-0.93245 -1.61431,-1.60122 -1.75721,-2.82152c-0.09769,-0.83424 -0.38956,-3.34017 0.86336,-3.61738c1.05108,-0.23255 1.2273,0.42511 1.68729,1.29769c0.94174,1.78644 0.91957,4.12659 1.91862,5.81544c0.4369,0.73857 0.70664,1.84578 1.56152,1.92026c0.87604,0.07632 1.37134,-1.12109 2.05215,-1.67765c0.86418,-2.86729 1.70421,-5.79625 2.5035,-8.61803c0.53048,-1.8728 0.24429,-5.16311 1.88025,-6.60483c0.26835,-0.23649 0.46646,0.58677 0.51687,0.94089c0.15524,1.09068 0.16732,2.29926 0.16661,3.40093c-0.00226,3.47773 -0.21301,6.87402 -0.5935,10.33054c-0.00189,1.84395 -0.78373,7.50169 3.18014,6.11704c0.42172,-0.14731 0.77446,-0.58747 1.071,-1.18345c0.02848,0.06471 0.0607,0.12781 0.09398,0.1871c1.29348,2.30413 4.23847,1.8716 5.64675,0.07753c2.43128,-3.0973 2.59285,-8.46478 3.98781,-12.09516c0.12403,-0.3228 0.60723,-1.07096 0.90991,-1.73779c0.28988,4.12527 -1.15559,7.50366 -2.02287,11.55329c-1.57326,7.34616 -3.04978,14.16769 -3.04978,21.74433c0,2.41011 -0.39038,4.50241 -0.73737,6.83276c-0.10713,0.14095 -0.27014,0.4029 -0.29498,0.72115z" data-paper-data="{&quot;noHover&quot;:false,&quot;origItem&quot;:[&quot;Path&quot;,{&quot;applyMatrix&quot;:true,&quot;segments&quot;:[[[286.02048,164.42914],[-0.10713,0.14095],[0.34699,-2.33035]],[[286.75,157.6],[0,2.41011],[0,-7.57665]],[[289.78097,135.92349],[-1.57326,7.34616],[0.86727,-4.04963]],[[291.81723,124.38561],[0.28988,4.12527],[-0.30269,0.66683]],[[290.9684,126.04423],[0.12403,-0.3228],[-1.39496,3.63038]],[[286.99475,138.15695],[2.43128,-3.0973],[-1.40828,1.79407]],[[281.27337,138.14149],[1.29348,2.30413],[-0.03329,-0.05929]],[[281.18077,137.95536],[0.02848,0.06471],[-0.29653,0.59599]],[[280.11207,139.1403],[0.42172,-0.14731],[-3.96387,1.38465]],[[276.95191,132.93087],[-0.00189,1.84395],[0.3805,-3.45652]],[[277.55,122.6],[-0.00226,3.47773],[0.00071,-1.10168]],[[277.38629,119.29903],[0.15524,1.09068],[-0.0504,-0.35412]],[[276.87043,118.3581],[0.26835,-0.23649],[-1.63596,1.44173]],[[274.99637,124.96223],[0.53048,-1.8728],[-0.79929,2.82178]],[[272.51075,133.57336],[0.86418,-2.86729],[-0.68081,0.55656]],[[270.46831,135.24304],[0.87604,0.07632],[-0.85488,-0.07447]],[[268.83503,133.25315],[0.4369,0.73857],[-0.99904,-1.68885]],[[266.92204,127.43285],[0.94174,1.78644],[-0.45999,-0.87258]],[[265.29552,126.21457],[1.05108,-0.23255],[-1.25292,0.27721]],[[264.43792,129.82662],[-0.09769,-0.83424],[0.1429,1.22031]],[[266.197,132.64601],[-0.69523,-0.93245],[1.18172,1.58494]],[[268.6019,137.6566],[-0.54394,-1.8896],[0,0]],[[268.45,138.72989],[0.32334,-0.47327],[0,9.01724]],[[268.45,166.4],[0,-8.95796],[0,0]],[[268.42779,166.61091],[0.02221,-0.1258],[0.57844,-0.1249]],[[270.1393,166.17748],[-0.5621,0.16468],[2.0704,-0.27428]],[[276.24727,164.75937],[-2.12444,0.26063],[3.16378,-0.38814]],[[285.72652,165.14993],[-3.14704,-0.00897],[0.02485,-0.31825]]],&quot;closed&quot;:true}]}" fill="#ffffff"/><path d="M238.55485,166.25488c0.06333,-0.72483 0.05443,-1.54906 0.06441,-2.33149c3.88591,-0.41598 7.84393,-0.53795 11.52786,-1.75093l1.00991,-0.1517c0,0 1.23208,-0.20103 1.02658,-1.43402c-0.2055,-1.23299 -1.33939,-1.01433 -1.33939,-1.01433l-1.38994,0.24843c-5.68094,1.92135 -12.2757,1.06241 -17.87885,2.98897c-4.49276,-0.05181 -9.02587,-0.12484 -13.50073,0.15775c-3.13522,0.19799 -6.09163,0.72153 -9.22235,0.0293c-2.58633,-0.57186 -4.41994,-1.55174 -4.87697,-3.22198c1.64873,0.45199 5.09201,-1.08809 5.38058,-2.8475c0.31464,-1.91835 -0.43137,-3.24155 -2.14365,-3.25413c6.70333,-5.36052 16.93373,-5.4716 25.30604,-5.47234c-0.03947,0.69102 0.04371,1.39766 0.27494,2.1124c1.66096,5.13394 8.34771,8.3247 13.35687,8.33304c4.3474,-0.02213 8.72394,-2.89036 10.32944,-6.74742c7.19376,2.21597 8.16805,8.78115 8.29837,15.27751c-5.44193,0.48873 -11.259,-0.23136 -16.41217,-0.79418c-3.2415,-0.35404 -6.56572,0.26777 -9.81092,-0.12738z" data-paper-data="{&quot;noHover&quot;:false,&quot;origItem&quot;:[&quot;Path&quot;,{&quot;applyMatrix&quot;:true,&quot;segments&quot;:[[[248.32317,166.35609],[-3.2415,-0.35404],[5.15318,0.56283]],[[264.73017,167.16169],[-5.44193,0.48873],[-0.13031,-6.49636]],[[256.43126,151.91181],[7.19376,2.21597],[-1.6055,3.85706]],[[246.2,158.65],[4.3474,-0.02213],[-5.00915,-0.00834]],[[232.80364,150.36223],[1.66096,5.13394],[-0.23123,-0.71473]],[[232.52785,148.25],[-0.03947,0.69102],[-8.37231,0.00073]],[[207.26172,153.68074],[6.70333,-5.36052],[1.71228,0.01258]],[[209.4059,156.9291],[0.31464,-1.91835],[-0.28857,1.75941]],[[204.02525,159.77162],[1.64873,0.45199],[0.45703,1.67024]],[[208.90132,162.98686],[-2.58633,-0.57186],[3.13073,0.69223]],[[218.12233,162.95242],[-3.13522,0.19799],[4.47486,-0.28259]],[[231.59977,162.76614],[-4.49276,-0.05181],[5.60315,-1.92657]],[[249.40472,159.81415],[-5.68094,1.92135],[0,0]],[250.7945,159.56701],[[252.23299,160.5945],[-0.2055,-1.23299],[0.2055,1.23299]],[251.2055,162.03299],[[250.19529,162.18586],[0,0],[-3.68393,1.21299]],[[238.64768,163.96452],[3.88591,-0.41598],[-0.00998,0.78243]],[[238.53273,166.21004],[0.06333,-0.72483],[3.2452,0.39515]]],&quot;closed&quot;:true}]}" fill="#ffffff"/><path d="M242.84538,138.18951l-0.75881,0.31299c0,0 -0.36324,0.18533 -0.57246,0.54595c-1.19609,0.4413 -2.4791,1.09232 -3.66102,1.86899c-1.4624,-1.44701 -3.10839,-2.96227 -4.78705,-4.12686c-0.98606,-0.6841 -2.73895,-1.28486 -3.48268,-2.30487c-1.48737,-2.03992 0.24924,-3.61327 2.3593,-3.88726c2.4502,-0.31815 4.69273,1.00857 6.4917,2.52573c1.72358,1.43383 3.13152,3.22904 4.41101,5.06533z" data-paper-data="{&quot;noHover&quot;:false,&quot;origItem&quot;:[&quot;Path&quot;,{&quot;applyMatrix&quot;:true,&quot;segments&quot;:[[[238.39977,133.16028],[1.72358,1.43383],[-1.79898,-1.51716]],[[231.97338,130.63792],[2.4502,-0.31815],[-2.11005,0.27399]],[[229.63244,134.49533],[-1.48737,-2.03992],[0.74373,1.02001]],[[233.11295,136.77326],[-0.98606,-0.6841],[1.67865,1.16459]],[[237.83576,140.87055],[-1.4624,-1.44701],[1.18192,-0.77667]],[[241.47114,139.0229],[-1.19609,0.4413],[0.20922,-0.36062]],[242.04099,138.48197],[[242.79828,138.17275],[0,0],[-1.27949,-1.83629]]],&quot;closed&quot;:true}]}" fill="#dc9aff"/><path d="M253.59613,145.25996c3.57777,5.43405 -2.30996,10.96955 -7.38742,10.93928c-3.97009,0.00729 -9.64978,-2.50864 -11.06193,-6.555c-1.50314,-4.3071 6.03445,-8.46221 9.20515,-8.85379c0,0 0.30509,-0.03774 0.59209,-0.22437c3.13388,0.3217 7.11691,2.36216 8.65211,4.69389z" data-paper-data="{&quot;noHover&quot;:false,&quot;origItem&quot;:[&quot;Path&quot;,{&quot;applyMatrix&quot;:true,&quot;segments&quot;:[[[244.94326,140.61607],[3.13388,0.3217],[-0.287,0.18663]],[[244.35505,140.84035],[0,0],[-3.1707,0.39157]],[[235.19637,149.63777],[-1.50314,-4.3071],[1.41215,4.04637]],[[246.2,156.15],[-3.97009,0.00729],[5.07746,0.03027]],[[253.54903,145.27673],[3.57777,5.43405],[-1.5352,-2.33173]]],&quot;closed&quot;:true}]}" fill="#dc9aff"/><path d="M227.28594,218.33992l0.5639,0.26748c0.80673,-0.33392 -1.33714,1.88842 -1.65841,-0.35317c-0.03769,-0.26297 -0.06926,-0.58742 0.03563,-0.83149c0.05506,-0.12813 0.15815,-0.20548 0.27401,-0.23481c-0.00887,0.72434 0.78488,1.15199 0.78488,1.15199z" data-paper-data="{&quot;noHover&quot;:false,&quot;origItem&quot;:[&quot;Path&quot;,{&quot;applyMatrix&quot;:true,&quot;segments&quot;:[[[226.52552,217.23153],[-0.00887,0.72434],[-0.11586,0.02933]],[[226.26331,217.45716],[0.05506,-0.12813],[-0.10489,0.24407]],[[226.24142,218.25383],[-0.03769,-0.26297],[0.32127,2.24159]],[[227.80472,218.58585],[0.80673,-0.33392],[0,0]],[227.24098,218.31803]],&quot;closed&quot;:true}]}" fill="#a500ff"/><path d="M273.20691,220.58867c-0.03573,0.19957 -0.03493,0.46823 0.07228,0.71599c-0.06083,0.56397 -0.34776,1.34011 -0.78509,2.12488c-0.92385,0.18967 -2.72946,0.63965 -3.14234,-0.56919c-0.53134,-1.55564 1.66252,-0.58649 2.26758,-1.54434c0.2122,-0.33592 0.22808,-0.73548 0.19528,-1.14667c0.76145,-0.19309 1.22535,0.00133 1.39229,0.41934z" data-paper-data="{&quot;noHover&quot;:false,&quot;origItem&quot;:[&quot;Path&quot;,{&quot;applyMatrix&quot;:true,&quot;segments&quot;:[[[271.79955,220.21702],[0.76145,-0.19309],[0.03281,0.41118]],[[271.59338,221.35874],[0.2122,-0.33592],[-0.60506,0.95786]],[[269.39637,222.83777],[-0.53134,-1.55564],[0.41289,1.20884]],[[272.46302,223.39037],[-0.92385,0.18967],[0.43734,-0.78477]],[[273.23118,221.31863],[-0.06083,0.56397],[-0.10722,-0.24775]],[[273.1654,220.61656],[-0.03573,0.19957],[-0.16694,-0.418]]],&quot;closed&quot;:true}]}" fill="#a500ff"/><path d="M270.9909,198.01433c0.77926,-0.16464 1.61289,-0.53264 2.39845,-0.94527c5.1379,-2.69878 8.10563,-6.83819 10.33954,-12.05547c0.89116,-2.7184 1.92206,-8.29394 0.08548,-10.87164c-1.26709,-1.77842 -4.03394,-2.81603 -6.00782,-3.47909l-0.32892,-0.06914c-0.06393,-0.04222 -0.10581,-0.06342 -0.10581,-0.06342c-2.05489,-1.02431 -4.6119,-1.61863 -7.26701,-1.71155c0.19625,-0.04999 0.33243,-0.18267 0.52694,-0.237c2.02017,-0.30645 3.84682,-1.12632 5.90835,-1.38949c3.06752,-0.3916 6.21844,0.40782 9.27651,0.41058c0.67755,0.00061 4.75589,-0.45204 5.1313,0.38387c0.31423,0.69966 -0.11273,1.53191 -0.16347,2.29722c-0.184,2.77552 -1.17656,5.34846 -1.56928,8.07067c-1.01051,4.59287 -1.36876,9.87502 -1.83262,14.57491c-0.0979,0.99194 0.37991,1.99888 0.22676,2.98381c-0.08146,0.52384 -1.06009,-0.11459 -1.59022,-0.1171c-0.07833,-0.00037 -4.2599,0.00079 -4.36768,0.01298c-2.70295,0.30575 -5.35039,1.58645 -8.04941,1.99894c-0.84848,0.12967 -1.73062,0.16951 -2.61109,0.2062z" data-paper-data="{&quot;noHover&quot;:false,&quot;origItem&quot;:[&quot;Path&quot;,{&quot;applyMatrix&quot;:true,&quot;segments&quot;:[[[273.62272,197.76264],[-0.84848,0.12967],[2.69903,-0.41249]],[[281.64727,195.75937],[-2.70295,0.30575],[0.10778,-0.01219]],[[286,195.75],[-0.07833,-0.00037],[0.53013,0.00251]],[[287.58594,195.86911],[-0.08146,0.52384],[0.15315,-0.98493]],[[287.35505,192.88775],[-0.0979,0.99194],[0.46386,-4.69989]],[[289.17016,178.37641],[-1.01051,4.59287],[0.39272,-2.72221]],[[290.75242,170.32233],[-0.184,2.77552],[0.05073,-0.76531]],[[290.91886,168.02741],[0.31423,0.69966],[-0.37541,-0.83591]],[[285.8,167.65],[0.67755,0.00061],[-3.05807,-0.00276]],[[276.55273,167.24064],[3.06752,-0.3916],[-2.06153,0.26317]],[[270.66069,168.62252],[2.02017,-0.30645],[-0.19452,0.05433]],[[270.07453,168.77896],[0.19625,-0.04999],[2.65511,0.09292]],[[277.35902,170.48197],[-2.05489,-1.02431],[0,0]],[[277.46517,170.5453],[-0.06393,-0.04222],[0,0]],[[277.79528,170.61415],[0,0],[1.97388,0.66306]],[[283.83244,174.09533],[-1.26709,-1.77842],[1.83657,2.57771]],[[283.7684,185.04423],[0.89116,-2.7184],[-2.2339,5.21728]],[[273.36722,197.1139],[5.1379,-2.69878],[-0.78557,0.41263]],[[271.0172,197.97181],[0.77926,-0.16464],[0.88047,-0.03669]]],&quot;closed&quot;:true}]}" fill="#a500ff"/><path d="M232.11116,169.06016c-4.14716,2.28527 -7.77116,6.07403 -9.84344,9.74229c-0.48028,2.99507 -1.14611,6.3862 0.73912,9.07564c1.7833,2.54403 5.15868,3.86158 8.01227,4.86296c7.10134,2.492 14.91577,2.23686 19.96824,-4.05684c1.00975,-1.7596 2.53183,-3.52518 3.14502,-5.47715c1.549,-4.93096 0.01171,-9.44081 -3.59162,-12.34501c0.00357,-0.0101 0.0071,-0.0203 0.01055,-0.03064c0.39529,-1.18586 -0.78717,-1.57817 -0.78717,-1.57817c-0.26005,-0.08662 -0.46408,-0.25503 -0.73272,-0.34518c4.49275,0.50587 9.37442,1.02798 14.0855,0.81798c-1.90512,0.64724 -3.62124,1.62261 -4.94189,2.95108c-3.17061,3.18939 -3.85128,9.35619 -2.50388,13.54738c1.85832,4.95739 7.04034,11.43009 12.94162,11.92055c-0.08194,0.00901 -0.1638,0.0188 -0.24539,0.02911c-14.73601,-0.02067 -29.5148,0.25044 -44.25163,0.20329c-4.13092,-0.37825 -8.08463,-1.62231 -12.18612,-2.1937c-0.87841,-0.12238 -2.60354,0.1242 -3.39709,-0.74254c-1.16195,-1.2691 -0.19882,-5.93502 -0.13327,-7.37726c0.25769,-5.66902 0.90379,-11.29116 1.35727,-16.94203c0.29101,-1.19485 6.15708,-1.43691 7.47954,-1.50207c4.881,-0.24051 9.92058,-0.28678 14.8751,-0.5597z" data-paper-data="{&quot;noHover&quot;:false,&quot;origItem&quot;:[&quot;Path&quot;,{&quot;applyMatrix&quot;:true,&quot;segments&quot;:[[[217.27767,169.64759],[4.881,-0.24051],[-1.32246,0.06516]],[[209.8023,171.14203],[0.29101,-1.19485],[-0.45347,5.65087]],[[208.44872,188.05665],[0.25769,-5.66902],[-0.06555,1.44224]],[[208.579,195.42279],[-1.16195,-1.2691],[0.79355,0.86674]],[[211.97476,196.16228],[-0.87841,-0.12238],[4.1015,0.57138]],[[224.1504,198.34142],[-4.13092,-0.37825],[14.73683,0.04715]],[[268.32233,198.15242],[-14.73601,-0.02067],[0.08159,-0.01031]],[[268.56763,198.12348],[-0.08194,0.00901],[-5.90127,-0.49046]],[[255.62167,186.21717],[1.85832,4.95739],[-1.34741,-4.19118]],[[258.13122,172.70127],[-3.17061,3.18939],[1.32065,-1.32847]],[[263.07328,169.75049],[-1.90512,0.64724],[-4.71108,0.21]],[[249.00195,168.94847],[4.49275,0.50587],[0.26864,0.09016]],[[249.79529,169.21415],[-0.26005,-0.08662],[0,0]],[[250.58586,170.79529],[0.39529,-1.18586],[-0.00344,0.01034]],[[250.57534,170.82595],[0.00357,-0.0101],[3.60333,2.90419]],[[254.18234,183.20567],[1.549,-4.93096],[-0.61319,1.95198]],[[251.03382,188.70265],[1.00975,-1.7596],[-5.05247,6.2937]],[[230.98788,192.78011],[7.10134,2.492],[-2.85359,-1.00138]],[[222.95865,187.89144],[1.7833,2.54403],[-1.88522,-2.68944]],[[222.21986,178.78798],[-0.48028,2.99507],[2.07228,-3.66826]],[[232.13066,169.10621],[-4.14716,2.28527],[-4.95452,0.27292]]],&quot;closed&quot;:true}]}" fill="#a500ff"/><path d="M230.35,152.4c0,-0.69036 0.55964,-1.25 1.25,-1.25c0.69036,0 1.25,0.55964 1.25,1.25c0,0.69036 -0.55964,1.25 -1.25,1.25c-0.69036,0 -1.25,-0.55964 -1.25,-1.25z" fill="#000000"/><path d="M240.59197,174.76532c-0.18492,0.14203 -0.35306,0.20509 -0.35306,0.20509c-1.65386,0.61822 -3.24701,1.25207 -4.63093,2.38337c-1.47822,1.20837 -3.33885,7.54647 -0.57736,8.27273c4.48222,1.17881 7.76809,-0.5696 9.56284,-4.55322c0.10574,-1.03792 0.84206,-3.40798 0.47992,-4.3318c-0.28546,-0.72821 -3.10392,-1.56536 -4.48141,-1.97617zM238.62595,172.91763c0.27095,-0.76763 1.17405,-0.76762 1.17405,-0.76762l0.99528,0.06414c1.77837,0.59738 5.65628,1.60217 6.53134,3.44437c0.71543,1.50611 -0.13448,4.50247 -0.32008,6.0682c-2.0411,4.63818 -4.865,6.78256 -10.0585,6.52221c-2.1966,-0.11012 -3.16802,0.05844 -4.69836,-1.63689c-1.07729,-1.19343 -0.8897,-1.98569 -0.89969,-3.41204c-0.03896,-5.56722 2.42982,-8.30211 7.27595,-10.28238z" fill="#000000"/><path d="M245.11549,176.71454c0.36213,0.92382 -0.36674,3.32747 -0.47248,4.36539c-1.79475,3.98362 -5.16213,5.76385 -9.64435,4.58505c-2.76149,-0.72626 -0.90797,-7.13404 0.57025,-8.34241c1.38393,-1.13129 3.02388,-1.78332 4.67774,-2.40155c0,0 0.17085,-0.06255 0.35578,-0.20459c1.37749,0.41081 4.22761,1.26991 4.51306,1.99811z" data-paper-data="{&quot;noHover&quot;:false,&quot;origItem&quot;:[&quot;Path&quot;,{&quot;applyMatrix&quot;:true,&quot;segments&quot;:[[[240.59197,174.76532],[1.37749,0.41081],[-0.18492,0.14203]],[[240.23891,174.97041],[0,0],[-1.65386,0.61822]],[[235.60797,177.35378],[1.38393,-1.13129],[-1.47822,1.20837]],[[235.03061,185.62651],[-2.76149,-0.72626],[4.48222,1.17881]],[[244.59345,181.07329],[-1.79475,3.98362],[0.10574,-1.03792]],[[245.07337,176.74149],[0.36213,0.92382],[-0.28546,-0.72821]]],&quot;closed&quot;:true}]}" fill="#fdff9a"/><path d="M272.89671,177.47175c-0.46765,0.29372 -1.04011,0.13016 -1.04011,0.13016c-1.17326,-0.33791 -2.33299,-0.84713 -3.53255,-0.26706c-5.65761,2.73584 -2.69486,12.66813 3.60834,8.60837c1.11957,-0.72109 1.88501,-1.75972 2.47447,-2.91592c0.42764,-3.30852 0.79917,-4.18228 -1.51015,-5.55554zM270.20556,174.59994c0.4193,-0.31622 0.97122,-0.23738 0.97122,-0.23738l1.59593,0.2443c0.47473,0.23119 3.04408,1.46508 3.25455,1.65604c2.1012,1.90643 1.13421,5.09827 0.76588,7.50981c-0.84443,1.70858 -1.83853,3.2513 -3.52553,4.28408c-1.9056,1.16661 -2.53896,1.10376 -4.74527,0.99079c-8.60697,-0.4407 -6.88834,-13.91054 0.81327,-14.49592c0.26453,-0.02011 0.56074,0.00134 0.86995,0.04828z" fill="#000000"/><path d="M274.45551,183.03882c-0.58945,1.1562 -1.3818,2.22832 -2.50137,2.94941c-6.3032,4.05976 -9.30484,-5.96452 -3.64723,-8.70036c1.19955,-0.58006 2.39572,-0.07 3.56898,0.26791c0,0 0.58002,0.16751 1.04766,-0.12621c2.30932,1.37327 1.95959,2.30073 1.53195,5.60925z" data-paper-data="{&quot;noHover&quot;:false,&quot;origItem&quot;:[&quot;Path&quot;,{&quot;applyMatrix&quot;:true,&quot;segments&quot;:[[[272.89671,177.47175],[2.30932,1.37327],[-0.46765,0.29372]],[[271.8566,177.60191],[0,0],[-1.17326,-0.33791]],[[268.32406,177.33484],[1.19955,-0.58006],[-5.65761,2.73584]],[[271.9324,185.94321],[-6.3032,4.05976],[1.11957,-0.72109]],[[274.40686,183.02729],[-0.58945,1.1562],[0.42764,-3.30852]]],&quot;closed&quot;:true}]}" fill="#99ffeb"/><path d="M237.75,180.4c0,-0.69036 0.55964,-1.25 1.25,-1.25c0.69036,0 1.25,0.55964 1.25,1.25c0,0.69036 -0.55964,1.25 -1.25,1.25c-0.69036,0 -1.25,-0.55964 -1.25,-1.25z" fill="#000000"/><path d="M268.75,182c0,-0.69036 0.55964,-1.25 1.25,-1.25c0.69036,0 1.25,0.55964 1.25,1.25c0,0.69036 -0.55964,1.25 -1.25,1.25c-0.69036,0 -1.25,-0.55964 -1.25,-1.25z" fill="#000000"/></g></g></svg>