<svg version="1.1" xmlns="http://www.w3.org/2000/svg" xmlns:xlink="http://www.w3.org/1999/xlink" width="60.4379" height="77.43642" viewBox="0,0,60.4379,77.43642"><g transform="translate(-239.84485,-167.97786)"><g data-paper-data="{&quot;isPaintingLayer&quot;:true}" fill-rule="nonzero" stroke="none" stroke-width="0.5" stroke-linecap="butt" stroke-linejoin="miter" stroke-miterlimit="10" stroke-dasharray="" stroke-dashoffset="0" style="mix-blend-mode: normal"><path d="M286.76338,244.00463c-1.24035,0.15504 -1.39539,-1.0853 -1.39539,-1.0853c-0.0402,-0.32162 -0.15314,-1.22511 -0.25108,-2.00868c-2.83623,0.2863 -5.91659,0.40974 -8.5547,-0.57869c-0.54037,-0.20246 -1.03773,-0.42834 -1.50387,-0.67398c0,1.16877 0,2.33754 0,3.5063v1c0,0 0,1.25 -1.25,1.25c-1.25,0 -1.25,-1.25 -1.25,-1.25c0,-1.4 0,-3.8 0,-5.2c0,0 0,-0.42545 0.24821,-0.77993c-1.12292,-0.87079 -2.16119,-1.85043 -3.3907,-2.85339c-5.09325,-4.15479 -9.66709,-8.74974 -11.21912,-15.45926c-0.40557,-1.4195 -0.72456,-2.85505 -1.07373,-4.288c-1.4058,-0.08111 -2.70767,-0.486 -3.54192,-1.28231c-1.00269,-0.9571 -1.4796,-2.07818 -1.94209,-3.26986c-0.05895,0.07348 -0.11787,0.14706 -0.17683,0.22066l0.23148,0.13228l-0.78796,1.37893c-0.21221,0.38786 -0.62405,0.6509 -1.09734,0.6509c-0.63664,0 -1.16211,-0.47594 -1.24004,-1.09142l-0.1974,-1.38181l0.0306,-0.00437l-0.04001,-0.0838c-0.00304,-1.44078 0.02204,-3.26651 0.23605,-5.11372c-6.68723,-5.96349 -9.82611,-14.6349 -8.42441,-23.56666c0.4146,-2.64185 0.96462,-5.61451 2.62618,-7.74605c6.6735,-9.94015 20.7604,-5.8922 30.63438,-4.0917c2.8773,0.52467 5.66102,0.84215 8.44687,1.41913c0.05159,-0.01977 0.10317,-0.03934 0.15474,-0.05871l0.34942,-0.17811c0,0 0.44721,-0.2236 0.67082,0.22361c0.05456,0.10912 0.06919,0.20492 0.06011,0.28742c0.895,0.21306 1.79167,0.45996 2.69319,0.75611c3.47622,1.48256 9.09963,3.99382 11.38916,7.21651c3.58184,5.04169 3.6951,12.04456 1.29449,17.74481c0.11263,0.06764 0.21583,0.1916 0.21583,0.41876c0,0.5 -0.5,0.5 -0.5,0.5l-0.13005,-0.00001c-1.09688,2.27829 -2.60882,4.30703 -4.46972,5.86028c-1.25108,1.04025 -2.41293,1.84154 -3.7831,2.44135c1.13193,1.78599 1.87725,3.84549 2.13373,5.7695c0.61888,0.41392 0.48213,1.23437 0.48213,1.23437l-0.19265,1.14954c-0.26848,2.1207 -0.35674,4.25025 -0.38168,6.38583c0.03958,0.06054 0.05936,0.10011 0.05936,0.10011c0.88558,1.77964 2.12249,3.69732 4.11565,4.38666c0.75887,0.26245 3.40609,0.65128 3.75158,1.20309c1.3084,2.08976 -0.26943,5.28133 -1.66908,6.81963c-2.65514,2.91816 -6.78475,4.96251 -10.55943,6.32586c0.02786,0.22291 0.05573,0.44583 0.08359,0.66874l0.2,1.6c0,0 0.15504,1.24035 -1.0853,1.39539zM257.76319,212.53856c0.64258,-0.12851 1.01566,0.14721 1.22521,0.43866c1.08018,-0.18694 2.06968,-0.5707 2.50615,-1.06587c1.97656,-2.24238 2.92197,-8.80457 -0.24523,-10.22903l-0.68613,-0.09231c0,0 -0.56079,-0.11216 -0.84787,-0.56405c-1.63777,-0.72194 -3.43452,-1.72496 -5.28396,-1.43172c-2.9587,0.46911 -3.48254,5.03845 -3.56601,8.40597c0.50165,-0.54176 1.09168,-1.02784 1.56211,-1.412l0.98558,-0.40977c0,0 0.59878,-0.19959 1.0872,0.11037c2.03699,-0.27851 3.59384,-0.37463 5.96123,0.31051l1.30587,0.64694c0,0 1.11803,0.55902 0.55901,1.67705c-0.55901,1.11803 -1.67705,0.55901 -1.67705,0.55901l-1.09413,-0.55306c-2.44255,-0.68731 -3.67545,-0.33496 -6.05705,0.02604c-0.00054,0.0005 -0.00108,0.00099 -0.00162,0.00148c0.04915,0.08509 0.07242,0.14326 0.07242,0.14326c0.44821,1.13139 0.81269,2.39807 1.66665,3.32715c0.34034,0.37028 0.96665,0.57461 1.70068,0.6459c0.14102,-0.23605 0.39092,-0.44733 0.82693,-0.53453zM260.61994,219.25687c1.31006,6.20066 5.7528,10.34432 10.38088,14.14074c2.22724,1.82701 3.66496,3.51552 6.45364,4.599c2.49027,0.96755 5.66876,0.62926 8.28572,0.34678c3.63193,-1.22656 7.90004,-3.1668 10.55197,-6.02946c0.45929,-0.49579 1.98528,-2.79461 1.53093,-3.58038c-0.15333,-0.26517 -0.61498,0.08881 -0.91791,0.04341c-1.16348,-0.17436 -2.17799,-0.53333 -3.17052,-1.15976c-0.70209,-0.44312 -1.30733,-0.96627 -1.84084,-1.54872c-0.00617,1.00217 -0.06263,2.00155 -0.26644,2.97231c-0.32788,1.56172 -0.54622,4.54595 -1.28665,5.85286c-2.35944,4.16451 -4.41705,0.05185 -6.08708,-1.92248c-4.43551,-5.24373 -5.08187,-11.61033 -7.79693,-17.72084c-1.44392,-3.70893 -1.52822,-11.01398 3.33787,-12.66558c0.467,-0.1585 0.9257,-0.27098 1.37514,-0.34115c-0.44496,-1.48893 -1.0358,-2.81318 -1.66048,-4.28393c-4.99559,-7.44908 -16.53818,-8.30239 -21.08424,-0.20191c0.83229,0.31602 1.64144,0.70004 2.47573,1.0576c0,0 0.30301,0.12986 0.53112,0.41181l0.9355,0.21908c4.53032,2.40962 4.27657,10.57989 0.95477,14.17097c-0.79969,0.86452 -2.17185,1.48699 -3.67121,1.78463c0.3096,1.28897 0.60429,2.57844 0.96903,3.85502zM289.7602,214.87263c-0.20187,-0.33765 -0.20186,-0.70834 -0.20186,-0.70834c0.0029,-2.07278 -0.74485,-4.49831 -2.09658,-6.36698l-0.45813,0.15284c0,0 -1.18586,0.39529 -1.58114,-0.79057c-0.19221,-0.57662 -0.01058,-0.96631 0.22678,-1.21454c-0.80404,-0.58652 -1.71821,-0.99099 -2.72928,-1.13141c-0.21582,0.02808 -0.3988,0.00494 -0.55334,-0.0496c-0.55549,-0.02288 -1.13768,0.03295 -1.74456,0.17979c-0.70851,0.17143 -0.96938,1.0958 -1.36841,1.70585c-1.58316,2.42032 -1.58206,4.99805 -0.49371,7.62858c1.9069,4.28937 2.39537,9.41871 4.7295,13.45863c1.03697,1.7948 2.45747,3.23195 3.70827,4.86349c0.21267,0.27741 0.54896,0.92398 0.76132,1.36884c-0.10433,-0.63012 0.30548,-1.36819 0.41943,-2.02853c0.53282,-3.0876 0.97984,-5.60399 0.97984,-8.77639c0,-2.77639 0.06577,-5.53757 0.40186,-8.29166zM286.86161,199.10869c-1.00742,0.16601 -1.97139,0.39086 -2.85988,0.69464c0.1623,0.95658 0.37582,1.87931 0.65628,2.7472c0.73127,0.25211 1.42129,0.61613 2.06399,1.06777c0.02015,-1.52205 0.06388,-3.01894 0.13961,-4.5096zM296.14353,191.04566c-0.2112,0.06501 -0.42321,0.12978 -0.63599,0.19427c0.04794,1.4132 0.22402,2.91536 -0.20567,4.20445c0.0052,0.74137 0.00733,1.48277 0.008,2.22418c0.16658,0.00013 0.33211,0.00034 0.49647,0.00053c1.04327,-2.13639 1.65465,-4.53283 1.77361,-6.94031c-0.478,0.10236 -0.95722,0.19697 -1.43642,0.31689zM295.87314,190.08291c0.57633,-0.14395 1.15331,-0.2507 1.72753,-0.37932c-0.02486,-2.71055 -0.68579,-5.39026 -2.06938,-7.68292c0.03947,2.72084 0.1043,5.42598 -0.02392,8.17469c-0.00005,0.00098 -0.00009,0.00195 -0.00014,0.00293c0.12228,-0.03833 0.24426,-0.07679 0.3659,-0.11538zM273.40834,190.26429c1.06092,0.00737 2.13073,-0.23707 3.20146,-0.63161c-0.05831,-0.37562 -0.10029,-0.76271 -0.09501,-1.1883c-0.3976,-1.19279 -0.47083,-2.47502 -0.51049,-3.75926c-0.82867,0.44225 -1.6822,0.8303 -2.57629,1.12833c-0.32374,0.21583 -0.66733,0.40713 -1.02272,0.58373c0.3406,1.14907 0.52592,2.34158 0.89659,3.48702l0.00373,0.39248c0.06023,-0.01239 0.10273,-0.01239 0.10273,-0.01239zM286.74547,184.53896c0.13307,-0.13064 0.28303,-0.26269 0.44759,-0.39543c-0.03283,-1.91298 -0.06337,-3.82481 -0.07713,-5.73361c-0.15893,0.11914 -0.31301,0.24822 -0.46125,0.38947c-1.38506,0.36454 -2.6696,0.96411 -3.90931,1.67165c0.28319,1.86096 0.5369,3.71927 0.6683,5.56587c1.13325,-0.6237 2.2473,-1.1671 3.3318,-1.49795zM283.50834,188.56429c0,1.51134 -0.02365,3.14927 0.00089,4.81794c1.26093,-0.28349 2.53054,-0.58327 3.79697,-0.89802c-0.01094,-2.357 -0.05039,-4.71636 -0.09123,-7.07458c-1.20433,0.43191 -2.45574,1.08099 -3.73544,1.79175c0.01874,0.45518 0.02881,0.90953 0.02881,1.36291zM287.3091,193.53664c-0.00001,-0.01292 -0.00003,-0.02586 -0.00004,-0.03878c-1.26047,0.31433 -2.52328,0.61465 -3.77848,0.8985c0.04147,1.4815 0.13187,2.97186 0.32072,4.40499c0.95938,-0.31173 1.99264,-0.538 3.06663,-0.70213c0.09228,-1.51619 0.21971,-3.03037 0.39117,-4.56258zM276.96724,192.1096l-0.0589,-0.14532c0,-0.49451 -0.05806,-0.93471 -0.12962,-1.35957c-0.5612,0.19914 -1.12175,0.3616 -1.68018,0.47547c0.6408,0.30009 1.26553,0.64353 1.8687,1.02942zM267.90069,188.56991c-0.21654,0.15641 -0.43249,0.31579 -0.64813,0.47742c0.05085,0.12589 0.10124,0.25257 0.15102,0.38021l0.14123,0.15091c1.58853,-0.08327 3.20146,0.08557 4.76962,0.49522l0.00036,-0.02928c-0.36397,-1.05435 -0.52901,-2.15811 -0.82907,-3.22585c-1.23892,0.5323 -2.53461,0.99265 -3.58504,1.75138zM254.93309,196.34687c0.63692,-0.37838 1.47883,-0.77017 2.2302,-1.2319c0.52949,-0.72525 1.1108,-1.37688 1.73462,-1.95644c-0.0912,-0.07943 -0.13679,-0.17063 -0.13679,-0.17063l-0.22713,-0.4655c-0.34313,-1.03667 -0.79673,-2.01882 -1.27887,-2.98968c-0.12493,0.08412 -0.25013,0.16799 -0.37559,0.25162c-1.90543,1.19105 -3.63403,2.77337 -5.54511,3.93275c0.43324,1.3733 0.98525,2.67034 1.69923,3.38432l0.10673,0.30206c0.07939,-0.02895 0.16008,-0.05612 0.24211,-0.08145c0.50997,-0.33795 1.02638,-0.66374 1.55059,-0.97517zM267.31598,187.75867c1.1583,-0.81908 2.57006,-1.30584 3.90158,-1.90042c-0.46678,-1.89067 -0.90697,-3.80622 -1.38533,-5.70386c-1.47652,1.13754 -2.93953,2.2789 -4.40796,3.40956c0.03242,0.34767 0.05709,0.69545 0.07321,1.04299c0.37872,1.22468 0.87092,2.33896 1.35654,3.48261c0.15346,-0.11125 0.30742,-0.2216 0.46196,-0.33089zM272.98866,184.91513c1.03704,-0.34568 2.02297,-0.82358 2.98163,-1.37072c-0.01895,-0.5343 -0.0471,-1.06443 -0.10572,-1.58399c-0.21593,-1.91371 -0.53403,-3.72058 -0.74314,-5.56769c-0.83617,0.52812 -1.64812,1.06234 -2.42431,1.57972c-0.67204,0.50423 -1.33895,1.01109 -2.00241,1.51927c0.5023,1.96849 0.95893,3.95889 1.44276,5.92439c0.29348,-0.15403 0.57856,-0.31924 0.85118,-0.50099zM286.16199,177.92919c0.28169,-0.30069 0.60248,-0.54673 0.94751,-0.75795c-0.00062,-0.20236 -0.00101,-0.40467 -0.00116,-0.60695c0,0 0,-0.19617 0.12287,-0.34276c-0.73976,-0.39062 -1.50349,-0.75712 -2.30337,-1.09769c-1.05102,-0.34534 -2.0818,-0.62931 -3.11023,-0.86891c0.21397,1.69905 0.4899,3.40428 0.75654,5.10878c1.14229,-0.62406 2.32493,-1.1374 3.58784,-1.43452zM255.93329,197.1205c0.04419,-0.08649 0.089,-0.17221 0.13441,-0.25715c-0.14778,0.07882 -0.29086,0.15565 -0.427,0.23071c0.09626,0.00692 0.19378,0.01573 0.29259,0.02645zM256.33713,188.94423c0.15517,-0.10345 0.30992,-0.20729 0.46428,-0.3115c-0.51794,-1.01909 -1.03941,-2.04048 -1.46882,-3.11461c-0.19448,-0.80527 -0.51251,-1.58019 -0.90578,-2.3375c-1.69213,1.05462 -3.39504,2.31545 -5.04158,3.65847c0.2913,0.93668 0.58987,1.86699 0.90317,2.7854c0.19137,0.79651 0.43413,1.93164 0.75441,3.09907c1.81397,-1.13392 3.47449,-2.64209 5.29433,-3.77934zM272.11955,177.15612c0.92699,-0.61808 1.89585,-1.24952 2.89225,-1.86504c-0.0596,-0.706 -0.09768,-1.42188 -0.10285,-2.1556c-0.89159,-0.12025 -1.82752,-0.27885 -2.79678,-0.45933c0.04553,0.24588 -0.15027,0.44169 -0.15027,0.44169l-0.49068,0.47177c-0.81153,0.28595 -1.56019,0.67977 -2.27644,1.12827c0.32007,0.84289 0.65975,1.67727 0.89364,2.50661c0.11399,0.40419 0.22479,0.81012 0.33306,1.21735c0.56295,-0.42996 1.12863,-0.8588 1.69809,-1.28573zM258.90834,170.56429c0,0.5 -0.5,0.5 -0.5,0.5l-0.27874,-0.01493c-0.39538,0.09865 -0.7906,0.20823 -1.18199,0.33172c0.13705,1.04463 0.60648,1.96245 0.99631,2.93194c0.30208,-0.15071 0.59291,-0.29146 0.86606,-0.4077c0.89168,-0.37942 1.81583,-0.6895 2.74401,-0.99176c-0.31428,-0.74481 -0.61537,-1.49468 -0.75871,-2.27463c-0.63455,-0.0729 -1.26678,-0.13238 -1.89435,-0.17497c0.0048,0.03098 0.0074,0.06437 0.0074,0.10034zM253.82801,172.81345c-1.19361,0.37765 -2.29291,1.58289 -3.30853,2.34251c0.28464,0.69905 0.65141,1.38395 1.06306,2.05997c0.70954,-0.70992 1.52761,-1.28007 2.56427,-1.54784c0.89611,0.02208 1.93467,-0.42946 2.92253,-0.91663c-0.37604,-1.02167 -0.86864,-1.95839 -1.06968,-3.03887c-0.76056,0.2945 -1.49409,0.6536 -2.17166,1.10086zM253.38866,171.91513c0.77522,-0.52248 1.63832,-0.92459 2.53064,-1.24643c0.0148,-0.07614 0.04958,-0.18371 0.13129,-0.26877c-2.28446,0.06591 -4.45276,0.44606 -6.38153,1.32518c0.23928,0.13326 0.23928,0.43918 0.23928,0.43918c-0.00946,0.52975 0.04806,1.04875 0.15931,1.55886c1.04213,-0.75546 2.13329,-1.39468 3.32101,-1.80801zM267.20833,171.86429l-0.15297,-0.06528c-1.33981,0.75727 -2.78877,1.26179 -4.24781,1.74275c0.25399,0.58023 0.50229,1.14751 0.68273,1.68863c0.20047,0.60119 0.39617,1.21295 0.582,1.83298c1.33966,-0.80784 2.58522,-1.88697 3.91474,-2.80138c-0.27767,-0.79608 -0.51398,-1.60047 -0.61962,-2.42432c-0.0883,0.02663 -0.15908,0.02663 -0.15908,0.02663zM259.20669,174.82326c-0.29868,0.12733 -0.61004,0.2752 -0.92983,0.43068c0.0537,0.18365 0.10061,0.37079 0.1383,0.56249c0.26542,1.34986 0.4476,2.68874 0.61986,4.02257c1.42097,-0.72758 2.82751,-1.49589 4.13837,-2.25069c-0.29411,-1.00531 -0.6168,-2.00088 -0.94826,-2.98886c-0.08675,-0.25856 -0.18482,-0.51548 -0.28834,-0.77179c-0.92221,0.30378 -1.84057,0.61636 -2.7301,0.9956zM254.26985,176.66049c-0.74915,0.18145 -1.49649,0.67363 -2.2054,1.31526c0.86352,1.31461 1.84578,2.60271 2.66544,3.90422c1.09064,-0.46965 2.22491,-1.0005 3.36144,-1.56496c-0.18363,-1.42695 -0.37252,-2.85929 -0.65735,-4.3055c-0.02075,-0.10536 -0.04393,-0.20919 -0.06922,-0.31166c-1.03144,0.49271 -2.10584,0.94287 -3.09491,0.96264zM248.61915,182.2493c-0.13862,0.20171 -0.28774,0.40101 -0.44628,0.59724c0.31294,1.03337 0.62189,2.0685 0.93669,3.09811c1.56083,-1.30818 3.13802,-2.56727 4.83089,-3.63404c-0.7492,-1.25768 -1.65938,-2.47921 -2.4986,-3.72565c-1.13213,1.18786 -2.12865,2.65442 -2.82269,3.66434zM250.21341,178.85764c0.24723,-0.33393 0.49961,-0.66364 0.76439,-0.97837c-0.45036,-0.70432 -0.86482,-1.42003 -1.20269,-2.15787c-1.1042,0.85297 -2.23761,1.78213 -3.40601,2.6719c0.44235,0.70442 0.8621,1.41524 1.11472,2.21637c0.12134,0.38483 0.24113,0.77064 0.35988,1.15706c0.86716,-0.94662 1.65656,-1.94587 2.3697,-2.90909zM248.90834,172.16429c0,0 -0.00001,-0.02429 0.00535,-0.06216c-1.52178,0.82901 -2.8728,2.00732 -3.98582,3.63563c0.20825,0.58526 0.49528,1.12127 0.80661,1.63966c1.17338,-1.01323 2.32009,-2.08355 3.51705,-3.03357c-0.20874,-0.70006 -0.33338,-1.42388 -0.3432,-2.17956zM256.75558,170.38938c0.00054,0.00052 0.00107,0.00104 0.0016,0.00156c0.00172,-0.00053 0.00344,-0.00105 0.00516,-0.00157c-0.00225,0 -0.0045,0.00001 -0.00676,0.00001zM264.45867,177.99711c-0.03331,0.01938 -0.06669,0.03878 -0.10013,0.05819c0.39416,1.42327 0.72387,2.88263 0.93002,4.35109c1.42171,-1.09764 2.84027,-2.20396 4.27317,-3.30564c-0.13998,-0.53462 -0.28398,-1.06716 -0.43346,-1.59667c-0.21074,-0.74652 -0.49268,-1.48697 -0.7716,-2.23059c-1.30372,0.90649 -2.53607,1.93117 -3.89801,2.72361zM245.15835,189.25508c1.06653,-0.85794 2.10343,-1.74733 3.13994,-2.62601c-0.29979,-0.97153 -0.59815,-1.94838 -0.89798,-2.92319c-1.29024,1.29889 -2.96215,2.39914 -4.64324,3.07506c0.64863,0.95047 1.33055,1.87963 2.02785,2.7981c0.12042,-0.11184 0.2445,-0.22025 0.37342,-0.32396zM246.53284,180.91891c-0.21873,-0.69081 -0.56625,-1.32102 -0.94572,-1.94115c-0.85915,0.62876 -1.73737,1.2233 -2.6369,1.73949c-0.11804,0.6324 -0.2139,1.25514 -0.30668,1.83881c-0.17673,1.11176 -0.27545,2.21852 -0.29856,3.31465c1.75429,-0.70448 3.32273,-1.90216 4.71056,-3.28185c-0.1732,-0.55871 -0.34725,-1.11583 -0.5227,-1.66995zM244.25641,176.71402c-0.45382,0.78328 -0.76847,1.6861 -1.00485,2.61456c0.59259,-0.40452 1.16719,-0.84952 1.73207,-1.31593c-0.26066,-0.42036 -0.51298,-0.84807 -0.72723,-1.29863zM270.94547,172.73896l0.22798,-0.24191c-0.90825,-0.17695 -1.84163,-0.36788 -2.79158,-0.56004c0.08957,0.59807 0.25352,1.19028 0.45048,1.77776c0.66875,-0.40282 1.36625,-0.7449 2.11313,-0.97581zM250.22166,198.48128c-0.69284,-1.03217 -1.42646,-2.04209 -2.18005,-3.04209c-1.06116,0.51138 -2.10877,1.00885 -3.12365,1.58507c0.81448,1.57513 1.8142,3.06486 2.98809,4.44329c0.94864,-0.78333 1.90212,-1.55133 2.87112,-2.28707c0.01496,-0.0194 0.03002,-0.03869 0.04517,-0.05788c-0.1649,-0.20166 -0.35316,-0.39183 -0.60068,-0.64131zM249.13068,202.80092c0.12859,-0.49003 0.2784,-0.96667 0.45285,-1.42216c-0.33902,0.27694 -0.67678,0.55605 -1.0139,0.836c0.18326,0.19796 0.37029,0.39337 0.56106,0.58616zM244.64747,191.04427c-0.51932,0.54352 -0.94108,1.08558 -1.46373,1.56244c0.33505,1.20712 0.76767,2.38314 1.29393,3.5189c0.9613,-0.54144 1.94842,-1.0153 2.94731,-1.49746c-0.91721,-1.19695 -1.85511,-2.38443 -2.77751,-3.58389zM242.39628,188.01039c0.08325,1.19936 0.25782,2.38106 0.52043,3.53739c0.40554,-0.39048 0.77633,-0.82406 1.16266,-1.24695c-0.57302,-0.75527 -1.13702,-1.51699 -1.6831,-2.29044zM250.99501,197.84729c0.19912,0.19725 0.36492,0.36978 0.51232,0.54184c0.22938,-0.20591 0.47539,-0.39134 0.73922,-0.55357l-0.06354,-0.20841c-0.73925,-0.73925 -1.29537,-2.02907 -1.7329,-3.40446c-0.49486,0.27023 -0.9899,0.5226 -1.48324,0.76628c0.70335,0.93817 1.38576,1.88715 2.02813,2.85832zM249.32828,189.90408c-0.25481,-0.78913 -0.50636,-1.58766 -0.75632,-2.39139c-1.10491,0.92881 -2.17865,1.88608 -3.20014,2.8329c0.9894,1.28271 1.9993,2.55022 2.98012,3.83196c0.60078,-0.29566 1.20421,-0.60263 1.80728,-0.93715c-0.34418,-1.2421 -0.60581,-2.46484 -0.83094,-3.33632zM290.10834,199.96429c0,0 -0.00001,-0.44266 0.4165,-0.49497c0.02639,-0.24609 0.05373,-0.49217 0.08114,-0.7382c-0.92171,0.04683 -1.83958,0.11968 -2.73286,0.23157c-0.09523,1.79781 -0.14396,3.60366 -0.15931,5.45369c0.17597,0.16057 0.34744,0.32778 0.51425,0.50098c0.51133,-0.1851 0.97861,-0.39875 1.42487,-0.64434c0.32939,-1.40325 0.46506,-2.92138 0.45542,-4.30872zM290.91479,194.6842c0.2396,-0.74113 0.42888,-1.50444 0.57766,-2.28383c-1.05401,0.29043 -2.11766,0.57273 -3.18489,0.84543c0.00009,0.11539 0.00009,0.23077 0,0.34615c-0.16212,1.469 -0.28535,2.91978 -0.37662,4.37145c0.91299,-0.1064 1.84708,-0.17473 2.78309,-0.21848c0.10794,-1.022 0.19629,-2.04277 0.20074,-3.06071zM291.96182,182.59586c-1.3783,0.6061 -2.76484,1.32823 -3.76198,2.02928c0.04532,2.53555 0.09288,5.07293 0.10491,7.60759c1.12974,-0.28831 2.25444,-0.58831 3.36563,-0.89908c0.40836,-2.83536 0.35552,-5.84111 0.29145,-8.73779zM291.90834,179.16429c0,0 0,-0.00865 0.00113,-0.02366c-0.90978,-0.64076 -1.81448,-1.2468 -2.74162,-1.81406c-0.35911,0.14818 -0.71396,0.30085 -1.05729,0.47495c0.00802,1.87818 0.036,3.75963 0.06847,5.64248c1.07495,-0.68514 2.43172,-1.35619 3.75935,-1.91718c-0.01676,-0.80076 -0.03004,-1.5903 -0.03004,-2.36253zM294.31479,195.2842c0.38261,-1.14782 0.26989,-2.47529 0.21024,-3.74999c-0.63599,0.18825 -1.27791,0.37395 -1.92431,0.55676c-0.16676,0.94947 -0.3935,1.87184 -0.69885,2.7534c0.00444,0.9507 -0.07215,1.90554 -0.17167,2.86205c0.86852,-0.02576 1.73271,-0.03451 2.57722,-0.03707c0.00065,-0.79506 0.00261,-1.59011 0.00736,-2.38515zM291.30834,202.76429l-0.3594,-0.14375c-0.03663,0.30576 -0.08023,0.61089 -0.13151,0.9137c0.3913,-0.27987 0.78229,-0.58908 1.19068,-0.93023c0.85782,-0.71361 1.62674,-1.54089 2.29987,-2.45342c-0.00029,-0.49964 -0.00068,-0.99929 -0.00079,-1.49894c-0.87824,0.00033 -1.77976,0.00879 -2.68493,0.03773c-0.15389,1.35898 -0.31392,2.71963 -0.31392,4.0749zM294.5093,190.13322c0.13722,-2.87023 0.05628,-5.69092 0.01683,-8.5333c-0.4871,0.16144 -1.01806,0.35664 -1.5663,0.57645c0.0763,2.90417 0.17348,5.97277 -0.19727,8.84703c0.58387,-0.16845 1.16316,-0.33985 1.73661,-0.51406c0.00102,-0.1267 0.0042,-0.25215 0.01013,-0.37613zM293.07358,179.97555c-0.05388,-0.03924 -0.1077,-0.07838 -0.16146,-0.1174c0.00435,0.41663 0.01211,0.83908 0.02167,1.26619c0.44371,-0.17132 0.87474,-0.32682 1.28053,-0.46264c-0.38139,-0.22744 -0.7889,-0.42985 -1.14074,-0.68615zM282.50834,188.56429c0,-0.26999 -0.00363,-0.54037 -0.01057,-0.81109c-1.5652,0.88628 -3.16487,1.80499 -4.76574,2.48028c0.09191,0.54407 0.17631,1.09954 0.17631,1.73081l0.14721,0.1764c0,0 0.19448,0.38895 -0.14204,0.62275c0.5912,0.44033 1.1568,0.92448 1.69091,1.45148c0.95837,-0.19333 1.92952,-0.39738 2.90784,-0.61151c-0.02925,-1.7466 -0.00393,-3.4626 -0.00393,-5.03911zM281.70743,196.76891c0.37458,0.86698 0.73714,1.69447 1.06925,2.52904c0.03418,-0.04935 0.07548,-0.08876 0.11438,-0.11901c-0.20799,-1.47872 -0.30846,-3.0234 -0.35518,-4.56075c-0.71235,0.15663 -1.42137,0.3077 -2.12524,0.45277c0.46353,0.52982 0.89736,1.09605 1.29678,1.69795zM281.82123,181.02113c-1.62373,1.00245 -3.19286,2.13963 -4.83848,3.11254c0.0389,1.41374 0.08093,2.83592 0.51913,4.15053c0.00317,0.3343 0.03136,0.64922 0.07154,0.95565c1.63781,-0.72736 3.2722,-1.73463 4.87462,-2.65762c-0.10775,-1.84323 -0.3483,-3.7003 -0.6268,-5.56109zM280.78212,174.02801c-0.37658,-0.07749 -0.75365,-0.1498 -1.13208,-0.21776c-1.2133,0.59893 -2.41884,1.28441 -3.58694,1.9974c0.20403,2.01395 0.56412,3.96062 0.79526,6.04154c0.04075,0.36682 0.06636,0.73877 0.08439,1.11363c1.58515,-0.98701 3.11618,-2.10903 4.7063,-3.06674c-0.30493,-1.9581 -0.63068,-3.91805 -0.86693,-5.86806zM275.91018,173.2597c0.0061,0.49078 0.02711,0.97338 0.05941,1.45033c0.67672,-0.40268 1.36372,-0.79409 2.0567,-1.16551c-0.69509,-0.10367 -1.39873,-0.19696 -2.11611,-0.28482zM261.81023,170.76621c0.12489,0.61866 0.35143,1.24602 0.60726,1.86666c1.10252,-0.3604 2.19826,-0.73669 3.23946,-1.23208c-1.27396,-0.23958 -2.56257,-0.46063 -3.84673,-0.63458zM264.51214,184.77759c-0.00841,-0.16374 -0.0186,-0.32713 -0.03048,-0.49017c-1.29435,0.98987 -2.59601,1.96906 -3.91786,2.92772c0.56257,1.2363 1.08771,2.51152 1.82112,3.61304c0.54935,-0.25202 1.11343,-0.46585 1.68843,-0.6421c0.6513,-0.49636 1.29931,-0.99626 1.95264,-1.4856c-0.55296,-1.28735 -1.10252,-2.5408 -1.51385,-3.92289zM266.44041,189.67772c-0.00122,-0.00293 -0.00243,-0.00585 -0.00364,-0.00877c-0.00478,0.00369 -0.00957,0.00738 -0.01435,0.01108c0.00599,-0.00078 0.012,-0.00155 0.01799,-0.00231zM263.45162,178.57617c-1.36765,0.77713 -2.82059,1.56513 -4.28225,2.30782c0.22883,1.77058 0.47403,3.53496 0.908,5.30709c0.01743,0.03465 0.03478,0.06938 0.05204,0.10419c1.43044,-1.0402 2.83753,-2.10424 4.23791,-3.17946c-0.18743,-1.54038 -0.51367,-3.05131 -0.91571,-4.53964zM259.1393,186.5375c-0.43682,-1.73222 -0.6875,-3.45424 -0.91348,-5.18115c-1.00543,0.49561 -2.0072,0.96408 -2.98037,1.38712c0.45459,0.81065 0.82305,1.62982 1.03864,2.46698c0.39474,0.9863 0.86471,1.92665 1.33864,2.86195c0.56698,-0.3908 1.12901,-0.78628 1.68706,-1.18571c-0.05612,-0.11694 -0.11289,-0.23339 -0.17048,-0.34919zM259.48267,192.20617l0.16023,0.31005c0.58627,-0.46857 1.20365,-0.87993 1.84552,-1.23519c-0.68664,-1.08064 -1.20936,-2.28378 -1.74986,-3.47209c-0.54935,0.39204 -1.10258,0.78024 -1.66062,1.16389c0.52536,1.04852 1.02698,2.10715 1.40474,3.23335z" fill="#000000"/><path d="M291.60403,198.64282c0.90517,-0.02894 1.85399,-0.03153 2.73222,-0.03185c0.00011,0.49964 0.01543,1.01622 0.01572,1.51586c-0.67313,0.91253 -1.50328,1.81051 -2.3611,2.52412c-0.40839,0.34115 -0.81123,0.6441 -1.20253,0.92396c0.05128,-0.30282 0.08766,-0.61425 0.12428,-0.92001l0.36569,0.14937c0,-1.35527 0.17181,-2.80247 0.32571,-4.16145z" data-paper-data="{&quot;noHover&quot;:false,&quot;origItem&quot;:[&quot;Path&quot;,{&quot;applyMatrix&quot;:true,&quot;segments&quot;:[[[291.30834,202.76429],[0,-1.35527],[0,0]],[[290.94894,202.62053],[0,0],[-0.03663,0.30576]],[[290.81743,203.53424],[0.05128,-0.30282],[0.3913,-0.27987]],[[292.00811,202.60401],[-0.40839,0.34115],[0.85782,-0.71361]],[[294.30798,200.15059],[-0.67313,0.91253],[-0.00029,-0.49964]],[[294.30719,198.65165],[0.00011,0.49964],[-0.87824,0.00033]],[[291.62225,198.68939],[0.90517,-0.02894],[-0.15389,1.35898]]],&quot;closed&quot;:true}]}" fill="#cecece"/><path d="M289.66278,204.32202c-0.44626,0.24559 -0.93783,0.4581 -1.44916,0.6432c-0.16681,-0.17319 -0.34822,-0.34461 -0.52419,-0.50518c0.01535,-1.85003 0.06794,-3.74515 0.16317,-5.54296c0.89328,-0.1119 1.85283,-0.18443 2.77454,-0.23126c-0.0274,0.24604 -0.101,0.58066 -0.12738,0.82676c-0.41651,0.05231 -0.36872,0.40717 -0.36872,0.40717c0.00964,1.38735 -0.13888,2.99903 -0.46827,4.40228z" data-paper-data="{&quot;noHover&quot;:false,&quot;origItem&quot;:[&quot;Path&quot;,{&quot;applyMatrix&quot;:true,&quot;segments&quot;:[[[290.10834,199.96429],[0.00964,1.38735],[0,0]],[[290.52484,199.46932],[-0.41651,0.05231],[0.02639,-0.24609]],[[290.60598,198.73111],[-0.0274,0.24604],[-0.92171,0.04683]],[[287.87312,198.96268],[0.89328,-0.1119],[-0.09523,1.79781]],[[287.7138,204.41637],[0.01535,-1.85003],[0.17597,0.16057]],[[288.22805,204.91735],[-0.16681,-0.17319],[0.51133,-0.1851]],[[289.65292,204.27301],[-0.44626,0.24559],[0.32939,-1.40325]]],&quot;closed&quot;:true}]}" fill="#cecece"/><path d="M290.73226,197.79147c-0.93601,0.04375 -1.91527,0.10762 -2.82826,0.21402c0.09127,-1.45166 0.20836,-2.98204 0.37048,-4.45104c0.00009,-0.11538 0.00382,-0.23376 0.00374,-0.34915c1.06722,-0.27269 2.18718,-0.55663 3.2412,-0.84706c-0.14878,0.77939 -0.31881,1.5657 -0.55842,2.30683c-0.00446,1.01794 -0.12079,2.10439 -0.22874,3.12639z" data-paper-data="{&quot;noHover&quot;:false,&quot;origItem&quot;:[&quot;Path&quot;,{&quot;applyMatrix&quot;:true,&quot;segments&quot;:[[[290.91479,194.6842],[-0.00446,1.01794],[0.2396,-0.74113]],[[291.49245,192.40036],[-0.14878,0.77939],[-1.05401,0.29043]],[[288.30757,193.24579],[1.06722,-0.27269],[0.00009,0.11539]],[[288.30757,193.59194],[0.00009,-0.11538],[-0.16212,1.469]],[[287.93096,197.96339],[0.09127,-1.45166],[0.91299,-0.1064]],[[290.71405,197.74491],[-0.93601,0.04375],[0.10794,-1.022]]],&quot;closed&quot;:true}]}" fill="#cecece"/><path d="M294.32505,197.71614c-0.84451,0.00257 -1.74734,0.0099 -2.61586,0.03566c0.09952,-0.9565 0.14789,-1.94794 0.14345,-2.89865c0.30535,-0.88156 0.57053,-1.86153 0.73729,-2.811c0.6464,-0.18281 1.31933,-0.36541 1.95532,-0.55366c0.05965,1.2747 0.19548,2.6728 -0.18712,3.82061c-0.00475,0.79504 -0.03244,1.61198 -0.03309,2.40704z" data-paper-data="{&quot;noHover&quot;:false,&quot;origItem&quot;:[&quot;Path&quot;,{&quot;applyMatrix&quot;:true,&quot;segments&quot;:[[[294.31479,195.2842],[-0.00475,0.79504],[0.38261,-1.14782]],[[294.52503,191.53421],[0.05965,1.2747],[-0.63599,0.18825]],[[292.60072,192.09098],[0.6464,-0.18281],[-0.16676,0.94947]],[[291.90188,194.84438],[0.30535,-0.88156],[0.00444,0.9507]],[[291.73021,197.70643],[0.09952,-0.9565],[0.86852,-0.02576]],[[294.30743,197.66935],[-0.84451,0.00257],[0.00065,-0.79506]]],&quot;closed&quot;:true}]}" fill="#cecece"/><path d="M297.59554,190.68126c-0.11896,2.40749 -0.75493,4.90062 -1.7982,7.03701c-0.16436,-0.00019 -0.33639,-0.00205 -0.50297,-0.00218c-0.00067,-0.74141 -0.02104,-1.49345 -0.02625,-2.23482c0.42969,-1.28908 0.27231,-2.87583 0.22437,-4.28903c0.21278,-0.06449 0.43513,-0.13135 0.64633,-0.19637c0.4792,-0.11992 0.97871,-0.21225 1.45671,-0.31462z" data-paper-data="{&quot;noHover&quot;:false,&quot;origItem&quot;:[&quot;Path&quot;,{&quot;applyMatrix&quot;:true,&quot;segments&quot;:[[[296.14353,191.04566],[0.4792,-0.11992],[-0.2112,0.06501]],[[295.50755,191.23993],[0.21278,-0.06449],[0.04794,1.4132]],[[295.30188,195.44438],[0.42969,-1.28908],[0.0052,0.74137]],[[295.30987,197.66855],[-0.00067,-0.74141],[0.16658,0.00013]],[[295.80634,197.66909],[-0.16436,-0.00019],[1.04327,-2.13639]],[[297.57995,190.72877],[-0.11896,2.40749],[-0.478,0.10236]]],&quot;closed&quot;:true}]}" fill="#cecece"/><path d="M295.49483,190.24672c0.00005,-0.00098 0.00008,-0.00196 0.00013,-0.00293c0.12822,-2.74871 0.06366,-5.55079 0.02419,-8.27163c1.3836,2.29265 2.07064,5.06887 2.0955,7.77943c-0.57423,0.12863 -1.17362,0.23665 -1.74996,0.3806c-0.12165,0.03859 -0.24758,0.0762 -0.36986,0.11453z" data-paper-data="{&quot;noHover&quot;:false,&quot;origItem&quot;:[&quot;Path&quot;,{&quot;applyMatrix&quot;:true,&quot;segments&quot;:[[[295.87314,190.08291],[-0.12165,0.03859],[0.57633,-0.14395]],[[297.60067,189.70359],[-0.57423,0.12863],[-0.02486,-2.71055]],[[295.53129,182.02067],[1.3836,2.29265],[0.03947,2.72084]],[[295.50737,190.19536],[0.12822,-2.74871],[-0.00005,0.00098]],[[295.50723,190.19829],[0.00005,-0.00098],[0.12228,-0.03833]]],&quot;closed&quot;:true}]}" fill="#cecece"/><path d="M294.26269,180.67436c-0.40579,0.13582 -0.92045,0.31411 -1.36416,0.48543c-0.00956,-0.42711 -0.01792,-0.91988 -0.02226,-1.33651c0.05376,0.03902 0.10901,0.07675 0.16289,0.116c0.35183,0.2563 0.84214,0.50763 1.22354,0.73508z" data-paper-data="{&quot;noHover&quot;:false,&quot;origItem&quot;:[&quot;Path&quot;,{&quot;applyMatrix&quot;:true,&quot;segments&quot;:[[[293.07358,179.97555],[0.35183,0.2563],[-0.05388,-0.03924]],[[292.91212,179.85815],[0.05376,0.03902],[0.00435,0.41663]],[[292.93379,181.12434],[-0.00956,-0.42711],[0.44371,-0.17132]],[[294.21432,180.6617],[-0.40579,0.13582],[-0.38139,-0.22744]]],&quot;closed&quot;:true}]}" fill="#cecece"/><path d="M294.50882,190.5584c-0.57345,0.17421 -1.17188,0.34563 -1.75576,0.51409c0.37075,-2.87427 0.27456,-6.04122 0.19826,-8.94539c0.54825,-0.21981 1.09661,-0.41495 1.58371,-0.57638c0.03945,2.84238 0.12217,5.76112 -0.01505,8.63134c-0.00592,0.12397 -0.01014,0.24964 -0.01116,0.37634z" data-paper-data="{&quot;noHover&quot;:false,&quot;origItem&quot;:[&quot;Path&quot;,{&quot;applyMatrix&quot;:true,&quot;segments&quot;:[[[294.5093,190.13322],[-0.00592,0.12397],[0.13722,-2.87023]],[[294.52613,181.59992],[0.03945,2.84238],[-0.4871,0.16144]],[[292.95983,182.17637],[0.54825,-0.21981],[0.0763,2.90417]],[[292.76256,191.0234],[0.37075,-2.87427],[0.58387,-0.16845]],[[294.49917,190.50934],[-0.57345,0.17421],[0.00102,-0.1267]]],&quot;closed&quot;:true}]}" fill="#cecece"/><path d="M291.68894,191.38006c-1.11119,0.31078 -2.27194,0.6112 -3.40168,0.89951c-0.01203,-2.53466 -0.07029,-5.16019 -0.11561,-7.69574c0.99714,-0.70105 2.42986,-1.42853 3.80816,-2.03463c0.06407,2.89667 0.11749,5.99549 -0.29087,8.83086z" data-paper-data="{&quot;noHover&quot;:false,&quot;origItem&quot;:[&quot;Path&quot;,{&quot;applyMatrix&quot;:true,&quot;segments&quot;:[[[291.96182,182.59586],[0.06407,2.89667],[-1.3783,0.6061]],[[288.19983,184.62514],[0.99714,-0.70105],[0.04532,2.53555]],[[288.30474,192.23273],[-0.01203,-2.53466],[1.12974,-0.28831]],[[291.67037,191.33364],[-1.11119,0.31078],[0.40836,-2.83536]]],&quot;closed&quot;:true}]}" fill="#cecece"/><path d="M291.98132,181.55242c-1.32763,0.56099 -2.75318,1.24924 -3.82813,1.93438c-0.03247,-1.88286 -0.06438,-3.84729 -0.0724,-5.72547c0.34332,-0.1741 0.71446,-0.33474 1.07357,-0.48291c0.92714,0.56726 1.88704,1.1939 2.79683,1.83465c-0.00113,0.01502 -0.0009,0.02402 -0.0009,0.02402c0,0.77222 0.01427,1.61457 0.03103,2.41533z" data-paper-data="{&quot;noHover&quot;:false,&quot;origItem&quot;:[&quot;Path&quot;,{&quot;applyMatrix&quot;:true,&quot;segments&quot;:[[[291.90834,179.16429],[0,0.77222],[0,0]],[[291.90947,179.14062],[-0.00113,0.01502],[-0.90978,-0.64076]],[[289.16785,177.32657],[0.92714,0.56726],[-0.35911,0.14818]],[[288.11056,177.80151],[0.34332,-0.1741],[0.00802,1.87818]],[[288.17903,183.44399],[-0.03247,-1.88286],[1.07495,-0.68514]],[[291.93838,181.52681],[-1.32763,0.56099],[-0.01676,-0.80076]]],&quot;closed&quot;:true}]}" fill="#cecece"/><path d="M286.74683,203.66169c-0.6427,-0.45164 -1.38486,-0.81716 -2.11613,-1.06927c-0.28046,-0.86789 -0.50046,-1.86936 -0.66276,-2.82594c0.88849,-0.30379 1.91303,-0.53399 2.92045,-0.70001c-0.07573,1.49067 -0.12141,3.07317 -0.14156,4.59523z" data-paper-data="{&quot;noHover&quot;:false,&quot;origItem&quot;:[&quot;Path&quot;,{&quot;applyMatrix&quot;:true,&quot;segments&quot;:[[[286.86161,199.10869],[-0.07573,1.49067],[-1.00742,0.16601]],[[284.00173,199.80333],[0.88849,-0.30379],[0.1623,0.95658]],[[284.65801,202.55053],[-0.28046,-0.86789],[0.73127,0.25211]],[[286.722,203.61829],[-0.6427,-0.45164],[0.02015,-1.52205]]],&quot;closed&quot;:true}]}" fill="#cecece"/><path d="M286.94839,198.13886c-1.07398,0.16413 -2.16317,0.39378 -3.12255,0.70552c-0.18885,-1.43313 -0.29044,-3.00054 -0.33191,-4.48204c1.2552,-0.28385 2.58368,-0.59087 3.84414,-0.90521c0.00001,0.01292 0.00031,0.02606 0.00032,0.03898c-0.17147,1.53221 -0.29773,3.12656 -0.39001,4.64275z" data-paper-data="{&quot;noHover&quot;:false,&quot;origItem&quot;:[&quot;Path&quot;,{&quot;applyMatrix&quot;:true,&quot;segments&quot;:[[[287.3091,193.53664],[-0.17147,1.53221],[-0.00001,-0.01292]],[[287.30906,193.49786],[0.00001,0.01292],[-1.26047,0.31433]],[[283.53058,194.39635],[1.2552,-0.28385],[0.04147,1.4815]],[[283.8513,198.80135],[-0.18885,-1.43313],[0.95938,-0.31173]],[[286.91793,198.09922],[-1.07398,0.16413],[0.09228,-1.51619]]],&quot;closed&quot;:true}]}" fill="#cecece"/><path d="M283.44667,187.16369c1.2797,-0.71076 2.58475,-1.36762 3.78908,-1.79953c0.04084,2.35822 0.08583,4.80555 0.09678,7.16255c-1.26643,0.31475 -2.58374,0.61723 -3.84467,0.90072c-0.02454,-1.66867 -0.02527,-3.372 -0.02527,-4.88333c0,-0.45338 0.00282,-0.92523 -0.01592,-1.38041z" data-paper-data="{&quot;noHover&quot;:false,&quot;origItem&quot;:[&quot;Path&quot;,{&quot;applyMatrix&quot;:true,&quot;segments&quot;:[[[283.50834,188.56429],[0,-0.45338],[0,1.51134]],[[283.50922,193.38223],[-0.02454,-1.66867],[1.26093,-0.28349]],[[287.3062,192.48421],[-1.26643,0.31475],[-0.01094,-2.357]],[[287.21497,185.40963],[0.04084,2.35822],[-1.20433,0.43191]],[[283.47953,187.20138],[1.2797,-0.71076],[0.01874,0.45518]]],&quot;closed&quot;:true}]}" fill="#cecece"/><path d="M283.39479,186.08321c-0.1314,-1.84661 -0.4055,-3.78215 -0.68869,-5.64311c1.23971,-0.70755 2.58561,-1.32102 3.97067,-1.68557c0.14824,-0.14124 0.30476,-0.26904 0.46369,-0.38818c0.01376,1.9088 0.05762,3.89687 0.09045,5.80986c-0.16456,0.13274 -0.32193,0.27179 -0.455,0.40243c-1.0845,0.33085 -2.24787,0.88087 -3.38112,1.50457z" data-paper-data="{&quot;noHover&quot;:false,&quot;origItem&quot;:[&quot;Path&quot;,{&quot;applyMatrix&quot;:true,&quot;segments&quot;:[[[286.74547,184.53896],[-1.0845,0.33085],[0.13307,-0.13064]],[[287.19306,184.14353],[-0.16456,0.13274],[-0.03283,-1.91298]],[[287.11593,178.40992],[0.01376,1.9088],[-0.15893,0.11914]],[[286.65468,178.79939],[0.14824,-0.14124],[-1.38506,0.36454]],[[282.74537,180.47104],[1.23971,-0.70755],[0.28319,1.86096]],[[283.41367,186.03691],[-0.1314,-1.84661],[1.13325,-0.6237]]],&quot;closed&quot;:true}]}" fill="#cecece"/><path d="M282.54381,179.40344c-0.26664,-1.7045 -0.54859,-3.48379 -0.76256,-5.18283c1.02843,0.2396 2.10721,0.50927 3.15823,0.8546c0.79988,0.34057 1.60083,0.74508 2.34059,1.13571c-0.12288,0.14659 -0.12196,0.34865 -0.12196,0.34865c0.00015,0.20227 0.00028,0.41625 0.0009,0.6186c-0.34503,0.21122 -0.67406,0.47855 -0.95575,0.77924c-1.2629,0.29711 -2.51716,0.82197 -3.65945,1.44603z" data-paper-data="{&quot;noHover&quot;:false,&quot;origItem&quot;:[&quot;Path&quot;,{&quot;applyMatrix&quot;:true,&quot;segments&quot;:[[[286.16199,177.92919],[-1.2629,0.29711],[0.28169,-0.30069]],[[287.10949,177.17124],[-0.34503,0.21122],[-0.00062,-0.20236]],[[287.10834,176.56429],[0.00015,0.20227],[0,0]],[[287.23121,176.22153],[-0.12288,0.14659],[-0.73976,-0.39062]],[[284.92784,175.12384],[0.79988,0.34057],[-1.05102,-0.34534]],[[281.81761,174.25493],[1.02843,0.2396],[0.21397,1.69905]],[[282.57415,179.3637],[-0.26664,-1.7045],[1.14229,-0.62406]]],&quot;closed&quot;:true}]}" fill="#cecece"/><path d="M280.38319,195.02917c0.70387,-0.14506 1.45804,-0.30112 2.17039,-0.45775c0.04672,1.53735 0.15388,3.17245 0.36186,4.65117c-0.0389,0.03025 -0.08289,0.07105 -0.11708,0.12041c-0.33212,-0.83457 -0.73068,-1.6592 -1.10526,-2.52619c-0.39941,-0.6019 -0.84638,-1.25782 -1.30991,-1.78764z" data-paper-data="{&quot;noHover&quot;:false,&quot;origItem&quot;:[&quot;Path&quot;,{&quot;applyMatrix&quot;:true,&quot;segments&quot;:[[[281.70743,196.76891],[-0.39941,-0.6019],[0.37458,0.86698]],[[282.77669,199.29794],[-0.33212,-0.83457],[0.03418,-0.04935]],[[282.89107,199.17894],[-0.0389,0.03025],[-0.20799,-1.47872]],[[282.5359,194.61819],[0.04672,1.53735],[-0.71235,0.15663]],[[280.41066,195.07096],[0.70387,-0.14506],[0.46353,0.52982]]],&quot;closed&quot;:true}]}" fill="#cecece"/><path d="M282.54596,193.64033c-0.97832,0.21413 -1.99109,0.43061 -2.94945,0.62395c-0.53411,-0.527 -1.13073,-1.02915 -1.72193,-1.46948c0.33652,-0.2338 0.13734,-0.6297 0.13734,-0.6297l-0.1493,-0.18057c0,-0.63127 -0.08638,-1.22197 -0.17829,-1.76604c1.60086,-0.67529 3.27786,-1.6193 4.84306,-2.50558c0.00694,0.27072 0.01606,0.54578 0.01606,0.81577c0,1.57651 -0.02673,3.36506 0.00252,5.11165z" data-paper-data="{&quot;noHover&quot;:false,&quot;origItem&quot;:[&quot;Path&quot;,{&quot;applyMatrix&quot;:true,&quot;segments&quot;:[[[282.50834,188.56429],[0,1.57651],[0,-0.26999]],[[282.49776,187.7532],[0.00694,0.27072],[-1.5652,0.88628]],[[277.73203,190.23347],[1.60086,-0.67529],[0.09191,0.54407]],[[277.90834,191.96429],[0,-0.63127],[0,0]],[278.05555,192.14068],[[277.91351,192.76344],[0.33652,-0.2338],[0.5912,0.44033]],[[279.60442,194.21491],[-0.53411,-0.527],[0.95837,-0.19333]],[[282.51226,193.6034],[-0.97832,0.21413],[-0.02925,-1.7466]]],&quot;closed&quot;:true}]}" fill="#cecece"/><path d="M282.49219,186.60568c-1.60242,0.92299 -3.30407,1.95115 -4.94188,2.67851c-0.04018,-0.30643 -0.07398,-0.62476 -0.07715,-0.95906c-0.4382,-1.31461 -0.49847,-2.79485 -0.53738,-4.20859c1.64562,-0.97292 3.28453,-2.13745 4.90826,-3.13991c0.2785,1.86079 0.54041,3.78582 0.64815,5.62905z" data-paper-data="{&quot;noHover&quot;:false,&quot;origItem&quot;:[&quot;Path&quot;,{&quot;applyMatrix&quot;:true,&quot;segments&quot;:[[[281.82123,181.02113],[0.2785,1.86079],[-1.62373,1.00245]],[[276.98275,184.13367],[1.64562,-0.97292],[0.0389,1.41374]],[[277.50188,188.2842],[-0.4382,-1.31461],[0.00317,0.3343]],[[277.57342,189.23985],[-0.04018,-0.30643],[1.63781,-0.72736]],[[282.44803,186.58222],[-1.60242,0.92299],[-0.10775,-1.84323]]],&quot;closed&quot;:true}]}" fill="#cecece"/><path d="M281.69304,179.91984c-1.59012,0.95772 -3.18442,2.10209 -4.76957,3.0891c-0.01803,-0.37486 -0.04935,-0.74963 -0.09009,-1.11645c-0.23114,-2.08092 -0.60297,-4.10482 -0.80701,-6.11877c1.16811,-0.71299 2.41892,-1.41382 3.63223,-2.01275c0.37843,0.06796 0.76716,0.1438 1.14374,0.2213c0.23625,1.95001 0.58579,3.97946 0.89071,5.93757z" data-paper-data="{&quot;noHover&quot;:false,&quot;origItem&quot;:[&quot;Path&quot;,{&quot;applyMatrix&quot;:true,&quot;segments&quot;:[[[280.78212,174.02801],[0.23625,1.95001],[-0.37658,-0.07749]],[[279.65004,173.81025],[0.37843,0.06796],[-1.2133,0.59893]],[[276.0631,175.80765],[1.16811,-0.71299],[0.20403,2.01395]],[[276.85836,181.84919],[-0.23114,-2.08092],[0.04075,0.36682]],[[276.94275,182.96282],[-0.01803,-0.37486],[1.58515,-0.98701]],[[281.64905,179.89607],[-1.59012,0.95772],[-0.30493,-1.9581]]],&quot;closed&quot;:true}]}" fill="#cecece"/><path d="M278.07245,173.52531c-0.69299,0.37142 -1.4666,0.81142 -2.14332,1.2141c-0.03229,-0.47696 -0.05409,-1.0172 -0.06019,-1.50798c0.71738,0.08786 1.50842,0.19021 2.20351,0.29388z" data-paper-data="{&quot;noHover&quot;:false,&quot;origItem&quot;:[&quot;Path&quot;,{&quot;applyMatrix&quot;:true,&quot;segments&quot;:[[[275.91018,173.2597],[0.71738,0.08786],[0.0061,0.49078]],[[275.96959,174.71004],[-0.03229,-0.47696],[0.67672,-0.40268]],[[278.02629,173.54453],[-0.69299,0.37142],[-0.69509,-0.10367]]],&quot;closed&quot;:true}]}" fill="#cecece"/><path d="M275.0506,191.06597c0.55843,-0.11387 1.20211,-0.29763 1.76332,-0.49677c0.07155,0.42486 0.1355,0.92907 0.1355,1.42357l0.05676,0.14818c-0.60316,-0.38589 -1.31478,-0.7749 -1.95558,-1.07499z" data-paper-data="{&quot;noHover&quot;:false,&quot;origItem&quot;:[&quot;Path&quot;,{&quot;applyMatrix&quot;:true,&quot;segments&quot;:[[[276.96724,192.1096],[-0.60316,-0.38589],[0,0]],[[276.90834,191.96429],[0,0],[0,-0.49451]],[[276.77872,190.60472],[0.07155,0.42486],[-0.5612,0.19914]],[[275.09854,191.08019],[0.55843,-0.11387],[0.6408,0.30009]]],&quot;closed&quot;:true}]}" fill="#cecece"/><path d="M273.28586,190.32261l-0.0064,-0.39373c-0.37067,-1.14544 -0.57801,-2.40555 -0.91861,-3.55462c0.35539,-0.1766 0.71625,-0.38696 1.03999,-0.60279c0.89409,-0.29803 1.79838,-0.68819 2.62706,-1.13044c0.03966,1.28425 0.13438,2.63219 0.53197,3.82498c-0.00529,0.42559 0.02656,0.82682 0.08487,1.20243c-1.07073,0.39454 -2.19385,0.64972 -3.25477,0.64235c0,0 -0.04389,-0.00057 -0.10411,0.01183z" data-paper-data="{&quot;noHover&quot;:false,&quot;origItem&quot;:[&quot;Path&quot;,{&quot;applyMatrix&quot;:true,&quot;segments&quot;:[[[273.40834,190.26429],[0,0],[1.06092,0.00737]],[[276.6098,189.63268],[-1.07073,0.39454],[-0.05831,-0.37562]],[[276.51479,188.44438],[-0.00529,0.42559],[-0.3976,-1.19279]],[[276.0043,184.68511],[0.03966,1.28425],[-0.82867,0.44225]],[[273.42801,185.81345],[0.89409,-0.29803],[-0.32374,0.21583]],[[272.40529,186.39718],[0.35539,-0.1766],[0.3406,1.14907]],[[273.30188,189.8842],[-0.37067,-1.14544],[0,0]],[[273.30561,190.27668],[0,0],[0.06023,-0.01239]]],&quot;closed&quot;:true}]}" fill="#cecece"/><path d="M272.12467,185.46445c-0.48383,-1.9655 -0.97174,-4.02784 -1.47403,-5.99633c0.66346,-0.50818 1.36385,-1.0403 2.03589,-1.54453c0.77619,-0.51738 1.61715,-1.04922 2.45332,-1.57734c0.20911,1.84711 0.55493,3.7197 0.77086,5.63342c0.05862,0.51955 0.07597,1.0658 0.09492,1.60011c-0.95866,0.54715 -1.98421,1.03949 -3.02124,1.38517c-0.27263,0.18175 -0.56624,0.34548 -0.85972,0.49951z" data-paper-data="{&quot;noHover&quot;:false,&quot;origItem&quot;:[&quot;Path&quot;,{&quot;applyMatrix&quot;:true,&quot;segments&quot;:[[[272.98866,184.91513],[-0.27263,0.18175],[1.03704,-0.34568]],[[275.97029,183.54441],[-0.95866,0.54715],[-0.01895,-0.5343]],[[275.86457,181.96042],[0.05862,0.51955],[-0.21593,-1.91371]],[[275.12143,176.39273],[0.20911,1.84711],[-0.83617,0.52812]],[[272.69712,177.97246],[0.77619,-0.51738],[-0.67204,0.50423]],[[270.69471,179.49173],[0.66346,-0.50818],[0.5023,1.96849]],[[272.13748,185.41612],[-0.48383,-1.9655],[0.29348,-0.15403]]],&quot;closed&quot;:true}]}" fill="#cecece"/><path d="M270.39626,178.48503c-0.10827,-0.40723 -0.23241,-0.82449 -0.3464,-1.22868c-0.23389,-0.82934 -0.58305,-1.70946 -0.90313,-2.55236c0.71625,-0.44851 1.49766,-0.87604 2.30919,-1.16199l0.50307,-0.47408c0,0 0.19885,-0.19588 0.15332,-0.44177c0.96926,0.18048 1.94288,0.3564 2.83447,0.47665c0.00518,0.73371 0.05521,1.4777 0.1148,2.18369c-0.9964,0.61552 -2.01454,1.30154 -2.94152,1.91962c-0.56946,0.42693 -1.16084,0.84896 -1.72379,1.27892z" data-paper-data="{&quot;noHover&quot;:false,&quot;origItem&quot;:[&quot;Path&quot;,{&quot;applyMatrix&quot;:true,&quot;segments&quot;:[[[272.11955,177.15612],[-0.56946,0.42693],[0.92699,-0.61808]],[[275.01179,175.29108],[-0.9964,0.61552],[-0.0596,-0.706]],[[274.90894,173.13549],[0.00518,0.73371],[-0.89159,-0.12025]],[[272.11215,172.67616],[0.96926,0.18048],[0.04553,0.24588]],[271.96189,173.11784],[[271.4712,173.58961],[0,0],[-0.81153,0.28595]],[[269.19476,174.71788],[0.71625,-0.44851],[0.32007,0.84289]],[[270.0884,177.22449],[-0.23389,-0.82934],[0.11399,0.40419]],[[270.42145,178.44184],[-0.10827,-0.40723],[0.56295,-0.42996]]],&quot;closed&quot;:true}]}" fill="#cecece"/><path d="M268.79592,173.74902c-0.19696,-0.58748 -0.36666,-1.2408 -0.45623,-1.83887c0.94996,0.19216 1.97417,0.39848 2.88243,0.57543l-0.22678,0.24967c-0.74687,0.23091 -1.53067,0.61096 -2.19941,1.01377z" data-paper-data="{&quot;noHover&quot;:false,&quot;origItem&quot;:[&quot;Path&quot;,{&quot;applyMatrix&quot;:true,&quot;segments&quot;:[[[270.94547,172.73896],[-0.74687,0.23091],[0,0]],[[271.17345,172.49705],[0,0],[-0.90825,-0.17695]],[[268.38186,171.93701],[0.94996,0.19216],[0.08957,0.59807]],[[268.83234,173.71477],[-0.19696,-0.58748],[0.66875,-0.40282]]],&quot;closed&quot;:true}]}" fill="#cecece"/><path d="M271.52186,186.78396c0.30006,1.06775 0.47123,2.23276 0.8352,3.28711l-0.00059,0.02963c-1.56816,-0.40965 -3.26775,-0.58297 -4.85629,-0.49969l-0.14284,-0.15442c-0.04978,-0.12764 -0.10259,-0.26183 -0.15344,-0.38772c0.21564,-0.16163 0.43035,-0.32929 0.64688,-0.48569c1.05043,-0.75874 2.43214,-1.25692 3.67106,-1.78922z" data-paper-data="{&quot;noHover&quot;:false,&quot;origItem&quot;:[&quot;Path&quot;,{&quot;applyMatrix&quot;:true,&quot;segments&quot;:[[[267.90069,188.56991],[1.05043,-0.75874],[-0.21654,0.15641]],[[267.25256,189.04733],[0.21564,-0.16163],[0.05085,0.12589]],[[267.40358,189.42754],[-0.04978,-0.12764],[0,0]],[[267.54481,189.57845],[0,0],[1.58853,-0.08327]],[[272.31443,190.07366],[-1.56816,-0.40965],[0,0]],[[272.31479,190.04438],[0,0],[-0.36397,-1.05435]],[[271.48573,186.81852],[0.30006,1.06775],[-1.23892,0.5323]]],&quot;closed&quot;:true}]}" fill="#cecece"/><path d="M266.83668,188.13645c-0.48562,-1.14365 -1.00976,-2.29636 -1.38848,-3.52104c-0.01612,-0.34754 -0.0406,-0.71325 -0.07302,-1.06092c1.46843,-1.13066 2.99834,-2.30928 4.47485,-3.44682c0.47836,1.89764 0.94364,3.88561 1.41042,5.77629c-1.33152,0.59458 -2.79948,1.10382 -3.95778,1.9229c-0.15454,0.10928 -0.31252,0.21834 -0.46598,0.32959z" data-paper-data="{&quot;noHover&quot;:false,&quot;origItem&quot;:[&quot;Path&quot;,{&quot;applyMatrix&quot;:true,&quot;segments&quot;:[[[267.31598,187.75867],[-0.15454,0.10928],[1.1583,-0.81908]],[[271.21756,185.85825],[-1.33152,0.59458],[-0.46678,-1.89067]],[[269.83223,180.1544],[0.47836,1.89764],[-1.47652,1.13754]],[[265.42427,183.56395],[1.46843,-1.13066],[0.03242,0.34767]],[[265.49748,184.60695],[-0.01612,-0.34754],[0.37872,1.22468]],[[266.85402,188.08956],[-0.48562,-1.14365],[0.15346,-0.11125]]],&quot;closed&quot;:true}]}" fill="#cecece"/><path d="M268.37491,175.22693c0.27892,0.74362 0.58519,1.50439 0.79594,2.25092c0.14948,0.52951 0.30066,1.09327 0.44064,1.62788c-1.43291,1.10168 -2.92244,2.24829 -4.34415,3.34593c-0.20615,-1.46846 -0.56251,-2.98753 -0.95667,-4.4108c0.03344,-0.01941 0.06731,-0.04034 0.10062,-0.05972c1.36194,-0.79244 2.65989,-1.84772 3.96362,-2.75421z" data-paper-data="{&quot;noHover&quot;:false,&quot;origItem&quot;:[&quot;Path&quot;,{&quot;applyMatrix&quot;:true,&quot;segments&quot;:[[[264.45867,177.99711],[1.36194,-0.79244],[-0.03331,0.01938]],[[264.35854,178.0553],[0.03344,-0.01941],[0.39416,1.42327]],[[265.28856,182.40639],[-0.20615,-1.46846],[1.42171,-1.09764]],[[269.56174,179.10075],[-1.43291,1.10168],[-0.13998,-0.53462]],[[269.12827,177.50408],[0.14948,0.52951],[-0.21074,-0.74652]],[[268.35668,175.27349],[0.27892,0.74362],[-1.30372,0.90649]]],&quot;closed&quot;:true}]}" fill="#cecece"/><path d="M267.39765,171.79784c0.10564,0.82385 0.3616,1.6648 0.63927,2.46088c-1.32952,0.91441 -2.64746,2.04146 -3.98712,2.8493c-0.18583,-0.62002 -0.40516,-1.25712 -0.60563,-1.85831c-0.18044,-0.54111 -0.42992,-1.14397 -0.6839,-1.72419c1.45905,-0.48096 2.98194,-1.01154 4.32175,-1.76882l0.15515,0.06674c0,0 0.0722,0.00104 0.1605,-0.02559z" data-paper-data="{&quot;noHover&quot;:false,&quot;origItem&quot;:[&quot;Path&quot;,{&quot;applyMatrix&quot;:true,&quot;segments&quot;:[[267.20833,171.86429],[[267.05537,171.799],[0,0],[-1.33981,0.75727]],[[262.80755,173.54175],[1.45905,-0.48096],[0.25399,0.58023]],[[263.49028,175.23038],[-0.18044,-0.54111],[0.20047,0.60119]],[[264.07229,177.06336],[-0.18583,-0.62002],[1.33966,-0.80784]],[[267.98703,174.26198],[-1.32952,0.91441],[-0.27767,-0.79608]],[[267.36741,171.83766],[0.10564,0.82385],[-0.0883,0.02663]]],&quot;closed&quot;:true}]}" fill="#cecece"/><path d="M265.70636,171.39312c-1.04121,0.49539 -2.22714,0.90828 -3.32966,1.26868c-0.25583,-0.62064 -0.48657,-1.29875 -0.61146,-1.91741c1.28415,0.17395 2.66716,0.40916 3.94112,0.64873z" data-paper-data="{&quot;noHover&quot;:false,&quot;origItem&quot;:[&quot;Path&quot;,{&quot;applyMatrix&quot;:true,&quot;segments&quot;:[[[261.81023,170.76621],[1.28415,0.17395],[0.12489,0.61866]],[[262.41749,172.63287],[-0.25583,-0.62064],[1.10252,-0.3604]],[[265.65696,171.40079],[-1.04121,0.49539],[-1.27396,-0.23958]]],&quot;closed&quot;:true}]}" fill="#cecece"/><path d="M258.892,170.41475c0.62757,0.04259 1.30183,0.11377 1.93638,0.18667c0.14334,0.77995 0.46008,1.57842 0.77437,2.32323c-0.92818,0.30226 -1.91504,0.64924 -2.80672,1.02866c-0.27315,0.11623 -0.57812,0.25033 -0.8802,0.40105c-0.38984,-0.96949 -0.87698,-1.9487 -1.01404,-2.99334c0.39139,-0.12348 0.80033,-0.25136 1.19571,-0.35001l0.28399,0.01108c0,0 0.51761,-0.00696 0.51761,-0.50696c0,-0.03598 -0.00231,-0.06941 -0.00711,-0.10039z" data-paper-data="{&quot;noHover&quot;:false,&quot;origItem&quot;:[&quot;Path&quot;,{&quot;applyMatrix&quot;:true,&quot;segments&quot;:[[[258.90834,170.56429],[0,-0.03598],[0,0.5]],[258.40834,171.06429],[[258.1296,171.04936],[0,0],[-0.39538,0.09865]],[[256.94761,171.38107],[0.39139,-0.12348],[0.13705,1.04463]],[[257.94392,174.31301],[-0.38984,-0.96949],[0.30208,-0.15071]],[[258.80999,173.90531],[-0.27315,0.11623],[0.89168,-0.37942]],[[261.554,172.91355],[-0.92818,0.30226],[-0.31428,-0.74481]],[[260.79529,170.63891],[0.14334,0.77995],[-0.63455,-0.0729]],[[258.90094,170.46395],[0.62757,0.04259],[0.0048,0.03098]]],&quot;closed&quot;:true}]}" fill="#cecece"/><path d="M261.95548,173.78129c0.10352,0.25631 0.21078,0.5181 0.29752,0.77666c0.33146,0.98798 0.67405,2.03979 0.96816,3.0451c-1.31086,0.7548 -2.78969,1.55195 -4.21065,2.27953c-0.17226,-1.33383 -0.3757,-2.73644 -0.64112,-4.0863c-0.03769,-0.1917 -0.08085,-0.3858 -0.13455,-0.56944c0.31979,-0.15548 0.64303,-0.31614 0.94171,-0.44348c0.88953,-0.37924 1.85673,-0.6983 2.77893,-1.00208z" data-paper-data="{&quot;noHover&quot;:false,&quot;origItem&quot;:[&quot;Path&quot;,{&quot;applyMatrix&quot;:true,&quot;segments&quot;:[[[259.20669,174.82326],[0.88953,-0.37924],[-0.29868,0.12733]],[[258.27686,175.25395],[0.31979,-0.15548],[0.0537,0.18365]],[[258.41516,175.81643],[-0.03769,-0.1917],[0.26542,1.34986]],[[259.03502,179.839],[-0.17226,-1.33383],[1.42097,-0.72758]],[[263.17339,177.58832],[-1.31086,0.7548],[-0.29411,-1.00531]],[[262.22513,174.59946],[0.33146,0.98798],[-0.08675,-0.25856]],[[261.93679,173.82766],[0.10352,0.25631],[-0.92221,0.30378]]],&quot;closed&quot;:true}]}" fill="#cecece"/><path d="M264.4157,183.12846c-1.40038,1.07522 -2.87538,2.17263 -4.30582,3.21283c-0.01727,-0.03481 -0.0356,-0.06998 -0.05303,-0.10463c-0.43397,-1.77213 -0.70157,-3.60774 -0.9304,-5.37831c1.46166,-0.74268 2.97752,-1.55088 4.34517,-2.32802c0.40204,1.48833 0.75666,3.05774 0.94409,4.59813z" data-paper-data="{&quot;noHover&quot;:false,&quot;origItem&quot;:[&quot;Path&quot;,{&quot;applyMatrix&quot;:true,&quot;segments&quot;:[[[263.45162,178.57617],[0.40204,1.48833],[-1.36765,0.77713]],[[259.16938,180.88399],[1.46166,-0.74268],[0.22883,1.77058]],[[260.07738,186.19108],[-0.43397,-1.77213],[0.01743,0.03465]],[[260.12942,186.29527],[-0.01727,-0.03481],[1.43044,-1.0402]],[[264.36733,183.11581],[-1.40038,1.07522],[-0.18743,-1.54038]]],&quot;closed&quot;:true}]}" fill="#cecece"/><path d="M266.07212,188.71978c-0.65333,0.48934 -1.33326,1.01788 -1.98456,1.51424c-0.575,0.17625 -1.16668,0.39031 -1.71603,0.64233c-0.73341,-1.10153 -1.29476,-2.43113 -1.85733,-3.66744c1.32185,-0.95866 2.69018,-1.97863 3.98452,-2.9685c0.01188,0.16305 0.02507,0.32763 0.03348,0.49137c0.41133,1.38209 0.98696,2.70064 1.53992,3.98799z" data-paper-data="{&quot;noHover&quot;:false,&quot;origItem&quot;:[&quot;Path&quot;,{&quot;applyMatrix&quot;:true,&quot;segments&quot;:[[[264.51214,184.77759],[0.41133,1.38209],[-0.00841,-0.16374]],[[264.48167,184.28742],[0.01188,0.16305],[-1.29435,0.98987]],[[260.56381,187.21514],[1.32185,-0.95866],[0.56257,1.2363]],[[262.38493,190.82818],[-0.73341,-1.10153],[0.54935,-0.25202]],[[264.07336,190.18608],[-0.575,0.17625],[0.6513,-0.49636]],[[266.026,188.70048],[-0.65333,0.48934],[-0.55296,-1.28735]]],&quot;closed&quot;:true}]}" fill="#cecece"/><path d="M248.52108,202.22672c0.33712,-0.27995 0.75246,-0.61174 1.09148,-0.88868c-0.17445,0.45549 -0.34949,1.0227 -0.47808,1.51273c-0.19077,-0.19278 -0.43014,-0.42609 -0.6134,-0.62405z" data-paper-data="{&quot;noHover&quot;:false,&quot;origItem&quot;:[&quot;Path&quot;,{&quot;applyMatrix&quot;:true,&quot;segments&quot;:[[[249.13068,202.80092],[-0.19077,-0.19278],[0.12859,-0.49003]],[[249.58353,201.37876],[-0.17445,0.45549],[-0.33902,0.27694]],[[248.56963,202.21476],[0.33712,-0.27995],[0.18326,0.19796]]],&quot;closed&quot;:true}]}" fill="#cecece"/><path d="M258.03693,188.94421c0.55804,-0.38365 1.15133,-0.79323 1.70068,-1.18527c0.5405,1.18831 1.10599,2.46887 1.79262,3.5495c-0.64186,0.35526 -1.30403,0.78911 -1.8903,1.25768l-0.16453,-0.31049c-0.37776,-1.1262 -0.91311,-2.26291 -1.43847,-3.31143z" data-paper-data="{&quot;noHover&quot;:false,&quot;origItem&quot;:[&quot;Path&quot;,{&quot;applyMatrix&quot;:true,&quot;segments&quot;:[[[259.48267,192.20617],[-0.37776,-1.1262],[0,0]],[[259.64291,192.51622],[0,0],[0.58627,-0.46857]],[[261.48842,191.28102],[-0.64186,0.35526],[-0.68664,-1.08064]],[[259.73856,187.80893],[0.5405,1.18831],[-0.54935,0.39204]],[[258.07794,188.97282],[0.55804,-0.38365],[0.52536,1.04852]]],&quot;closed&quot;:true}]}" fill="#cecece"/><path d="M259.34394,186.9232c-0.55805,0.39943 -1.14913,0.80814 -1.71611,1.19894c-0.47393,-0.9353 -0.99375,-1.90306 -1.38848,-2.88935c-0.21558,-0.83715 -0.57521,-1.71347 -1.02979,-2.52412c0.97317,-0.42305 2.02441,-0.90482 3.02985,-1.40043c0.22598,1.72691 0.49879,3.53203 0.93562,5.26425c0.0576,0.1158 0.1128,0.23378 0.16892,0.35072z" data-paper-data="{&quot;noHover&quot;:false,&quot;origItem&quot;:[&quot;Path&quot;,{&quot;applyMatrix&quot;:true,&quot;segments&quot;:[[[259.1393,186.5375],[0.0576,0.1158],[-0.43682,-1.73222]],[[258.22582,181.35635],[0.22598,1.72691],[-1.00543,0.49561]],[[255.24545,182.74348],[0.97317,-0.42305],[0.45459,0.81065]],[[256.28408,185.21045],[-0.21558,-0.83715],[0.39474,0.9863]],[[257.62272,188.0724],[-0.47393,-0.9353],[0.56698,-0.3908]],[[259.30978,186.88669],[-0.55805,0.39943],[-0.05612,-0.11694]]],&quot;closed&quot;:true}]}" fill="#cecece"/><path d="M257.39449,175.65765c0.02528,0.10247 0.05106,0.20836 0.07181,0.31372c0.28483,1.44621 0.48599,2.93928 0.66963,4.36623c-1.13653,0.56446 -2.32099,1.12241 -3.41164,1.59206c-0.81966,-1.30151 -1.8446,-2.65233 -2.70812,-3.96693c0.70891,-0.64163 1.48678,-1.16753 2.23593,-1.34898c0.98907,-0.01977 2.11095,-0.46338 3.14239,-0.95609z" data-paper-data="{&quot;noHover&quot;:false,&quot;origItem&quot;:[&quot;Path&quot;,{&quot;applyMatrix&quot;:true,&quot;segments&quot;:[[[254.26985,176.66049],[0.98907,-0.01977],[-0.74915,0.18145]],[[252.06445,177.97575],[0.70891,-0.64163],[0.86352,1.31461]],[[254.72989,181.87997],[-0.81966,-1.30151],[1.09064,-0.46965]],[[258.09133,180.31501],[-1.13653,0.56446],[-0.18363,-1.42695]],[[257.43397,176.00951],[0.28483,1.44621],[-0.02075,-0.10536]],[[257.36475,175.69785],[0.02528,0.10247],[-1.03144,0.49271]]],&quot;closed&quot;:true}]}" fill="#cecece"/><path d="M256.03094,171.67357c0.20103,1.08048 0.71219,2.06058 1.08822,3.08225c-0.98786,0.48718 -2.06219,0.98233 -2.9583,0.96025c-1.03665,0.26777 -1.9001,0.8289 -2.60964,1.53882c-0.41165,-0.67602 -0.79603,-1.38955 -1.08066,-2.0886c1.01561,-0.75962 2.16485,-2.02519 3.35846,-2.40284c0.67757,-0.44726 1.44136,-0.79539 2.20192,-1.08989z" data-paper-data="{&quot;noHover&quot;:false,&quot;origItem&quot;:[&quot;Path&quot;,{&quot;applyMatrix&quot;:true,&quot;segments&quot;:[[[253.82801,172.81345],[0.67757,-0.44726],[-1.19361,0.37765]],[[250.51949,175.15596],[1.01561,-0.75962],[0.28464,0.69905]],[[251.58255,177.21593],[-0.41165,-0.67602],[0.70954,-0.70992]],[[254.14682,175.66809],[-1.03665,0.26777],[0.89611,0.02208]],[[257.06935,174.75145],[-0.98786,0.48718],[-0.37604,-1.02167]],[[255.99968,171.71259],[0.20104,1.08048],[-0.76056,0.2945]]],&quot;closed&quot;:true}]}" fill="#cecece"/><path d="M250.02468,173.74871c-0.11125,-0.51011 -0.17577,-1.05294 -0.16631,-1.58269c0,0 0.00025,-0.3129 -0.23904,-0.44616c1.92877,-0.87912 4.19114,-1.27711 6.4756,-1.34303c-0.08171,0.08506 -0.11533,0.195 -0.13013,0.27115c-0.89232,0.32183 -1.75274,0.73133 -2.52795,1.2538c-1.18773,0.41333 -2.37004,1.09147 -3.41217,1.84693z" data-paper-data="{&quot;noHover&quot;:false,&quot;origItem&quot;:[&quot;Path&quot;,{&quot;applyMatrix&quot;:true,&quot;segments&quot;:[[[253.38866,171.91513],[-1.18773,0.41333],[0.77522,-0.52248]],[[255.9193,170.66871],[-0.89232,0.32183],[0.0148,-0.07614]],[[256.05058,170.39994],[-0.08171,0.08506],[-2.28446,0.06591]],[[249.66905,171.72511],[1.92877,-0.87912],[0.23928,0.13326]],[[249.90834,172.16429],[0,0],[-0.00946,0.52975]],[[250.06765,173.72315],[-0.11125,-0.51011],[1.04213,-0.75546]]],&quot;closed&quot;:true}]}" fill="#cecece"/><path d="M245.03363,178.01215c-0.56489,0.46641 -1.2171,0.95359 -1.80969,1.35811c0.23638,-0.92846 0.58392,-1.92268 1.03774,-2.70596c0.21425,0.45056 0.51128,0.92749 0.77194,1.34785z" data-paper-data="{&quot;noHover&quot;:false,&quot;origItem&quot;:[&quot;Path&quot;,{&quot;applyMatrix&quot;:true,&quot;segments&quot;:[[[244.25641,176.71402],[0.21425,0.45056],[-0.45382,0.78328]],[[243.25156,179.32858],[0.23638,-0.92846],[0.59259,-0.40452]],[[244.98364,178.01265],[-0.56489,0.46641],[-0.26066,-0.42036]]],&quot;closed&quot;:true}]}" fill="#cecece"/><path d="M249.30072,174.33484c-1.19697,0.95002 -2.41571,2.07383 -3.58909,3.08705c-0.31133,-0.51839 -0.62092,-1.07791 -0.82916,-1.66318c1.11301,-1.62831 2.53787,-2.8687 4.05965,-3.69771c-0.00536,0.03787 -0.00495,0.06244 -0.00495,0.06244c0.00982,0.75568 0.1548,1.51134 0.36354,2.2114z" data-paper-data="{&quot;noHover&quot;:false,&quot;origItem&quot;:[&quot;Path&quot;,{&quot;applyMatrix&quot;:true,&quot;segments&quot;:[[[248.90834,172.16429],[0.00982,0.75568],[0,0]],[[248.91369,172.10213],[-0.00536,0.03787],[-1.52178,0.82901]],[[244.92787,175.73776],[1.11301,-1.62831],[0.20825,0.58526]],[[245.73448,177.37742],[-0.31133,-0.51839],[1.17338,-1.01323]],[[249.25154,174.34385],[-1.19697,0.95002],[-0.20874,-0.70006]]],&quot;closed&quot;:true}]}" fill="#cecece"/><path d="M247.83047,181.81494c-0.11875,-0.38642 -0.25219,-0.77829 -0.37353,-1.16312c-0.25262,-0.80113 -0.69491,-1.56164 -1.13727,-2.26606c1.1684,-0.88977 2.36836,-1.85838 3.47256,-2.71135c0.33786,0.73784 0.78202,1.48297 1.23238,2.18728c-0.26478,0.31473 -0.5141,0.66568 -0.76134,0.99962c-0.71314,0.96322 -1.56564,2.00701 -2.4328,2.95363z" data-paper-data="{&quot;noHover&quot;:false,&quot;origItem&quot;:[&quot;Path&quot;,{&quot;applyMatrix&quot;:true,&quot;segments&quot;:[[[250.21341,178.85764],[-0.71314,0.96322],[0.24723,-0.33393]],[[250.9778,177.87927],[-0.26478,0.31473],[-0.45036,-0.70432]],[[249.77512,175.72139],[0.33786,0.73784],[-1.1042,0.85297]],[[246.36911,178.39329],[1.1684,-0.88977],[0.44235,0.70442]],[[247.48383,180.60967],[-0.25262,-0.80113],[0.12134,0.38483]],[[247.84371,181.76673],[-0.11875,-0.38642],[0.86716,-0.94662]]],&quot;closed&quot;:true}]}" fill="#cecece"/><path d="M251.44704,178.53523c0.83923,1.24644 1.79419,2.51849 2.54339,3.77617c-1.69287,1.06677 -3.34343,2.36927 -4.90427,3.67744c-0.3148,-1.02961 -0.64938,-2.09905 -0.96231,-3.13241c0.15854,-0.19623 0.30667,-0.40574 0.44529,-0.60745c0.69404,-1.00993 1.74576,-2.5259 2.87789,-3.71376z" data-paper-data="{&quot;noHover&quot;:false,&quot;origItem&quot;:[&quot;Path&quot;,{&quot;applyMatrix&quot;:true,&quot;segments&quot;:[[[248.61915,182.2493],[0.69404,-1.00993],[-0.13862,0.20171]],[[248.17287,182.84654],[0.15854,-0.19623],[0.31294,1.03337]],[[249.10955,185.94465],[-0.3148,-1.02961],[1.56083,-1.30818]],[[253.94044,182.31061],[-1.69287,1.06677],[-0.7492,-1.25768]],[[251.44184,178.58496],[0.83923,1.24644],[-1.13213,1.18786]]],&quot;closed&quot;:true}]}" fill="#cecece"/><path d="M247.10542,182.59235c-1.38783,1.37969 -3.03436,2.61517 -4.78865,3.31965c0.02311,-1.09614 0.10014,-2.24098 0.27687,-3.35274c0.09278,-0.58366 0.20275,-1.24453 0.32079,-1.87692c0.89953,-0.5162 1.82601,-1.12425 2.68516,-1.753c0.37947,0.62014 0.75317,1.26703 0.97189,1.95784c0.17545,0.55412 0.36074,1.14646 0.53394,1.70517z" data-paper-data="{&quot;noHover&quot;:false,&quot;origItem&quot;:[&quot;Path&quot;,{&quot;applyMatrix&quot;:true,&quot;segments&quot;:[[[246.53284,180.91891],[0.17545,0.55412],[-0.21873,-0.69081]],[[245.58713,178.97776],[0.37947,0.62014],[-0.85915,0.62876]],[[242.95022,180.71725],[0.89953,-0.5162],[-0.11804,0.6324]],[[242.64354,182.55606],[0.09278,-0.58366],[-0.17673,1.11176]],[[242.34498,185.87072],[0.02311,-1.09614],[1.75429,-0.70448]],[[247.05554,182.58886],[-1.38783,1.37969],[-0.1732,-0.55871]]],&quot;closed&quot;:true}]}" fill="#cecece"/><path d="M244.77267,189.62751c-0.6973,-0.91848 -1.4169,-1.89362 -2.06553,-2.84408c1.68108,-0.67592 3.42981,-1.82083 4.72006,-3.11971c0.29983,0.97481 0.6213,1.99357 0.9211,2.96511c-1.03651,0.87868 -2.13041,1.81782 -3.19694,2.67576c-0.12893,0.10371 -0.25827,0.21108 -0.37868,0.32293z" data-paper-data="{&quot;noHover&quot;:false,&quot;origItem&quot;:[&quot;Path&quot;,{&quot;applyMatrix&quot;:true,&quot;segments&quot;:[[[245.15835,189.25508],[-0.12893,0.10371],[1.06653,-0.85794]],[[248.2983,186.62907],[-1.03651,0.87868],[-0.29979,-0.97153]],[[247.40032,183.70588],[0.29983,0.97481],[-1.29024,1.29889]],[[242.75708,186.78094],[1.68108,-0.67592],[0.64863,0.95047]],[[244.78493,189.57904],[-0.6973,-0.91848],[0.12042,-0.11184]]],&quot;closed&quot;:true}]}" fill="#cecece"/><path d="M244.12187,190.32717c-0.38634,0.42289 -0.80854,0.87932 -1.21409,1.26979c-0.26261,-1.15633 -0.44974,-2.43237 -0.53299,-3.63173c0.54608,0.77345 1.17405,1.60667 1.74707,2.36194z" data-paper-data="{&quot;noHover&quot;:false,&quot;origItem&quot;:[&quot;Path&quot;,{&quot;applyMatrix&quot;:true,&quot;segments&quot;:[[[242.39628,188.01039],[0.54608,0.77345],[0.08325,1.19936]],[[242.91671,191.54777],[-0.26261,-1.15633],[0.40554,-0.39048]],[[244.07937,190.30083],[-0.38634,0.42289],[-0.57302,-0.75527]]],&quot;closed&quot;:true}]}" fill="#cecece"/><path d="M247.46985,194.65022c-0.99889,0.48216 -2.04635,0.9815 -3.00765,1.52294c-0.52626,-1.13576 -0.98881,-2.38027 -1.32386,-3.58739c0.52265,-0.47687 0.97729,-1.04638 1.49661,-1.58991c0.9224,1.19946 1.91769,2.45741 2.8349,3.65436z" data-paper-data="{&quot;noHover&quot;:false,&quot;origItem&quot;:[&quot;Path&quot;,{&quot;applyMatrix&quot;:true,&quot;segments&quot;:[[[244.64747,191.04427],[0.9224,1.19946],[-0.51932,0.54352]],[[243.18375,192.60671],[0.52265,-0.47687],[0.33505,1.20712]],[[244.47768,196.12561],[-0.52626,-1.13576],[0.9613,-0.54144]],[[247.42499,194.62815],[-0.99889,0.48216],[-0.91721,-1.19695]]],&quot;closed&quot;:true}]}" fill="#cecece"/><path d="M250.19455,193.27576c-0.60307,0.33452 -1.23317,0.65538 -1.83395,0.95103c-0.98083,-1.28174 -2.04834,-2.6087 -3.03774,-3.89142c1.02149,-0.94682 2.15594,-1.94248 3.26085,-2.87128c0.24995,0.80373 0.53258,1.62506 0.78739,2.41419c0.22512,0.87148 0.47927,2.15538 0.82345,3.39747z" data-paper-data="{&quot;noHover&quot;:false,&quot;origItem&quot;:[&quot;Path&quot;,{&quot;applyMatrix&quot;:true,&quot;segments&quot;:[[[249.32828,189.90408],[0.22512,0.87148],[-0.25481,-0.78913]],[[248.57196,187.51269],[0.24995,0.80373],[-1.10491,0.92881]],[[245.37181,190.34559],[1.02149,-0.94682],[0.9894,1.28271]],[[248.35194,194.17755],[-0.98083,-1.28174],[0.60078,-0.29566]],[[250.15921,193.2404],[-0.60307,0.33452],[-0.34418,-1.2421]]],&quot;closed&quot;:true}]}" fill="#cecece"/><path d="M251.02306,192.7695c-0.32028,-1.16744 -0.58624,-2.3229 -0.77761,-3.11941c-0.31331,-0.91841 -0.61681,-1.88869 -0.90811,-2.82537c1.64654,-1.34303 3.4108,-2.63764 5.10293,-3.69226c0.39327,0.75731 0.7317,1.54359 0.92618,2.34886c0.42942,1.07413 0.96621,2.14134 1.48415,3.16043c-0.15436,0.10421 -0.31048,0.21364 -0.46564,0.3171c-1.81984,1.13725 -3.54791,2.67673 -5.36188,3.81065z" data-paper-data="{&quot;noHover&quot;:false,&quot;origItem&quot;:[&quot;Path&quot;,{&quot;applyMatrix&quot;:true,&quot;segments&quot;:[[[256.33713,188.94423],[-1.81984,1.13725],[0.15517,-0.10345]],[[256.80141,188.63273],[-0.15436,0.10421],[-0.51794,-1.01909]],[[255.33259,185.51812],[0.42942,1.07413],[-0.19448,-0.80527]],[[254.42681,183.18062],[0.39327,0.75731],[-1.69213,1.05462]],[[249.38523,186.8391],[1.64654,-1.34303],[0.2913,0.93668]],[[250.2884,189.62449],[-0.31331,-0.91841],[0.19137,0.79651]],[[251.04281,192.72357],[-0.32028,-1.16744],[1.81397,-1.13392]]],&quot;closed&quot;:true}]}" fill="#cecece"/><path d="M253.36198,197.36763c-0.08203,0.02533 -0.16464,0.05158 -0.24403,0.08053l-0.10916,-0.30336c-0.71398,-0.71398 -1.29102,-2.05111 -1.72426,-3.42441c1.91108,-1.15938 3.71117,-2.79009 5.61659,-3.98114c0.12546,-0.08363 0.25294,-0.16634 0.37787,-0.25046c0.48215,0.97086 0.96005,1.98361 1.30318,3.02028l0.22851,0.4723c0,0 0.04586,0.09365 0.13705,0.17308c-0.62382,0.57956 -1.216,1.26662 -1.7455,1.99186c-0.75137,0.46173 -1.63541,0.87208 -2.27233,1.25046c-0.52421,0.31143 -1.05796,0.63292 -1.56793,0.97087z" data-paper-data="{&quot;noHover&quot;:false,&quot;origItem&quot;:[&quot;Path&quot;,{&quot;applyMatrix&quot;:true,&quot;segments&quot;:[[[254.93309,196.34687],[-0.52421,0.31143],[0.63692,-0.37838]],[[257.16329,195.11497],[-0.75137,0.46173],[0.52949,-0.72525]],[[258.89791,193.15853],[-0.62382,0.57956],[-0.0912,-0.07943]],[258.76112,192.9879],[[258.53399,192.5224],[0,0],[-0.34313,-1.03667]],[[257.25512,189.53272],[0.48215,0.97086],[-0.12493,0.08412]],[[256.87953,189.78435],[0.12546,-0.08363],[-1.90543,1.19105]],[[251.33443,193.7171],[1.91108,-1.15938],[0.43324,1.3733]],[[253.03366,197.10142],[-0.71398,-0.71398],[0,0]],[[253.14039,197.40348],[0,0],[0.07939,-0.02895]],[[253.3825,197.32204],[-0.08203,0.02533],[0.50997,-0.33795]]],&quot;closed&quot;:true}]}" fill="#cecece"/><path d="M248.92789,194.95766c0.49334,-0.24367 1.02361,-0.5146 1.51847,-0.78483c0.43753,1.37538 1.03573,2.74719 1.77497,3.48643l0.06178,0.2104c-0.26383,0.16223 -0.52656,0.35945 -0.75594,0.56535c-0.1474,-0.17206 -0.32083,-0.34199 -0.51995,-0.53924c-0.64237,-0.97117 -1.37599,-1.99994 -2.07933,-2.93811z" data-paper-data="{&quot;noHover&quot;:false,&quot;origItem&quot;:[&quot;Path&quot;,{&quot;applyMatrix&quot;:true,&quot;segments&quot;:[[[250.99501,197.84729],[-0.64237,-0.97117],[0.19912,0.19725]],[[251.50733,198.38913],[-0.1474,-0.17206],[0.22938,-0.20591]],[[252.24655,197.83556],[-0.26383,0.16223],[0,0]],[[252.18301,197.62715],[0,0],[-0.73925,-0.73925]],[[250.45011,194.2227],[0.43753,1.37538],[-0.49486,0.27023]],[[248.96687,194.98897],[0.49334,-0.24367],[0.70335,0.93817]]],&quot;closed&quot;:true}]}" fill="#cecece"/><path d="M250.87111,199.13365c-0.01515,0.01918 -0.03046,0.03956 -0.04543,0.05895c-0.969,0.73574 -1.97039,1.5416 -2.91903,2.32493c-1.17389,-1.37842 -2.21921,-2.93993 -3.03369,-4.51507c1.01488,-0.57622 2.11033,-1.10182 3.17149,-1.6132c0.75358,1 1.53437,2.06043 2.2272,3.0926c0.24752,0.24948 0.43455,0.45011 0.59945,0.65178z" data-paper-data="{&quot;noHover&quot;:false,&quot;origItem&quot;:[&quot;Path&quot;,{&quot;applyMatrix&quot;:true,&quot;segments&quot;:[[[250.22166,198.48128],[0.24752,0.24948],[-0.69284,-1.03217]],[[248.04162,195.43919],[0.75358,1],[-1.06116,0.51138]],[[244.91797,197.02426],[1.01488,-0.57622],[0.81448,1.57513]],[[247.90606,201.46754],[-1.17389,-1.37842],[0.94864,-0.78333]],[[250.77718,199.18047],[-0.969,0.73574],[0.01496,-0.0194]],[[250.82235,199.1226],[-0.01515,0.01918],[-0.1649,-0.20166]]],&quot;closed&quot;:true}]}" fill="#cecece"/><path d="M256.93515,213.12308c-0.73403,-0.07129 -1.3737,-0.27775 -1.71404,-0.64803c-0.85396,-0.92908 -1.24313,-2.21253 -1.69134,-3.34392c0,0 -0.02434,-0.05957 -0.07349,-0.14466c0.00054,-0.0005 0.08155,-0.06035 0.08209,-0.06085c2.3816,-0.361 3.53999,-0.72008 5.98254,-0.03277l1.09108,0.5562c0,0 1.11063,0.56995 1.66964,-0.54808c0.55901,-1.11803 -0.5633,-1.66455 -0.5633,-1.66455l-1.30666,-0.64141c-2.36739,-0.68515 -3.82443,-0.58436 -5.86142,-0.30585c-0.48842,-0.30996 -1.08723,-0.10898 -1.08723,-0.10898l-0.98564,0.40501c-0.47043,0.38416 -1.15862,0.88637 -1.66027,1.42813c0.08347,-3.36751 0.63716,-7.99647 3.59586,-8.46559c1.84944,-0.29324 3.68686,0.71152 5.32463,1.43345c0.28708,0.4519 0.85525,0.56857 0.85525,0.56857l0.68991,0.0954c3.1672,1.42446 2.21926,8.06312 0.2427,10.3055c-0.43647,0.49517 -1.44317,0.88771 -2.52335,1.07465c-0.20955,-0.29145 -0.59094,-0.56555 -1.23352,-0.43703c-0.43601,0.0872 -0.69241,0.29876 -0.83343,0.53481z" data-paper-data="{&quot;noHover&quot;:false,&quot;origItem&quot;:[&quot;Path&quot;,{&quot;applyMatrix&quot;:true,&quot;segments&quot;:[[[257.76319,212.53856],[-0.43601,0.0872],[0.64258,-0.12851]],[[258.9884,212.97722],[-0.20955,-0.29145],[1.08018,-0.18694]],[[261.49455,211.91135],[-0.43647,0.49517],[1.97656,-2.24238]],[[261.24932,201.68232],[3.1672,1.42446],[0,0]],[260.56319,201.59001],[[259.71533,201.02596],[0.28708,0.4519],[-1.63777,-0.72194]],[[254.43137,199.59423],[1.84944,-0.29324],[-2.9587,0.46911]],[[250.86536,208.0002],[0.08347,-3.36751],[0.50165,-0.54176]],[[252.42747,206.5882],[-0.47043,0.38416],[0,0]],[253.41305,206.17843],[[254.50025,206.2888],[-0.48842,-0.30996],[2.03699,-0.27851]],[[260.46149,206.59932],[-2.36739,-0.68515],[0,0]],[261.76735,207.24625],[[262.32637,208.92331],[0.55901,-1.11803],[-0.55901,1.11803]],[260.64932,209.48232],[[259.55518,208.92926],[0,0],[-2.44255,-0.68731]],[[253.49814,208.9553],[2.3816,-0.361],[-0.00054,0.0005]],[[253.49652,208.95678],[0.00054,-0.0005],[0.04915,0.08509]],[[253.56893,209.10005],[0,0],[0.44821,1.13139]],[[255.23559,212.42719],[-0.85396,-0.92908],[0.34034,0.37028]],[[256.93627,213.07309],[-0.73403,-0.07129],[0.14102,-0.23605]]],&quot;closed&quot;:true}]}" fill="#ffc07b"/><path d="M289.39942,223.19278c0,3.1724 -0.47126,5.70737 -1.00408,8.79498c-0.11395,0.66034 -0.52715,1.39948 -0.42283,2.0296c-0.21236,-0.44486 -0.54994,-1.09109 -0.76261,-1.3685c-1.25081,-1.63154 -2.68578,-3.06724 -3.72275,-4.86204c-2.33413,-4.03992 -2.85575,-9.25445 -4.76265,-13.54382c-1.08835,-2.63053 -1.07107,-5.22001 0.51209,-7.64033c0.39904,-0.61005 0.66597,-1.5362 1.37449,-1.70763c0.60688,-0.14684 1.19493,-0.20363 1.75042,-0.18075c0.15453,0.05454 0.33937,0.07752 0.5552,0.04944c1.01106,0.14041 1.93506,0.54521 2.7391,1.13173c-0.23736,0.24822 -0.41925,0.63789 -0.22705,1.2145c0.39529,1.18586 1.58807,0.79195 1.58807,0.79195l0.45973,-0.15237c1.35173,1.86867 2.12157,4.3082 2.11866,6.38098c0,0 0.00285,0.37411 0.20472,0.71176c-0.33609,2.75409 -0.40052,5.5741 -0.40052,8.35049z" data-paper-data="{&quot;noHover&quot;:false,&quot;origItem&quot;:[&quot;Path&quot;,{&quot;applyMatrix&quot;:true,&quot;segments&quot;:[[[289.7602,214.87263],[-0.33609,2.75409],[-0.20187,-0.33765]],[[289.55834,214.16429],[0,0],[0.0029,-2.07278]],[[287.46176,207.79731],[1.35173,1.86867],[0,0]],[287.00362,207.95014],[[285.42248,207.15957],[0.39529,1.18586],[-0.19221,-0.57662]],[[285.64926,205.94504],[-0.23736,0.24822],[-0.80404,-0.58652]],[[282.91999,204.81363],[1.01106,0.14041],[-0.21582,0.02808]],[[282.36665,204.76403],[0.15453,0.05454],[-0.55549,-0.02288]],[[280.62209,204.94382],[0.60688,-0.14684],[-0.70851,0.17143]],[[279.25368,206.64967],[0.39904,-0.61005],[-1.58316,2.42032]],[[278.75997,214.27825],[-1.08835,-2.63053],[1.9069,4.28937]],[[283.48947,227.73688],[-2.33413,-4.03992],[1.03697,1.7948]],[[287.19774,232.60037],[-1.25081,-1.63154],[0.21267,0.27741]],[[287.95906,233.96921],[-0.21236,-0.44486],[-0.10433,-0.63012]],[[288.3785,231.94068],[-0.11395,0.66034],[0.53282,-3.0876]],[[289.35834,223.16429],[0,3.1724],[0,-2.77639]]],&quot;closed&quot;:true}]}" fill="#0054ff"/><path d="M259.60091,215.40204c1.49936,-0.29764 2.87185,-0.92604 3.67154,-1.79056c3.3218,-3.59108 3.58996,-11.79107 -0.94036,-14.20069l-0.86421,-0.14896c-0.22811,-0.28196 -0.53102,-0.41192 -0.53102,-0.41192c-0.8343,-0.35755 -1.71692,-0.80938 -2.54921,-1.1254c4.54606,-8.10048 16.12985,-7.26379 21.12544,0.1853c0.62468,1.47075 1.22285,2.79612 1.66781,4.28505c-0.44944,0.07017 -0.92565,0.28097 -1.39266,0.43948c-4.86609,1.6516 -4.72551,8.90937 -3.28159,12.61831c2.71506,6.11051 3.29517,12.42752 7.73068,17.67125c1.67003,1.97433 3.71753,6.09181 6.07697,1.9273c0.74044,-1.30691 0.95016,-4.28436 1.27804,-5.84608c0.20381,-0.97075 0.25592,-1.96527 0.26209,-2.96744c0.5335,0.58245 1.13888,1.10544 1.84097,1.54855c0.99253,0.62643 2.00567,0.98722 3.16915,1.16159c0.30293,0.0454 0.84651,-0.25127 0.99984,0.0139c0.45435,0.78576 -1.07646,3.09061 -1.53575,3.58639c-2.65193,2.86266 -6.94089,4.81621 -10.57282,6.04277c-2.61696,0.28248 -5.81264,0.62325 -8.30292,-0.34429c-2.78868,-1.08348 -4.24326,-2.77549 -6.4705,-4.6025c-4.62808,-3.79642 -9.10118,-7.97564 -10.41124,-14.1763c-0.36473,-1.27658 -0.66063,-2.57677 -0.97024,-3.86574z" data-paper-data="{&quot;noHover&quot;:false,&quot;origItem&quot;:[&quot;Path&quot;,{&quot;applyMatrix&quot;:true,&quot;segments&quot;:[[[260.61994,219.25687],[-0.36473,-1.27658],[1.31006,6.20066]],[[271.00082,233.39761],[-4.62808,-3.79642],[2.22724,1.82701]],[[277.45446,237.99661],[-2.78868,-1.08348],[2.49027,0.96755]],[[285.74018,238.34339],[-2.61696,0.28248],[3.63193,-1.22656]],[[296.29215,232.31393],[-2.65193,2.86266],[0.45929,-0.49579]],[[297.82308,228.73355],[0.45435,0.78576],[-0.15333,-0.26517]],[[296.90517,228.77697],[0.30293,0.0454],[-1.16348,-0.17436]],[[293.73464,227.61721],[0.99253,0.62643],[-0.70209,-0.44312]],[[291.89381,226.06849],[0.5335,0.58245],[-0.00617,1.00217]],[[291.62737,229.0408],[0.20381,-0.97075],[-0.32788,1.56172]],[[290.34071,234.89365],[0.74044,-1.30691],[-2.35944,4.16451]],[[284.25363,232.97117],[1.67003,1.97433],[-4.43551,-5.24373]],[[276.4567,215.25033],[2.71506,6.11051],[-1.44392,-3.70893]],[[279.79458,202.58475],[-4.86609,1.6516],[0.467,-0.1585]],[[281.16971,202.2436],[-0.44944,0.07017],[-0.44496,-1.48893]],[[279.50924,197.95967],[0.62468,1.47075],[-4.99559,-7.44908]],[[258.425,197.75776],[4.54606,-8.10048],[0.83229,0.31602]],[[260.90073,198.81536],[-0.8343,-0.35755],[0,0]],[[261.43186,199.22717],[-0.22811,-0.28196],[0,0]],[[262.36735,199.44625],[0,0],[4.53032,2.40962]],[[263.32212,213.61722],[3.3218,-3.59108],[-0.79969,0.86452]],[[259.65091,215.40185],[1.49936,-0.29764],[0.3096,1.28897]]],&quot;closed&quot;:true}]}" fill="#00ff52"/><path d="M269.55834,205.56429c0,-0.69036 0.55964,-1.25 1.25,-1.25c0.69036,0 1.25,0.55964 1.25,1.25c0,0.69036 -0.55964,1.25 -1.25,1.25c-0.69036,0 -1.25,-0.55964 -1.25,-1.25z" fill="#000000"/></g></g></svg>