<svg version="1.1" xmlns="http://www.w3.org/2000/svg" xmlns:xlink="http://www.w3.org/1999/xlink" width="112.59954" height="130.94496" viewBox="0,0,112.59954,130.94496"><g transform="translate(-179.65879,-118.50819)"><g data-paper-data="{&quot;isPaintingLayer&quot;:true}" fill-rule="nonzero" stroke="none" stroke-linecap="butt" stroke-linejoin="miter" stroke-miterlimit="10" stroke-dasharray="" stroke-dashoffset="0" style="mix-blend-mode: normal"><path d="M206,193.66667l14.66666,-18c0,0 2.61437,-1.39387 1.55444,-5.39195c-1.24075,-4.68012 -6.0352,-12.18816 -3.63833,-14.04942c2.20191,-1.70987 9.862,-7.19013 16.08641,-7.12213c5.23961,0.05724 8.78199,5.79439 13.96529,3.61208c1.9797,-0.83351 3.25984,-4.12144 5.15475,-5.15784c14.44669,-7.90142 16.87745,-12.22407 16.87745,-12.22407c0,0 2.94797,14.89292 2.92268,24.6656c-0.01241,4.79578 -2.51226,5.06873 -2.98114,8.14459c-1.34936,8.85184 -8.27487,21.85647 -8.27487,21.85647c0,0 -13.65917,7.26578 -21.94759,7.80526c-3.36836,0.21924 -1.63669,-3.83252 -6.72244,-4.44398c-10.19539,-1.22579 -27.66331,0.30538 -27.66331,0.30538z" fill="#4c4c4c" stroke-width="0"/><path d="M261.77432,191.11804c-0.76132,-0.38066 -0.74501,-1.02052 -0.65711,-1.39008c-0.31621,-0.23743 -0.64131,-0.46867 -0.97376,-0.69296c0.54931,-0.23898 1.07882,-0.48145 1.62277,-0.69586l0.11575,-0.23149c1.41029,-2.82058 3.00079,-5.98774 5.10398,-8.17187c1.48985,-3.03656 0.34226,-6.56192 1.50836,-9.70279c0.74241,-1.99966 2.37656,-3.44938 3.41794,-5.18219c1.67928,-2.79426 0.8566,-6.06051 0.83775,-9.05079c0,0 0,-1.25 1.25,-1.25c1.25,0 1.25,1.25 1.25,1.25c-0.02773,3.49548 0.66347,6.97241 -1.16225,10.28254c-0.91091,1.65154 -2.5434,2.96401 -3.24873,4.81781c-1.28789,3.38495 -0.10937,6.90635 -1.82497,10.29721c-2.00054,1.9113 -3.50625,5.04233 -4.81099,7.65787c0.33624,0.29876 0.66073,0.60446 0.97195,0.91638c5.08453,7.72734 -1.48321,15.90057 -4.62088,23.09213c-1.26438,2.89798 -2.77133,5.75065 -5.64793,6.91185c-0.17187,0.27349 -0.40449,0.42857 -0.40449,0.42857l-1.13833,0.60028c-6.32518,0.76442 -12.59265,2.52862 -18.91663,3.58671c-1.15567,0.25597 -2.30526,0.55673 -3.42125,0.95128c-1.33921,0.47347 -6.71799,3.94797 -3.21981,5.52364c1.86438,0.83976 4.03216,2.51077 6.06409,2.87567c2.74613,0.49317 5.53292,0.39191 8.27204,0.97235h1.26652c4.78201,0 9.49454,0.3971 14.26227,0.40155c7.27602,0.72222 13.93225,1.80981 21.02492,3.43189c3.8608,0.88296 7.90772,1.56184 11.28687,3.54374l0.11833,-0.27611l1.37352,0.58865c0.4596,0.18473 0.78408,0.63461 0.78408,1.16028c0,0.63664 -0.47594,1.16211 -1.09142,1.24004l-1.31854,0.18836c-2.18127,0.62008 -4.42554,0.76226 -6.64827,1.2068c-14.19381,1.57161 -27.87522,3.0148 -42.19177,3.0148c-9.52132,0 -20.85039,0.85662 -28.78087,-5.47391c-3.22397,-2.57355 -5.26602,-3.94751 -6.06408,-8.26383c-0.01993,-11.47395 6.56883,-20.26858 17.03383,-24.34045c0.31104,-0.20732 0.62208,-0.41464 0.93312,-0.62196c5.20883,-3.25448 11.25027,-5.03053 16.23416,-8.47203c0.26148,-0.18056 0.39477,-0.41247 0.45435,-0.66814c-1.06884,-0.11452 -1.06884,-1.24063 -1.06884,-1.24063v-0.33334c0.2203,-1.9795 -3.81548,-3.9513 -5.14756,-5.31928c-1.73155,-0.84957 -2.90881,-0.549 -4.75517,-0.77342c-7.35335,-0.8938 -15.05844,0.51406 -22.26879,1.9851c0,0 -1.22573,0.24514 -1.47088,-0.98058c-0.24515,-1.22573 0.98058,-1.47087 0.98058,-1.47087c7.48722,-1.47147 15.43415,-2.99823 23.06454,-2.01491c2.30424,0.29694 3.71724,0.1164 5.91149,1.22659c1.76978,1.73474 4.27721,2.99921 5.48667,5.04402c0.29894,-0.1392 0.59668,-0.28035 0.89339,-0.42317c0.41534,0.76085 0.69608,1.6634 0.80468,2.73809c0.17067,1.68899 0.17107,2.87508 -1.19679,4.07492c-2.10691,1.84811 -4.86881,2.58181 -7.3579,3.6295c-3.19309,1.34401 -6.27569,3.26519 -9.20793,5.09846c-0.15836,0.10559 -0.31672,0.21119 -0.47508,0.31679c-0.24278,0.28301 -0.56403,0.40348 -0.56403,0.40348c-0.03151,0.01181 -0.06298,0.02367 -0.09442,0.03557c-0.01704,0.01136 -0.03407,0.02272 -0.05111,0.03408l-0.0095,0.04382c0,0 -0.47572,0.47573 -1.07816,0.38015c-8.88974,3.79146 -14.54015,11.40226 -14.56077,21.42371c0.62191,3.49714 2.50735,4.42841 5.13592,6.53617c7.37961,5.91746 18.37646,4.92609 27.21913,4.92609c14.18752,0 27.74108,-1.41596 41.80823,-2.9852c1.03489,-0.20698 2.07394,-0.34691 3.10874,-0.50192c-1.3495,-0.4425 -2.70347,-1.02378 -3.48639,-1.26871c-8.1828,-2.56 -16.39721,-3.48954 -24.89284,-4.34571c-4.72649,0.00477 -9.39751,-0.39845 -14.13773,-0.39845h-1.4c0,0 -0.05252,0 -0.13603,-0.01077c-0.08386,-0.00761 -0.13513,-0.019 -0.13513,-0.019c-2.76942,-0.62064 -5.61389,-0.45972 -8.39028,-0.99788c-2.08138,-0.40344 -4.94087,-2.04407 -6.73591,-3.12433c-3.18723,-1.91807 -2.45556,-6.62295 0.25039,-8.70029c1.80361,-1.38462 4.95334,-1.94444 7.10855,-2.42479c6.04617,-1.00367 12.02818,-2.61009 18.06392,-3.47463c0.2499,-0.62892 0.99772,-0.73575 0.99772,-0.73575c2.89798,-0.29451 4.19576,-3.50224 5.23098,-5.86221c2.56721,-5.85242 9.2836,-14.1669 4.97912,-20.50787c-0.13135,-0.13094 -0.26582,-0.2608 -0.40324,-0.38948c-0.26729,0.1306 -0.62199,0.17179 -1.06412,-0.04927z" fill="#000000" stroke-width="0.5"/><path d="M263.27334,191.5181c4.30448,6.34097 -2.39381,14.6988 -4.96102,20.55122c-1.03522,2.35998 -2.35077,5.60145 -5.24875,5.89595c0,0 -0.75342,0.11088 -1.00332,0.73979c-6.03574,0.86454 -12.08257,2.46052 -18.12873,3.46419c-2.15521,0.48035 -5.22485,0.98055 -7.02846,2.36517c-2.70594,2.07734 -3.44525,6.77322 -0.25802,8.69129c1.79505,1.08026 4.64457,2.71368 6.72595,3.11712c2.77639,0.53816 5.60707,0.37213 8.37649,0.99277c0,0 0.05102,0.01134 0.13488,0.01895c0.08351,0.01077 0.13579,0.01072 0.13579,0.01072l1.39746,-0.00044c4.74022,0 9.38608,0.40599 14.11257,0.40122c8.49562,0.85618 16.69049,1.79926 24.87329,4.35926c0.78292,0.24494 2.21264,0.89148 3.56214,1.33398c-1.03479,0.15502 -2.07547,0.29679 -3.11036,0.50377c-14.06714,1.56924 -27.66602,3.00048 -41.85354,3.00048c-8.84268,0 -19.86763,0.97606 -27.24723,-4.94141c-2.62857,-2.10776 -4.51955,-3.04625 -5.14146,-6.54339c0.02062,-10.02145 5.66367,-17.65279 14.55342,-21.44425c0.60244,0.09558 1.0781,-0.38067 1.0781,-0.38067l0.00948,-0.04391c0.01704,-0.01136 0.03407,-0.02278 0.05111,-0.03414c0.03143,-0.0119 0.0629,-0.02381 0.09441,-0.03563c0,0 0.32117,-0.12122 0.56395,-0.40424c0.15836,-0.1056 0.31667,-0.21181 0.47503,-0.3174c2.93224,-1.83327 6.01632,-3.77126 9.20942,-5.11527c2.48909,-1.04769 5.26925,-1.80858 7.37616,-3.65668c1.36786,-1.19984 1.41476,-2.29905 1.24409,-3.98804c-0.11068,-1.09527 -0.39967,-2.01202 -0.82742,-2.78239c5.34559,-2.57261 10.36022,-5.68718 16.11463,-7.61592c0.58421,-0.19582 1.12212,-0.42096 1.64315,-0.64833c1.1327,0.76575 2.17905,1.61125 3.07679,2.50623z" data-paper-data="{&quot;noHover&quot;:false,&quot;origItem&quot;:[&quot;Path&quot;,{&quot;applyMatrix&quot;:true,&quot;segments&quot;:[[[246.38816,181.64959],[1.57409,0.90153],[-3.98957,-2.28496]],[[233.2389,175.55845],[4.4812,1.24856],[0,0]],[232.01305,175.15014],[[231.88207,175.09432],[0.07881,0.03843],[-0.23339,0.04042]],[[231.16106,175.20492],[0.24831,-0.03244],[-3.35945,0.43888]],[[220.41131,176.52227],[2.85813,-2.36001],[-3.35542,2.77062]],[[215.05256,186.33269],[4.59729,-1.78671],[-1.03267,0.44257]],[[211.82239,187.29518],[0.5506,-0.97934],[-0.14377,0.25572]],[[212.29222,192.6804],[-0.38114,-0.38114],[0.71966,0.71966]],[[217.40834,192.91429],[-0.86536,0],[4.57441,0]],[[231.08601,192.7167],[-4.56529,-0.00746],[4.91435,0.60716]],[[243.24897,200.01156],[-0.63954,-6.32878],[0.17067,1.68899]],[[242.05218,204.08647],[1.36786,-1.19984],[-2.10691,1.84811]],[[234.69428,207.71597],[2.48909,-1.04769],[-3.19309,1.34401]],[[225.48635,212.81443],[2.93224,-1.83327],[-0.15836,0.10559]],[[225.01126,213.13122],[0.15836,-0.1056],[-0.24278,0.28301]],[[224.44724,213.5347],[0,0],[-0.03151,0.01181]],[[224.35282,213.57027],[0.03143,-0.0119],[-0.01704,0.01136]],[[224.30171,213.60435],[0.01704,-0.01136],[0,0]],[224.29222,213.64817],[[223.21405,214.02832],[0.60244,0.09558],[-8.88974,3.79146]],[[208.65328,235.45203],[0.02062,-10.02145],[0.62191,3.49714]],[[213.7892,241.9882],[-2.62857,-2.10776],[7.37961,5.91746]],[[241.00833,246.91429],[-8.84268,0],[14.18752,0]],[[282.81656,243.92908],[-14.06714,1.56924],[1.03489,-0.20698]],[[285.9253,243.42716],[-1.03479,0.15502],[-1.3495,-0.4425]],[[282.4389,242.15845],[0.78292,0.24494],[-8.1828,-2.56]],[[257.54607,237.81273],[8.49562,0.85618],[-4.72649,0.00477]],[[243.40833,237.41429],[4.74022,0],[0,0]],[242.00833,237.41429],[[241.8723,237.40352],[0.08351,0.01077],[-0.08386,-0.00761]],[[241.73717,237.38452],[0,0],[-2.76942,-0.62064]],[[233.34689,236.38664],[2.77639,0.53816],[-2.08138,-0.40344]],[[226.61098,233.26231],[1.79505,1.08026],[-3.18723,-1.91807]],[[226.86136,224.56202],[-2.70594,2.07734],[1.80361,-1.38462]],[[233.96992,222.13723],[-2.15521,0.48035],[6.04617,-1.00367]],[[252.03383,218.6626],[-6.03574,0.86454],[0.2499,-0.62892]],[[253.03156,217.92685],[0,0],[2.89798,-0.29451]],[[258.26254,212.06464],[-1.03522,2.35998],[2.56721,-5.85242]],[[263.24166,191.55677],[4.30448,6.34097],[-2.76977,-2.76128]],[[252.53878,185.58522],[3.77024,0.93028],[-0.64566,0.21275]],[[251.24828,185.15979],[0.17848,0.20683],[-0.18853,-0.13082]],[[250.78603,184.53375],[0.0806,0.29521],[-1.14037,-1.37444]]],&quot;closed&quot;:true}]}" fill="#4c4c4c" stroke-width="0.5"/><path d="M240.4903,211.92331c-0.55902,-1.11803 0.55902,-1.67705 0.55902,-1.67705l0.61562,-0.28387c5.93326,-1.66956 9.12373,-7.39078 7.91893,-13.54676c-0.14145,-0.72271 -0.55901,-1.49513 -1.04161,-2.26129c0.71932,-0.37456 1.44019,-0.74678 2.16536,-1.11221c0.57997,0.94436 1.10774,1.90833 1.3252,2.87084c1.66873,7.38618 -2.6793,14.42686 -9.68107,16.45324l-0.18438,0.11613c0,0 -1.11803,0.55902 -1.67705,-0.55902z" fill="#4eff00" stroke-width="0.5"/><path d="M219.41383,228.79729c-1.23299,0.2055 -1.43849,-1.02749 -1.43849,-1.02749l-0.20735,-1.56054c0.14481,-1.13841 0.38341,-2.26825 0.70579,-3.36962c2.84458,-4.35262 6.88049,-5.70792 11.42435,-7.81647c3.88781,-1.80411 7.62129,-3.48018 11.71493,-4.84472c0,0 1.18585,-0.39528 1.58114,0.79057c0.39528,1.18585 -0.79057,1.58114 -0.79057,1.58114c-4.01662,1.33887 -7.66548,3.00063 -11.48507,4.75528c-3.8918,1.78782 -7.67685,2.93083 -10.17565,6.58353c-0.2368,0.86013 -0.38572,1.74486 -0.49421,2.63038l0.19265,0.83946c0,0 0.2055,1.23299 -1.02749,1.43849z" fill="#00ff85" stroke-width="0.5"/><path d="M236.45833,241.1643c0,1.25 -1.25,1.25 -1.25,1.25l-1.37678,-0.01256c-3.48189,-0.5014 -8.03185,-1.11051 -10.8262,-3.47946c-3.30284,-2.80002 -4.09183,-8.09262 -5.38288,-11.9627c0,0 -0.39528,-1.18585 0.79057,-1.58114c1.18585,-0.39528 1.58114,0.79057 1.58114,0.79057c1.09058,3.27424 1.75451,8.51531 4.61712,10.8373c2.47136,2.00464 6.55122,2.49254 9.5738,2.92054l1.02322,-0.01256c0,0 1.25,0 1.25,1.25z" fill="#00ffce" stroke-width="0.5"/><path d="M284.05833,242.7643c0,1.25 -1.25,1.25 -1.25,1.25l-0.37678,-0.01256c-5.69383,-0.82719 -12.77637,-0.40986 -18.45731,0.4015c-3.3746,0.41706 -6.49946,-0.35413 -9.85453,-0.59208c-6.30823,-0.4474 -12.82423,-1.43399 -19.11139,-1.39686c0,0 -1.25,0 -1.25,-1.25c0,-1.25 1.25,-1.25 1.25,-1.25c6.36676,0.03093 12.90352,0.94402 19.28861,1.40314c3.16609,0.22766 6.16689,1.01025 9.34547,0.60792c5.90706,-0.84407 13.21564,-1.23257 19.14269,-0.3985l0.02322,-0.01256c0,0 1.25,0 1.25,1.25z" fill="#00c3ff" stroke-width="0.5"/><path d="M209.08799,175.55581c2.23657,-0.02753 4.21113,-0.25969 6.27518,0.48603l0.31238,-0.09166c1.92389,-0.55578 4.03116,-0.88611 6.16221,-0.97925c-0.75514,0.86126 -1.47128,1.75716 -2.15846,2.67843c-1.13879,0.15455 -2.24147,0.38557 -3.26668,0.6898c-0.44933,0.51014 -1.06982,0.37397 -1.32841,0.28584c-0.2288,-0.01747 -0.49658,-0.09232 -0.71544,-0.3062c-1.67898,-0.60873 -3.43877,-0.28176 -5.25266,-0.26316l-0.00001,0c-4.59733,0.04717 -9.92687,0.20765 -14.42401,1.39753l-1.26398,0.2679c0,0 -0.0538,0.01139 -0.14122,0.01811c-0.18087,0.15293 -0.36821,0.30654 -0.566,0.46014c-2.67588,2.07802 -7.33485,3.09272 -8.60644,6.57433c-1.49285,4.08737 3.40211,7.30653 0.34028,11.17341c-0.66691,0.90416 -2.31996,1.34097 -2.2995,2.46429c0.00535,0.29332 2.60793,4.27171 3.1295,4.40768c0.98484,0.25673 3.78507,-1.94858 4.53153,-2.38634c3.94593,-2.31405 7.7567,-4.78655 11.69854,-7.08956c2.60046,-1.1224 5.63811,-2.59536 8.4644,-2.68951c-0.50099,0.71501 -1.01532,1.41688 -1.54749,2.10147c0,0 -0.18998,0.24484 -0.30702,0.60841c-0.38924,0.09603 -0.78264,0.2182 -1.17812,0.36053c-1.45731,0.52449 -2.87915,1.24033 -4.30353,1.85005c-4.94477,2.91196 -10.48414,7.93733 -16.06845,9.38722c-2.68993,0.6984 -7.12302,-3.82161 -6.90828,-6.78493c0.06236,-0.86058 2.28689,-3.04585 2.83991,-3.79563c1.51021,-1.4328 -0.24036,-3.6408 -0.73918,-5.26873c-0.48432,-1.5806 -0.56888,-3.60395 -0.00713,-5.17869c1.51296,-4.24125 6.24844,-5.20999 9.4423,-7.71984c1.25979,-0.98999 2.21203,-1.99965 3.61898,-2.82872c0,0 1.07826,-0.63234 1.7106,0.44592c0.13732,0.23415 0.19397,0.44729 0.1985,0.63748c4.04328,-0.70762 8.41956,-0.86387 12.35771,-0.91235z" fill="#000000" stroke-width="0.5"/><path d="M214.34932,178.27275c0.21886,0.21388 0.48758,0.28833 0.71639,0.30581c0.25859,0.08812 0.88151,0.22341 1.33084,-0.28673c1.04094,-0.30891 2.16361,-0.54248 3.32368,-0.69726c-3.57038,4.77338 -6.35635,10.23413 -9.76034,15.08664c-2.80632,0.1087 -5.81592,1.56321 -8.39753,2.67748c-3.94184,2.30301 -7.75015,4.76069 -11.69607,7.07474c-0.74647,0.43776 -3.64663,2.6447 -4.63147,2.38796c-0.52158,-0.13597 -3.12412,-4.11971 -3.12946,-4.41302c-0.02047,-1.12332 1.63288,-1.56332 2.29979,-2.46748c3.06183,-3.86686 -1.82996,-7.09837 -0.33711,-11.18573c1.27159,-3.48161 5.93624,-4.50675 8.61213,-6.58478c0.19779,-0.15359 0.38566,-0.30794 0.56653,-0.46087c0.08742,-0.00672 0.14129,-0.01821 0.14129,-0.01821l1.26476,-0.26892c4.49713,-1.18988 9.83946,-1.3619 14.43679,-1.40907c1.81388,-0.01862 3.58084,-0.3493 5.25982,0.25942z" data-paper-data="{&quot;noHover&quot;:false,&quot;origItem&quot;:[&quot;Path&quot;,{&quot;applyMatrix&quot;:true,&quot;segments&quot;:[[[246.38816,181.64959],[1.57409,0.90153],[-3.98957,-2.28496]],[[233.2389,175.55845],[4.4812,1.24856],[0,0]],[232.01305,175.15014],[[231.88207,175.09432],[0.07881,0.03843],[-0.23339,0.04042]],[[231.16106,175.20492],[0.24831,-0.03244],[-3.35945,0.43888]],[[220.41131,176.52227],[2.85813,-2.36001],[-3.35542,2.77062]],[[215.05256,186.33269],[4.59729,-1.78671],[-1.03267,0.44257]],[[211.82239,187.29518],[0.5506,-0.97934],[-0.14377,0.25572]],[[212.29222,192.6804],[-0.38114,-0.38114],[0.71966,0.71966]],[[217.40834,192.91429],[-0.86536,0],[4.57441,0]],[[231.08601,192.7167],[-4.56529,-0.00746],[4.91435,0.60716]],[[243.24897,200.01156],[-0.63954,-6.32878],[0.17067,1.68899]],[[242.05218,204.08647],[1.36786,-1.19984],[-2.10691,1.84811]],[[234.69428,207.71597],[2.48909,-1.04769],[-3.19309,1.34401]],[[225.48635,212.81443],[2.93224,-1.83327],[-0.15836,0.10559]],[[225.01126,213.13122],[0.15836,-0.1056],[-0.24278,0.28301]],[[224.44724,213.5347],[0,0],[-0.03151,0.01181]],[[224.35282,213.57027],[0.03143,-0.0119],[-0.01704,0.01136]],[[224.30171,213.60435],[0.01704,-0.01136],[0,0]],[224.29222,213.64817],[[223.21405,214.02832],[0.60244,0.09558],[-8.88974,3.79146]],[[208.65328,235.45203],[0.02062,-10.02145],[0.62191,3.49714]],[[213.7892,241.9882],[-2.62857,-2.10776],[7.37961,5.91746]],[[241.00833,246.91429],[-8.84268,0],[14.18752,0]],[[282.81656,243.92908],[-14.06714,1.56924],[1.03489,-0.20698]],[[285.9253,243.42716],[-1.03479,0.15502],[-1.3495,-0.4425]],[[282.4389,242.15845],[0.78292,0.24494],[-8.1828,-2.56]],[[257.54607,237.81273],[8.49562,0.85618],[-4.72649,0.00477]],[[243.40833,237.41429],[4.74022,0],[0,0]],[242.00833,237.41429],[[241.8723,237.40352],[0.08351,0.01077],[-0.08386,-0.00761]],[[241.73717,237.38452],[0,0],[-2.76942,-0.62064]],[[233.34689,236.38664],[2.77639,0.53816],[-2.08138,-0.40344]],[[226.61098,233.26231],[1.79505,1.08026],[-3.18723,-1.91807]],[[226.86136,224.56202],[-2.70594,2.07734],[1.80361,-1.38462]],[[233.96992,222.13723],[-2.15521,0.48035],[6.04617,-1.00367]],[[252.03383,218.6626],[-6.03574,0.86454],[0.2499,-0.62892]],[[253.03156,217.92685],[0,0],[2.89798,-0.29451]],[[258.26254,212.06464],[-1.03522,2.35998],[2.56721,-5.85242]],[[263.24166,191.55677],[4.30448,6.34097],[-2.76977,-2.76128]],[[252.53878,185.58522],[3.77024,0.93028],[-0.64566,0.21275]],[[251.24828,185.15979],[0.17848,0.20683],[-0.18853,-0.13082]],[[250.78603,184.53375],[0.0806,0.29521],[-1.14037,-1.37444]]],&quot;closed&quot;:true}]}" fill="#4c4c4c" stroke-width="0.5"/><path d="M212.88628,169.71757c0.63234,1.07826 -0.44593,1.7106 -0.44593,1.7106l-0.33137,0.17977c-0.40934,0.1664 -0.81868,0.33281 -1.22801,0.49921c-1.70243,0.99958 -4.07645,1.41508 -5.63039,2.5463c-0.72355,0.52673 0.5829,1.75769 0.46332,2.64464c-0.12474,0.92524 -0.62941,1.81766 -1.27108,2.49581c-1.33504,1.41095 -4.0678,1.08714 -5.7032,1.97709c-1.19923,0.65259 -0.06116,3.068 -1.11723,4.29357c-1.68104,1.95084 -5.65992,3.08439 -7.80809,4.65347c0,0 -1.00999,0.73649 -1.74648,-0.2735c-0.73649,-1.01 0.2735,-1.74648 0.2735,-1.74648c2.1292,-1.55017 5.5376,-2.51971 7.37386,-4.24983c1.41158,-1.32998 -0.76259,-3.01519 1.51096,-4.66704c1.5905,-1.15559 4.09679,-0.66481 5.51716,-1.82073c1.56295,-1.27196 -1.21622,-2.90596 0.66598,-4.99801c1.28301,-1.42604 4.65103,-2.0932 6.3631,-3.09604c0.46322,-0.19072 0.92643,-0.38145 1.38965,-0.57217l0.01367,-0.02258c0,0 1.07826,-0.63234 1.7106,0.44592z" fill="#fbff00" stroke-width="0.5"/><path d="M226.8189,142.77894c1.90885,1.16589 3.7046,2.01915 5.05619,3.7482l0.3133,0.08846c1.9249,0.55224 3.88525,1.39294 5.73961,2.44715c-1.0975,0.3279 -2.18036,0.70589 -3.25221,1.12076c-1.04665,-0.47461 -2.10337,-0.86526 -3.13341,-1.15271c-0.65179,0.19314 -1.1049,-0.25211 -1.27705,-0.46424c-0.18449,-0.13646 -0.37148,-0.34222 -0.44312,-0.63973c-1.09831,-1.40828 -2.76257,-2.06706 -4.30869,-3.01576l-0.00001,-0.00001c-3.91869,-2.40449 -8.51774,-5.10235 -12.95916,-6.48578l-1.21294,-0.44517c0,0 -0.05163,-0.01895 -0.12924,-0.05975c-0.2345,0.03335 -0.47484,0.06383 -0.72402,0.08875c-3.37118,0.33714 -7.85651,-1.2807 -10.78465,0.99185c-3.43763,2.66794 -1.00362,7.99703 -5.65282,9.64399c-1.04558,0.41116 -2.67784,-0.09784 -3.2578,0.86441c-0.15143,0.25126 -0.06258,5.00449 0.30686,5.39696c0.69758,0.74108 4.24175,0.36226 5.10672,0.38841c4.57233,0.13825 9.11441,0.07046 13.67739,0.21589c2.79919,0.43209 6.15505,0.79976 8.59877,2.22278c-0.80448,0.33918 -1.61328,0.66013 -2.42799,0.95697c0,0 -0.29108,0.10636 -0.58352,0.35204c-0.38072,-0.12563 -0.77886,-0.23134 -1.18949,-0.32107c-1.51311,-0.33067 -3.09793,-0.48041 -4.62847,-0.72138c-5.73618,-0.16297 -13.09965,1.14783 -18.60007,-0.59346c-2.64952,-0.83877 -4.00069,-7.024 -2.24319,-9.41954c0.5104,-0.69569 3.55634,-1.36366 4.42337,-1.70461c2.04087,-0.41048 1.73228,-3.21129 2.1754,-4.85526c0.43024,-1.59617 1.43445,-3.35476 2.74752,-4.38976c3.53647,-2.78758 8.06217,-1.09012 12.10164,-1.51758c1.59334,-0.16861 2.93666,-0.5174 4.56907,-0.47148c0,0 1.24943,0.03778 1.21165,1.28721c-0.0082,0.27132 -0.07355,0.48195 -0.17084,0.64545c3.80061,1.55056 7.59007,3.74512 10.95118,5.79801z" fill="#000000" stroke-width="0.5"/><path d="M229.83025,147.87749c0.07164,0.29752 0.25964,0.50344 0.44413,0.6399c0.17215,0.21213 0.62778,0.65792 1.27957,0.46478c1.04585,0.29186 2.12086,0.69097 3.18565,1.17671c-5.5619,2.14431 -10.82495,5.28783 -16.288,7.58761c-2.43454,-1.40009 -5.75683,-1.76846 -8.53573,-2.19742c-4.56298,-0.14543 -9.09511,-0.08887 -13.66742,-0.22713c-0.86497,-0.02615 -4.49464,0.30092 -5.19222,-0.44017c-0.36945,-0.39248 -0.45541,-5.15022 -0.30398,-5.40147c0.57995,-0.96225 2.21415,-0.45579 3.25973,-0.86695c4.64919,-1.64694 2.22442,-6.98481 5.66206,-9.65275c2.92816,-2.27255 7.42384,-0.66053 10.79503,-0.99768c0.24918,-0.02492 0.49035,-0.05575 0.72485,-0.08909c0.07762,0.0408 0.12935,0.05971 0.12935,0.05971l1.21415,0.44473c4.44142,1.38343 9.05743,4.0783 12.97612,6.4828c1.54612,0.94869 3.21844,1.60814 4.31674,3.01641z" data-paper-data="{&quot;noHover&quot;:false,&quot;origItem&quot;:[&quot;Path&quot;,{&quot;applyMatrix&quot;:true,&quot;segments&quot;:[[[246.38816,181.64959],[1.57409,0.90153],[-3.98957,-2.28496]],[[233.2389,175.55845],[4.4812,1.24856],[0,0]],[232.01305,175.15014],[[231.88207,175.09432],[0.07881,0.03843],[-0.23339,0.04042]],[[231.16106,175.20492],[0.24831,-0.03244],[-3.35945,0.43888]],[[220.41131,176.52227],[2.85813,-2.36001],[-3.35542,2.77062]],[[215.05256,186.33269],[4.59729,-1.78671],[-1.03267,0.44257]],[[211.82239,187.29518],[0.5506,-0.97934],[-0.14377,0.25572]],[[212.29222,192.6804],[-0.38114,-0.38114],[0.71966,0.71966]],[[217.40834,192.91429],[-0.86536,0],[4.57441,0]],[[231.08601,192.7167],[-4.56529,-0.00746],[4.91435,0.60716]],[[243.24897,200.01156],[-0.63954,-6.32878],[0.17067,1.68899]],[[242.05218,204.08647],[1.36786,-1.19984],[-2.10691,1.84811]],[[234.69428,207.71597],[2.48909,-1.04769],[-3.19309,1.34401]],[[225.48635,212.81443],[2.93224,-1.83327],[-0.15836,0.10559]],[[225.01126,213.13122],[0.15836,-0.1056],[-0.24278,0.28301]],[[224.44724,213.5347],[0,0],[-0.03151,0.01181]],[[224.35282,213.57027],[0.03143,-0.0119],[-0.01704,0.01136]],[[224.30171,213.60435],[0.01704,-0.01136],[0,0]],[224.29222,213.64817],[[223.21405,214.02832],[0.60244,0.09558],[-8.88974,3.79146]],[[208.65328,235.45203],[0.02062,-10.02145],[0.62191,3.49714]],[[213.7892,241.9882],[-2.62857,-2.10776],[7.37961,5.91746]],[[241.00833,246.91429],[-8.84268,0],[14.18752,0]],[[282.81656,243.92908],[-14.06714,1.56924],[1.03489,-0.20698]],[[285.9253,243.42716],[-1.03479,0.15502],[-1.3495,-0.4425]],[[282.4389,242.15845],[0.78292,0.24494],[-8.1828,-2.56]],[[257.54607,237.81273],[8.49562,0.85618],[-4.72649,0.00477]],[[243.40833,237.41429],[4.74022,0],[0,0]],[242.00833,237.41429],[[241.8723,237.40352],[0.08351,0.01077],[-0.08386,-0.00761]],[[241.73717,237.38452],[0,0],[-2.76942,-0.62064]],[[233.34689,236.38664],[2.77639,0.53816],[-2.08138,-0.40344]],[[226.61098,233.26231],[1.79505,1.08026],[-3.18723,-1.91807]],[[226.86136,224.56202],[-2.70594,2.07734],[1.80361,-1.38462]],[[233.96992,222.13723],[-2.15521,0.48035],[6.04617,-1.00367]],[[252.03383,218.6626],[-6.03574,0.86454],[0.2499,-0.62892]],[[253.03156,217.92685],[0,0],[2.89798,-0.29451]],[[258.26254,212.06464],[-1.03522,2.35998],[2.56721,-5.85242]],[[263.24166,191.55677],[4.30448,6.34097],[-2.76977,-2.76128]],[[252.53878,185.58522],[3.77024,0.93028],[-0.64566,0.21275]],[[251.24828,185.15979],[0.17848,0.20683],[-0.18853,-0.13082]],[[250.78603,184.53375],[0.0806,0.29521],[-1.14037,-1.37444]]],&quot;closed&quot;:true}]}" fill="#4c4c4c" stroke-width="0.5"/><path d="M233.14002,139.85396c-0.03778,1.24943 -1.28722,1.21165 -1.28722,1.21165l-0.37622,-0.02394c-0.43516,-0.07672 -0.87033,-0.15343 -1.30548,-0.23015c-1.97332,-0.05863 -4.20487,-0.96902 -6.12243,-0.8372c-0.89286,0.06139 -0.4409,1.79857 -1.01378,2.48617c-0.5976,0.71729 -1.49953,1.20476 -2.40356,1.43792c-1.88089,0.48512 -4.02317,-1.24216 -5.88143,-1.358c-1.36265,-0.08495 -1.68308,2.56585 -3.22914,3.0423c-2.46099,0.7584 -6.43354,-0.39718 -9.08717,-0.21049c0,0 -1.24699,0.08673 -1.33372,-1.16026c-0.08673,-1.24699 1.16026,-1.33372 1.16026,-1.33372c2.62751,-0.18077 6.02969,0.81038 8.50479,0.32145c1.90267,-0.37584 0.95735,-2.95911 3.76119,-3.14924c1.96148,-0.13302 3.82316,1.61526 5.64073,1.3915c2.00002,-0.24623 0.51507,-3.10781 3.22152,-3.87884c1.84485,-0.52556 5.05205,0.70021 7.03528,0.7612c0.49373,0.08477 0.98744,0.16954 1.48116,0.25431l0.02359,-0.01185c0,0 1.24943,0.03778 1.21165,1.28721z" fill="#fbff00" stroke-width="0.5"/><path d="M273.78577,146.20657c0.17796,2.22965 0.54245,4.18412 -0.06269,6.29366l0.11247,0.3055c0.68397,1.88213 1.15535,3.9624 1.39167,6.08235c-0.91012,-0.69548 -1.85218,-1.34971 -2.8176,-1.97334c-0.23083,-1.12581 -0.53552,-2.21044 -0.90805,-3.21285c-0.53922,-0.41398 -0.4451,-1.04223 -0.37458,-1.30616c0.00204,-0.22946 0.05869,-0.50166 0.25736,-0.73442c0.49437,-1.71614 0.04974,-3.44994 -0.09088,-5.25846v-0.00001c-0.3564,-4.58374 -0.87512,-9.8904 -2.3649,-14.29728l-0.35235,-1.24309c0,0 -0.01499,-0.05291 -0.02757,-0.13969c-0.16476,-0.17018 -0.33062,-0.34675 -0.49718,-0.53375c-2.25337,-2.52999 -3.57925,-7.11013 -7.13853,-8.14456c-4.17856,-1.21444 -7.06105,3.88603 -11.12518,1.09134c-0.94699,-0.60456 -1.49403,-2.22447 -2.61344,-2.12847c-0.29229,0.02507 -4.08655,2.88945 -4.18711,3.41899c-0.18988,0.99989 2.19885,3.64537 2.68585,4.3607c2.57432,3.78128 5.29763,7.41705 7.86065,11.19499c1.29484,2.51904 2.96886,5.4507 3.25297,8.26425c-0.7471,-0.45174 -1.48199,-0.91768 -2.20084,-1.40258c0,0 -0.25708,-0.17308 -0.62769,-0.26539c-0.12201,-0.38189 -0.27036,-0.76619 -0.43899,-1.1512c-0.62136,-1.41872 -1.43124,-2.78917 -2.13542,-4.1693c-3.23808,-4.73763 -8.6248,-9.9263 -10.44715,-15.4004c-0.87781,-2.63684 3.33366,-7.36402 6.30471,-7.34916c0.86283,0.00432 3.19284,2.07676 3.97812,2.57808c1.53117,1.41038 3.61638,-0.48479 5.20705,-1.09202c1.54444,-0.58957 3.5575,-0.8101 5.16647,-0.35557c4.33344,1.22414 5.61863,5.88371 8.33769,8.90145c1.07252,1.19033 2.14396,2.07247 3.06582,3.42044c0,0 0.70346,1.03328 -0.32981,1.73673c-0.22438,0.15276 -0.43322,0.22363 -0.62268,0.24095c0.97807,3.98651 1.42844,8.34235 1.7418,12.26832z" fill="#000000" stroke-width="0.5"/><path d="M271.42902,151.6388c-0.19867,0.23276 -0.25487,0.50588 -0.25691,0.73534c-0.07052,0.26394 -0.16359,0.89454 0.37563,1.30852c0.37824,1.0178 0.68684,2.12221 0.91931,3.26923c-5.00281,-3.2411 -10.63864,-5.65331 -15.70919,-8.72308c-0.29728,-2.79264 -1.951,-5.69756 -3.23646,-8.19834c-2.56302,-3.77794 -5.27138,-7.41225 -7.8457,-11.19352c-0.487,-0.71533 -2.88407,-3.46041 -2.69419,-4.4603c0.10056,-0.52954 3.90016,-3.39424 4.19244,-3.41931c1.11939,-0.09601 1.66964,1.52398 2.61663,2.12855c4.06412,2.7947 6.95915,-2.30344 11.1377,-1.089c3.55928,1.03445 4.89596,5.61954 7.14934,8.14954c0.16656,0.187 0.33319,0.36406 0.49794,0.53423c0.01258,0.08677 0.02768,0.13975 0.02768,0.13975l0.35341,1.2438c1.48978,4.40688 2.02088,9.72552 2.37729,14.30926c0.14063,1.80852 0.58945,3.54923 0.09509,5.26536z" data-paper-data="{&quot;noHover&quot;:false,&quot;origItem&quot;:[&quot;Path&quot;,{&quot;applyMatrix&quot;:true,&quot;segments&quot;:[[[246.38816,181.64959],[1.57409,0.90153],[-3.98957,-2.28496]],[[233.2389,175.55845],[4.4812,1.24856],[0,0]],[232.01305,175.15014],[[231.88207,175.09432],[0.07881,0.03843],[-0.23339,0.04042]],[[231.16106,175.20492],[0.24831,-0.03244],[-3.35945,0.43888]],[[220.41131,176.52227],[2.85813,-2.36001],[-3.35542,2.77062]],[[215.05256,186.33269],[4.59729,-1.78671],[-1.03267,0.44257]],[[211.82239,187.29518],[0.5506,-0.97934],[-0.14377,0.25572]],[[212.29222,192.6804],[-0.38114,-0.38114],[0.71966,0.71966]],[[217.40834,192.91429],[-0.86536,0],[4.57441,0]],[[231.08601,192.7167],[-4.56529,-0.00746],[4.91435,0.60716]],[[243.24897,200.01156],[-0.63954,-6.32878],[0.17067,1.68899]],[[242.05218,204.08647],[1.36786,-1.19984],[-2.10691,1.84811]],[[234.69428,207.71597],[2.48909,-1.04769],[-3.19309,1.34401]],[[225.48635,212.81443],[2.93224,-1.83327],[-0.15836,0.10559]],[[225.01126,213.13122],[0.15836,-0.1056],[-0.24278,0.28301]],[[224.44724,213.5347],[0,0],[-0.03151,0.01181]],[[224.35282,213.57027],[0.03143,-0.0119],[-0.01704,0.01136]],[[224.30171,213.60435],[0.01704,-0.01136],[0,0]],[224.29222,213.64817],[[223.21405,214.02832],[0.60244,0.09558],[-8.88974,3.79146]],[[208.65328,235.45203],[0.02062,-10.02145],[0.62191,3.49714]],[[213.7892,241.9882],[-2.62857,-2.10776],[7.37961,5.91746]],[[241.00833,246.91429],[-8.84268,0],[14.18752,0]],[[282.81656,243.92908],[-14.06714,1.56924],[1.03489,-0.20698]],[[285.9253,243.42716],[-1.03479,0.15502],[-1.3495,-0.4425]],[[282.4389,242.15845],[0.78292,0.24494],[-8.1828,-2.56]],[[257.54607,237.81273],[8.49562,0.85618],[-4.72649,0.00477]],[[243.40833,237.41429],[4.74022,0],[0,0]],[242.00833,237.41429],[[241.8723,237.40352],[0.08351,0.01077],[-0.08386,-0.00761]],[[241.73717,237.38452],[0,0],[-2.76942,-0.62064]],[[233.34689,236.38664],[2.77639,0.53816],[-2.08138,-0.40344]],[[226.61098,233.26231],[1.79505,1.08026],[-3.18723,-1.91807]],[[226.86136,224.56202],[-2.70594,2.07734],[1.80361,-1.38462]],[[233.96992,222.13723],[-2.15521,0.48035],[6.04617,-1.00367]],[[252.03383,218.6626],[-6.03574,0.86454],[0.2499,-0.62892]],[[253.03156,217.92685],[0,0],[2.89798,-0.29451]],[[258.26254,212.06464],[-1.03522,2.35998],[2.56721,-5.85242]],[[263.24166,191.55677],[4.30448,6.34097],[-2.76977,-2.76128]],[[252.53878,185.58522],[3.77024,0.93028],[-0.64566,0.21275]],[[251.24828,185.15979],[0.17848,0.20683],[-0.18853,-0.13082]],[[250.78603,184.53375],[0.0806,0.29521],[-1.14037,-1.37444]]],&quot;closed&quot;:true}]}" fill="#4c4c4c" stroke-width="0.5"/><path d="M279.86636,149.60342c-1.03328,0.70345 -1.73673,-0.32982 -1.73673,-0.32982l-0.20166,-0.31851c-0.19357,-0.39721 -0.38714,-0.79443 -0.58071,-1.19164c-1.11187,-1.63132 -1.68617,-3.972 -2.91939,-5.4463c-0.57422,-0.68647 -1.71448,0.69985 -2.60747,0.64022c-0.93153,-0.0622 -1.85589,-0.50568 -2.57568,-1.10027c-1.49759,-1.23707 -1.35838,-3.98543 -2.35635,-5.55724c-0.73181,-1.1526 -3.06517,0.14542 -4.35902,-0.82579c-2.05953,-1.54596 -3.45824,-5.43954 -5.1683,-7.47727c0,0 -0.80278,-0.95815 0.15537,-1.76093c0.95815,-0.80278 1.76093,0.15537 1.76093,0.15537c1.68993,2.02006 2.88661,5.3555 4.73636,7.07118c1.42194,1.31889 2.95704,-0.96374 4.75813,1.19351c1.25999,1.50914 0.93896,4.04277 2.18784,5.38214c1.37425,1.47383 2.81753,-1.409 5.03148,0.32817c1.50914,1.18415 2.40141,4.49965 3.51718,6.14036c0.22146,0.44933 0.44292,0.89866 0.66438,1.348l0.02345,0.01212c0,0 0.70346,1.03328 -0.32981,1.73673z" fill="#fbff00" stroke-width="0.5"/><path d="M219.2153,176.55902c-0.55901,-1.11803 0.55901,-1.67705 0.55901,-1.67705l0.10765,0.22568c0.7341,-1.23313 0.20624,-1.97476 0.20137,-3.44099c-0.01513,-4.55431 -1.72692,-9.54248 -4.96722,-12.78278c0,0 -0.88388,-0.88388 0,-1.76777c0.88388,-0.88388 1.76777,0 1.76777,0c4.08893,4.08893 7.75744,13.50928 5.23415,19.10957l-1.22568,0.89235c0,0 -1.11803,0.55901 -1.67705,-0.55902z" fill="#000000" stroke-width="0.5"/><path d="M220.58334,183.66667c0,1.25 -1.25,1.25 -1.25,1.25l-0.3635,-0.03732c-1.63383,0.39783 -3.00279,0.37001 -4.68264,0.33721c-3.84918,1.92459 -8.91461,1.83971 -13.13446,2.35741c-4.18381,0.51328 -8.12649,2.29127 -12.1829,3.30537c0,0 -1.21267,0.30317 -1.51584,-0.90951c-0.30317,-1.21268 0.9095,-1.51584 0.9095,-1.51584c4.16389,-1.04098 8.18777,-2.8152 12.48378,-3.36129c4.15381,-0.52802 9.07449,-0.41374 12.86554,-2.30926c1.65259,-0.02416 3.07127,0.07829 4.65069,-0.32945l0.96984,-0.03733c0,0 1.25,0 1.25,1.25z" fill="#ff0000" stroke-width="0.5"/><path d="M255.55055,145.11612c0.88389,0.88388 0,1.76777 0,1.76777l-0.93956,0.93511c-1.35751,1.80512 -2.1866,3.99578 -4.4341,4.9888c-2.17286,0.96004 -7.52063,0.96483 -9.7974,0.40876c-2.8418,-0.69407 -4.60206,-3.07504 -7.17705,-4.05596c0,0 -1.1606,-0.46424 -0.69636,-1.62483c0.46424,-1.1606 1.62484,-0.69636 1.62484,-0.69636c2.45439,1.01745 4.17631,3.25988 6.82295,3.94404c1.22713,0.31722 3.11057,-0.03344 4.37948,-0.03344c1.13413,0 2.74886,0.25749 3.82312,-0.22447c1.72368,-0.7733 2.51892,-2.94559 3.5659,-4.34453l1.06043,-1.06489c0,0 0.88388,-0.88388 1.76776,0z" fill="#000000" stroke-width="0.5"/><path d="M188.1007,190.5129c-0.34923,-0.59551 -0.14958,-1.36137 0.44593,-1.7106c0.59551,-0.34923 1.36137,-0.14958 1.7106,0.44593c0.34923,0.59551 0.14958,1.36137 -0.44593,1.7106c-0.59551,0.34923 -1.36137,0.14958 -1.7106,-0.44593z" fill="#000000" stroke-width="0.5"/><path d="M226.89235,160.7847c-1.11803,0.55901 -1.67705,-0.55901 -1.67705,-0.55901l-0.2153,-0.47568c-0.35444,-0.47539 -0.70887,-0.95078 -1.06331,-1.42617c-3.66653,-7.48032 -13.97461,-12.12251 -21.80885,-13.42417c0,0 -1.233,-0.2055 -1.0275,-1.43849c0.2055,-1.23299 1.43849,-1.0275 1.43849,-1.0275c8.58163,1.4345 19.41469,6.4986 23.52449,14.57583c0.31223,0.4135 0.62446,0.827 0.93669,1.2405l0.45137,0.85765c0,0 0.55902,1.11803 -0.55902,1.67705z" fill="#ff0000" stroke-width="0.5"/><path d="M201.09138,144.28736c0.02086,-0.69004 0.59716,-1.23251 1.28721,-1.21165c0.69004,0.02086 1.23252,0.59716 1.21165,1.28721c-0.02086,0.69004 -0.59716,1.23251 -1.28721,1.21165c-0.69004,-0.02086 -1.23252,-0.59716 -1.21165,-1.28721z" fill="#000000" stroke-width="0.5"/><path d="M262,155.25c-1.25,0 -1.25,-1.25 -1.25,-1.25l0.00937,-1.48606c1.42032,-5.68127 -0.60608,-11.77033 -1.97204,-17.21077c-0.66188,-2.63619 -1.00898,-5.66857 -2.23869,-8.07748c0,0 -0.55902,-1.11803 0.55901,-1.67705c1.11804,-0.55902 1.67705,0.55902 1.67705,0.55902c1.28917,2.62194 1.72001,5.74426 2.42798,8.58918c1.42389,5.72174 3.52046,12.15255 2.02796,18.12256l0.00937,1.18061c0,0 0,1.25 -1.25,1.25z" fill="#ff0000" stroke-width="0.5"/><path d="M257.45041,126.27327c0.57066,-0.38851 1.34822,-0.24085 1.73673,0.32981c0.38851,0.57066 0.24085,1.34822 -0.32981,1.73673c-0.57066,0.38851 -1.34822,0.24085 -1.73673,-0.32981c-0.38851,-0.57066 -0.24084,-1.34822 0.32981,-1.73673z" fill="#000000" stroke-width="0.5"/><path d="M252.24953,176.35211c-0.0061,0.15597 -0.09019,1.23123 -1.24953,1.23123c-1.25,0 -1.25,-1.25 -1.25,-1.25l0.17813,-0.97646c1.33919,-2.23108 2.93051,-4.08618 4.39114,-6.08777c1.50658,-2.06455 3.76679,-2.98671 4.87292,-5.44599c1.50745,-3.35153 0.36734,-7.87801 1.26179,-11.45962c0,0 0.30317,-1.21267 1.51585,-0.9095c1.21268,0.30317 0.90951,1.51584 0.90951,1.51584c-0.95459,3.81409 0.19452,8.24135 -1.40488,11.87371c-1.16429,2.6442 -3.60079,3.69694 -5.12708,5.88734c-1.34018,1.92331 -2.82172,3.5667 -4.09786,5.62122z" fill="#ff9400" stroke-width="0.5"/><path d="M242.55055,176.55055c-0.88388,0.88388 -1.76776,0 -1.76776,0l-0.56748,-0.6582c-1.47029,-2.94059 -3.24128,-6.17458 -5.70097,-8.28136c-3.23141,-2.76779 -7.67486,-4.6739 -9.91953,-8.3012c0,0 -0.64312,-1.07187 0.42875,-1.71499c1.07187,-0.64312 1.71499,0.42875 1.71499,0.42875c1.8938,3.29092 6.50971,5.20798 9.4138,7.6988c2.70164,2.31718 4.69509,5.84409 6.29903,9.05196l0.09918,0.00847c0,0 0.88388,0.88388 0,1.76776z" fill="#ff9400" stroke-width="0.5"/><path d="M240.58334,182.33334c0,1.25 -1.25,1.25 -1.25,1.25h-0.66667c-6.83966,0 -14.0471,-0.03494 -20.69683,1.62935c0,0 -1.21267,0.30317 -1.51584,-0.90951c-0.30317,-1.21268 0.9095,-1.51585 0.9095,-1.51585c6.84931,-1.7105 14.2603,-1.70398 21.30317,-1.70398h0.66667c0,0 1.25,0 1.25,1.25z" fill="#ff9400" stroke-width="0.5"/><path d="M244.11612,184.21722l-0.00847,-0.09918c-2.28902,-1.16032 -3.66644,-0.55008 -6.10765,-0.5347c0,0 -1.25,0 -1.25,-1.25c0,-1.25 1.25,-1.25 1.25,-1.25c1.96312,0.01558 3.39789,-0.25417 5.01072,0.04307c-0.896,-1.85744 -1.76878,-3.73165 -3.01072,-5.37641c0,0 -0.75,-1 0.25,-1.75c1,-0.75 1.75,0.25 1.75,0.25c1.42142,1.90648 2.40634,4.05131 3.45005,6.18091c1.10223,-2.30904 3.26292,-4.56984 4.79995,-5.76425c0,0 1,-0.75 1.75,0.25c0.75,1 -0.25,1.75 -0.25,1.75c-1.38594,0.98791 -4.77384,4.54543 -4.50523,6.55239c0.13816,1.0323 0.74734,1.95014 0.99587,2.96156l0.00937,1.48606c0,0 0,1.25 -1.25,1.25c-1.25,0 -1.25,-1.25 -1.25,-1.25l0.00937,-1.1806c-0.16485,-0.64372 -0.48132,-1.25189 -0.71688,-1.87605c-0.52865,0.00492 -0.92637,-0.39279 -0.92637,-0.39279z" fill="#ffdf00" stroke-width="0.5"/><path d="M251.02671,197.3734c-1.04006,0.69338 -1.73344,-0.34669 -1.73344,-0.34669l-0.83928,-1.39021c-0.70492,-2.89373 -2.64127,-5.26353 -2.70399,-8.30317c0,0 0,-1.25 1.25,-1.25c1.25,0 1.25,1.25 1.25,1.25c-0.08396,2.62663 1.9804,5.15451 2.62934,7.69683l0.49405,0.60979c0,0 0.69338,1.04006 -0.34669,1.73344z" fill="#ffdf00" stroke-width="0.5"/></g></g></svg>