<svg version="1.1" xmlns="http://www.w3.org/2000/svg" xmlns:xlink="http://www.w3.org/1999/xlink" width="140.72895" height="187.90117" viewBox="0,0,140.72895,187.90117"><g transform="translate(-196.55833,-117.91428)"><g data-paper-data="{&quot;isPaintingLayer&quot;:true}" fill-rule="nonzero" stroke="none" stroke-width="0.5" stroke-linecap="butt" stroke-linejoin="miter" stroke-miterlimit="10" stroke-dasharray="" stroke-dashoffset="0" style="mix-blend-mode: normal"><path d="M248.69222,181.04817l-0.2,0.2c-5.90658,5.90658 -12.06749,13.07907 -19.43313,17.18337c-8.09909,5.39939 -19.75432,11.06104 -29.77459,8.52348l-0.0312,0.24961l-1.58355,-0.19795c-0.62514,-0.06895 -1.1114,-0.59889 -1.1114,-1.2424c0,-0.44076 0.22813,-0.82825 0.57276,-1.05081l1.18387,-0.78924l0.01433,0.0215l0.05164,-0.06258c4.59709,-2.30462 10.15619,-4.22016 14.25815,-7.30412c2.41803,-1.81794 4.32169,-4.293 7.22133,-5.34676c5.02865,-3.2884 10.20087,-6.07807 15.26992,-9.31813c2.43873,-1.5588 4.33453,-4.02811 6.96419,-5.24327c-1.45122,-2.57316 -1.24218,-5.9649 -0.9364,-8.77119c-0.54204,0.42535 -1.10326,0.78916 -1.68489,1.02493c-5.03336,2.04036 -10.82104,-4.24072 -10.30984,-9.07259c0.20748,-1.96114 0.8494,-1.92679 2.19563,-3.2049c2.07349,-1.96856 4.11892,-4.28671 6.49451,-5.87923c6.56452,-5.60664 15.6269,-5.25362 23.75481,-5.25362c4.11156,0 8.12983,-0.15327 12.14948,0.84985c3.05793,1.01931 7.15791,1.41184 8.78918,4.68445c1.91299,3.8378 -1.39027,8.48728 -4.60198,10.85332c-0.15666,0.28986 -0.38668,0.46238 -0.38668,0.46238l-0.76914,0.57609c-0.10043,0.08034 -0.19952,0.15835 -0.29752,0.23415c0.40524,5.14937 -3.19265,7.99536 -7.21407,10.49219c3.26333,0.9681 6.7754,2.75321 7.89841,5.65145c1.9135,4.93837 -1.14391,11.18555 -4.28726,14.73345c-3.18413,2.76783 -7.6778,3.13572 -10.26637,6.64356c-4.21128,5.70681 0.40918,11.06788 4.93295,14.13072c1.02109,-0.30487 2.11747,-0.53277 3.27622,-0.69905c0,0 1.05617,-0.15088 1.3564,0.80189c6.857,0.11583 13.28269,0.97148 19.5794,4.11751c2.17404,1.08785 6.35542,1.96948 7.72212,4.09063c1.96035,3.04251 -0.60119,7.7093 -3.39052,8.9771c-1.89742,0.86241 -4.49435,0.5003 -6.49061,0.5003c-1.08957,0 -2.19522,0.02279 -3.30962,0.05165c0.54371,3.08925 0.23041,6.12663 0.35882,9.25379c0.34685,8.4472 1.2008,16.7513 1.2008,25.24456c0,4.90855 0.40071,9.81131 0.39686,14.68861l-0.20942,1.48817c0,0 -0.17678,1.23744 -1.41422,1.06066c-1.23744,-0.17678 -1.06066,-1.41422 -1.06066,-1.41422l0.19058,-1.31183c-0.00477,-4.8167 -0.40314,-9.66262 -0.40314,-14.51139c0,-8.46508 -0.84659,-16.73591 -1.19921,-25.15544c-0.12977,-3.09858 0.24496,-6.14249 -0.37653,-9.19942c0,0 -0.0055,-0.02753 -0.01074,-0.07517c-2.32559,0.05907 -4.66508,0.09025 -6.95348,-0.05477c-0.16645,3.05 -0.80129,6.12093 -0.96319,9.1734c-0.36251,6.83464 -0.19685,13.87439 -0.19685,20.71139c0,0.46666 0,0.93334 0,1.4v0.2c0,0 0,0.37086 -0.202,0.70857c-0.02087,5.90422 -0.198,11.79128 -0.198,17.69143v0.2c0,0 0,1.25 -1.25,1.25c-1.25,0 -1.25,-1.25 -1.25,-1.25v-0.2c0,-6.26956 0.2,-12.52384 0.2,-18.8c0,0 0,-0.3684 0.2,-0.70521c0,-0.17663 0,-0.34589 0,-0.49479c0,-6.8983 -0.15712,-13.99237 0.20314,-20.88861c0.16008,-3.0643 0.84471,-6.1707 0.97546,-9.2325c-0.10195,-0.01334 -0.20375,-0.02715 -0.30539,-0.04145c-2.19356,-0.31588 -4.15514,-1.14378 -6.29138,-1.61654c-2.36169,-0.52265 -5.96677,-0.41121 -7.56509,-2.71741c-0.6268,-0.9044 -0.7034,-2.6502 -0.59251,-3.73719c0.43094,-4.22418 2.34448,-6.82944 5.24899,-8.39877c-5.0917,-3.98639 -8.88669,-10.32848 -4.23728,-16.69842c2.76971,-3.79465 7.23121,-4.04295 10.53363,-6.95645c2.5028,-2.80468 5.22079,-8.09411 3.71275,-12.06654c-1.03108,-2.71603 -5.77028,-4.23325 -8.58805,-4.71489c-0.50473,0.30758 -1.00205,0.61733 -1.48485,0.93314c-0.27023,0.75492 -0.6231,1.47037 -1.22698,2.1681c-0.83531,0.96514 -2.88724,1.9144 -4.04525,2.18407c-2.7807,0.64754 -6.98533,0.81434 -10.62413,0.03352c-0.09214,0.14676 -0.17917,0.2338 -0.17917,0.2338zM214.1776,198.54955c-3.25987,2.43953 -7.34999,4.1806 -11.21988,5.93301c1.70942,0.10488 3.54622,0.41085 4.67723,0.24382c7.16518,-1.0582 14.05502,-4.38426 20.12263,-8.42934c6.96347,-3.85648 12.84919,-10.63851 18.43938,-16.28635c-0.89725,-0.36357 -1.71027,-0.81044 -2.39574,-1.35078c-0.11469,0.06259 -0.19761,0.09024 -0.19761,0.09024c-2.66726,0.81507 -4.76723,3.74566 -7.11728,5.26429c-5.29261,3.42016 -10.73554,6.28805 -15.98463,9.78992l-0.0095,0.04382c0,0 -0.50899,0.50899 -1.14073,0.36822c-1.90339,1.13132 -3.4296,3.02781 -5.17388,4.33315zM271.95782,165.56444c-4.5176,1.12017 -10.21175,4.78317 -14.85028,1.83494c-1.03796,-0.65973 -2.95153,-2.39848 -3.44645,-3.53875c-0.69124,-1.59256 -0.49459,-3.02202 -0.93407,-4.44476c-4.55416,1.16627 -8.40337,3.77818 -9.07864,8.70585c-0.28467,2.5384 -0.75745,6.36158 1.41618,8.33186c2.89906,2.62784 8.15052,2.18966 11.69183,2.06179c1.5861,-0.05727 3.77429,-0.22695 4.9195,-1.58357c0.04978,-0.05898 0.09745,-0.12007 0.14316,-0.18306c-0.0636,-0.08973 -0.12147,-0.19561 -0.17131,-0.32021c-0.46424,-1.1606 0.69636,-1.62484 0.69636,-1.62484l0.36905,-0.13379c0.1059,-0.36996 0.19977,-0.73322 0.29791,-1.0648c0,0 0.34554,-1.15181 1.48852,-0.85706c0.29989,-0.06028 0.5539,-0.00948 0.5539,-0.00948l0.78322,0.15829c3.60012,-2.03899 7.72201,-4.31458 8.19178,-8.16061c-0.62439,0.30537 -1.29291,0.56955 -2.07066,0.82819zM252.02747,155.9882c0.97609,-0.78087 1.75696,0.19521 1.75696,0.19521c2.51007,3.16948 1.24157,6.64467 4.7247,9.14578c3.39669,2.43904 9.45038,-1.33389 12.74973,-2.16506c1.6741,-0.55944 2.588,-1.07144 3.96862,-2.17593l0.287,-0.21552c-0.00102,-0.08724 -0.00414,-0.17459 -0.00935,-0.2619c2.40774,-1.34282 6.31466,-5.34833 4.76456,-8.4308c-1.16027,-2.30728 -5.07756,-2.60446 -7.21082,-3.31555c-3.77353,-0.94531 -7.58979,-0.75015 -11.45051,-0.75015c-7.54098,0 -16.15479,-0.49355 -22.2452,4.74638c-2.32756,1.54253 -4.25194,3.82639 -6.30549,5.72078c-0.56483,0.52105 -1.39326,0.73002 -1.40437,1.59511c-0.03582,2.78853 3.45171,8.14733 6.89015,6.52741c1.48609,-0.70013 2.81584,-2.32967 4.05141,-3.38874c0,0 0.13706,-0.11749 0.35166,-0.21107c1.91387,-2.93833 5.0661,-4.78415 8.6251,-5.81054c-0.08377,-0.34616 -0.04859,-0.80185 0.45586,-1.2054zM268.70052,217.0616c-2.86716,0.69441 -5.4568,2.04903 -6.28634,5.23198c-0.17114,0.65667 -0.77855,3.48987 -0.1726,4.36721c0.61083,0.88441 3.52361,1.34753 4.18786,1.47321c2.6691,0.505 5.25099,1.40986 7.95567,1.79286c5.91355,0.85912 13.3724,0.7839 19.28683,0.1949c2.18944,-0.21804 5.24349,-3.24726 3.65526,-5.73005c-0.91442,-1.42946 -5.18692,-2.36444 -6.67788,-3.10937c-6.48538,-3.24518 -13.10333,-3.86803 -20.24098,-3.86803h-0.8c0,0 -0.53773,0 -0.90782,-0.35269z" fill="#000000"/><path d="M219.30638,194.23796c0.63173,0.14077 1.14151,-0.36667 1.14151,-0.36667l0.00932,-0.04415c5.2491,-3.50187 10.69455,-6.36539 15.98716,-9.78555c2.35004,-1.51863 4.53332,-4.50454 7.20057,-5.31961c0,0 0.08297,-0.02758 0.19765,-0.09017c0.68546,0.54034 1.5011,0.9915 2.39835,1.35507c-5.59019,5.64784 -11.49136,12.49475 -18.45483,16.35123c-6.06761,4.04507 -13.02563,7.36052 -20.19081,8.41872c-1.13101,0.16703 -2.97121,-0.14396 -4.68063,-0.24884c3.8699,-1.75241 7.96128,-3.49145 11.22115,-5.93098c1.74428,-1.30534 3.26717,-3.20771 5.17057,-4.33903z" data-paper-data="{&quot;noHover&quot;:false,&quot;origItem&quot;:[&quot;Path&quot;,{&quot;applyMatrix&quot;:true,&quot;segments&quot;:[[[214.1776,198.54955],[1.74428,-1.30534],[-3.25987,2.43953]],[[202.95772,204.48256],[3.8699,-1.75241],[1.70942,0.10488]],[[207.63496,204.72637],[-1.13101,0.16703],[7.16518,-1.0582]],[[227.75759,196.29704],[-6.06761,4.04507],[6.96347,-3.85648]],[[246.19697,180.01068],[-5.59019,5.64784],[-0.89725,-0.36357]],[[243.80123,178.6599],[0.68546,0.54034],[-0.11469,0.06259]],[[243.60362,178.75014],[0,0],[-2.66726,0.81507]],[[236.48635,184.01443],[2.35004,-1.51863],[-5.29261,3.42016]],[[220.50171,193.80435],[5.2491,-3.50187],[0,0]],[220.49222,193.84817],[[219.35149,194.2164],[0.63173,0.14077],[-1.90339,1.13132]]],&quot;closed&quot;:true}]}" fill="#e6e6e6"/><path d="M251.62153,157.19641c-3.559,1.02639 -6.71506,2.85 -8.62894,5.78833c-0.2146,0.09358 -0.35174,0.21089 -0.35174,0.21089c-1.23557,1.05908 -2.65569,2.73127 -4.14177,3.4314c-3.43844,1.61992 -6.93133,-3.75662 -6.89551,-6.54515c0.01111,-0.86509 0.8393,-1.07715 1.40413,-1.59821c2.05355,-1.89438 3.97973,-4.19393 6.30729,-5.73647c6.09041,-5.23992 14.77745,-4.77617 22.31843,-4.77617c3.86073,0 7.69639,-0.17474 11.46992,0.77057c2.13326,0.71109 6.05487,1.02025 7.21514,3.32752c1.5501,3.08247 -2.35624,7.10666 -4.76398,8.44947c0.00521,0.0873 0.00823,0.1753 0.00925,0.26254l-0.28712,0.21618c-1.38061,1.10449 -2.29691,1.62506 -3.97101,2.1845c-3.29935,0.83118 -9.3854,4.63431 -12.78209,2.19527c-3.48313,-2.50111 -2.27306,-6.04789 -4.78314,-9.21736c0,0 -0.68973,-0.93563 -1.66582,-0.15476c-0.50445,0.40356 -0.53682,0.8453 -0.45305,1.19146z" data-paper-data="{&quot;noHover&quot;:false,&quot;origItem&quot;:[&quot;Path&quot;,{&quot;applyMatrix&quot;:true,&quot;segments&quot;:[[[252.02747,155.9882],[-0.50445,0.40356],[0.97609,-0.78087]],[[253.78442,156.18342],[0,0],[2.51007,3.16948]],[[258.50912,165.3292],[-3.48313,-2.50111],[3.39669,2.43904]],[[271.25885,163.16413],[-3.29935,0.83118],[1.6741,-0.55944]],[[275.22747,160.9882],[-1.38061,1.10449],[0,0]],[[275.51446,160.77269],[0,0],[-0.00102,-0.08724]],[[275.50511,160.51079],[0.00521,0.0873],[2.40774,-1.34282]],[[280.26967,152.07999],[1.5501,3.08247],[-1.16027,-2.30728]],[[273.05885,148.76444],[2.13326,0.71109],[-3.77353,-0.94531]],[[261.60834,148.01429],[3.86073,0],[-7.54098,0]],[[239.36314,152.76066],[6.09041,-5.23992],[-2.32756,1.54253]],[[233.05765,158.48144],[2.05355,-1.89438],[-0.56483,0.52105]],[[231.65328,160.07655],[0.01111,-0.86509],[-0.03582,2.78853]],[[238.54344,166.60396],[-3.43844,1.61992],[1.48609,-0.70013]],[[242.59485,163.21522],[-1.23557,1.05908],[0,0]],[[242.94651,163.00415],[-0.2146,0.09358],[1.91387,-2.93833]],[[251.57161,157.19361],[-3.559,1.02639],[-0.08377,-0.34616]]],&quot;closed&quot;:true}]}" fill="#bebebe"/><path d="M269.56591,217.38783l0.80101,-0.00155c7.13765,0 13.84569,0.63942 20.33107,3.88461c1.49096,0.74493 5.76475,1.693 6.67918,3.12247c1.58823,2.4828 -1.47032,5.53115 -3.65976,5.74919c-5.91442,0.589 -13.45216,0.68063 -19.36571,-0.17848c-2.70468,-0.38299 -5.30078,-1.30977 -7.96987,-1.81476c-0.66425,-0.12568 -3.57878,-0.59612 -4.18961,-1.48053c-0.60595,-0.87734 0.00101,-3.72286 0.17215,-4.37952c0.82954,-3.18295 3.42619,-4.55909 6.29336,-5.2535c0.37009,0.35269 0.90818,0.3521 0.90818,0.3521z" data-paper-data="{&quot;noHover&quot;:false,&quot;origItem&quot;:[&quot;Path&quot;,{&quot;applyMatrix&quot;:true,&quot;segments&quot;:[[[268.70052,217.0616],[0.37009,0.35269],[-2.86716,0.69441]],[[262.41418,222.29358],[0.82954,-3.18295],[-0.17114,0.65667]],[[262.24158,226.66079],[-0.60595,-0.87734],[0.61083,0.88441]],[[266.42944,228.134],[-0.66425,-0.12568],[2.6691,0.505]],[[274.38511,229.92685],[-2.70468,-0.38299],[5.91355,0.85912]],[[293.67194,230.12175],[-5.91442,0.589],[2.18944,-0.21804]],[[297.3272,224.3917],[1.58823,2.4828],[-0.91442,-1.42946]],[[290.64932,221.28232],[1.49096,0.74493],[-6.48538,-3.24518]],[[270.40834,217.41429],[7.13765,0],[0,0]],[269.60834,217.41429]],&quot;closed&quot;:true}]}" fill="#bf8b8b"/><path d="M274.07664,164.72277c-0.46977,3.84604 -4.5959,6.15899 -8.19602,8.19798l-0.78401,-0.1569c0,0 -0.25512,-0.04902 -0.555,0.01126c-1.14298,-0.29476 -1.49636,0.86646 -1.49636,0.86646c-0.09814,0.33158 -0.19731,0.69917 -0.30321,1.06913l-0.37135,0.13533c0,0 -1.16877,0.46838 -0.70453,1.62897c0.04984,0.12461 0.10795,0.23039 0.17154,0.32012c-0.04571,0.06299 -0.09448,0.12452 -0.14427,0.18349c-1.1452,1.35663 -3.36102,1.52845 -4.94712,1.58572c-3.54131,0.12787 -8.82659,0.541 -11.72565,-2.08684c-2.17363,-1.97028 -1.70685,-5.82036 -1.42218,-8.35876c0.67527,-4.92767 4.54795,-7.57904 9.10211,-8.74531c0.43948,1.42273 0.30427,2.93035 0.9955,4.52291c0.49492,1.14027 2.33831,2.80779 3.37627,3.46751c4.63853,2.94824 10.31949,-0.66663 14.83709,-1.7868c0.77775,-0.25865 1.54281,-0.54891 2.1672,-0.85428z" data-paper-data="{&quot;noHover&quot;:false,&quot;origItem&quot;:[&quot;Path&quot;,{&quot;applyMatrix&quot;:true,&quot;segments&quot;:[[[271.95782,165.56444],[0.77775,-0.25865],[-4.5176,1.12017]],[[257.10755,167.39937],[4.63853,2.94824],[-1.03796,-0.65973]],[[253.6611,163.86062],[0.49492,1.14027],[-0.69124,-1.59256]],[[252.72703,159.41587],[0.43948,1.42273],[-4.55416,1.16627]],[[243.64838,168.12172],[0.67527,-4.92767],[-0.28467,2.5384]],[[245.06456,176.45358],[-2.17363,-1.97028],[2.89906,2.62784]],[[256.75639,178.51537],[-3.54131,0.12787],[1.5861,-0.05727]],[[261.67589,176.9318],[-1.1452,1.35663],[0.04978,-0.05898]],[[261.81905,176.74874],[-0.04571,0.06299],[-0.0636,-0.08973]],[[261.64774,176.42853],[0.04984,0.12461],[-0.46424,-1.1606]],[262.3441,174.80369],[[262.71314,174.6699],[0,0],[0.1059,-0.36996]],[[263.01105,173.6051],[-0.09814,0.33158],[0,0]],[[264.49958,172.74804],[-1.14298,-0.29476],[0.29989,-0.06028]],[265.05348,172.73856],[[265.8367,172.89686],[0,0],[3.60012,-2.03899]],[[274.02849,164.73624],[-0.46977,3.84604],[-0.62439,0.30537]]],&quot;closed&quot;:true}]}" fill="#bf8b8b"/><path d="M249.55834,168.36429c0,-0.69036 0.55964,-1.25 1.25,-1.25c0.69036,0 1.25,0.55964 1.25,1.25c0,0.69036 -0.55964,1.25 -1.25,1.25c-0.69036,0 -1.25,-0.55964 -1.25,-1.25z" fill="#000000"/><path d="M209.18582,133.22498c-0.27946,-1.95836 -0.22878,-3.88528 -0.22749,-5.86069c0.00068,-1.0455 -0.16617,-2.08635 -0.1709,-3.13184c-0.00066,-0.14557 0.30888,-0.39376 0.16374,-0.40484c-0.68435,-0.05225 -1.29651,0.48557 -1.97692,0.57563c-2.46015,0.32559 -4.89183,0.55299 -7.34606,0.8815c0.94433,2.89406 1.82655,5.8105 2.6144,8.75065c0.44923,-0.33759 0.95747,-0.55354 1.36575,-0.5211c2.68408,0.21325 2.61106,2.69799 1.56188,4.2483c-0.51505,0.76105 -1.58013,0.98874 -2.51534,1.12142c-0.22267,0.20505 -0.51998,0.33028 -0.84654,0.33028c-0.05219,0 -0.10363,-0.0032 -0.15413,-0.00941c-0.31993,0.08213 -0.72484,0.04821 -1.12975,-0.3567c-0.70105,-0.70105 -0.29002,-1.40211 -0.08999,-1.66214l-0.05672,-0.39703c-1.0163,-4.05474 -2.2332,-8.06326 -3.55526,-12.02944c0,0 -0.39529,-1.18585 0.79057,-1.58114c0.11566,-0.03855 0.22379,-0.06206 0.32478,-0.0731c0.25359,-0.14418 0.49373,-0.17848 0.49373,-0.17848c2.74372,-0.38852 5.46954,-0.6331 8.21086,-1.00151c0.73129,-0.09828 3.14248,-0.52035 3.62308,-0.22437c0.62888,0.38729 0.7527,1.28737 0.96374,1.99516c0.71283,2.39074 0.20497,5.1281 0.29039,7.67536c1.78637,-0.77928 5.52708,0.04389 2.68965,3.35249c-0.4513,0.52624 -1.34944,0.3185 -2.02416,0.47775l-0.71254,0.32315c0,0 -0.27901,0.1116 -0.61815,0.08857c-0.0153,0.00055 -0.03065,0.00083 -0.04609,0.00083c-0.58089,0 -1.06923,-0.39623 -1.2095,-0.93317l-0.3924,-1.37343l0.02683,-0.00766z" fill="#000000"/><path d="M236.62637,121.03077c0.18891,-0.53557 0.30577,-1.1178 0.70462,-1.50039c0.076,-0.0729 0.15528,-0.14136 0.23735,-0.20608l-0.04389,-0.0439l1,-1v0c0.2262,-0.2262 0.5387,-0.36611 0.88388,-0.36611c0.69036,0 1.25,0.55965 1.25,1.25c0,0.0674 -0.00534,0.13356 -0.0156,0.19806l-0.1875,1.31249c0.00431,2.45517 -0.12509,4.94944 -0.00004,7.40083c0.02704,0.53008 -0.30292,1.43116 0.08068,1.67308c0.13085,-0.04132 0.26134,-0.07884 0.38906,-0.1132c0.11177,-0.1452 0.216,-0.33119 0.37115,-0.31621c0.2094,0.02021 0.42164,0.04508 0.63128,0.07648c0.06465,-0.01529 0.12421,-0.02995 0.17781,-0.0442c0,0 0.87921,-0.2198 1.32753,0.46353c0.94613,0.47238 1.28303,1.35587 -0.15989,3.05202c-1.01047,1.18781 -4.36448,1.04953 -4.70752,-0.97119c-0.05609,-0.33043 -0.01499,-0.6151 0.09631,-0.86128c-1.14731,-1.88845 -1.01287,-5.23972 -0.84234,-7.88324l-1.86093,-0.98716c0,0 0,-0.82319 0.66804,-1.13352z" fill="#000000"/><path d="M276.6155,136.98871c-0.4761,-0.07971 -0.94786,-0.34466 -1.40716,-0.87443c-0.84056,-0.96952 0.15269,-2.647 0.38344,-3.63719c0.72797,-3.12392 0.96657,-6.31913 0.96657,-9.51281c0,0 0,-1.25 1.25,-1.25c1.25,0 1.25,1.25 1.25,1.25c0,2.98078 -0.41463,5.63026 -0.81106,8.56592c-0.06245,0.46243 -0.08967,1.64615 -0.4219,2.41506c0.10597,-0.08366 0.20292,-0.15781 0.2729,-0.20972c0.47213,-0.3502 0.9381,-0.71109 1.43583,-1.02383c1.4255,-0.89568 4.16597,-2.03055 5.80511,-0.76147c1.18717,0.91915 2.38899,4.64131 1.53242,6.07121c-0.36704,0.61271 -1.21976,0.74346 -1.82963,1.11519c-3.41946,0.865 -5.25128,0.61036 -8.01455,-1.59627zM279.20783,136.06366c1.66471,1.21335 2.64855,1.29895 4.96682,0.72827c0.92564,-0.13763 0.29813,-2.24261 -0.2972,-2.81359c-0.45268,-0.43416 -1.28121,-0.03368 -1.87383,0.1718c-0.82746,0.28691 -1.78705,1.19554 -2.79579,1.91352z" fill="#000000"/><path d="M230.16553,295.3816c-0.34967,0.23269 -0.75719,0.23269 -0.75719,0.23269l-0.32929,-1.34742l-0.06122,0.21425c-0.14026,0.53694 -0.6286,0.93317 -1.2095,0.93317c-0.5623,0 -1.03789,-0.37128 -1.19497,-0.88206l-0.39088,-1.17265l0.04105,-0.01369l-0.07176,-0.09441c-0.62724,-4.35394 -0.86057,-8.97259 -1.22912,-13.38338c0,0 -0.1038,-1.24568 1.14187,-1.34949c1.24568,-0.10381 1.34949,1.14188 1.34949,1.14188c0.24973,3.00502 0.43094,6.1128 0.72273,9.15981c0.78763,-1.1359 1.86985,-2.09135 2.74439,-2.27256c3.11002,-0.64443 7.10917,2.2017 5.61918,5.74676c-0.82057,1.95235 -4.30903,2.51798 -6.3748,3.08712zM233.73754,289.66107c-2.39978,-2.10904 -3.75188,0.81643 -4.78178,3.31677l0.28588,0.08168c1.77024,-0.44572 6.72714,-1.43752 4.4959,-3.39844z" fill="#000000"/><path d="M264.05834,286.56429c0,0.6275 -0.31502,0.94 -0.62876,1.09562c-1.1109,3.42127 -1.96426,6.97136 -2.58958,10.51772c-0.06169,0.34983 -0.12123,0.95603 -0.19691,1.58871c4.64451,-1.70767 5.49812,6.00185 0.37622,6.0479c-0.72823,0.00655 -1.50843,-0.00206 -2.16015,-0.32706c-1.60557,-0.80065 -2.38476,-2.81271 -1.93856,-4.53877c0.12025,-0.46519 1.01855,-0.20333 1.32107,-0.57661c0.29482,-0.36378 0.41453,-3.91688 0.55012,-4.49471c0.57714,-2.45956 1.07892,-4.87344 1.75097,-7.2782c-0.33706,0.16324 -0.67722,0.35834 -1.04103,0.60545c0,0 -1.04007,0.69338 -1.73344,-0.34669c-0.69338,-1.04007 0.34669,-1.73343 0.34669,-1.73343c1.38913,-0.91235 2.56051,-1.30737 4.14997,-1.76185l0.54341,-0.04809c0,0 1.25,0 1.25,1.25z" fill="#000000"/><path d="M285.95833,288.96429c0,0 0,-1.25 1.25,-1.25c1.25,0 1.25,1.25 1.25,1.25c-0.02566,2.99659 1.29157,6.61139 2.41874,9.75771c1.3408,-1.19414 4.69642,-0.65741 4.78008,2.09649c0.05593,1.84062 -2.21421,3.12378 -3.88822,2.54569c-0.22929,0.27506 -0.5745,0.45011 -0.9606,0.45011c-0.58089,0 -1.06923,-0.39623 -1.2095,-0.93317l-0.38683,-1.35391c-1.27296,-3.8238 -3.22662,-8.57473 -3.25367,-12.56292z" fill="#000000"/><path d="M326.03507,281.74641c-0.31384,-0.3765 -2.38273,0.50638 -2.57359,0.58285c-3.16716,1.26898 -5.7743,2.25476 -9.08335,2.76209c0.77544,3.11742 1.50945,6.16941 2.26758,9.25091c0.68635,-0.90065 1.76468,-1.63395 2.55012,-1.62791c2.09445,0.01612 2.89777,2.77529 2.39204,4.26369c-0.80326,2.36406 -2.20875,1.95517 -3.97953,2.03624h-0.28348c-0.22829,0.24604 -0.55442,0.4 -0.91652,0.4c-0.5623,0 -1.03789,-0.37128 -1.19497,-0.88206l-0.39089,-1.17265l0.01684,-0.00562l-0.03114,-0.04019c-1.0269,-4.09985 -1.97971,-8.11687 -3.01253,-12.24631c0,0 -0.19708,-0.7883 0.36213,-1.25265c0.06503,-0.96206 1.09551,-1.09086 1.09551,-1.09086c1.96446,-0.2455 4.04956,-0.37878 5.90304,-1.12507c1.82531,-0.73496 4.38256,-2.60844 6.452,-2.48458c3.60052,0.2155 4.84932,6.53527 5.39958,10.44976c1.2692,-1.04485 3.4818,-1.76618 4.53061,-1.13175c4.79473,2.90035 -1.51039,5.95556 -4.13019,5.98199h-0.8c0,0 -0.07433,0 -0.18673,-0.01812c-0.06931,0.01191 -0.14057,0.01812 -0.21328,0.01812c-0.64351,0 -1.17345,-0.48628 -1.2424,-1.11141l-0.19795,-1.58354c-0.33731,-2.75302 -0.8956,-7.76878 -2.73291,-9.97293zM332.32014,291.87507c0.92204,-0.09785 1.84586,-0.39458 2.43826,-1.09828c0.17957,-0.21332 -0.57893,-0.10925 -0.83651,-0.00247c-0.42377,0.17568 -0.90348,0.31373 -1.21067,0.65444c-0.13205,0.14646 -0.262,0.29573 -0.39107,0.4463zM318.46297,296.63093c0.3336,0.0066 0.64434,-0.08677 0.76583,-0.4804c0.09204,-0.29823 0.10924,-1.22557 -0.00797,-0.9363c-0.19305,0.4764 -0.45774,0.95054 -0.75786,1.4167z" fill="#000000"/></g></g></svg>