<svg version="1.1" xmlns="http://www.w3.org/2000/svg" xmlns:xlink="http://www.w3.org/1999/xlink" width="23.54594" height="45.85955" viewBox="0,0,23.54594,45.85955"><g transform="translate(-219.51239,-201.30473)"><g data-paper-data="{&quot;isPaintingLayer&quot;:true}" fill="#00ffe6" fill-rule="nonzero" stroke="none" stroke-width="0.5" stroke-linecap="butt" stroke-linejoin="miter" stroke-miterlimit="10" stroke-dasharray="" stroke-dashoffset="0" style="mix-blend-mode: normal"><path d="M243.05833,207.56429c0,1.25 -1.25,1.25 -1.25,1.25l-0.33804,-0.00765c-0.66411,-0.07453 -1.3274,-0.10292 -1.99011,-0.11204c-1.01825,9.48531 0.18685,19.18085 0.17573,28.74736c-0.24741,1.97927 -0.23393,3.97845 -0.21242,5.97559c0.28606,0.42283 0.19783,0.95224 0.19783,0.95224l-0.18738,0.06945c0.00261,0.30851 0.00438,0.61689 0.00438,0.92505l-0.93954,-0.57842l-1.56046,0.57842c0,-1.84738 -0.06204,-3.70336 0.00693,-5.55h-0.15693c-2.05315,-0.00434 -3.6187,-0.73531 -5.57338,-1.01208c-2.61251,-0.36992 -5.59338,-0.0213 -8.26255,0.00989c-0.14828,2.50418 -0.12203,5.00665 -0.11532,7.51723c0.00125,0.02247 0.00125,0.03496 0.00125,0.03496l-0.00115,0.00037c0.00069,0.26645 0.00115,0.53299 0.00115,0.79963l-1.25,-0.4l-1.25,0.4c0,-3.22519 -0.06689,-6.43634 0.20108,-9.65195c-0.00342,-6.80073 -0.64688,-13.32829 -0.99917,-20.07893c-0.25503,-4.88694 0.6121,-9.67606 0.20241,-14.56532c0,0 -0.10381,-1.24568 1.14188,-1.34949c1.24568,-0.10381 1.34949,1.14188 1.34949,1.14188c0.04641,0.55988 0.07631,1.11835 0.09324,1.67574c4.31179,0.33775 8.55028,1.39098 12.79747,1.78553c0.71023,0.06598 1.42073,0.08479 2.13175,0.08827c0.18825,-1.30986 0.42256,-2.61575 0.71162,-3.9169c0,0 0.27116,-1.22023 1.4914,-0.94907c1.22023,0.27116 0.94907,1.4914 0.94907,1.4914c-0.24924,1.12127 -0.45657,2.24654 -0.62786,3.37524c0.64786,0.01066 1.29635,0.03977 1.94567,0.11125l0.06196,-0.00765c0,0 1.25,0 1.25,1.25zM234.87194,208.60682c-4.16569,-0.40516 -8.29878,-1.41576 -12.5242,-1.76286c-0.06284,2.48123 -0.2785,4.94981 -0.33005,7.43316c4.57741,1.11792 9.88175,1.94724 14.57884,1.47396c0.02931,-2.35922 0.13831,-4.71161 0.37604,-7.05289c-0.70043,-0.00344 -1.40055,-0.02327 -2.10063,-0.09136zM236.83156,228.80172c-4.71943,-0.6742 -9.35531,-0.77837 -14.10272,-0.78683c0.16294,2.74792 0.29102,5.50249 0.32151,8.29646c2.76612,-0.03546 5.82504,-0.37422 8.53136,0.01501c1.87597,0.26981 3.27913,0.99259 5.22662,0.98792h0.2c0,0 0.05734,0 0.14746,0.01228c0.00164,-0.01332 0.00329,-0.02664 0.00496,-0.03995c-0.00355,-2.8214 -0.10566,-5.65155 -0.2227,-8.48317zM222.05642,217.29516c0.14677,2.76439 0.33929,5.49356 0.51624,8.21951c4.80146,0.00676 9.49255,0.10875 14.25923,0.76272c-0.11193,-2.67457 -0.21499,-5.3485 -0.23869,-8.01567c-4.71402,0.42072 -9.92562,-0.33464 -14.55744,-1.41266c0.0059,0.14861 0.01276,0.29731 0.02066,0.44611z"/></g></g></svg>