<svg version="1.1" xmlns="http://www.w3.org/2000/svg" xmlns:xlink="http://www.w3.org/1999/xlink" width="90.491" height="109.91623" viewBox="0,0,90.491,109.91623"><g transform="translate(-205.61848,-150.73388)"><g data-paper-data="{&quot;isPaintingLayer&quot;:true}" fill-rule="nonzero" stroke="none" stroke-width="0.5" stroke-linecap="butt" stroke-linejoin="miter" stroke-miterlimit="10" stroke-dasharray="" stroke-dashoffset="0" style="mix-blend-mode: normal"><path d="M254.92317,215.04717c-6.47439,-1.11935 -16.59719,-3.81162 -13.78212,-11.84525l0.5669,-1.30363c0.6728,8.767 14.7849,11.73704 22.08517,10.6523c1.77548,-0.26382 3.42947,-1.3559 4.94507,-2.23373c0.71768,-0.70976 1.4005,-1.4465 2.03187,-2.23402l0.0125,-0.03281l0.00761,0.00544l0.98832,-1.38462c0.1517,-0.20689 0.23999,-0.46054 0.23999,-0.73674c0,-0.69036 -0.47945,-1.19026 -1.16981,-1.19026c-0.0674,0 -0.1338,0.00567 -0.19831,0.01594l-1.38084,0.19961l0.03061,0.21692c-2.21907,-0.03099 -4.49364,0.07457 -6.53681,-0.89864c-6.04783,-2.88073 -12.42835,-13.0444 -19.78561,-7.28467l-0.30271,0.59011c-0.12973,-0.16571 -0.42617,-0.30129 -0.72111,-0.3996c-1.18585,-0.39528 -1.48186,0.77869 -1.48186,0.77869l-0.35573,1.08234c-2.63775,4.75622 -7.71742,0.58725 -10.54437,-1.82636c-4.87668,-4.16365 -8.54652,-11.31678 -5.74757,-17.61461c1.31924,-1.55592 3.13758,-4.17763 5.26396,-4.65997c1.60157,-0.36329 3.45119,0.3524 4.93181,0.78923c5.66581,1.6716 12.6263,5.3537 13.18384,11.77397c0,0 0.0319,1.1866 1.27677,1.07343c1.24487,-0.11317 1.13642,-1.36374 1.13642,-1.36374c-0.27497,-2.91034 -1.55207,-5.35587 -3.41096,-7.3689c1.43626,-1.64375 2.65294,-3.07565 4.47778,-4.28998l0.26628,-0.12227c0,0 0.05848,-0.02919 0.1416,-0.08731c0.76575,0.01183 1.53723,0.01766 2.30476,0.01766l0.80185,-0.00041c0,0 0.07794,-0.00009 0.19432,-0.01938c0.21801,0.03028 0.38383,0.00656 0.38383,0.00656c5.62945,-0.81784 11.88813,1.19182 17.51709,1.81367c4.6044,0.50866 9.18323,0.06597 13.75487,-0.4958c0.09509,0.37028 0.37646,0.91766 1.20231,0.91766c0.22532,0 0.41019,-0.04037 0.5616,-0.10696c1.81609,1.64682 2.48206,4.15393 3.24895,6.63627c0.46931,1.51912 1.35896,2.89574 1.80219,4.40785c1.61103,5.49604 0.81023,10.93018 -2.40859,15.70433c-4.32591,5.17869 -8.90467,10.1442 -15.86525,11.54899c-4.18148,0.84391 -8.65575,0.17855 -12.87778,0.18876c-1.56043,-0.2421 -3.15051,-0.35332 -4.71211,-0.58779c-0.23553,-0.03536 -0.48334,-0.07296 -0.73834,-0.1128c-0.46921,-0.43833 -1.16437,-0.26568 -1.16437,-0.26568z" data-paper-data="{&quot;noHover&quot;:false,&quot;origItem&quot;:[&quot;Path&quot;,{&quot;applyMatrix&quot;:true,&quot;segments&quot;:[[255.10516,214.95161],[[256.26655,215.21689],[-0.46921,-0.43833],[0.255,0.03984]],[[257.00303,215.32954],[-0.23553,-0.03536],[1.5616,0.23446]],[[261.70365,215.91792],[-1.56043,-0.2421],[4.22203,-0.01021]],[[274.55837,215.73953],[-4.18148,0.84391],[6.96058,-1.40478]],[[290.40674,204.21642],[-4.32591,5.17869],[3.21882,-4.77415]],[[292.81459,188.53505],[1.61103,5.49604],[-0.44324,-1.51211]],[[291.01417,184.13372],[0.46931,1.51912],[-0.76689,-2.48234]],[[287.76978,177.50708],[1.81609,1.64682],[-0.15141,0.06659]],[[287.20833,177.61429],[0.22532,0],[-0.82585,0]],[[286.00717,176.69839],[0.09509,0.37028],[-4.57164,0.56177]],[[272.26331,177.20584],[4.6044,0.50866],[-5.62895,-0.62185]],[[254.78511,175.40172],[5.62945,-0.81784],[0,0]],[[254.40219,175.395],[0.21801,0.03028],[-0.11638,0.01929]],[254.20833,175.41429],[[253.40833,175.41429],[0,0],[-0.76753,0]],[[251.10859,175.39514],[0.76575,0.01183],[-0.08311,0.05812]],[250.96735,175.48232],[[250.70171,175.60435],[0,0],[-1.82484,1.21433]],[[246.23667,179.88721],[1.43626,-1.64375],[1.85889,2.01304]],[[249.6532,187.25112],[-0.27497,-2.91034],[0,0]],[[248.5215,188.60915],[1.24487,-0.11317],[-1.24487,0.11317]],[[247.16347,187.47746],[0,0],[-0.55754,-6.42028]],[[234.05885,175.76444],[5.66581,1.6716],[-1.48062,-0.43683]],[[229.12917,174.97241],[1.60157,-0.36329],[-2.12639,0.48234]],[[223.86973,179.62454],[1.31924,-1.55592],[-2.79896,6.29782]],[[229.62182,197.21521],[-4.87668,-4.16365],[2.82695,2.41362]],[[240.0672,199.05407],[-2.63775,4.75622],[0,0]],[240.42248,197.969],[[242.00362,197.17843],[-1.18585,-0.39528],[0.29494,0.09831]],[[242.62542,197.58967],[-0.12973,-0.16571],[0,0]],[[243.02746,196.9882],[0,0],[7.35727,-5.75973]],[[262.74045,204.2332],[-6.04783,-2.88073],[2.04318,0.97321]],[[269.26249,205.14339],[-2.21907,-0.03099],[0,0]],[269.23156,204.92685],[[270.61027,204.72989],[0,0],[0.06451,-0.01027]],[[270.80833,204.71429],[-0.0674,0],[0.69036,0]],[[272.05833,205.96429],[0,-0.69036],[0,0.27621]],[[271.81705,206.70267],[0.1517,-0.20689],[0,0]],[270.8255,208.09083],[270.81789,208.0854],[[270.80533,208.11827],[0,0],[-0.63137,0.78752]],[[268.76708,210.35767],[0.71768,-0.70976],[-1.5156,0.87783]],[[263.80856,212.59815],[1.77548,-0.26382],[-7.30026,1.08474]],[[241.66129,201.91627],[0.6728,8.767],[0,0]],[[241.18667,203.18145],[0,0],[-2.81507,8.03363]],[[254.93159,214.99788],[-6.47439,-1.11935],[0,0]]],&quot;closed&quot;:true}]}" fill="#ffdca0"/><path d="M265.55833,189.16429c0,-0.69036 0.55964,-1.25 1.25,-1.25c0.69036,0 1.25,0.55964 1.25,1.25c0,0.69036 -0.55964,1.25 -1.25,1.25c-0.69036,0 -1.25,-0.55964 -1.25,-1.25z" fill="#000000"/><path d="M208.55541,211.63798c-2.12037,-4.21801 -4.64301,-10.22669 -1.34955,-14.62038c1.70643,-2.27649 6.60879,-3.77201 9.12411,-2.07396c1.58357,1.06904 3.24972,4.267 4.33606,6.81799c1.73445,-2.43115 3.57334,-3.30408 5.46033,0.24365l0.26782,0.76373c0,0 0.27974,0.83922 -0.33743,1.34101c-0.00246,0.54602 -0.00843,1.08595 -0.02226,1.61951l0.33286,0.11672c3.45607,1.72982 6.80885,3.84008 10.32629,5.36609c1.40032,0.60751 2.96869,0.90282 4.54777,1.10311c-2.41361,-2.07791 -3.66865,-4.93327 -2.70465,-8.9287c-2.89116,0.86567 -6.25094,-0.76523 -9.11059,-3.04741c-6.57473,-5.24704 -11.36856,-13.73449 -7.67924,-22.0353c1.71666,-2.08781 3.93691,-5.07302 6.74056,-5.74787c0.11549,-0.0278 0.23138,-0.05181 0.3476,-0.07228c-1.04935,-2.45818 -0.08728,-5.77442 2.12008,-7.18537c2.96166,-1.89311 8.53197,-1.43591 12.70034,-0.92264c0.29178,-2.48579 0.8805,-5.23033 2.0456,-7.39172c3.24622,-6.02211 12.45767,-6.68799 18.45995,-6.0605c2.23673,0.23383 4.30454,1.14773 6.52378,1.4216c5.26634,1.73785 12.80192,3.97491 15.97686,8.94604c2.34667,3.67427 1.82033,9.36123 1.79738,13.60411c2.85716,1.96973 3.89423,5.07485 4.94341,8.49945c0.4659,1.52072 1.35232,2.8823 1.79959,4.39866c1.85971,6.3049 0.82785,12.44263 -2.79215,17.91863c-4.53457,5.45332 -9.42297,10.59943 -16.56268,12.30447c3.75891,2.61462 7.26468,8.09749 7.80867,12.26999c0.00546,3.33754 -0.15235,6.40503 -0.7747,9.40913c0.29575,0.16381 0.57712,0.47549 0.57712,1.06854c0,1.03966 -0.86471,1.2146 -1.15573,1.24404c-0.44187,1.49605 -1.01991,2.98955 -1.77204,4.5065c-0.84256,1.69934 -1.21946,3.16065 -2.72974,4.41613c-2.40295,1.99755 -5.40495,3.0517 -8.46439,3.66345c1.13341,1.58108 1.17268,3.63515 -0.61313,4.99522c-2.2683,1.72753 -7.27559,0.82466 -9.91496,0.82466c-5.56773,-0.00634 -11.51961,-0.13499 -14.25946,-6.05555c-0.71479,-1.54459 -2.35732,-3.75373 -0.2471,-5.42561c0.15519,-0.12295 0.42072,-0.18012 0.74774,-0.1921c-0.09365,-0.08156 -0.18589,-0.16388 -0.27666,-0.24697c-2.16281,-1.97965 -4.16785,-6.40305 -5.31345,-9.03737c0,0 -0.17798,-0.41529 -0.07026,-0.85352c-0.46608,-0.96684 -0.90752,-2.00915 -1.30312,-3.09903c-0.34267,-0.13738 -0.7277,-0.4461 -0.7277,-1.13984c0,-0.26047 0.05428,-0.46666 0.14021,-0.62989c-1.47999,-4.91467 -1.88532,-10.4469 0.51498,-14.31755c-4.71544,-1.57036 -9.44137,-3.04487 -14.15723,-4.5914c-0.42366,0.68178 -0.92872,1.34482 -1.5308,1.98815c-0.80425,0.85935 -2.47908,2.77466 -4.00803,2.10027c-1.04093,-0.45913 -1.50536,-2.97804 -1.55598,-4.06097c-0.01303,-0.27883 -0.01373,-0.55678 -0.0034,-0.83395c-3.14037,0.04046 -6.00309,0.27036 -8.20267,-2.38097zM219.22248,204.95957c-0.67973,-2.0575 -2.5817,-6.57547 -4.33579,-7.97463c-2.07997,-1.6591 -5.66898,1.15571 -6.29646,2.98629c-1.20769,3.52329 0.51637,7.18999 2.07102,10.31936c1.35162,1.82066 4.36433,1.2798 6.458,1.22753c0.00183,-0.00768 0.00367,-0.01537 0.00551,-0.02305l-0.35649,-0.02416c0,0 0.17152,-0.25728 0.47191,-0.43061c0.52834,-1.97626 1.38656,-3.92645 2.07351,-5.88134c-0.06328,-0.1156 -0.09121,-0.19939 -0.09121,-0.19939zM223.76902,202.64142c-0.07971,-0.46913 -0.13525,-0.99348 -0.43751,-0.83322c-0.6094,0.3231 -0.59702,1.24722 -0.96639,1.82974c-0.81182,3.85347 -4.34695,8.98771 -3.06591,12.97676c0.05385,0.16767 0.09876,-0.34764 0.20834,-0.4855c0.29303,-0.36869 0.6672,-0.66542 0.98363,-1.01423c0.28656,-0.31588 0.60773,-0.67187 0.91391,-1.04631c-0.31958,-0.15254 -0.64676,-0.46487 -0.64676,-1.10438c0,-1.25 1.25,-1.25 1.25,-1.25l0.59528,0.06415c0.04607,0.01536 0.09214,0.0307 0.1382,0.04604c0.99916,-2.59664 0.81733,-5.76817 0.81651,-8.46019c0,0 0,-0.38141 0.21069,-0.72286zM239.20362,217.17843c0,0 0.23004,0.07668 0.4537,0.26381c1.07955,-0.97721 2.45582,-1.75655 4.17937,-2.27143c0.05139,-0.01535 0.10288,-0.03045 0.15447,-0.04528c-2.75449,-0.31634 -5.71701,-0.52772 -8.26813,-1.6093c-3.36304,-1.4258 -6.56796,-3.42929 -9.84905,-5.11711c-0.1501,1.44229 -0.42165,2.83037 -0.9122,4.15833c4.74432,1.55459 9.49521,3.04346 14.24183,4.62098zM279.25348,242.19001c-0.8005,0.1601 -1.18276,-0.30715 -1.35165,-0.65061c-0.90026,-0.08017 -1.80061,-0.12869 -2.69349,-0.12511c0,0 -0.27569,0 -0.56812,-0.12947c-0.28651,0.06072 -0.57697,0.11031 -0.87068,0.15039c0.05605,0.03076 0.11198,0.06168 0.1678,0.09274c1.34477,3.52437 -0.2796,8.51864 -4.44181,9.6529c-3.8495,1.04904 -10.64688,-0.40857 -13.45824,-3.32003c-2.66926,-2.76429 -2.25919,-5.39929 -0.31633,-6.94445c-0.03811,-0.01839 -0.07616,-0.03716 -0.11413,-0.05633c-0.73779,-0.37239 -1.62766,-1.06647 -2.38597,-1.91689c-0.2276,0.07113 -0.41252,0.07113 -0.41252,0.07113l-0.50317,-0.03732c-2.30505,-0.58067 -4.71289,-0.65484 -7.00885,-1.20225c-1.51299,-0.36073 -2.8791,-1.19928 -4.32385,-1.71945c0.48642,1.14477 1.00882,2.19317 1.52117,3.08884l-0.00142,-0.06371c0,0 0.73115,0.73115 0.1985,1.52846c1.00264,2.19022 2.35477,4.76724 3.75309,6.02565c4.45298,4.00743 12.75811,6.07513 18.50226,6.08133c3.89425,-0.37607 8.10906,-1.19128 11.26978,-3.71823c1.15947,-0.92698 1.42987,-2.29411 2.07026,-3.58387c0.56409,-1.13608 1.02036,-2.25534 1.38866,-3.37178c-0.1163,0.06368 -0.2553,0.11485 -0.42128,0.14805zM276.46415,233.06761c-1.07233,-2.37132 -2.80401,-4.41505 -3.96209,-6.72139c-1.16098,-2.31211 -1.9075,-5.12342 -4.53263,-6.01152c0,0 -1.17041,-0.4389 -0.73151,-1.60932c0.01616,-0.0431 0.03331,-0.08401 0.05137,-0.12285c-1.93878,-0.06819 -3.87544,-0.18781 -5.77627,-0.19189c-1.74808,-0.26676 -3.91388,-0.5484 -6.21524,-0.94139l-0.19705,0.04396c-2.48455,1.04024 -2.54233,2.20217 -3.5466,4.55072c-1.9076,4.46103 -1.8958,9.00882 -1.8958,13.90035c0,0 0,0.00247 -0.00011,0.0072c0.67271,0.09335 1.34532,0.191 2.01331,0.3145c-0.29922,-1.1265 -0.0935,-2.25542 1.02481,-3.14911c0.52744,-0.4215 1.93014,-0.41121 3.25067,-0.29857c0.02046,-0.13359 0.06574,-0.27793 0.14329,-0.43304c0.36171,-0.72342 0.95746,-0.74471 1.33295,-0.66962c0.15548,-2.92412 0.53628,-5.82845 0.53509,-8.77136c0,0 0,-1.25 1.25,-1.25c1.25,0 1.25,1.25 1.25,1.25c-0.00125,3.20933 -0.45667,6.37419 -0.57314,9.56655c2.39513,0.61663 4.84395,0.95026 7.27448,1.31568l0.00181,-0.97084c0.46667,-3.30049 0.79686,-6.35981 0.79686,-9.71139c0,0 0,-1.25 1.25,-1.25c1.25,0 1.25,1.25 1.25,1.25c0,3.40505 -0.31812,6.53514 -0.80314,9.88861l0.00249,1.19467c1.60012,0.28192 3.18125,0.6256 4.7223,1.12324c0.89581,0.28928 2.08494,0.68501 2.91225,1.40887c-0.11714,-1.29685 -0.31551,-2.57861 -0.82808,-3.71207zM274.71461,225.18235c1.17425,2.35922 2.97005,4.44091 4.03791,6.87861c0.9797,2.23646 0.97996,4.78408 1.23333,7.19907c0.14147,0.0174 0.28288,0.0352 0.42421,0.05335c0.60086,-2.82768 0.74492,-5.70992 0.75069,-8.87142c-0.26367,-2.24125 -1.09222,-3.0318 -2.36647,-4.74678c-1.71487,-2.308 -2.59953,-4.85981 -5.34496,-6.21285l-0.52487,-0.43415c0,0 -0.20523,-0.20523 -0.31902,-0.51681c-0.81909,0.07135 -1.64347,0.10524 -2.47048,0.11475c2.34902,1.47973 3.26836,3.90168 4.57966,6.53624zM250.49222,217.04817l-0.59148,0.46505c-1.55685,0.66464 -3.57134,1.50372 -4.71251,2.82716c-0.88699,1.02867 -0.47675,3.24301 -0.53304,4.31252c-0.18221,3.462 -0.40639,7.02124 0.32837,10.43654c0.30511,0.10044 0.61655,0.19023 0.93679,0.26442c0.40973,0.09493 0.82268,0.17591 1.23777,0.24816c-0.00611,-5.79163 -0.10603,-14.60642 4.5533,-18.83303c-0.30353,-0.06818 -0.60692,-0.139 -0.90957,-0.21267c-0.1153,0.29753 -0.30962,0.49185 -0.30962,0.49185zM242.16148,224.47567c0.10446,-1.98472 -0.28111,-3.98899 1.06696,-5.68748c0.3476,-0.43795 0.77084,-0.83462 1.24044,-1.19628c-6.76968,2.12195 -6.5046,9.51929 -4.53864,15.662c0.81683,0.15919 1.58046,0.43722 2.3348,0.74676c-0.43027,-3.15004 -0.27051,-6.35321 -0.10357,-9.525zM255.10516,214.95161c0,0 0.69218,-0.17305 1.16139,0.26529c0.255,0.03984 0.50094,0.07728 0.73647,0.11265c1.5616,0.23446 3.14019,0.34629 4.70062,0.58838c4.22203,-0.01021 8.67324,0.66551 12.85472,-0.17839c6.96058,-1.40478 11.52245,-6.34442 15.84837,-11.52312c3.21882,-4.77415 4.01887,-10.18533 2.40785,-15.68137c-0.44324,-1.51211 -1.3311,-2.88221 -1.80041,-4.40134c-0.76689,-2.48234 -1.4283,-4.97982 -3.2444,-6.62664c-0.15141,0.06659 -0.33612,0.10721 -0.56144,0.10721c-0.82585,0 -1.10607,-0.54562 -1.20116,-0.9159c-4.57164,0.56177 -9.13946,1.01612 -13.74386,0.50746c-5.62895,-0.62185 -11.84875,-2.62196 -17.4782,-1.80412c0,0 -0.16491,0.02356 -0.38292,-0.00673c-0.11638,0.01929 -0.19385,0.01929 -0.19385,0.01929h-0.8c-0.76753,0 -1.534,-0.00732 -2.29975,-0.01915c-0.08311,0.05812 -0.14124,0.08718 -0.14124,0.08718l-0.26564,0.12203c-1.82484,1.21433 -3.02877,2.63911 -4.46504,4.28286c1.85889,2.01304 3.14156,4.45357 3.41653,7.36391c0,0 0.11317,1.24487 -1.1317,1.35804c-1.24487,0.11317 -1.35804,-1.1317 -1.35804,-1.1317c-0.55754,-6.42028 -7.43881,-10.04142 -13.10462,-11.71302c-1.48062,-0.43683 -3.32811,-1.15532 -4.92968,-0.79203c-2.12639,0.48234 -3.94019,3.09621 -5.25944,4.65213c-2.79896,6.29782 0.87541,13.42703 5.75209,17.59068c2.82695,2.41362 7.80763,6.59508 10.44538,1.83886l0.35528,-1.08507c0,0 0.39528,-1.18585 1.58114,-0.79057c0.29494,0.09831 0.49207,0.24553 0.6218,0.41124l0.40204,-0.60147c7.35727,-5.75973 13.66516,4.36428 19.71299,7.245c2.04318,0.97321 4.30297,0.8792 6.52204,0.91019l-0.03093,-0.21654l1.37871,-0.19696c0.06451,-0.01027 0.13066,-0.0156 0.19806,-0.0156c0.69036,0 1.25,0.55964 1.25,1.25c0,0.27621 -0.08959,0.53149 -0.24129,0.73838l-0.99155,1.38816l-0.00761,-0.00544l-0.01256,0.03288c-0.63137,0.78752 -1.32058,1.52964 -2.03825,2.2394c-1.5156,0.87783 -3.18303,1.97666 -4.95851,2.24048c-7.30026,1.08474 -21.47447,-1.91487 -22.14727,-10.68187l-0.47463,1.26518c-2.81507,8.03363 7.27054,10.69708 13.74493,11.81643zM260.20833,242.01429c-4.13925,-0.00756 -4.64464,2.86254 -0.95824,5.07732c3.00716,1.8067 9.56598,3.19076 11.70945,-0.20743c0.74594,-1.1826 1.60543,-2.31506 1.11979,-3.68355c-0.61672,-0.23167 -1.24074,-0.44383 -1.86629,-0.65049l-0.00472,0.06415c0,0 -1.1483,0 -1.24371,-1.10059c-1.53956,-0.07583 -3.06842,-0.1764 -4.49965,-0.10069c-1.09764,0.05807 -2.23049,0.19281 -3.36473,0.26344c-0.36938,0.33784 -0.89191,0.33784 -0.89191,0.33784zM258.05329,235.60463c-0.88925,-0.11258 -3.06941,-0.62624 -3.93296,-0.41294c-0.68136,0.1683 2.2892,3.27957 2.68952,3.47684c3.39692,1.67392 9.08233,0.24576 12.79849,0.24576c1.70959,0 4.11785,0.45125 5.66911,-0.36405c0.36257,0.0106 -4.59782,-1.16699 -6.00551,-1.34341c-3.33052,-0.4174 -6.57551,-1.16768 -9.7707,-2.13013c-0.12152,0.12598 -0.28439,0.23205 -0.5027,0.29005c-0.41107,0.30466 -0.94525,0.23789 -0.94525,0.23789zM259.58261,254.80943c-0.00482,-0.02411 -0.00907,-0.04784 -0.01278,-0.07119c-0.71067,-0.11624 -1.42996,-0.25378 -2.15142,-0.41255c-0.49045,0.72942 -1.40536,0.42445 -1.40536,0.42445c-2.76788,-0.92297 -5.3909,-2.1055 -8.17038,-2.99053c-0.71809,-0.22865 -1.37729,-0.83269 -2.12778,-0.76417c-0.17761,0.01622 2.09614,3.95964 2.65736,4.37944c3.73068,2.79062 5.95199,2.54416 10.43608,2.53941c2.30979,0 6.35189,0.77475 8.48504,-0.37534c0.85883,-0.46304 0.06937,-1.60735 -0.39373,-1.94496c-1.01631,-0.74093 -3.77056,-0.15845 -4.91454,0.00775l-0.93163,0.18829c0,0 -1.22573,0.24515 -1.47087,-0.98058zM244.39355,199.36273c-2.36962,7.90611 9.04796,10.28241 14.52704,10.75661c1.49027,0.12898 3.00525,0.21216 4.48752,0.01109c1.33011,-0.18043 2.69924,-1.11812 3.84149,-1.75952c0.19958,-0.20271 0.39544,-0.40928 0.58736,-0.6195c-2.0658,0.15018 -5.1738,-0.79064 -6.16074,-1.25603c-4.57782,-2.1587 -11.56282,-12.10598 -17.08701,-7.555zM254.43156,172.92685c5.892,-0.82914 12.23977,1.13833 18.1218,1.79588c4.49151,0.5021 8.9583,0.01555 13.41818,-0.53869c0.08628,-3.63192 0.50855,-8.6221 -1.41656,-11.54676c-2.8701,-4.36027 -9.76891,-6.28479 -14.42314,-7.85396c-5.35452,-0.67761 -9.92581,-2.0293 -15.44926,-0.79949c-2.52068,0.56123 -5.49746,1.68483 -6.76701,4.16059c-0.9996,1.94932 -1.52932,4.33952 -1.78301,6.55038c0.07818,0.00996 0.15514,0.01968 0.23083,0.02914c0,0 1.24035,0.15504 1.0853,1.39539c-0.15504,1.24035 -1.39539,1.0853 -1.39539,1.0853c-3.58282,-0.44807 -10.4678,-1.67797 -13.79179,0.22543c-1.23607,0.7078 -2.04207,3.69899 -0.70142,4.73554c0.64366,0.49765 1.60768,0.25238 2.41417,0.35975c2.45793,0.32721 4.95486,0.18894 7.43408,0.18894c4.00387,0 7.98672,0.2 12,0.2h0.8c0,0 0.07558,0 0.18958,0.01859c0.02158,-0.0043 0.03365,-0.00602 0.03365,-0.00602zM241.40833,175.21429c-0.4685,0 -1.02776,0.02734 -1.6457,0.06367c1.6572,0.80181 3.24459,1.76549 4.64561,2.90246c0.90555,-1.03506 1.74622,-1.9929 2.68171,-2.874c-1.893,-0.04724 -3.78518,-0.09213 -5.68162,-0.09213z" fill="#000000"/><path d="M270.11132,218.60205c0.82701,-0.0095 1.66097,-0.04732 2.48007,-0.11867c0.11378,0.31157 0.31977,0.51659 0.31977,0.51659l0.52682,0.43365c2.74543,1.35304 3.67634,3.91775 5.39121,6.22575c1.27425,1.71498 2.1161,2.55462 2.37977,4.79587c-0.00578,3.1615 -0.17721,6.07591 -0.77806,8.90359c-0.14133,-0.01814 -0.32291,-0.1275 -0.46439,-0.1449c-0.25337,-2.415 -0.26944,-4.95205 -1.24915,-7.18852c-1.06785,-2.43769 -2.81639,-4.43533 -3.99064,-6.79455c-1.31129,-2.63456 -2.26638,-5.14908 -4.6154,-6.62882z" data-paper-data="{&quot;noHover&quot;:false,&quot;origItem&quot;:[&quot;Path&quot;,{&quot;applyMatrix&quot;:true,&quot;segments&quot;:[[[274.71461,225.18235],[-1.31129,-2.63456],[1.17425,2.35922]],[[278.75252,232.06096],[-1.06785,-2.43769],[0.9797,2.23646]],[[279.98585,239.26003],[-0.25337,-2.415],[0.14147,0.0174]],[[280.41006,239.31338],[-0.14133,-0.01814],[0.60086,-2.82768]],[[281.16075,230.44196],[-0.00578,3.1615],[-0.26367,-2.24125]],[[278.79428,225.69517],[1.27425,1.71498],[-1.71487,-2.308]],[[273.44932,219.48232],[2.74543,1.35304],[0,0]],[272.92445,219.04817],[[272.60543,218.53136],[0.11378,0.31157],[-0.81909,0.07135]],[[270.13495,218.64611],[0.82701,-0.0095],[2.34902,1.47973]]],&quot;closed&quot;:true}]}" fill="#00b4ff"/><path d="M250.81552,216.50823c0.30266,0.07367 0.61048,0.14598 0.91401,0.21416c-4.65933,4.2266 -4.58241,13.13776 -4.5763,18.92939c-0.41509,-0.07225 -0.83456,-0.15431 -1.24429,-0.24924c-0.32024,-0.07419 -0.63658,-0.1654 -0.94169,-0.26584c-0.73476,-3.41529 -0.54046,-7.04096 -0.35825,-10.50296c0.05629,-1.06951 -0.33035,-3.30931 0.55664,-4.33797c1.14116,-1.32344 3.18856,-2.16683 4.74541,-2.83147l0.594,-0.46445c0,0 0.19516,-0.19409 0.31047,-0.49162z" data-paper-data="{&quot;noHover&quot;:false,&quot;origItem&quot;:[&quot;Path&quot;,{&quot;applyMatrix&quot;:true,&quot;segments&quot;:[[250.49222,217.04817],[[249.90073,217.51322],[0,0],[-1.55685,0.66464]],[[245.18822,220.34037],[1.14116,-1.32344],[-0.88699,1.02867]],[[244.65519,224.6529],[0.05629,-1.06951],[-0.18221,3.462]],[[244.98356,235.08943],[-0.73476,-3.41529],[0.30511,0.10044]],[[245.92035,235.35385],[-0.32024,-0.07419],[0.40973,0.09493]],[[247.15812,235.60201],[-0.41509,-0.07225],[-0.00611,-5.79163]],[[251.71142,216.76899],[-4.65933,4.2266],[-0.30353,-0.06818]],[[250.80184,216.55632],[0.30266,0.07367],[-0.1153,0.29753]]],&quot;closed&quot;:true}]}" fill="#00b4ff"/><path d="M279.7244,242.03595c-0.3683,1.11644 -0.82429,2.24456 -1.38838,3.38065c-0.64039,1.28975 -0.91268,2.66796 -2.07215,3.59494c-3.16072,2.52695 -7.39928,3.37195 -11.29354,3.74801c-5.74414,-0.0062 -14.12289,-2.10962 -18.57587,-6.11705c-1.39833,-1.25841 -2.74999,-3.8539 -3.75263,-6.04412c0.53265,-0.79731 -0.19753,-1.53224 -0.19753,-1.53224l0.00137,0.06387c-0.51235,-0.89568 -1.0327,-1.94975 -1.51912,-3.09451c1.44475,0.52017 2.81102,1.35836 4.32401,1.71909c2.29596,0.5474 4.70811,0.61375 7.01316,1.19442l0.50394,0.03621c0,0 0.18592,-0.00134 0.41351,-0.07247c0.75831,0.85042 1.64781,1.54497 2.3856,1.91736c0.03797,0.01917 0.15599,0.09797 0.19411,0.11636c-1.94286,1.54516 -2.35401,4.11857 0.31524,6.88286c2.81136,2.91146 9.52972,4.37079 13.37922,3.32175c4.1622,-1.13426 5.77782,-6.08849 4.43305,-9.61286c-0.05582,-0.03106 -0.11166,-0.06154 -0.1677,-0.09229c0.29371,-0.04008 0.68188,-0.11097 0.96838,-0.17169c0.29243,0.12947 0.56829,0.13027 0.56829,0.13027c0.89288,-0.00358 1.79355,0.04674 2.69382,0.12691c0.16889,0.34346 0.55146,0.81294 1.35196,0.65284c0.16598,-0.0332 0.30495,-0.08462 0.42125,-0.1483z" data-paper-data="{&quot;noHover&quot;:false,&quot;origItem&quot;:[&quot;Path&quot;,{&quot;applyMatrix&quot;:true,&quot;segments&quot;:[[[279.25348,242.19001],[0.16598,-0.0332],[-0.8005,0.1601]],[[277.90183,241.5394],[0.16889,0.34346],[-0.90026,-0.08017]],[[275.20833,241.41429],[0.89288,-0.00358],[0,0]],[[274.64021,241.28481],[0.29243,0.12947],[-0.28651,0.06072]],[[273.76953,241.43521],[0.29371,-0.04008],[0.05605,0.03076]],[[273.93733,241.52795],[-0.05582,-0.03106],[1.34477,3.52437]],[[269.49552,251.18085],[4.1622,-1.13426],[-3.8495,1.04904]],[[256.03729,247.86082],[2.81136,2.91146],[-2.66926,-2.76429]],[[255.72095,240.91637],[-1.94286,1.54516],[-0.03811,-0.01839]],[[255.60682,240.86004],[0.03797,0.01917],[-0.73779,-0.37239]],[[253.22086,238.94316],[0.75831,0.85042],[-0.2276,0.07113]],[252.80833,239.01429],[[252.30516,238.97696],[0,0],[-2.30505,-0.58067]],[[245.29632,237.77472],[2.29596,0.5474],[-1.51299,-0.36073]],[[240.97247,236.05527],[1.44475,0.52017],[0.48642,1.14477]],[[242.49364,239.14411],[-0.51235,-0.89568],[0,0]],[242.49222,239.0804],[[242.69072,240.60886],[0.53265,-0.79731],[1.00264,2.19022]],[[246.44381,246.63451],[-1.39833,-1.25841],[4.45298,4.00743]],[[264.94607,252.71584],[-5.74414,-0.0062],[3.89425,-0.37607]],[[276.21585,248.99761],[-3.16072,2.52695],[1.15947,-0.92698]],[[278.2861,245.41374],[-0.64039,1.28975],[0.56409,-1.13608]],[[279.67476,242.04196],[-0.3683,1.11644],[-0.1163,0.06368]]],&quot;closed&quot;:true}]}" fill="#00b4ff"/><path d="M261.0053,255.77665l0.93072,-0.1844c1.14398,-0.1662 3.99708,-0.73426 5.01339,0.00667c0.46309,0.33761 1.25096,1.49042 0.39213,1.95346c-2.13315,1.15009 -6.1966,0.40411 -8.50639,0.40411c-4.48409,0.00476 -6.78198,0.21376 -10.51266,-2.57686c-0.56122,-0.4198 -2.83272,-4.3835 -2.65512,-4.39972c0.75049,-0.06853 1.50486,0.56622 2.22294,0.79487c2.77948,0.88504 5.40336,2.04019 8.17123,2.96316c0,0 0.91362,0.30068 1.40407,-0.42875c0.72147,0.15878 1.44347,0.31554 2.15414,0.43178c0.0037,0.02336 0.00788,0.04829 0.0127,0.0724c0.24515,1.22573 1.37285,0.96326 1.37285,0.96326z" data-paper-data="{&quot;noHover&quot;:false,&quot;origItem&quot;:[&quot;Path&quot;,{&quot;applyMatrix&quot;:true,&quot;segments&quot;:[[[259.58261,254.80943],[0.24515,1.22573],[-0.00482,-0.02411]],[[259.56983,254.73824],[0.0037,0.02336],[-0.71067,-0.11624]],[[257.4184,254.32569],[0.72147,0.15878],[-0.49045,0.72942]],[[256.01305,254.75014],[0,0],[-2.76788,-0.92297]],[[247.84267,251.7596],[2.77948,0.88504],[-0.71809,-0.22865]],[[245.71489,250.99544],[0.75049,-0.06853],[-0.17761,0.01622]],[[248.37225,255.37488],[-0.56122,-0.4198],[3.73068,2.79062]],[[258.80833,257.91429],[-4.48409,0.00476],[2.30979,0]],[[267.29337,257.53894],[-2.13315,1.15009],[0.85883,-0.46304]],[[266.89965,255.59398],[0.46309,0.33761],[-1.01631,-0.74093]],[[261.98511,255.60172],[1.14398,-0.1662],[0,0]],[261.05348,255.79001]],&quot;closed&quot;:true}]}" fill="#382300"/><path d="M258.95118,235.35074c0.2183,-0.058 0.38256,-0.1677 0.50408,-0.29369c3.19518,0.96245 6.53615,1.73158 9.86667,2.14898c1.40768,0.17642 6.36773,1.36073 6.00516,1.35014c-1.55126,0.8153 -3.96169,0.37379 -5.67128,0.37379c-3.71615,0 -9.49829,1.4212 -12.8952,-0.25272c-0.40032,-0.19727 -3.37069,-3.32697 -2.68933,-3.49527c0.86355,-0.2133 3.0443,0.29779 3.93354,0.41037c0,0 0.53529,0.06305 0.94635,-0.24161z" data-paper-data="{&quot;noHover&quot;:false,&quot;origItem&quot;:[&quot;Path&quot;,{&quot;applyMatrix&quot;:true,&quot;segments&quot;:[[[258.05329,235.60463],[0,0],[-0.88925,-0.11258]],[[254.12033,235.19169],[0.86355,-0.2133],[-0.68136,0.1683]],[[256.80984,238.66853],[-0.40032,-0.19727],[3.39692,1.67392]],[[269.60833,238.91429],[-3.71615,0],[1.70959,0]],[[275.27745,238.55023],[-1.55126,0.8153],[0.36257,0.0106]],[[269.27194,237.20682],[1.40768,0.17642],[-3.33052,-0.4174]],[[259.50124,235.07669],[3.19518,0.96245],[-0.12152,0.12598]],[[258.99854,235.36675],[0.2183,-0.058],[-0.41107,0.30466]]],&quot;closed&quot;:true}]}" fill="#ffffff"/><path d="M261.06542,241.64056c1.13424,-0.07063 2.30151,-0.21949 3.39915,-0.27756c1.43123,-0.07571 2.99917,0.04318 4.53873,0.119c0.09541,1.10059 1.25065,1.11183 1.25065,1.11183l0.00453,-0.06456c0.62555,0.20666 1.25251,0.42708 1.86923,0.65875c0.48564,1.36849 -0.3739,2.52633 -1.11984,3.70893c-2.14347,3.39819 -8.79759,2.01851 -11.80475,0.21181c-3.6864,-2.21479 -3.1743,-5.13172 0.96496,-5.12416c0,0 0.52795,-0.00621 0.89733,-0.34405z" data-paper-data="{&quot;noHover&quot;:false,&quot;origItem&quot;:[&quot;Path&quot;,{&quot;applyMatrix&quot;:true,&quot;segments&quot;:[[[260.20833,242.01429],[0,0],[-4.13925,-0.00756]],[[259.2501,247.09161],[-3.6864,-2.21479],[3.00716,1.8067]],[[270.95955,246.88418],[-2.14347,3.39819],[0.74594,-1.1826]],[[272.07934,243.20063],[0.48564,1.36849],[-0.61672,-0.23167]],[[270.21305,242.55014],[0.62555,0.20666],[0,0]],[270.20833,242.61429],[[268.96463,241.51369],[0.09541,1.10059],[-1.53956,-0.07583]],[[264.46498,241.413],[1.43123,-0.07571],[-1.09764,0.05807]],[[261.10024,241.67644],[1.13424,-0.07063],[-0.36938,0.33784]]],&quot;closed&quot;:true}]}" fill="#ffffff"/><path d="M223.57567,203.31739c0.00082,2.69202 0.18822,5.95488 -0.81094,8.55153c-0.04607,-0.01534 -0.09375,-0.02989 -0.13981,-0.04525l-0.60469,-0.06082c0,0 -1.27027,0.00073 -1.27027,1.25073c0,0.63951 0.33565,0.95255 0.65523,1.10509c-0.30619,0.37444 -0.63503,0.72985 -0.92159,1.04573c-0.31643,0.34881 -0.6962,0.64435 -0.98923,1.01304c-0.10957,0.13786 -0.15495,0.65305 -0.2088,0.48537c-1.28104,-3.98905 2.27628,-9.22066 3.0881,-13.07413c0.36937,-0.58252 0.36107,-1.50575 0.97047,-1.82885c0.30226,-0.16026 0.36214,0.36544 0.44185,0.83457c-0.21069,0.34145 -0.21033,0.72299 -0.21033,0.72299z" data-paper-data="{&quot;noHover&quot;:false,&quot;origItem&quot;:[&quot;Path&quot;,{&quot;applyMatrix&quot;:true,&quot;segments&quot;:[[[223.76902,202.64142],[-0.21069,0.34145],[-0.07971,-0.46913]],[[223.33151,201.8082],[0.30226,-0.16026],[-0.6094,0.3231]],[[222.36512,203.63794],[0.36937,-0.58252],[-0.81182,3.85347]],[[219.29921,216.6147],[-1.28104,-3.98905],[0.05385,0.16767]],[[219.50755,216.1292],[-0.10957,0.13786],[0.29303,-0.36869]],[[220.49118,215.11497],[-0.31643,0.34881],[0.28656,-0.31588]],[[221.4051,214.06867],[-0.30619,0.37444],[-0.31958,-0.15254]],[[220.75833,212.96429],[0,0.63951],[0,-1.25]],[222.00833,211.71429],[[222.60362,211.77843],[0,0],[0.04607,0.01536]],[[222.74182,211.82447],[-0.04607,-0.01534],[0.99916,-2.59664]],[[223.55833,203.36429],[0.00082,2.69202],[0,0]]],&quot;closed&quot;:true}]}" fill="#ffffff"/><path d="M219.36273,205.16867c-0.68694,1.95489 -1.57186,3.94009 -2.10019,5.91635c-0.30039,0.17333 -0.47541,0.4322 -0.47541,0.4322l0.31697,-0.06768c-0.00184,0.00768 0.03757,0.10647 0.03574,0.11415c-2.09367,0.05227 -5.14916,0.59237 -6.50078,-1.22829c-1.55465,-3.12938 -3.29571,-6.87192 -2.08802,-10.39521c0.62748,-1.83058 4.26363,-4.66371 6.34359,-3.00461c1.75409,1.39916 3.69745,5.97463 4.37718,8.03213c0,0 0.02764,0.08536 0.09092,0.20096z" data-paper-data="{&quot;noHover&quot;:false,&quot;origItem&quot;:[&quot;Path&quot;,{&quot;applyMatrix&quot;:true,&quot;segments&quot;:[[[219.22248,204.95957],[0,0],[-0.67973,-2.0575]],[[214.88669,196.98494],[1.75409,1.39916],[-2.07997,-1.6591]],[[208.59024,199.97123],[0.62748,-1.83058],[-1.20769,3.52329]],[[210.66125,210.29059],[-1.55465,-3.12938],[1.35162,1.82066]],[[217.11925,211.51812],[-2.09367,0.05227],[0.00183,-0.00768]],[[217.12476,211.49507],[-0.00184,0.00768],[0,0]],[216.76827,211.47091],[[217.24018,211.0403],[-0.30039,0.17333],[0.52834,-1.97626]],[[219.31369,205.15896],[-0.68694,1.95489],[-0.06328,-0.1156]]],&quot;closed&quot;:true}]}" fill="#ffffff"/><path d="M244.54353,198.92002c5.5242,-4.55098 12.60071,5.4366 17.17853,7.5953c0.98693,0.46539 4.0014,1.37124 6.0672,1.22106c-0.19192,0.21022 -0.29345,0.44985 -0.49303,0.65255c-1.14225,0.64141 -2.51939,1.59281 -3.84949,1.77324c-1.48227,0.20107 -3.01405,0.13113 -4.50433,0.00215c-5.47908,-0.4742 -16.96488,-2.91412 -14.59526,-10.82023z" data-paper-data="{&quot;noHover&quot;:false,&quot;origItem&quot;:[&quot;Path&quot;,{&quot;applyMatrix&quot;:true,&quot;segments&quot;:[[[244.39355,199.36273],[0,0],[-2.36962,7.90611]],[[258.92059,210.11934],[-5.47908,-0.4742],[1.49027,0.12898]],[[263.40811,210.13043],[-1.48227,0.20107],[1.33011,-0.18043]],[[267.24959,208.3709],[-1.14225,0.64141],[0.19958,-0.20271]],[[267.83695,207.7514],[-0.19192,0.21022],[-2.0658,0.15018]],[[261.67621,206.49537],[0.98693,0.46539],[-4.57782,-2.1587]],[[244.5892,198.94037],[5.5242,-4.55098],[0,0]]],&quot;closed&quot;:true}]}" fill="#382300"/><path d="M224.91182,212.55555c0.49055,-1.32796 0.7678,-2.7374 0.9179,-4.17969c3.28109,1.68782 6.48515,3.69302 9.84819,5.11882c2.55112,1.08158 5.51005,1.30322 8.26454,1.61956c-0.05159,0.01483 -0.00575,0.0529 -0.05714,0.06826c-1.72355,0.51488 -3.11076,1.31541 -4.19032,2.29262c-0.22367,-0.18713 -0.45422,-0.26322 -0.45422,-0.26322c-4.74663,-1.57751 -9.58463,-3.10176 -14.32895,-4.65635z" data-paper-data="{&quot;noHover&quot;:false,&quot;origItem&quot;:[&quot;Path&quot;,{&quot;applyMatrix&quot;:true,&quot;segments&quot;:[[[239.20362,217.17843],[-4.74663,-1.57751],[0,0]],[[239.65732,217.44224],[-0.22367,-0.18713],[1.07955,-0.97721]],[[243.8367,215.17081],[-1.72355,0.51488],[0.05139,-0.01535]],[[243.99116,215.12553],[-0.05159,0.01483],[-2.75449,-0.31634]],[[235.72303,213.51623],[2.55112,1.08158],[-3.36304,-1.4258]],[[225.87398,208.39912],[3.28109,1.68782],[-0.1501,1.44229]],[[224.96178,212.55745],[0.49055,-1.32796],[4.74432,1.55459]]],&quot;closed&quot;:true}]}" fill="#ff0000"/><path d="M242.26913,234.0505c-0.75434,-0.30954 -1.53293,-0.5886 -2.34976,-0.74779c-1.96597,-6.14271 -2.20362,-13.63603 4.56606,-15.75798c-0.4696,0.36166 -0.92075,0.8542 -1.26835,1.29216c-1.34808,1.69848 -0.93136,3.60814 -1.03582,5.59286c-0.16694,3.17179 -0.34239,6.47071 0.08788,9.62075z" data-paper-data="{&quot;noHover&quot;:false,&quot;origItem&quot;:[&quot;Path&quot;,{&quot;applyMatrix&quot;:true,&quot;segments&quot;:[[[242.16148,224.47567],[-0.16694,3.17179],[0.10446,-1.98472]],[[243.22844,218.7882],[-1.34808,1.69848],[0.3476,-0.43795]],[[244.46889,217.59192],[-0.4696,0.36166],[-6.76968,2.12195]],[[239.93025,233.25391],[-1.96597,-6.14271],[0.81683,0.15919]],[[242.26505,234.00067],[-0.75434,-0.30954],[-0.43027,-3.15004]]],&quot;closed&quot;:true}]}" fill="#ff0000"/><path d="M277.33321,236.80832c-0.82731,-0.72387 -2.01755,-1.11808 -2.91336,-1.40736c-1.54105,-0.49765 -3.12928,-0.83372 -4.7294,-1.11564l-0.07134,-1.26704c0.48503,-3.35347 0.79573,-6.42428 0.79573,-9.82933c0,0 0.00649,-1.24104 -1.24351,-1.24104c-1.25,0 -1.17552,1.18327 -1.17552,1.18327c0,3.35158 -0.34068,6.48609 -0.80735,9.78659l-0.00476,0.97259c-2.43052,-0.36542 -4.93104,-0.70124 -7.32617,-1.31787c0.11647,-3.19235 0.57019,-6.43935 0.57145,-9.64868c0,0 0.06032,-1.17026 -1.18968,-1.17026c-1.25,0 -1.24104,1.24084 -1.24104,1.24084c0.0012,2.94291 -0.37976,5.78684 -0.53524,8.71096c-0.37549,-0.07509 -0.97034,-0.05258 -1.33205,0.67084c-0.07755,0.1551 -0.20333,0.35876 -0.22379,0.49235c-1.32053,-0.11264 -2.63974,-0.17752 -3.16718,0.24399c-1.11831,0.89369 -1.32819,2.01631 -1.02897,3.14281c-0.66799,-0.1235 -1.4222,-0.16353 -2.09492,-0.25688c0.00011,-0.00473 0.0001,-0.00722 0.0001,-0.00722c0,-4.89153 -0.01571,-9.48581 1.89189,-13.94684c1.00427,-2.34855 1.07523,-3.52864 3.55978,-4.56888l0.19758,-0.04442c2.30136,0.39299 4.48849,0.664 6.23657,0.93076c1.90082,0.00408 3.8689,0.12684 5.80768,0.19503c-0.01805,0.03884 -0.03519,0.07976 -0.05135,0.12286c-0.4389,1.17041 0.73866,1.61325 0.73866,1.61325c2.62512,0.88811 3.39386,3.73681 4.55484,6.04892c1.15809,2.30635 2.88541,4.37517 3.95774,6.74649c0.51256,1.13346 0.70645,2.42306 0.82359,3.71991z" data-paper-data="{&quot;noHover&quot;:false,&quot;origItem&quot;:[&quot;Path&quot;,{&quot;applyMatrix&quot;:true,&quot;segments&quot;:[[[276.46415,233.06761],[0.51256,1.13346],[-1.07233,-2.37132]],[[272.50206,226.34622],[1.15809,2.30635],[-1.16098,-2.31211]],[[267.96943,220.3347],[2.62512,0.88811],[0,0]],[[267.23792,218.72538],[-0.4389,1.17041],[0.01616,-0.0431]],[[267.28929,218.60253],[-0.01805,0.03884],[-1.93878,-0.06819]],[[261.51302,218.41065],[1.90082,0.00408],[-1.74808,-0.26676]],[[255.29778,217.46926],[2.30136,0.39299],[0,0]],[[255.10073,217.51322],[0,0],[-2.48455,1.04024]],[[251.55413,222.06393],[1.00427,-2.34855],[-1.9076,4.46103]],[[249.65833,235.96429],[0,-4.89153],[0,0]],[[249.65822,235.97149],[0.00011,-0.00473],[0.67271,0.09335]],[[251.67153,236.28599],[-0.66799,-0.1235],[-0.29922,-1.1265]],[[252.69634,233.13688],[-1.11831,0.89369],[0.52744,-0.4215]],[[255.94701,232.83831],[-1.32053,-0.11264],[0.02046,-0.13359]],[[256.0903,232.40527],[-0.07755,0.1551],[0.36171,-0.72342]],[[257.42325,231.73565],[-0.37549,-0.07509],[0.15548,-2.92412]],[[257.95833,222.96429],[0.0012,2.94291],[0,0]],[[259.20833,221.71429],[-1.25,0],[1.25,0]],[[260.45833,222.96429],[0,0],[-0.00125,3.20933]],[[259.88519,232.53083],[0.11647,-3.19235],[2.39513,0.61663]],[[267.15967,233.84651],[-2.43052,-0.36542],[0,0]],[[267.16148,232.87567],[0,0],[0.46667,-3.30049]],[[267.95833,223.16429],[0,3.35158],[0,0]],[[269.20833,221.91429],[-1.25,0],[1.25,0]],[[270.45833,223.16429],[0,0],[0,3.40505]],[[269.65519,233.0529],[0.48503,-3.35347],[0,0]],[[269.65767,234.24757],[0,0],[1.60012,0.28192]],[[274.37997,235.37081],[-1.54105,-0.49765],[0.89581,0.28928]],[[277.29222,236.77968],[-0.82731,-0.72387],[-0.11714,-1.29685]]],&quot;closed&quot;:true}]}" fill="#ff0000"/><path d="M254.37677,172.97818c-0.11399,-0.01859 -0.19041,-0.01899 -0.19041,-0.01899l-0.80315,-0.00168c-4.01328,0 -8.01575,-0.22092 -12.01962,-0.22092c-2.47922,0 -4.97876,0.13204 -7.43668,-0.19517c-0.80649,-0.10737 -1.77111,0.13601 -2.41477,-0.36165c-1.34066,-1.03655 -0.53633,-4.03581 0.69974,-4.74361c3.32399,-1.9034 10.30721,-0.69132 13.89003,-0.24326c0,0 1.14248,0.17531 1.29752,-1.06504c0.15504,-1.24035 -1.08599,-1.40181 -1.08599,-1.40181c-0.07569,-0.00946 -0.15265,-0.01934 -0.23084,-0.0293c0.25369,-2.21086 0.79002,-4.62794 1.78962,-6.57726c1.26955,-2.47576 4.27233,-3.62133 6.793,-4.18256c5.52345,-1.22981 10.15099,0.13734 15.5055,0.81495c4.65423,1.56916 11.56407,3.5221 14.43416,7.88238c1.92512,2.92465 1.49994,7.93489 1.41366,11.56681c-4.45987,0.55425 -8.9336,1.05366 -13.42511,0.55156c-5.88202,-0.65754 -12.29088,-2.60955 -18.18288,-1.78042c0,0 -0.0122,0.00166 -0.03378,0.00596z" data-paper-data="{&quot;noHover&quot;:false,&quot;origItem&quot;:[&quot;Path&quot;,{&quot;applyMatrix&quot;:true,&quot;segments&quot;:[[[254.43156,172.92685],[0,0],[5.892,-0.82914]],[[272.55335,174.72273],[-5.88202,-0.65754],[4.49151,0.5021]],[[285.97153,174.18403],[-4.45987,0.55425],[0.08628,-3.63192]],[[284.55496,162.63728],[1.92512,2.92465],[-2.8701,-4.36027]],[[270.13182,154.78332],[4.65423,1.56916],[-5.35452,-0.67761]],[[254.68257,153.98383],[5.52345,-1.22981],[-2.52068,0.56123]],[[247.91556,158.14442],[1.26955,-2.47576],[-0.9996,1.94932]],[[246.13255,164.6948],[0.25369,-2.21086],[0.07818,0.00996]],[[246.36338,164.72394],[-0.07569,-0.00946],[0,0]],[[247.44868,166.11933],[0.15504,-1.24035],[-0.15504,1.24035]],[[246.05329,167.20463],[0,0],[-3.58282,-0.44807]],[[232.2615,167.43006],[3.32399,-1.9034],[-1.23607,0.7078]],[[231.56008,172.1656],[-1.34066,-1.03655],[0.64366,0.49765]],[[233.97425,172.52535],[-0.80649,-0.10737],[2.45793,0.32721]],[[241.40833,172.71429],[-2.47922,0],[4.00387,0]],[[253.40833,172.91429],[-4.01328,0],[0,0]],[254.20833,172.91429],[[254.39791,172.93287],[-0.11399,-0.01859],[0.02158,-0.0043]]],&quot;closed&quot;:true}]}" fill="#ff0000"/></g></g></svg>