<svg version="1.1" xmlns="http://www.w3.org/2000/svg" xmlns:xlink="http://www.w3.org/1999/xlink" width="92.26232" height="100.42399" viewBox="0,0,92.26232,100.42399"><g transform="translate(-201.92575,-164.81485)"><g data-paper-data="{&quot;isPaintingLayer&quot;:true}" fill-rule="nonzero" stroke="none" stroke-width="0.5" stroke-linecap="butt" stroke-linejoin="miter" stroke-miterlimit="10" stroke-dasharray="" stroke-dashoffset="0" style="mix-blend-mode: normal"><path d="M284.76735,263.68232c-1.11803,0.55902 -1.67705,-0.55902 -1.67705,-0.55902l-0.26782,-0.56373c-0.6007,-1.80276 -0.98033,-3.95645 -1.92137,-5.61515c-2.01852,-3.5579 -5.62822,-4.58578 -9.38383,-4.71543c-5.17384,2.48616 -11.36138,3.3853 -16.71196,3.38529c-7.89453,-0.03802 -17.88417,-1.10106 -25.74538,-4.76612c-0.02795,1.06004 -1.13843,1.161 -1.13843,1.161c-4.36397,0.3959 -8.66279,1.93747 -10.77753,6.07745c-0.75181,1.47181 -0.48658,3.50217 -0.48564,5.07768l0.26803,0.24098c0,0 0.55902,1.11803 -0.55902,1.67705c-1.11803,0.55902 -1.67705,-0.55902 -1.67705,-0.55902l-0.53197,-1.35902c0.00114,-2.00606 -0.20357,-4.25642 0.71436,-6.12232c2.30033,-4.67595 6.94773,-6.77333 11.82782,-7.41237c-1.41715,-0.81035 -2.73969,-1.72271 -3.93768,-2.74827c-4.39709,-3.76421 -7.24741,-8.88233 -9.17547,-14.24918c-0.19584,-2.36322 -0.13512,-4.96252 0.69901,-7.27052c-2.24701,-1.0484 -4.50629,-2.19994 -6.32097,-3.87431c-5.56203,-5.13197 -8.01427,-13.76406 -4.1909,-20.42567l0.85774,-1.07822c0,0 0.78087,-0.97609 1.75695,-0.19522c0.97609,0.78087 0.19522,1.75695 0.19522,1.75695l-0.74226,0.92178c-4.93067,8.67349 2.20464,16.6685 9.61696,20.62944c1.7824,-2.46261 4.74347,-3.6391 7.49039,-4.69483c6.31949,-2.42878 11.56293,-3.18175 17.7972,-2.68502c-0.23743,-0.07861 -0.47402,-0.16026 -0.70973,-0.24505c-9.94987,-3.5793 -19.39132,-13.32764 -20.87813,-23.87106c0.2577,-3.23108 0.31107,-6.44648 1.57846,-9.48289c3.69001,-8.84057 14.57122,-18.43585 24.62606,-17.19359c0,0 1.24035,0.15504 1.0853,1.39539c-0.15504,1.24035 -1.39539,1.0853 -1.39539,1.0853c-1.08409,-0.13724 -2.18127,-0.1245 -3.27821,0.01772c2.84119,0.73733 5.57856,1.57204 8.28525,2.77652c7.42704,2.46572 15.81567,2.80518 22.96882,5.98659c3.88669,1.72863 6.74291,4.3652 9.69529,7.32717c2.18463,2.19172 4.07279,4.7235 5.07917,7.68466c3.06371,9.3776 -1.09013,22.24492 -11.02551,25.56105c-1.27751,0.42639 -2.61565,0.7123 -3.98909,0.89982c2.44205,1.37272 4.56238,3.26371 6.19134,5.82661c3.22801,-1.58607 7.74766,-3.73059 9.83004,-6.47323c1.4844,-1.95506 1.74121,-4.99408 2.14688,-7.33419c0.38419,-2.21623 1.23266,-4.32668 0.4652,-6.51778l-0.06415,-0.79528c0,0 0,-1.25 1.25,-1.25c1.25,0 1.25,1.25 1.25,1.25l-0.06415,0.00472c0.86737,2.70093 0.0999,5.021 -0.37452,7.74036c-0.48886,2.80217 -0.8642,6.05381 -2.6134,8.40767c-2.26341,3.04581 -7.08204,5.40421 -10.62478,7.16021c1.06687,2.22269 1.83475,4.64332 2.0709,7.09835c0.23538,2.44698 0.22624,5.60944 -0.45775,7.98262c-1.17835,4.08845 -3.62032,7.14515 -6.74016,9.38782c3.29375,0.70416 6.17911,2.3626 8.06108,5.63813c1.01613,1.76856 1.43747,4.0621 2.07863,5.98485l0.13218,0.23627c0,0 0.55902,1.11803 -0.55902,1.67705zM270.60833,249.71429c0.13842,0.00015 0.2766,0.00132 0.41452,0.00355c3.91055,-2.02504 7.07314,-5.12815 8.39917,-9.74747c0.58797,-2.04825 0.5369,-4.85774 0.3415,-6.95911c-0.24142,-2.59627 -1.18758,-5.19012 -2.44789,-7.43992c-2.24457,-4.07502 -5.88937,-6.37949 -10.14081,-7.58789c-2.47868,0.0004 -4.96217,-0.1276 -7.31649,-0.16119v0.74203c0,4.47208 0.4,8.90984 0.4,13.4c0,1.57751 0.61672,5.02645 -0.45785,6.36036c-0.87965,1.09195 -3.89887,1.44466 -5.15785,2.01177c-0.99664,0.29954 -3.99826,1.33833 -4.95212,0.96557c-0.97377,-0.38053 -1.68116,-2.86343 -2.15012,-3.68809c-1.30303,-2.29133 -3.91333,-3.84504 -3.77269,-6.80234c0.0502,-1.05554 0.89167,-1.91768 1.27626,-2.90195c1.36164,-3.48478 2.88913,-7.06804 4.53406,-10.46149c-0.21714,-0.0202 -0.43413,-0.04159 -0.65093,-0.06425c-1.22244,0.14016 -2.41156,0.29549 -3.55108,0.45215c-0.31526,0.91273 -1.34446,0.7657 -1.34446,0.7657c-0.4804,-0.06879 -0.95283,-0.13122 -1.41819,-0.18711c-0.20611,0.04533 -0.44456,0.04028 -0.69408,-0.07904c-6.4776,-0.69634 -11.63658,-0.06895 -18.05212,2.39146c-2.78307,1.06733 -4.86257,2.34602 -6.18767,4.12241c0.01113,0.18613 -0.02548,0.39874 -0.13621,0.63867c-0.1722,0.37311 -0.41046,0.56695 -0.65272,0.65907c-0.76947,1.58809 -1.06481,3.52469 -0.86126,5.94926c1.78441,4.83668 4.38853,9.48091 8.36006,12.88635c7.59868,6.51558 20.82269,8.08523 30.42198,8.13151c4.59861,-0.00001 10.00155,-0.67197 14.62983,-2.65137c0.27902,-0.74863 1.16716,-0.74863 1.16716,-0.74863zM248.94231,225.29022c-0.65549,1.3869 -2.52586,4.25914 -2.69334,5.82679c-0.18186,1.70222 2.64663,3.83725 3.42731,5.19766c0.48247,0.84075 0.11048,2.47283 1.04988,2.71191c1.03973,0.26461 2.02007,-0.72673 3.04788,-1.03443c0.2123,-0.0932 3.86605,-0.96256 4.04215,-1.18823c0.43189,-0.55345 -0.05785,-4.06429 -0.05785,-4.83964c0,-4.49069 -0.4,-8.92639 -0.4,-13.4l0,-0.76754c-1.6869,-0.02371 -3.38957,-0.06249 -5.09157,-0.15412c-1.23465,2.48481 -2.1355,5.13199 -3.32445,7.6476zM238.95833,168.36429c0,-0.1139 0.01038,-0.21743 0.02925,-0.31152c-6.94244,2.21932 -13.41376,9.01035 -15.94429,15.03041c-1.13169,2.69225 -1.12859,5.57966 -1.38548,8.44497c1.37445,9.4746 10.3203,18.40191 19.22382,21.59033c2.61623,0.93689 5.34968,1.46266 8.11855,1.7636c5.9813,-0.63819 12.55438,-0.8688 18.28035,0.61142c3.03014,-0.009 6.04119,-0.23483 8.75802,-1.12327c8.54347,-2.79384 12.1059,-14.43118 9.39335,-22.38237c-0.83978,-2.58237 -2.57895,-4.81768 -4.47523,-6.70746c-2.75176,-2.74233 -5.33496,-5.1968 -8.9457,-6.81167c-7.08546,-3.16891 -15.48677,-3.47409 -22.85465,-5.93903c-2.95153,-1.31019 -5.92395,-2.17129 -9.05116,-2.95274l0.10317,0.03732c0,0 -1.25,0 -1.25,-1.25z" fill="#000000"/><path d="M252.26746,217.59263c1.702,0.09163 3.42621,0.13562 5.11311,0.15933l0.00137,0.76825c0,4.47361 0.41853,8.98033 0.41853,13.47102c0,0.77535 0.47559,4.3007 0.04369,4.85415c-0.17611,0.22568 -3.84934,1.10286 -4.06165,1.19606c-1.02781,0.30769 -2.02308,1.29935 -3.06281,1.03473c-0.9394,-0.23908 -0.5756,-1.87294 -1.05807,-2.71369c-0.78069,-1.36042 -3.63975,-3.52197 -3.45789,-5.22418c0.16748,-1.56766 2.04713,-4.49591 2.70262,-5.88281c1.18895,-2.51561 2.12647,-5.17805 3.36111,-7.66286z" data-paper-data="{&quot;noHover&quot;:false,&quot;origItem&quot;:[&quot;Path&quot;,{&quot;applyMatrix&quot;:true,&quot;segments&quot;:[[[248.94231,225.29022],[1.18895,-2.51561],[-0.65549,1.3869]],[[246.24897,231.11701],[0.16748,-1.56766],[-0.18186,1.70222]],[[249.67628,236.31468],[-0.78069,-1.36042],[0.48247,0.84075]],[[250.72616,239.02659],[-0.9394,-0.23908],[1.03973,0.26461]],[[253.77403,237.99216],[-1.02781,0.30769],[0.2123,-0.0932]],[[257.81619,236.80393],[-0.17611,0.22568],[0.43189,-0.55345]],[[257.75833,231.96429],[0,0.77535],[0,-4.49069]],[[257.35833,218.56429],[0,4.47361],[0,0]],[[257.35833,217.79674],[0,0],[-1.6869,-0.02371]],[[252.26676,217.64262],[1.702,0.09163],[-1.23465,2.48481]]],&quot;closed&quot;:true}]}" fill="#ff0000"/><path d="M240.18192,169.57183l-0.10328,-0.03725c3.12722,0.78145 6.11397,1.63644 9.0655,2.94663c7.36788,2.46495 15.8216,2.78892 22.90706,5.95783c3.61074,1.61487 6.20233,4.08734 8.95409,6.82966c1.89627,1.88978 3.63684,4.13714 4.47661,6.71951c2.71255,7.95119 -0.86497,19.62398 -9.40844,22.41782c-2.71684,0.88844 -5.73836,1.12211 -8.7685,1.13111c-5.72597,-1.48022 -12.33404,-1.24436 -18.31534,-0.60617c-2.76887,-0.30094 -5.51793,-0.83297 -8.13416,-1.76987c-8.90352,-3.18842 -17.8732,-12.15871 -19.24766,-21.63331c0.25689,-2.86531 0.25565,-5.76586 1.38734,-8.45811c2.53054,-6.02006 9.02327,-12.83983 15.9657,-15.05915c-0.01887,0.09409 0.0245,0.28194 0.0245,0.39584c0,1.25 1.19657,1.16547 1.19657,1.16547z" data-paper-data="{&quot;noHover&quot;:false,&quot;origItem&quot;:[&quot;Path&quot;,{&quot;applyMatrix&quot;:true,&quot;segments&quot;:[[[238.95833,168.36429],[0,1.25],[0,-0.1139]],[[238.98758,168.05277],[-0.01887,0.09409],[-6.94244,2.21932]],[[223.04329,183.08318],[2.53054,-6.02006],[-1.13169,2.69225]],[[221.65781,191.52815],[0.25689,-2.86531],[1.37445,9.4746]],[[240.88164,213.11848],[-8.90352,-3.18842],[2.61623,0.93689]],[[249.00019,214.88208],[-2.76887,-0.30094],[5.9813,-0.63819]],[[267.28053,215.49351],[-5.72597,-1.48022],[3.03014,-0.009]],[[276.03856,214.37023],[-2.71684,0.88844],[8.54347,-2.79384]],[[285.43191,191.98786],[2.71255,7.95119],[-0.83978,-2.58237]],[[280.95668,185.2804],[1.89627,1.88978],[-2.75176,-2.74233]],[[272.01098,178.46873],[3.61074,1.61487],[-7.08546,-3.16891]],[[249.15633,172.5297],[7.36788,2.46495],[-2.95153,-1.31019]],[[240.10516,169.57696],[3.12722,0.78145],[0,0]],[240.20833,169.61429]],&quot;closed&quot;:true}]}" fill="#b76a00"/><path d="M269.48199,250.49179c-4.62828,1.97941 -10.05407,2.66915 -14.65268,2.66916c-9.5993,-0.04628 -22.88748,-1.64349 -30.48616,-8.15906c-3.97153,-3.40544 -6.5792,-8.07369 -8.36361,-12.91037c-0.20354,-2.42457 0.09357,-4.37033 0.86304,-5.95841c0.24226,-0.09212 0.48089,-0.28718 0.65309,-0.66029c0.11073,-0.23992 0.14766,-0.4535 0.13653,-0.63963c1.3251,-1.77639 3.40907,-3.06466 6.19214,-4.13199c6.41554,-2.46041 11.60059,-3.10907 18.07819,-2.41273c0.24952,0.11932 0.48966,0.1238 0.69577,0.07847c0.46536,0.05589 0.94144,0.11732 1.42185,0.18611c0,0 1.03334,0.14624 1.3486,-0.76649c1.13952,-0.15666 2.33868,-0.31244 3.56112,-0.4526c0.2168,0.02266 0.4264,0.14376 0.64354,0.16396c-1.64493,3.39345 -3.1495,6.97345 -4.51115,10.45823c-0.38459,0.98426 -1.21015,1.83634 -1.26035,2.89188c-0.14065,2.9573 2.44361,4.42521 3.74664,6.71655c0.46897,0.82466 1.15424,3.30887 2.12801,3.68941c0.95387,0.37275 3.92959,-0.64822 4.92623,-0.94776c1.25897,-0.56711 4.26963,-0.90215 5.14929,-1.9941c1.07457,-1.33391 0.45794,-4.75743 0.45794,-6.33494c0,-4.49016 -0.38076,-8.90012 -0.38076,-13.3722l0.05731,-0.82396c2.35432,0.03359 4.84678,0.16946 7.32547,0.16906c4.25145,1.2084 7.90651,3.53062 10.15109,7.60564c1.26031,2.2498 2.20886,4.85577 2.45028,7.45205c0.1954,2.10136 0.24605,4.92178 -0.34193,6.97003c-1.32603,4.61932 -4.4957,7.74157 -8.40625,9.76661c-0.13792,-0.00224 -0.27632,-0.00306 -0.41474,-0.00321c0,0 -0.88947,0.00198 -1.16849,0.75061z" data-paper-data="{&quot;noHover&quot;:false,&quot;origItem&quot;:[&quot;Path&quot;,{&quot;applyMatrix&quot;:true,&quot;segments&quot;:[[[270.60833,249.71429],[0,0],[0.13842,0.00015]],[[271.02285,249.71784],[-0.13792,-0.00224],[3.91055,-2.02504]],[[279.42203,239.97037],[-1.32603,4.61932],[0.58797,-2.04825]],[[279.76353,233.01126],[0.1954,2.10136],[-0.24142,-2.59627]],[[277.31564,225.57134],[1.26031,2.2498],[-2.24457,-4.07502]],[[267.17482,217.98345],[4.25145,1.2084],[-2.47868,0.0004]],[[259.85833,217.82226],[2.35432,0.03359],[0,0]],[[259.85833,218.56429],[0,0],[0,4.47208]],[[260.25833,231.96429],[0,-4.49016],[0,1.57751]],[[259.80048,238.32464],[1.07457,-1.33391],[-0.87965,1.09195]],[[254.64263,240.33641],[1.25897,-0.56711],[-0.99664,0.29954]],[[249.69051,241.30199],[0.95387,0.37275],[-0.97377,-0.38053]],[[247.54039,237.61389],[0.46897,0.82466],[-1.30303,-2.29133]],[[243.7677,230.81156],[-0.14065,2.9573],[0.0502,-1.05554]],[[245.04396,227.90961],[-0.38459,0.98426],[1.36164,-3.48478]],[[249.57802,217.44812],[-1.64493,3.39345],[-0.21714,-0.0202]],[[248.92709,217.38387],[0.2168,0.02266],[-1.22244,0.14016]],[[245.37601,217.83602],[1.13952,-0.15666],[-0.31526,0.91273]],[[244.03156,218.60173],[0,0],[-0.4804,-0.06879]],[[242.61337,218.41461],[0.46536,0.05589],[-0.20611,0.04533]],[[241.91929,218.33558],[0.24952,0.11932],[-6.4776,-0.69634]],[[223.86716,220.72703],[6.41554,-2.46041],[-2.78307,1.06733]],[[217.67949,224.84944],[1.3251,-1.77639],[0.01113,0.18613]],[[217.54328,225.48811],[0.11073,-0.23992],[-0.1722,0.37311]],[[216.89056,226.14717],[0.24226,-0.09212],[-0.76947,1.58809]],[[216.0293,232.09644],[-0.20354,-2.42457],[1.78441,4.83668]],[[224.38936,244.98279],[-3.97153,-3.40544],[7.59868,6.51558]],[[254.81135,253.11429],[-9.5993,-0.04628],[4.59861,-0.00001]],[[269.44117,250.46292],[-4.62828,1.97941],[0.27902,-0.74863]]],&quot;closed&quot;:true}]}" fill="#b76a00"/><path d="M250.55501,186.78047c-4.23604,-0.3062 -8.70576,0.1947 -12.04994,2.42163c-2.84319,1.89331 -6.63321,6.54499 -4.59299,10.17546c0.84246,1.49912 1.80174,1.94031 3.1617,2.90277c6.83266,3.4404 14.7977,4.41621 22.43539,4.56495c2.9618,0.05768 6.00493,0.31762 8.93029,-0.26054c4.27139,-0.84419 8.51521,-2.86263 9.94798,-7.0886c0.54643,-5.06223 -2.6731,-7.24219 -7.24231,-8.62139c-5.75875,-1.73826 -11.96317,-1.82281 -17.9027,-2.67152l-1.58913,-0.19859c0,0 -1.12412,-0.14052 -1.09828,-1.22416zM257.45942,186.15102c9.96366,0.91165 24.75085,1.72968 23.36981,13.88142c-1.73809,5.28066 -6.56419,7.93751 -11.90227,9.0043c-3.10774,0.62107 -6.31952,0.37046 -9.46692,0.30805c-8.10147,-0.16065 -16.44019,-1.25375 -23.67927,-4.9248c-1.81729,-1.30262 -2.94474,-1.81136 -4.07618,-3.86897c-2.67243,-4.85999 1.4251,-10.76744 5.40701,-13.42454c5.41432,-3.61295 13.24781,-3.3339 19.3679,-1.98242c0,0 0.88373,0.19638 0.97993,1.00697z" fill="#000000"/><path d="M266.81829,190.85036c0.55628,0.18593 1.1124,0.37231 1.6684,0.55908c5.84779,2.98239 4.0939,10.82075 -2.28169,11.98928c-4.17578,0.76534 -7.9856,-2.82569 -7.4266,-6.85746c0.45945,-3.31378 3.55247,-5.80913 6.52677,-6.58965c0,0 1.20549,-0.30137 1.51312,0.89875z" fill="#000000"/><path d="M250.50444,189.10545c1.76546,0.23687 3.97307,0.69918 4.72924,1.94387c1.51333,2.491 -0.34345,5.80975 -1.61286,7.84802c-1.2096,1.43963 -2.35851,2.41951 -4.08655,3.20091c-1.2306,0.55646 -2.63915,0.77846 -3.9882,0.71448c-9.31051,-0.44156 -9.10207,-12.9805 -0.33796,-14.48231c1.04835,-0.17964 3.31678,0.09896 4.3134,0.18899c0,0 0.67098,0.061 0.98294,0.58603z" fill="#000000"/><path d="M232.75833,175.56429c0,-0.69036 0.55964,-1.25 1.25,-1.25c0.69036,0 1.25,0.55964 1.25,1.25c0,0.69036 -0.55964,1.25 -1.25,1.25c-0.69036,0 -1.25,-0.55964 -1.25,-1.25z" fill="#000000"/><path d="M276.95833,186.96429c0,-0.69036 0.55964,-1.25 1.25,-1.25c0.69036,0 1.25,0.55964 1.25,1.25c0,0.69036 -0.55964,1.25 -1.25,1.25c-0.69036,0 -1.25,-0.55964 -1.25,-1.25z" fill="#000000"/><path d="M259.55833,211.56429c0,-0.69036 0.55964,-1.25 1.25,-1.25c0.69036,0 1.25,0.55964 1.25,1.25c0,0.69036 -0.55964,1.25 -1.25,1.25c-0.69036,0 -1.25,-0.55964 -1.25,-1.25z" fill="#000000"/></g></g></svg>